<svg width="113" height="21" viewBox="0 0 113 21" fill="none" xmlns="http://www.w3.org/2000/svg">
<path d="M16.0104 4.03354C14.4623 1.60957 11.7532 0.000385284 8.67739 0.000385284C3.89056 0.000385284 0 3.89095 0 8.67778C0 13.4646 3.89056 17.3552 8.67739 17.3552C9.75697 17.3552 10.7958 17.1515 11.7532 16.7848C10.8977 15.4404 10.4088 13.8516 10.4088 12.1406C10.4088 8.45371 12.7513 5.27607 16.0104 4.03354Z" fill="#FFB500"/>
<path d="M19.1065 3.4846C18.0269 3.4846 16.988 3.68829 16.0307 4.05494C16.8862 5.39933 17.3751 6.98814 17.3751 8.69918C17.3751 12.4064 15.053 15.5841 11.7735 16.8266C13.3215 19.2506 16.0307 20.8597 19.1065 20.8597C23.8933 20.8597 27.7839 16.9692 27.7839 12.1824C27.7839 7.37516 23.8933 3.4846 19.1065 3.4846Z" fill="#0048FF"/>
<path d="M52.7177 16.7026C52.7177 17.6396 52.0863 18.2507 51.1697 18.2507C50.253 18.2507 49.6216 17.6599 49.6216 16.7026V9.89918L46.9532 15.2563C46.5865 15.9896 45.9958 16.4174 45.2014 16.4174C44.3459 16.4174 43.7756 15.9896 43.4293 15.2563L40.7812 9.89918V16.7026C40.7812 17.6396 40.1498 18.2507 39.2332 18.2507C38.3165 18.2507 37.6851 17.6599 37.6851 16.7026V4.13461C37.6851 3.19762 38.3165 2.58653 39.2332 2.58653C39.9665 2.58653 40.4961 3.03467 40.7812 3.68649L45.2218 12.3639L49.6216 3.68649C49.9475 3.05504 50.3753 2.58653 51.19 2.58653C52.1067 2.58653 52.7381 3.17725 52.7381 4.13461V16.7026H52.7177Z" fill="black"/>
<path d="M70.8262 10.4094C70.8262 15.6851 67.3023 18.3942 63.4932 18.3942C59.6434 18.3942 56.0991 15.6851 56.0991 10.4094C56.0991 5.13373 59.6434 2.46533 63.4932 2.46533C67.3023 2.46533 70.8262 5.13373 70.8262 10.4094ZM59.3175 10.4094C59.3175 13.5667 61.2119 15.5221 63.4729 15.5221C65.6931 15.5221 67.5875 13.5871 67.5875 10.4094C67.5875 7.25215 65.6931 5.33742 63.4729 5.33742C61.2119 5.33742 59.3175 7.25215 59.3175 10.4094Z" fill="black"/>
<path d="M78.974 5.70419V15.1556H79.8702C80.6443 15.1556 81.1128 15.8482 81.1128 16.5815C81.1128 17.3148 80.6646 18.0073 79.8702 18.0073H74.8186C74.0445 18.0073 73.576 17.3148 73.576 16.5815C73.576 15.8482 74.0242 15.1556 74.8186 15.1556H75.7148V5.70419H74.8186C74.0445 5.70419 73.576 5.01163 73.576 4.27832C73.576 3.54502 74.0242 2.85246 74.8186 2.85246H79.8702C80.6443 2.85246 81.1128 3.54502 81.1128 4.27832C81.1128 5.01163 80.6646 5.70419 79.8702 5.70419H78.974Z" fill="black"/>
<path d="M88.6088 15.1149H95.3104C96.0844 15.1149 96.614 15.8482 96.614 16.5611C96.614 17.3148 96.0844 18.0073 95.3104 18.0073H85.5738C84.6572 18.0073 84.0868 17.3148 84.0868 16.5611C84.0868 15.95 84.3109 15.5426 84.6368 15.1352L91.8272 5.74492H85.5738C84.7998 5.74492 84.2702 5.01163 84.2702 4.2987C84.2702 3.54503 84.7998 2.85246 85.5738 2.85246H94.903C95.7789 2.85246 96.3492 3.46354 96.3492 4.31906C96.3492 4.86904 96.0844 5.39865 95.8196 5.72456L88.6088 15.1149Z" fill="black"/>
<path d="M108.937 15.1341H102.928L102.134 17.1914C101.788 18.0673 100.871 18.4543 99.9341 18.1284C99.0785 17.8433 98.6508 16.9266 98.9563 16.2137L104.191 3.7476C104.497 2.99393 105.149 2.58653 105.943 2.58653C106.799 2.58653 107.41 3.01429 107.715 3.7476L112.909 16.2137C113.195 16.947 112.787 17.8229 111.952 18.1284C111.035 18.4543 110.119 18.047 109.773 17.1914L108.937 15.1341ZM104.049 12.3028H107.797L105.923 7.57705L104.049 12.3028Z" fill="black"/>
</svg>
