<svg width="88" height="21" viewBox="0 0 88 21" fill="none" xmlns="http://www.w3.org/2000/svg">
<path d="M35.8525 13.5301H40.6217V12.02C40.6217 11.2146 41.2493 10.8522 42.086 10.8522C42.9227 10.8522 43.5502 11.2348 43.5502 12.02V13.5301H48.3194C49.0097 13.5301 49.5744 14.0535 49.5744 14.6978C49.5744 15.322 49.0306 15.8656 48.3194 15.8656H35.8525C35.1832 15.8656 34.6184 15.322 34.6184 14.6978C34.6184 14.0737 35.1832 13.5301 35.8525 13.5301ZM36.3127 10.4495C35.6852 10.4495 35.1832 9.9663 35.1832 9.36227V3.2012C35.1832 2.59717 35.6852 2.11395 36.3127 2.11395H47.8801C48.5076 2.11395 49.0097 2.59717 49.0097 3.2012V9.36227C49.0097 9.9663 48.5076 10.4495 47.8801 10.4495H36.3127ZM38.0907 8.13409H46.123V4.44952H38.0907V8.13409Z" fill="white"/>
<path d="M53.6324 5.53676C53.6324 3.38239 55.6405 1.973 58.046 1.973C60.4516 1.973 62.4806 3.38239 62.4806 5.53676V12.322C62.4806 14.4764 60.4516 15.8656 58.046 15.8656C55.6405 15.8656 53.6324 14.4764 53.6324 12.322V5.53676ZM56.54 12.181C56.54 13.0468 57.2512 13.5703 58.0879 13.5703C58.9246 13.5703 59.6149 13.0468 59.6149 12.181V5.69783C59.6149 4.83206 58.9246 4.28843 58.0879 4.28843C57.2512 4.28843 56.54 4.83206 56.54 5.69783V12.181ZM64.8233 2.97971C64.8233 2.17434 65.4718 1.57031 66.2875 1.57031C67.1033 1.57031 67.7518 2.17434 67.7518 2.97971V15.02C67.7518 15.8253 67.1033 16.4294 66.2875 16.4294C65.4718 16.4294 64.8233 15.8253 64.8233 15.02V2.97971Z" fill="white"/>
<path d="M72.5 13.4294C74.5709 11.6374 75.5958 9.26159 75.5958 5.1542V4.50991H73.3786C72.7301 4.50991 72.1863 3.98642 72.1863 3.36226C72.1863 2.69783 72.7301 2.19447 73.3786 2.19447H80.7206C81.4318 2.19447 81.9338 2.71796 81.9338 3.36226C81.9338 3.98642 81.4318 4.50991 80.7206 4.50991H78.5243V5.1542C78.5243 9.26159 79.5074 11.577 81.5992 13.369C81.892 13.6106 82.1012 13.973 82.1012 14.4159C82.1012 15.1609 81.5364 15.7045 80.7206 15.7045C80.3441 15.7045 79.9676 15.6039 79.7375 15.3824C78.5243 14.2951 77.6248 13.1274 77.0601 11.4965C76.4953 13.1676 75.6167 14.3555 74.4035 15.4629C74.1734 15.6643 73.776 15.7851 73.4204 15.7851C72.6046 15.7851 72.0399 15.2414 72.0399 14.4965C72.0189 14.0535 72.2072 13.6911 72.5 13.4294ZM83.0634 2.97971C83.0634 2.17434 83.7118 1.57031 84.5276 1.57031C85.3434 1.57031 85.9918 2.17434 85.9918 2.97971V7.28843H86.7867C87.4561 7.28843 87.9999 7.81192 87.9999 8.45622C87.9999 9.10051 87.4561 9.624 86.7867 9.624H85.9918V14.9998C85.9918 15.8052 85.3434 16.4092 84.5276 16.4092C83.7118 16.4092 83.0634 15.8052 83.0634 14.9998V2.97971Z" fill="white"/>
<path d="M9.35013 10.5101C9.35013 11.9799 9.7894 13.3691 10.5633 14.5168C13.4918 13.4497 15.5835 10.7114 15.5835 7.51007C15.5835 6.04027 15.1443 4.65101 14.3703 3.50336C11.4419 4.57047 9.35013 7.28859 9.35013 10.5101Z" fill="white"/>
<path d="M9.35013 10.5101C9.35013 7.30872 11.4419 4.57047 14.3703 3.50336C12.9898 1.38926 10.5633 0 7.80223 0C3.49322 0 0 3.36242 0 7.51007C0 11.6577 3.49322 15.0201 7.80223 15.0201C8.78536 15.0201 9.70573 14.8389 10.5633 14.5369C9.7894 13.349 9.35013 11.9799 9.35013 10.5101Z" fill="#FFB500"/>
<path d="M17.1524 3C16.1692 3 15.2489 3.18121 14.3912 3.48322C15.1652 4.65101 15.6045 6.02013 15.6045 7.48993C15.6045 10.6913 13.5127 13.4295 10.5843 14.4966C11.9439 16.6107 14.3703 18 17.1524 18C21.4614 18 24.9546 14.6376 24.9546 10.4899C24.9337 6.36242 21.4614 3 17.1524 3Z" fill="#0048FF"/>
</svg>