<svg width="20" height="20" viewBox="0 0 20 20" fill="none" xmlns="http://www.w3.org/2000/svg">
<path d="M9.99992 4.99992C13.1583 4.99992 15.9749 6.77492 17.3499 9.58325C15.9749 12.3916 13.1583 14.1666 9.99992 14.1666C6.84159 14.1666 4.02492 12.3916 2.64992 9.58325C4.02492 6.77492 6.84159 4.99992 9.99992 4.99992ZM9.99992 3.33325C5.83325 3.33325 2.27492 5.92492 0.833252 9.58325C2.27492 13.2416 5.83325 15.8333 9.99992 15.8333C14.1666 15.8333 17.7249 13.2416 19.1666 9.58325C17.7249 5.92492 14.1666 3.33325 9.99992 3.33325ZM9.99992 7.49992C11.1499 7.49992 12.0833 8.43325 12.0833 9.58325C12.0833 10.7333 11.1499 11.6666 9.99992 11.6666C8.84992 11.6666 7.91659 10.7333 7.91659 9.58325C7.91659 8.43325 8.84992 7.49992 9.99992 7.49992ZM9.99992 5.83325C7.93325 5.83325 6.24992 7.51659 6.24992 9.58325C6.24992 11.6499 7.93325 13.3333 9.99992 13.3333C12.0666 13.3333 13.7499 11.6499 13.7499 9.58325C13.7499 7.51659 12.0666 5.83325 9.99992 5.83325Z" fill="#999999"/>
<path d="M9.99992 5.00008C13.1583 5.00008 15.9749 6.77508 17.3499 9.58341C16.8583 10.6001 16.1666 11.4751 15.3416 12.1834L16.5166 13.3584C17.6749 12.3334 18.5916 11.0501 19.1666 9.58341C17.7249 5.92508 14.1666 3.33341 9.99992 3.33341C8.94159 3.33341 7.92492 3.50008 6.96659 3.80841L8.34159 5.18341C8.88325 5.07508 9.43325 5.00008 9.99992 5.00008ZM9.10825 5.95008L10.8333 7.67508C11.3083 7.88341 11.6916 8.26675 11.8999 8.74175L13.6249 10.4667C13.6916 10.1834 13.7416 9.88341 13.7416 9.57508C13.7499 7.50841 12.0666 5.83341 9.99992 5.83341C9.69159 5.83341 9.39992 5.87508 9.10825 5.95008ZM1.67492 3.22508L3.90825 5.45842C2.54992 6.52508 1.47492 7.94175 0.833252 9.58341C2.27492 13.2417 5.83325 15.8334 9.99992 15.8334C11.2666 15.8334 12.4833 15.5917 13.5999 15.1501L16.4499 18.0001L17.6249 16.8251L2.84992 2.04175L1.67492 3.22508ZM7.92492 9.47508L10.0999 11.6501C10.0666 11.6584 10.0333 11.6667 9.99992 11.6667C8.84992 11.6667 7.91659 10.7334 7.91659 9.58341C7.91659 9.54175 7.92492 9.51675 7.92492 9.47508ZM5.09159 6.64175L6.54992 8.10008C6.35825 8.55841 6.24992 9.05841 6.24992 9.58341C6.24992 11.6501 7.93325 13.3334 9.99992 13.3334C10.5249 13.3334 11.0249 13.2251 11.4749 13.0334L12.2916 13.8501C11.5583 14.0501 10.7916 14.1667 9.99992 14.1667C6.84159 14.1667 4.02492 12.3917 2.64992 9.58341C3.23325 8.39175 4.08325 7.40841 5.09159 6.64175Z" fill="#999999"/>
</svg>
