<svg width="240" height="240" viewBox="0 0 240 240" fill="none" xmlns="http://www.w3.org/2000/svg">
<path d="M120 220C175.228 220 220 175.228 220 120C220 64.7715 175.228 20 120 20C64.7715 20 20 64.7715 20 120C20 175.228 64.7715 220 120 220Z" fill="white"/>
<path d="M120 20C175.2 20 220 64.8 220 120C220 175.2 175.2 220 120 220C64.8 220 20 175.2 20 120C20 64.8 64.8 20 120 20ZM60.23 154.16C74.91 176.06 96.95 190 121.6 190C146.24 190 168.29 176.07 182.96 154.16C166.317 138.606 144.379 129.968 121.6 130C98.8171 129.966 76.8751 138.604 60.23 154.16ZM120 110C127.956 110 135.587 106.839 141.213 101.213C146.839 95.5871 150 87.9565 150 80C150 72.0435 146.839 64.4129 141.213 58.7868C135.587 53.1607 127.956 50 120 50C112.044 50 104.413 53.1607 98.7868 58.7868C93.1607 64.4129 90 72.0435 90 80C90 87.9565 93.1607 95.5871 98.7868 101.213C104.413 106.839 112.044 110 120 110Z" fill="#999999"/>
</svg>
