<svg width="24" height="24" viewBox="0 0 24 24" fill="none" xmlns="http://www.w3.org/2000/svg">
<path d="M16.4997 4.49932C16.4997 3.60944 16.2358 2.73954 15.7413 1.99963C15.2469 1.25973 14.5442 0.683036 13.7219 0.342493C12.8997 0.00194949 11.995 -0.0871521 11.1222 0.0864553C10.2493 0.260063 9.44755 0.688582 8.81826 1.31782C8.18897 1.94706 7.76042 2.74877 7.5868 3.62155C7.41318 4.49433 7.50228 5.399 7.84285 6.22114C8.18342 7.04329 8.76016 7.74598 9.50012 8.24038C10.2401 8.73477 11.1101 8.99865 12 8.99865C13.1934 8.99865 14.3379 8.52461 15.1817 7.68083C16.0256 6.83704 16.4997 5.69262 16.4997 4.49932V4.49932ZM10.949 11.3003C8.17143 9.59802 3.66371 9.13035 1.39685 9.00134C1.22058 8.98762 1.04338 9.01011 0.876123 9.0674C0.708867 9.12469 0.555098 9.21558 0.424267 9.33449C0.293437 9.45339 0.188309 9.5978 0.115348 9.75883C0.0423866 9.91985 0.00313291 10.0941 0 10.2709L0 20.7137C0.00528452 21.0439 0.137031 21.3594 0.368081 21.5952C0.599131 21.8311 0.911875 21.9693 1.24184 21.9815C3.28829 22.089 7.42866 22.4823 10.2913 23.9229C10.3893 23.9753 10.4991 24.0018 10.6102 23.9999C10.7212 23.998 10.83 23.9677 10.9261 23.912C11.0223 23.8563 11.1025 23.7769 11.1594 23.6815C11.2162 23.586 11.2478 23.4776 11.251 23.3666V11.8378C11.2513 11.7299 11.2237 11.6237 11.171 11.5295C11.1183 11.4354 11.0421 11.3564 10.9499 11.3003H10.949ZM22.6023 9.00134C20.3363 9.12945 15.8313 9.59802 13.0501 11.3003C12.9576 11.3577 12.8814 11.438 12.8288 11.5334C12.7762 11.6288 12.7491 11.7361 12.7499 11.845V23.3657C12.7538 23.4763 12.7858 23.5842 12.8428 23.6791C12.8997 23.774 12.9799 23.853 13.0757 23.9085C13.1715 23.964 13.2798 23.9943 13.3905 23.9965C13.5012 23.9987 13.6107 23.9728 13.7087 23.9211C16.5696 22.4814 20.7081 22.0881 22.7582 21.9806C23.0882 21.9682 23.401 21.8298 23.632 21.5938C23.863 21.3578 23.9947 21.0422 24 20.7119V10.2709C23.9967 10.0941 23.9574 9.91979 23.8843 9.75876C23.8113 9.59773 23.7061 9.45334 23.5751 9.33444C23.4442 9.21555 23.2904 9.12467 23.1231 9.06739C22.9558 9.01011 22.7786 8.98763 22.6023 9.00134V9.00134Z" fill="#FFB500"/>
</svg>
