<svg width="16" height="15" viewBox="0 0 16 15" fill="none" xmlns="http://www.w3.org/2000/svg">
<path d="M14.4413 1.01864C13.5962 0.286675 12.5246 -0.0729529 11.4429 0.0123236C10.3611 0.0976001 9.3496 0.621433 8.61255 1.47812L7.99721 2.15776L7.3801 1.47812C6.64309 0.621702 5.6318 0.0980416 4.55022 0.0127686C3.46864 -0.0725044 2.39727 0.286956 1.55221 1.01864C1.09237 1.44384 0.717972 1.96559 0.451939 2.55196C0.185905 3.13832 0.0338333 3.77697 0.00503156 4.4288C-0.0237702 5.08063 0.0713044 5.73193 0.284435 6.34283C0.497566 6.95374 0.82427 7.51139 1.24455 7.98166L7.29118 14.6738C7.38252 14.7769 7.49235 14.8589 7.61401 14.915C7.73568 14.9711 7.86665 15 7.99899 15C8.13134 15 8.26231 14.9711 8.38397 14.915C8.50563 14.8589 8.61546 14.7769 8.7068 14.6738L14.7534 7.98166C15.1742 7.51172 15.5013 6.95422 15.7148 6.34335C15.9283 5.73248 16.0237 5.0811 15.995 4.42915C15.9664 3.7772 15.8144 3.13842 15.5483 2.55196C15.2822 1.96551 14.9076 1.44374 14.4475 1.01864H14.4413Z" fill="#999999"/>
</svg>
