<svg id="Layer_1" data-name="Layer 1" xmlns="http://www.w3.org/2000/svg" viewBox="0 0 242.86 227.63"><defs><style>.cls-1{fill:#ffb500;}</style></defs><title>Artboard 3</title><path class="cls-1" d="M218.87,15.87A61.74,61.74,0,0,0,173.51.66,63.05,63.05,0,0,0,130.7,22.82l-9.31,10.27-9.34-10.27A63.09,63.09,0,0,0,69.25.66,61.77,61.77,0,0,0,23.9,15.87,72.21,72.21,0,0,0,7.25,39.05,77.54,77.54,0,0,0,4.72,96.37a73.33,73.33,0,0,0,14.52,24.78l91.47,101.19a14.66,14.66,0,0,0,4.88,3.64,13.8,13.8,0,0,0,11.65,0,14.66,14.66,0,0,0,4.88-3.64l91.47-101.19a73.24,73.24,0,0,0,14.54-24.77,77.5,77.5,0,0,0-2.52-57.33A72.06,72.06,0,0,0,219,15.87Z"/></svg>