<svg width="20" height="20" viewBox="0 0 20 20" fill="none" xmlns="http://www.w3.org/2000/svg">
<path d="M9.99967 5.00004C13.158 5.00004 15.9747 6.77504 17.3497 9.58337C15.9747 12.3917 13.158 14.1667 9.99967 14.1667C6.84134 14.1667 4.02467 12.3917 2.64967 9.58337C4.02467 6.77504 6.84134 5.00004 9.99967 5.00004ZM9.99967 3.33337C5.83301 3.33337 2.27467 5.92504 0.833008 9.58337C2.27467 13.2417 5.83301 15.8334 9.99967 15.8334C14.1663 15.8334 17.7247 13.2417 19.1663 9.58337C17.7247 5.92504 14.1663 3.33337 9.99967 3.33337ZM9.99967 7.50004C11.1497 7.50004 12.083 8.43337 12.083 9.58337C12.083 10.7334 11.1497 11.6667 9.99967 11.6667C8.84967 11.6667 7.91634 10.7334 7.91634 9.58337C7.91634 8.43337 8.84967 7.50004 9.99967 7.50004ZM9.99967 5.83337C7.93301 5.83337 6.24967 7.51671 6.24967 9.58337C6.24967 11.65 7.93301 13.3334 9.99967 13.3334C12.0663 13.3334 13.7497 11.65 13.7497 9.58337C13.7497 7.51671 12.0663 5.83337 9.99967 5.83337Z" fill="#999999"/>
</svg>
