<svg width="25" height="25" viewBox="0 0 25 25" fill="none" xmlns="http://www.w3.org/2000/svg">
<path d="M25 12.5C25 14.9723 24.2669 17.389 22.8934 19.4446C21.5199 21.5002 19.5676 23.1024 17.2835 24.0485C14.9995 24.9946 12.4861 25.2421 10.0614 24.7598C7.63661 24.2775 5.40933 23.087 3.66117 21.3388C1.91301 19.5907 0.722505 17.3634 0.24019 14.9386C-0.242126 12.5139 0.00541603 10.0005 0.951511 7.71646C1.89761 5.43238 3.49976 3.48015 5.55538 2.10663C7.61099 0.733112 10.0277 0 12.5 0C15.8152 0 18.9946 1.31696 21.3388 3.66116C23.683 6.00537 25 9.18479 25 12.5ZM12.8352 4.13269C11.6565 4.08753 10.4876 4.36255 9.45271 4.92851C8.41781 5.49447 7.55557 6.33024 6.95761 7.347C6.87184 7.4753 6.83825 7.63149 6.86367 7.78371C6.8891 7.93593 6.97164 8.07273 7.09445 8.16619L8.85038 9.49324C8.97645 9.58918 9.13516 9.63177 9.29233 9.61184C9.44949 9.59192 9.59255 9.51107 9.69069 9.38671C10.5907 8.24425 11.2088 7.5821 12.579 7.5821C13.6085 7.5821 14.8823 8.24517 14.8823 9.24344C14.8823 9.99835 14.2587 10.3859 13.2421 10.9562C12.0564 11.6211 10.4869 12.4486 10.4869 14.5177V14.7197C10.4869 14.8802 10.5507 15.0342 10.6642 15.1477C10.7777 15.2612 10.9316 15.3249 11.0921 15.3249H13.9152C14.0757 15.3249 14.2297 15.2612 14.3432 15.1477C14.4567 15.0342 14.5204 14.8802 14.5204 14.7197V14.6527C14.5204 13.2182 18.7137 13.1585 18.7137 9.2765C18.7091 6.35056 15.6767 4.13269 12.8352 4.13269ZM12.5 16.6327C12.0414 16.6329 11.5932 16.769 11.212 17.0239C10.8308 17.2787 10.5338 17.6409 10.3584 18.0646C10.183 18.4883 10.1371 18.9545 10.2266 19.4042C10.3161 19.8539 10.537 20.267 10.8612 20.5913C11.1855 20.9155 11.5986 21.1364 12.0483 21.2259C12.498 21.3154 12.9642 21.2695 13.3879 21.0941C13.8116 20.9187 14.1738 20.6217 14.4286 20.2405C14.6835 19.8593 14.8196 19.4111 14.8198 18.9525C14.8193 18.3374 14.5748 17.7476 14.1398 17.3127C13.7049 16.8777 13.1151 16.6332 12.5 16.6327V16.6327Z" fill="#FFB500"/>
</svg>
