<svg width="65" height="65" viewBox="0 0 65 65" fill="none" xmlns="http://www.w3.org/2000/svg">
<path d="M32.5 65C50.4493 65 65 50.4493 65 32.5C65 14.5507 50.4493 0 32.5 0C14.5507 0 0 14.5507 0 32.5C0 50.4493 14.5507 65 32.5 65Z" fill="#FFB500"/>
<path d="M23.2245 37.9997L40.973 20.2512L38.4985 17.7767L20.75 35.5252V37.9997H23.2245ZM24.6753 41.4997H17.25V34.0744L37.2613 14.0632C37.5894 13.7351 38.0345 13.5508 38.4985 13.5508C38.9625 13.5508 39.4076 13.7351 39.7358 14.0632L44.6865 19.0139C45.0146 19.3421 45.1989 19.7871 45.1989 20.2512C45.1989 20.7152 45.0146 21.1602 44.6865 21.4884L24.6753 41.4997ZM17.25 44.9997H48.75V48.4997H17.25V44.9997Z" fill="white"/>
</svg>
