<svg width="200" height="200" viewBox="0 0 200 200" fill="none" xmlns="http://www.w3.org/2000/svg">
<path d="M100 0C155.2 0 200 44.8 200 100C200 155.2 155.2 200 100 200C44.8 200 0 155.2 0 100C0 44.8 44.8 0 100 0ZM40.23 134.16C54.91 156.06 76.95 170 101.6 170C126.24 170 148.29 156.07 162.96 134.16C146.317 118.606 124.379 109.968 101.6 110C78.8171 109.966 56.8751 118.604 40.23 134.16ZM100 90C107.956 90 115.587 86.8393 121.213 81.2132C126.839 75.5871 130 67.9565 130 60C130 52.0435 126.839 44.4129 121.213 38.7868C115.587 33.1607 107.956 30 100 30C92.0435 30 84.4129 33.1607 78.7868 38.7868C73.1607 44.4129 70 52.0435 70 60C70 67.9565 73.1607 75.5871 78.7868 81.2132C84.4129 86.8393 92.0435 90 100 90Z" fill="#999999"/>
</svg>
