<svg width="245" height="202" viewBox="0 0 245 202" fill="none" xmlns="http://www.w3.org/2000/svg">
<path d="M103.458 183.108H3.22318C2.91206 183.111 2.6035 183.052 2.31551 182.934C2.02753 182.816 1.7659 182.642 1.5459 182.422C1.32589 182.202 1.15192 181.941 1.03415 181.653C0.916378 181.365 0.857161 181.056 0.859958 180.745V60.7081C0.857161 60.397 0.916378 60.0884 1.03415 59.8004C1.15192 59.5124 1.32589 59.2508 1.5459 59.0308C1.7659 58.8108 2.02753 58.6368 2.31551 58.5191C2.6035 58.4013 2.91206 58.3421 3.22318 58.3449H103.458C103.77 58.3414 104.078 58.4001 104.367 58.5176C104.655 58.6351 104.917 58.8091 105.137 59.0292C105.357 59.2494 105.531 59.5113 105.649 59.7996C105.766 60.0879 105.825 60.3968 105.821 60.7081V180.745C105.824 181.056 105.765 181.365 105.647 181.653C105.529 181.941 105.356 182.202 105.136 182.422C104.916 182.642 104.654 182.816 104.366 182.934C104.078 183.052 103.769 183.111 103.458 183.108V183.108ZM3.22318 59.2881C3.03596 59.2845 2.84994 59.3188 2.67633 59.389C2.50272 59.4591 2.34509 59.5637 2.21292 59.6963C2.08076 59.829 1.97679 59.987 1.90727 60.1609C1.83775 60.3347 1.80412 60.5209 1.80839 60.7081V180.745C1.80483 180.932 1.83899 181.117 1.90883 181.291C1.97867 181.464 2.08275 181.621 2.21485 181.753C2.34694 181.885 2.50432 181.989 2.67758 182.059C2.85084 182.129 3.03641 182.163 3.22318 182.16H103.458C103.645 182.163 103.831 182.129 104.005 182.059C104.178 181.99 104.336 181.886 104.468 181.754C104.601 181.622 104.705 181.464 104.776 181.291C104.846 181.118 104.881 180.932 104.878 180.745V60.7081C104.882 60.5206 104.848 60.3344 104.777 60.1605C104.707 59.9866 104.603 59.8286 104.47 59.6961C104.338 59.5635 104.18 59.459 104.006 59.3889C103.832 59.3188 103.646 59.2845 103.458 59.2881H3.22318Z" fill="#CACACA"/>
<path d="M90.0126 83.8633H16.7371V129.231H90.0126V83.8633Z" fill="#FFE199"/>
<path d="M35.1712 146.245H16.7371V157.59H35.1712V146.245Z" fill="#E4E4E4"/>
<path d="M90.0125 146.245H71.5574V157.59H90.0125V146.245Z" fill="#E4E4E4"/>
<path d="M62.5814 146.245H44.1472V157.59H62.5814V146.245Z" fill="#E4E4E4"/>
<path d="M241.447 125.453H141.217C140.906 125.456 140.598 125.396 140.31 125.279C140.022 125.161 139.76 124.987 139.54 124.767C139.32 124.547 139.146 124.285 139.028 123.997C138.911 123.709 138.851 123.401 138.854 123.09V3.05282C138.851 2.7417 138.911 2.43314 139.028 2.14516C139.146 1.85718 139.32 1.59554 139.54 1.37554C139.76 1.15553 140.022 0.981567 140.31 0.863794C140.598 0.746022 140.906 0.686805 141.217 0.689602H241.447C241.758 0.686092 242.067 0.744821 242.356 0.862341C242.644 0.979861 242.906 1.1538 243.126 1.37395C243.346 1.5941 243.52 1.85602 243.638 2.14432C243.755 2.43262 243.814 2.7415 243.81 3.05282V123.09C243.813 123.401 243.754 123.709 243.636 123.997C243.518 124.285 243.344 124.547 243.124 124.767C242.904 124.987 242.643 125.161 242.355 125.279C242.067 125.396 241.758 125.456 241.447 125.453V125.453ZM141.217 1.63279C141.029 1.62777 140.842 1.66103 140.667 1.73055C140.492 1.80007 140.334 1.9044 140.2 2.0372C140.067 2.17 139.962 2.32851 139.892 2.5031C139.822 2.67769 139.788 2.86471 139.792 3.05282V123.09C139.788 123.276 139.823 123.462 139.892 123.635C139.962 123.809 140.066 123.966 140.199 124.098C140.331 124.23 140.488 124.334 140.661 124.404C140.835 124.474 141.02 124.508 141.207 124.504H241.447C241.634 124.509 241.82 124.475 241.994 124.406C242.168 124.336 242.326 124.232 242.459 124.1C242.592 123.968 242.696 123.81 242.766 123.637C242.836 123.463 242.871 123.277 242.867 123.09V3.05282C242.871 2.86536 242.836 2.67911 242.766 2.50522C242.696 2.33132 242.592 2.17336 242.459 2.04078C242.327 1.90821 242.169 1.80374 241.995 1.73364C241.821 1.66353 241.635 1.62924 241.447 1.63279H141.217Z" fill="#CACACA"/>
<path d="M242.637 201.543H142.412C142.101 201.547 141.792 201.488 141.504 201.37C141.215 201.253 140.953 201.079 140.733 200.859C140.513 200.639 140.339 200.377 140.222 200.088C140.104 199.8 140.045 199.491 140.049 199.18V163.732C140.045 163.42 140.104 163.111 140.222 162.823C140.339 162.535 140.513 162.273 140.733 162.053C140.953 161.833 141.215 161.659 141.504 161.541C141.792 161.424 142.101 161.365 142.412 161.368H242.637C242.948 161.366 243.256 161.425 243.544 161.543C243.832 161.66 244.094 161.834 244.314 162.054C244.534 162.274 244.708 162.536 244.826 162.824C244.943 163.112 245.003 163.42 245 163.732V199.175C245.003 199.486 244.945 199.795 244.827 200.084C244.71 200.372 244.536 200.635 244.316 200.855C244.096 201.076 243.834 201.25 243.546 201.368C243.257 201.486 242.948 201.546 242.637 201.543V201.543ZM142.412 162.312C142.225 162.308 142.038 162.342 141.864 162.412C141.691 162.482 141.533 162.587 141.4 162.72C141.267 162.852 141.163 163.01 141.093 163.184C141.023 163.358 140.988 163.544 140.992 163.732V199.175C140.988 199.362 141.023 199.548 141.093 199.722C141.163 199.896 141.267 200.054 141.4 200.187C141.533 200.319 141.691 200.424 141.864 200.494C142.038 200.564 142.225 200.598 142.412 200.595H242.637C242.824 200.597 243.009 200.563 243.183 200.492C243.356 200.422 243.513 200.317 243.645 200.185C243.777 200.052 243.881 199.894 243.951 199.721C244.021 199.547 244.055 199.362 244.051 199.175V163.732C244.055 163.545 244.021 163.359 243.951 163.185C243.881 163.012 243.777 162.854 243.645 162.721C243.513 162.589 243.356 162.484 243.183 162.414C243.009 162.343 242.824 162.309 242.637 162.312H142.412Z" fill="#CACACA"/>
<path d="M160.642 81.2646H222.059C223.534 81.3095 224.933 81.9267 225.96 82.9856C226.987 84.0444 227.562 85.4617 227.562 86.9369C227.562 88.4121 226.987 89.8293 225.96 90.8882C224.933 91.9471 223.534 92.5643 222.059 92.6091H160.642C159.167 92.5643 157.768 91.9471 156.741 90.8882C155.714 89.8293 155.139 88.4121 155.139 86.9369C155.139 85.4617 155.714 84.0444 156.741 82.9856C157.768 81.9267 159.167 81.3095 160.642 81.2646Z" fill="#E4E4E4"/>
<path d="M160.642 99.2217H222.059C223.534 99.2665 224.933 99.8838 225.96 100.943C226.987 102.001 227.562 103.419 227.562 104.894C227.562 106.369 226.987 107.786 225.96 108.845C224.933 109.904 223.534 110.521 222.059 110.566H160.642C159.167 110.521 157.768 109.904 156.741 108.845C155.714 107.786 155.139 106.369 155.139 104.894C155.139 103.419 155.714 102.001 156.741 100.943C157.768 99.8838 159.167 99.2665 160.642 99.2217Z" fill="#E4E4E4"/>
<path d="M191.358 68.5053C196.593 68.5063 201.711 66.955 206.064 64.0474C210.417 61.1398 213.811 57.0065 215.815 52.1704C217.819 47.3343 218.343 42.0125 217.323 36.8781C216.302 31.7436 213.782 27.0272 210.081 23.3252C206.379 19.6232 201.663 17.1019 196.529 16.0802C191.395 15.0586 186.073 15.5824 181.236 17.5855C176.4 19.5886 172.266 22.9809 169.358 27.3335C166.449 31.6861 164.897 36.8034 164.897 42.0383C164.896 45.5138 165.58 48.9553 166.91 52.1664C168.239 55.3775 170.188 58.2952 172.645 60.753C175.103 63.2107 178.02 65.1604 181.231 66.4905C184.442 67.8207 187.883 68.5053 191.358 68.5053Z" fill="#FFE199"/>
<path d="M194.193 175.782H221.132C222.635 175.782 224.078 176.38 225.141 177.443C226.204 178.506 226.801 179.948 226.801 181.452C226.801 182.956 226.204 184.398 225.141 185.461C224.078 186.524 222.635 187.121 221.132 187.121H194.193C192.69 187.121 191.247 186.524 190.184 185.461C189.121 184.398 188.524 182.956 188.524 181.452C188.524 179.948 189.121 178.506 190.184 177.443C191.247 176.38 192.69 175.782 194.193 175.782V175.782Z" fill="#E4E4E4"/>
<path d="M168.675 191.849C170.731 191.849 172.741 191.239 174.45 190.097C176.16 188.954 177.492 187.331 178.279 185.431C179.066 183.531 179.272 181.441 178.871 179.425C178.47 177.408 177.48 175.555 176.026 174.102C174.572 172.648 172.719 171.658 170.703 171.256C168.686 170.855 166.596 171.061 164.696 171.848C162.797 172.635 161.173 173.967 160.031 175.677C158.888 177.387 158.279 179.397 158.279 181.453C158.279 184.21 159.374 186.854 161.324 188.804C163.273 190.753 165.917 191.849 168.675 191.849V191.849Z" fill="#FFE199"/>
</svg>
