<svg width="118" height="92" viewBox="0 0 118 92" fill="none" xmlns="http://www.w3.org/2000/svg">
<path d="M117.453 3.13379H87.4114V5.05739C87.4139 5.15737 87.4501 5.25359 87.5141 5.3304C87.4515 6.83322 87.4114 8.77686 87.4114 10.8683V62.5576C87.4114 67.4067 87.5993 71.324 87.8498 71.324H117.014C117.245 71.324 117.453 67.3741 117.453 62.5576V10.8683C117.453 8.77686 117.413 6.83322 117.35 5.3304C117.414 5.25359 117.45 5.15737 117.453 5.05739V3.13379Z" fill="white"/>
<path d="M117.034 71.5639H87.8373C87.6068 71.5639 87.4615 71.5639 87.3138 68.7837C87.2311 67.113 87.1885 64.9164 87.1885 62.557V10.8677C87.1885 8.83889 87.2311 6.87521 87.2937 5.32982C87.3363 4.38806 87.3764 3.65669 87.419 3.11317C87.5242 2.04617 87.6068 1.88086 87.8373 1.88086H117.014C117.245 1.88086 117.327 2.06871 117.433 3.11317C117.475 3.65669 117.515 4.40809 117.558 5.32982C117.621 6.87521 117.663 8.83639 117.663 10.8677V62.557C117.663 64.8964 117.621 67.113 117.538 68.7837C117.413 71.5639 117.245 71.5639 117.034 71.5639ZM87.9625 71.1456H116.909C117.057 70.582 117.245 67.4687 117.245 62.577V10.8677C117.245 8.83889 117.202 6.87521 117.14 5.35737C117.097 4.43815 117.057 3.70678 117.014 3.16326C116.994 2.87504 116.952 2.58873 116.889 2.30666H87.9625C87.8983 2.58847 87.8565 2.87488 87.8373 3.16326C87.7938 3.70761 87.7521 4.43898 87.712 5.35737C87.6494 6.90277 87.6068 8.86394 87.6068 10.8677V62.557C87.6068 67.4687 87.8147 70.562 87.9625 71.1456Z" fill="#E4E4E4"/>
<path d="M117.034 2.08887H87.8372C87.7234 2.09275 87.6154 2.14056 87.5361 2.22228C87.4567 2.30399 87.412 2.41327 87.4114 2.52719V5.07696C87.4157 5.19208 87.4632 5.30135 87.5444 5.38304C87.6257 5.46473 87.7347 5.51283 87.8498 5.51779H117.014C117.129 5.51283 117.238 5.46473 117.32 5.38304C117.401 5.30135 117.448 5.19208 117.453 5.07696V2.52719C117.455 2.47077 117.445 2.41452 117.425 2.36174C117.405 2.30897 117.375 2.26074 117.336 2.2199C117.297 2.17906 117.25 2.14643 117.198 2.12392C117.147 2.10142 117.091 2.0895 117.034 2.08887V2.08887Z" fill="#CACACA"/>
<path d="M89.9162 4.2825C90.0361 4.28448 90.154 4.2508 90.2548 4.18574C90.3556 4.12068 90.4349 4.02717 90.4825 3.91704C90.5301 3.80692 90.544 3.68513 90.5223 3.56712C90.5007 3.4491 90.4445 3.34016 90.3609 3.2541C90.2773 3.16804 90.17 3.10873 90.0527 3.08367C89.9354 3.05862 89.8132 3.06896 89.7018 3.11337C89.5903 3.15778 89.4945 3.23428 89.4266 3.33316C89.3586 3.43205 89.3216 3.54888 89.3201 3.66885C89.318 3.82918 89.3796 3.98378 89.4914 4.09879C89.6031 4.21381 89.7558 4.27986 89.9162 4.2825V4.2825Z" fill="white"/>
<path d="M92.248 4.28258C92.3676 4.28257 92.4845 4.24721 92.584 4.18093C92.6835 4.11465 92.7612 4.02043 92.8073 3.91011C92.8534 3.79979 92.8658 3.6783 92.843 3.56093C92.8202 3.44356 92.7632 3.33556 92.6792 3.25049C92.5952 3.16543 92.4879 3.10712 92.3708 3.08289C92.2537 3.05866 92.1321 3.0696 92.0212 3.11432C91.9103 3.15905 91.8152 3.23557 91.7477 3.33426C91.6802 3.43294 91.6434 3.54938 91.6419 3.66893C91.6409 3.74916 91.6558 3.82879 91.6859 3.9032C91.7159 3.97761 91.7604 4.04532 91.8167 4.1024C91.8731 4.15949 91.9403 4.20481 92.0143 4.23574C92.0884 4.26667 92.1678 4.28259 92.248 4.28258Z" fill="white"/>
<path d="M94.5874 4.28258C94.707 4.28257 94.8239 4.24721 94.9234 4.18093C95.0229 4.11465 95.1006 4.02043 95.1467 3.91011C95.1928 3.79979 95.2052 3.6783 95.1824 3.56093C95.1596 3.44356 95.1026 3.33556 95.0186 3.25049C94.9346 3.16543 94.8273 3.10712 94.7102 3.08289C94.5931 3.05866 94.4715 3.0696 94.3606 3.11432C94.2498 3.15905 94.1546 3.23557 94.0871 3.33426C94.0196 3.43294 93.9828 3.54938 93.9813 3.66893C93.9803 3.74916 93.9953 3.82879 94.0253 3.9032C94.0553 3.97761 94.0998 4.04532 94.1562 4.1024C94.2125 4.15949 94.2797 4.20481 94.3537 4.23574C94.4278 4.26667 94.5072 4.28259 94.5874 4.28258Z" fill="white"/>
<path d="M114.738 2.8428H112.04C112.015 2.84246 111.991 2.84709 111.968 2.85641C111.945 2.86573 111.924 2.87956 111.907 2.89707C111.889 2.91458 111.875 2.93542 111.866 2.95837C111.857 2.98131 111.852 3.00589 111.852 3.03065C111.849 3.05968 111.856 3.08885 111.872 3.11331C111.89 3.14299 111.914 3.16803 111.943 3.18634C111.973 3.20464 112.006 3.21567 112.04 3.2185H114.738C114.775 3.21826 114.812 3.20848 114.845 3.19009C114.878 3.17169 114.906 3.14528 114.926 3.11331C114.941 3.08885 114.949 3.05968 114.946 3.03065C114.941 2.97884 114.917 2.93064 114.879 2.89577C114.84 2.86091 114.79 2.84198 114.738 2.8428Z" fill="white"/>
<path d="M114.738 3.59418H112.04C112.014 3.59441 111.988 3.60011 111.964 3.61091C111.94 3.6217 111.918 3.63737 111.901 3.65691C111.883 3.67644 111.87 3.69943 111.861 3.72442C111.853 3.74941 111.85 3.77585 111.852 3.80207C111.852 3.82695 111.857 3.85165 111.866 3.87473C111.875 3.89781 111.889 3.91881 111.906 3.93652C111.924 3.95423 111.945 3.96829 111.968 3.97789C111.991 3.98749 112.015 3.99243 112.04 3.99243H114.738C114.79 3.99261 114.84 3.97313 114.879 3.93786C114.917 3.90259 114.941 3.85411 114.946 3.80207C114.947 3.77429 114.943 3.74644 114.934 3.72038C114.924 3.69432 114.908 3.67066 114.889 3.65097C114.869 3.63129 114.845 3.61604 114.819 3.60624C114.793 3.59645 114.765 3.59233 114.738 3.59418V3.59418Z" fill="white"/>
<path d="M114.738 4.34598H112.04C112.014 4.34656 111.988 4.35257 111.964 4.36364C111.94 4.37471 111.918 4.39061 111.901 4.41035C111.883 4.43008 111.87 4.45323 111.861 4.47835C111.853 4.50347 111.85 4.53003 111.852 4.55637C111.852 4.58113 111.857 4.60571 111.866 4.62866C111.875 4.6516 111.889 4.67244 111.907 4.68995C111.924 4.70747 111.945 4.72129 111.968 4.73061C111.991 4.73993 112.015 4.74456 112.04 4.74422H114.738C114.79 4.74505 114.84 4.72612 114.879 4.69125C114.917 4.65639 114.941 4.60819 114.946 4.55637C114.947 4.52849 114.943 4.50054 114.934 4.47436C114.924 4.44818 114.909 4.42437 114.889 4.4045C114.869 4.38462 114.846 4.36913 114.82 4.35904C114.794 4.34896 114.766 4.34451 114.738 4.34598V4.34598Z" fill="white"/>
<path d="M105.33 11.0752H99.8198C99.6821 11.0742 99.5457 11.1006 99.4183 11.1529C99.291 11.2052 99.1753 11.2823 99.0781 11.3798C98.9809 11.4772 98.904 11.5931 98.8521 11.7205C98.8001 11.848 98.774 11.9845 98.7753 12.1222V16.9086C98.7753 17.1837 98.8846 17.4474 99.079 17.6419C99.2735 17.8363 99.5372 17.9456 99.8123 17.9456H105.323C105.46 17.9469 105.597 17.9208 105.724 17.8689C105.852 17.8169 105.968 17.74 106.065 17.6428C106.162 17.5456 106.24 17.4299 106.292 17.3026C106.344 17.1753 106.371 17.0388 106.37 16.9011V12.1222C106.369 11.846 106.259 11.5812 106.065 11.3852C105.87 11.1892 105.606 11.0779 105.33 11.0752V11.0752Z" fill="#FFE199"/>
<path d="M112.208 21.0891H92.9368C92.8709 21.0844 92.8048 21.0932 92.7424 21.1152C92.6801 21.1371 92.623 21.1717 92.5746 21.2167C92.5262 21.2617 92.4876 21.3162 92.4613 21.3768C92.4349 21.4373 92.4213 21.5027 92.4213 21.5688C92.4213 21.6349 92.4349 21.7002 92.4613 21.7608C92.4876 21.8214 92.5262 21.8759 92.5746 21.9209C92.623 21.9659 92.6801 22.0004 92.7424 22.0224C92.8048 22.0443 92.8709 22.0532 92.9368 22.0484H112.185C112.249 22.0498 112.312 22.0383 112.371 22.0146C112.43 21.9909 112.484 21.9556 112.528 21.9106C112.573 21.8657 112.609 21.8121 112.632 21.7532C112.656 21.6942 112.668 21.6311 112.666 21.5675C112.668 21.5059 112.657 21.4446 112.635 21.3871C112.613 21.3297 112.58 21.2771 112.537 21.2327C112.494 21.1882 112.443 21.1526 112.387 21.1279C112.33 21.1033 112.27 21.0901 112.208 21.0891Z" fill="#E4E4E4"/>
<path d="M100.253 23.3037H92.9368C92.8093 23.3037 92.687 23.3544 92.5968 23.4446C92.5066 23.5347 92.4559 23.6571 92.4559 23.7846C92.4559 23.9122 92.5066 24.0345 92.5968 24.1247C92.687 24.2148 92.8093 24.2655 92.9368 24.2655H100.253C100.381 24.2655 100.503 24.2148 100.593 24.1247C100.683 24.0345 100.734 23.9122 100.734 23.7846C100.734 23.6571 100.683 23.5347 100.593 23.4446C100.503 23.3544 100.381 23.3037 100.253 23.3037Z" fill="#E4E4E4"/>
<path d="M105.33 31.7696H99.8198C99.6822 31.7682 99.5458 31.7943 99.4185 31.8464C99.2912 31.8984 99.1755 31.9753 99.0783 32.0725C98.981 32.1698 98.9041 32.2854 98.8521 32.4128C98.8001 32.5401 98.774 32.6765 98.7753 32.814V37.6005C98.774 37.738 98.8001 37.8745 98.8521 38.0018C98.9041 38.1291 98.981 38.2448 99.0783 38.342C99.1755 38.4393 99.2912 38.5162 99.4185 38.5682C99.5458 38.6202 99.6822 38.6463 99.8198 38.645H105.33C105.468 38.6466 105.605 38.6208 105.732 38.5689C105.86 38.517 105.976 38.4402 106.073 38.3429C106.171 38.2456 106.248 38.1299 106.3 38.0024C106.352 37.8749 106.378 37.7382 106.377 37.6005V32.814C106.376 32.537 106.265 32.2717 106.069 32.0761C105.873 31.8804 105.607 31.7702 105.33 31.7696V31.7696Z" fill="#FFE199"/>
<path d="M112.208 41.7803H92.9368C92.8093 41.7803 92.687 41.8309 92.5968 41.9211C92.5066 42.0113 92.4559 42.1336 92.4559 42.2612C92.4559 42.3887 92.5066 42.511 92.5968 42.6012C92.687 42.6914 92.8093 42.7421 92.9368 42.7421H112.185C112.249 42.7431 112.312 42.7313 112.371 42.7075C112.429 42.6837 112.483 42.6483 112.528 42.6035C112.573 42.5586 112.608 42.5052 112.632 42.4464C112.656 42.3876 112.667 42.3246 112.666 42.2612C112.668 42.1994 112.658 42.1378 112.636 42.08C112.614 42.0222 112.581 41.9694 112.538 41.9247C112.495 41.8799 112.444 41.8441 112.387 41.8193C112.331 41.7945 112.27 41.7812 112.208 41.7803Z" fill="#E4E4E4"/>
<path d="M100.253 43.9951H92.9368C92.8093 43.9951 92.687 44.0458 92.5968 44.136C92.5066 44.2262 92.4559 44.3485 92.4559 44.476C92.4559 44.6036 92.5066 44.7259 92.5968 44.8161C92.687 44.9063 92.8093 44.9569 92.9368 44.9569H100.253C100.381 44.9569 100.503 44.9063 100.593 44.8161C100.683 44.7259 100.734 44.6036 100.734 44.476C100.734 44.3485 100.683 44.2262 100.593 44.136C100.503 44.0458 100.381 43.9951 100.253 43.9951V43.9951Z" fill="#E4E4E4"/>
<path d="M105.33 52.461H99.8198C99.6823 52.46 99.5461 52.4863 99.4189 52.5384C99.2917 52.5906 99.1762 52.6675 99.079 52.7646C98.9818 52.8618 98.9049 52.9774 98.8528 53.1045C98.8007 53.2317 98.7743 53.368 98.7753 53.5054V58.2919C98.774 58.4294 98.8001 58.5658 98.8521 58.6932C98.9041 58.8205 98.981 58.9362 99.0783 59.0334C99.1755 59.1307 99.2912 59.2075 99.4185 59.2596C99.5458 59.3116 99.6822 59.3377 99.8198 59.3363H105.33C105.468 59.338 105.605 59.3122 105.732 59.2603C105.86 59.2084 105.976 59.1316 106.073 59.0343C106.171 58.937 106.248 58.8212 106.3 58.6937C106.352 58.5663 106.378 58.4296 106.377 58.2919V53.5129C106.377 53.3751 106.351 53.2386 106.298 53.1111C106.246 52.9837 106.169 52.8678 106.071 52.7701C105.974 52.6724 105.859 52.5949 105.732 52.5418C105.604 52.4888 105.468 52.4613 105.33 52.461V52.461Z" fill="#FFE199"/>
<path d="M112.208 62.4727H92.9368C92.8093 62.4727 92.687 62.5233 92.5968 62.6135C92.5066 62.7037 92.4559 62.826 92.4559 62.9536C92.4559 63.0811 92.5066 63.2034 92.5968 63.2936C92.687 63.3838 92.8093 63.4345 92.9368 63.4345H112.185C112.313 63.4374 112.436 63.3896 112.529 63.3016C112.621 63.2135 112.675 63.0924 112.678 62.9648C112.681 62.8373 112.633 62.7138 112.545 62.6215C112.457 62.5292 112.335 62.4756 112.208 62.4727V62.4727Z" fill="#E4E4E4"/>
<path d="M100.253 64.6885H92.9368C92.8093 64.6885 92.687 64.7391 92.5968 64.8293C92.5066 64.9195 92.4559 65.0418 92.4559 65.1694C92.4559 65.2969 92.5066 65.4192 92.5968 65.5094C92.687 65.5996 92.8093 65.6503 92.9368 65.6503H100.253C100.381 65.6503 100.503 65.5996 100.593 65.5094C100.683 65.4192 100.734 65.2969 100.734 65.1694C100.734 65.0418 100.683 64.9195 100.593 64.8293C100.503 64.7391 100.381 64.6885 100.253 64.6885V64.6885Z" fill="#E4E4E4"/>
<path d="M79.2036 0.646329C79.2029 0.530282 79.1566 0.419175 79.0745 0.337116C78.9924 0.255057 78.8813 0.208665 78.7653 0.208008H1.51559C1.39954 0.208665 1.28844 0.255057 1.20638 0.337116C1.12432 0.419175 1.07793 0.530282 1.07727 0.646329V3.1961C1.0796 3.3022 1.11556 3.40481 1.17996 3.48915C1.11735 5.2249 1.07727 7.49666 1.07727 9.98883V67.4464C1.07727 72.839 1.26512 77.2147 1.51559 77.2147H78.7653C78.9957 77.2147 79.2036 72.8265 79.2036 67.4464V9.96879C79.2036 7.48163 79.1635 5.20988 79.1009 3.46912C79.1653 3.38478 79.2013 3.28216 79.2036 3.17607V0.646329Z" fill="white"/>
<path d="M78.7878 77.4175H1.5156C1.28517 77.4175 1.13989 77.4175 0.992117 74.3442C0.909462 72.4833 0.866882 70.0387 0.866882 67.4263V9.96867C0.866882 7.56417 0.909462 5.24482 0.972079 3.469C1.11735 -2.38866e-07 1.28517 0 1.5156 0H78.7653C78.9957 0 79.1635 -2.38866e-07 79.2888 3.469C79.3514 5.26737 79.394 7.56417 79.394 9.98119V67.4388C79.394 70.0512 79.3514 72.4958 79.2662 74.3568C79.1635 77.4175 79.0158 77.4175 78.7878 77.4175ZM1.64334 76.9992H78.6626C78.8304 76.3505 79.0183 72.6711 79.0183 67.4463V9.96867C79.0183 7.56417 78.9782 5.26737 78.9156 3.469C78.8104 1.29493 78.7052 0.626173 78.6651 0.418283H1.64083C1.59825 0.626173 1.49556 1.29493 1.4104 3.48903C1.34778 5.2874 1.3052 7.58671 1.3052 9.98871V67.4463C1.28517 72.6511 1.47302 76.3305 1.64083 76.9992H1.64334Z" fill="#E4E4E4"/>
<path d="M78.7878 0.208179H1.51559C1.39954 0.208836 1.28844 0.255228 1.20638 0.337287C1.12432 0.419346 1.07793 0.530453 1.07727 0.6465V3.19628C1.0796 3.30237 1.11556 3.40498 1.17996 3.48932C1.22062 3.53437 1.27 3.57069 1.32511 3.5961C1.38021 3.6215 1.43991 3.63545 1.50056 3.6371H78.7452C78.8051 3.63726 78.8643 3.62408 78.9185 3.59852C78.9726 3.57296 79.0204 3.53566 79.0583 3.48932C79.1236 3.4053 79.1605 3.30265 79.1635 3.19628V0.6465C79.1737 0.59206 79.1715 0.536042 79.1571 0.482563C79.1427 0.429083 79.1166 0.379501 79.0805 0.337457C79.0445 0.295414 78.9995 0.261979 78.9489 0.239607C78.8982 0.217236 78.8432 0.206497 78.7878 0.208179V0.208179Z" fill="#CACACA"/>
<path d="M3.60448 2.4017C3.72457 2.4027 3.84225 2.36799 3.94259 2.302C4.04292 2.236 4.12139 2.14168 4.16804 2.03102C4.21468 1.92035 4.2274 1.79832 4.20459 1.68042C4.18177 1.56251 4.12444 1.45404 4.03987 1.36877C3.9553 1.2835 3.84731 1.22527 3.7296 1.20147C3.61188 1.17768 3.48976 1.18938 3.37871 1.23511C3.26766 1.28083 3.17269 1.35852 3.10587 1.4583C3.03904 1.55809 3.00336 1.67547 3.00336 1.79557C3.00335 1.95546 3.06652 2.10888 3.17912 2.22241C3.29171 2.33594 3.4446 2.40038 3.60448 2.4017V2.4017Z" fill="white"/>
<path d="M5.92639 2.40172C6.04627 2.40172 6.16346 2.36617 6.26314 2.29957C6.36282 2.23297 6.44051 2.1383 6.48638 2.02755C6.53226 1.91679 6.54426 1.79492 6.52088 1.67734C6.49749 1.55976 6.43976 1.45176 6.35499 1.36699C6.27022 1.28222 6.16222 1.22449 6.04464 1.2011C5.92706 1.17771 5.80519 1.18972 5.69443 1.23559C5.58367 1.28147 5.48901 1.35916 5.4224 1.45884C5.3558 1.55852 5.32025 1.67571 5.32025 1.79559C5.32025 1.87519 5.33593 1.95401 5.36639 2.02755C5.39685 2.10109 5.4415 2.16791 5.49778 2.22419C5.61146 2.33786 5.76563 2.40172 5.92639 2.40172Z" fill="white"/>
<path d="M8.26324 2.40172C8.38312 2.40172 8.50031 2.36617 8.59999 2.29957C8.69967 2.23297 8.77736 2.1383 8.82324 2.02755C8.86911 1.91679 8.88112 1.79492 8.85773 1.67734C8.83434 1.55976 8.77661 1.45176 8.69184 1.36699C8.60707 1.28222 8.49907 1.22449 8.38149 1.2011C8.26391 1.17771 8.14204 1.18972 8.03128 1.23559C7.92053 1.28147 7.82586 1.35916 7.75926 1.45884C7.69265 1.55852 7.6571 1.67571 7.6571 1.79559C7.6571 1.87519 7.67278 1.95401 7.70324 2.02755C7.7337 2.10109 7.77835 2.16791 7.83464 2.22419C7.94831 2.33786 8.10248 2.40172 8.26324 2.40172Z" fill="white"/>
<path d="M76.4885 1.71332H73.791C73.7646 1.71355 73.7386 1.71925 73.7146 1.73005C73.6906 1.74084 73.6691 1.75651 73.6514 1.77605C73.6338 1.79558 73.6203 1.81857 73.612 1.84356C73.6037 1.86855 73.6007 1.89499 73.6031 1.92121C73.6028 1.94597 73.6074 1.97055 73.6167 1.99349C73.626 2.01644 73.6399 2.03728 73.6574 2.05479C73.6749 2.0723 73.6957 2.08613 73.7187 2.09545C73.7416 2.10477 73.7662 2.1094 73.791 2.10906H76.4885C76.5405 2.10989 76.5909 2.09095 76.6295 2.05609C76.668 2.02123 76.692 1.97302 76.6964 1.92121C76.6982 1.89343 76.6941 1.86558 76.6843 1.83952C76.6745 1.81346 76.6593 1.7898 76.6396 1.77011C76.6199 1.75043 76.5963 1.73518 76.5702 1.72538C76.5441 1.71559 76.5163 1.71147 76.4885 1.71332V1.71332Z" fill="white"/>
<path d="M76.4885 2.46414H73.7909C73.7645 2.46472 73.7385 2.47073 73.7144 2.4818C73.6904 2.49288 73.6689 2.50878 73.6513 2.52851C73.6337 2.54824 73.6203 2.57139 73.612 2.59651C73.6037 2.62163 73.6007 2.64819 73.6031 2.67454C73.6031 2.72436 73.6229 2.77214 73.6581 2.80737C73.6933 2.8426 73.7411 2.86239 73.7909 2.86239H76.4885C76.5403 2.86263 76.5904 2.8435 76.6289 2.80875C76.6673 2.77399 76.6914 2.72613 76.6964 2.67454C76.6982 2.64665 76.6941 2.6187 76.6843 2.59253C76.6745 2.56635 76.6593 2.54254 76.6397 2.52266C76.62 2.50279 76.5964 2.4873 76.5704 2.47721C76.5443 2.46712 76.5164 2.46267 76.4885 2.46414V2.46414Z" fill="white"/>
<path d="M26.4924 12.957H17.4429C16.9885 12.959 16.5533 13.1404 16.2319 13.4617C15.9106 13.7831 15.7292 14.2183 15.7272 14.6727V22.5099C15.7299 22.9639 15.9116 23.3985 16.2328 23.7193C16.5541 24.0401 16.989 24.2212 17.4429 24.2231H26.4924C26.946 24.2205 27.3802 24.0392 27.7009 23.7184C28.0216 23.3977 28.203 22.9635 28.2056 22.5099V14.6727C28.2036 14.2187 28.0226 13.7839 27.7018 13.4626C27.381 13.1414 26.9464 12.9597 26.4924 12.957Z" fill="#FFE199"/>
<path d="M63.7797 15.9873H32.2607C32.0554 15.9873 31.8586 16.0688 31.7134 16.214C31.5683 16.3591 31.4868 16.556 31.4868 16.7613C31.49 16.9655 31.5726 17.1605 31.717 17.3049C31.8615 17.4494 32.0564 17.532 32.2607 17.5352H63.7797C63.985 17.5352 64.1819 17.4537 64.327 17.3085C64.4721 17.1634 64.5537 16.9665 64.5537 16.7613C64.5537 16.556 64.4721 16.3591 64.327 16.214C64.1819 16.0688 63.985 15.9873 63.7797 15.9873Z" fill="#E4E4E4"/>
<path d="M44.2381 19.624H32.2607C32.1591 19.624 32.0584 19.644 31.9645 19.6829C31.8706 19.7218 31.7853 19.7788 31.7134 19.8507C31.6416 19.9226 31.5846 20.0079 31.5457 20.1018C31.5068 20.1957 31.4868 20.2963 31.4868 20.398C31.49 20.6022 31.5726 20.7972 31.717 20.9417C31.8615 21.0861 32.0564 21.1687 32.2607 21.1719H44.2381C44.4434 21.1719 44.6403 21.0904 44.7854 20.9452C44.9305 20.8001 45.0121 20.6032 45.0121 20.398C45.0121 20.1927 44.9305 19.9959 44.7854 19.8507C44.6403 19.7056 44.4434 19.624 44.2381 19.624V19.624Z" fill="#E4E4E4"/>
<path d="M26.4924 33.8584H17.4429C16.989 33.8604 16.5541 34.0414 16.2328 34.3622C15.9116 34.683 15.7299 35.1176 15.7272 35.5716V43.4113C15.7299 43.8653 15.9116 44.2999 16.2328 44.6207C16.5541 44.9415 16.989 45.1225 17.4429 45.1245H26.4924C26.946 45.1219 27.3802 44.9405 27.7009 44.6198C28.0216 44.2991 28.203 43.8649 28.2056 43.4113V35.5716C28.203 35.118 28.0216 34.6838 27.7009 34.3631C27.3802 34.0424 26.946 33.861 26.4924 33.8584V33.8584Z" fill="#FFE199"/>
<path d="M63.7797 36.8887H32.2607C32.0554 36.8887 31.8586 36.9702 31.7134 37.1154C31.5683 37.2605 31.4868 37.4574 31.4868 37.6626C31.49 37.8669 31.5726 38.0619 31.717 38.2063C31.8615 38.3508 32.0564 38.4333 32.2607 38.4366H63.7797C63.985 38.4366 64.1819 38.355 64.327 38.2099C64.4721 38.0647 64.5537 37.8679 64.5537 37.6626C64.5537 37.4574 64.4721 37.2605 64.327 37.1154C64.1819 36.9702 63.985 36.8887 63.7797 36.8887Z" fill="#E4E4E4"/>
<path d="M44.2381 40.5264H32.2607C32.0554 40.5264 31.8586 40.6079 31.7134 40.7531C31.5683 40.8982 31.4868 41.0951 31.4868 41.3003C31.49 41.5046 31.5726 41.6996 31.717 41.844C31.8615 41.9885 32.0564 42.071 32.2607 42.0743H44.2381C44.4434 42.0743 44.6403 41.9927 44.7854 41.8476C44.9305 41.7024 45.0121 41.5056 45.0121 41.3003C45.0121 41.0951 44.9305 40.8982 44.7854 40.7531C44.6403 40.6079 44.4434 40.5264 44.2381 40.5264Z" fill="#E4E4E4"/>
<path d="M26.4924 54.7656H17.4429C16.989 54.7676 16.5541 54.9486 16.2328 55.2694C15.9116 55.5902 15.7299 56.0248 15.7272 56.4788V64.316C15.7279 64.7713 15.9087 65.2078 16.2302 65.5303C16.5517 65.8527 16.9877 66.0348 17.4429 66.0367H26.4924C26.9464 66.0341 27.381 65.8524 27.7018 65.5312C28.0226 65.2099 28.2036 64.775 28.2056 64.321V56.4738C28.2017 56.0211 28.0197 55.5882 27.6992 55.2685C27.3786 54.9489 26.9451 54.7682 26.4924 54.7656V54.7656Z" fill="#FFE199"/>
<path d="M63.7797 57.7913H32.2607C32.0554 57.7913 31.8586 57.8728 31.7134 58.018C31.5683 58.1631 31.4868 58.36 31.4868 58.5652C31.49 58.7693 31.5727 58.964 31.7172 59.108C31.8617 59.2521 32.0567 59.3341 32.2607 59.3367H63.7797C63.8849 59.3427 63.9902 59.3271 64.0892 59.291C64.1881 59.2549 64.2787 59.1989 64.3552 59.1266C64.4318 59.0543 64.4928 58.967 64.5345 58.8703C64.5762 58.7736 64.5977 58.6693 64.5977 58.564C64.5977 58.4586 64.5762 58.3544 64.5345 58.2577C64.4928 58.1609 64.4318 58.0737 64.3552 58.0014C64.2787 57.929 64.1881 57.8731 64.0892 57.837C63.9902 57.8008 63.8849 57.7853 63.7797 57.7913V57.7913Z" fill="#E4E4E4"/>
<path d="M44.2381 61.4277H32.2607C32.0554 61.4277 31.8586 61.5093 31.7134 61.6544C31.5683 61.7996 31.4868 61.9964 31.4868 62.2017C31.49 62.4057 31.5727 62.6004 31.7172 62.7445C31.8617 62.8885 32.0567 62.9705 32.2607 62.9731H44.2381C44.4355 62.9619 44.621 62.8756 44.7567 62.7319C44.8925 62.5882 44.9681 62.3981 44.9681 62.2004C44.9681 62.0028 44.8925 61.8126 44.7567 61.669C44.621 61.5253 44.4355 61.439 44.2381 61.4277V61.4277Z" fill="#E4E4E4"/>
<path d="M92.5812 91.0033H40.8092C40.5788 91.0033 40.3709 87.344 40.3709 82.8305V34.7279C40.3709 30.2195 40.5588 26.5576 40.8092 26.5576H92.5612C92.7916 26.5576 92.9995 30.2145 92.9995 34.7279V82.818C92.9995 87.3264 92.8116 91.0033 92.5812 91.0033Z" fill="white"/>
<path d="M92.5811 91.2117H40.8092C40.6013 91.2117 40.4335 91.2117 40.2857 88.6193C40.203 87.0739 40.1605 85.005 40.1605 82.8309V34.7284C40.1605 32.5342 40.203 30.4854 40.2857 28.94C40.4335 26.3477 40.5787 26.3477 40.8092 26.3477H92.5611C92.769 26.3477 92.9368 26.3477 93.0821 28.94C93.1672 30.4854 93.2073 32.5543 93.2073 34.7284V82.8184C93.2073 85.0125 93.1672 87.0614 93.0821 88.6068C92.9568 91.2116 92.7915 91.2117 92.5811 91.2117ZM40.9344 90.7934H92.4559C92.6012 90.2498 92.7915 87.3669 92.7915 82.8309V34.7284C92.7915 30.1924 92.6012 27.3095 92.4559 26.7659H40.9344C40.7891 27.3095 40.6013 30.1924 40.6013 34.7284V82.8184C40.5737 87.3669 40.7666 90.2498 40.9344 90.7934Z" fill="#E4E4E4"/>
<path d="M92.5812 29.9518H40.8092C40.6928 29.9511 40.5813 29.9044 40.4991 29.8218C40.417 29.7392 40.3709 29.6275 40.3709 29.511V26.9637C40.3716 26.8477 40.418 26.7366 40.5 26.6545C40.5821 26.5724 40.6932 26.526 40.8092 26.5254H92.5612C92.6772 26.526 92.7883 26.5724 92.8704 26.6545C92.9524 26.7366 92.9988 26.8477 92.9995 26.9637V29.5135C93.0015 29.5699 92.9922 29.6262 92.9721 29.6789C92.9521 29.7317 92.9217 29.7799 92.8827 29.8208C92.8437 29.8616 92.797 29.8943 92.7452 29.9168C92.6934 29.9393 92.6377 29.9512 92.5812 29.9518Z" fill="#CACACA"/>
<path d="M42.9006 28.7386C43.0205 28.7386 43.1377 28.7031 43.2374 28.6365C43.3371 28.5699 43.4147 28.4752 43.4606 28.3645C43.5065 28.2537 43.5185 28.1318 43.4951 28.0143C43.4717 27.8967 43.414 27.7887 43.3292 27.7039C43.2445 27.6191 43.1365 27.5614 43.0189 27.538C42.9013 27.5146 42.7794 27.5266 42.6687 27.5725C42.5579 27.6184 42.4633 27.6961 42.3966 27.7958C42.33 27.8954 42.2945 28.0126 42.2945 28.1325C42.2952 28.2931 42.3592 28.4468 42.4728 28.5604C42.5863 28.6739 42.7401 28.738 42.9006 28.7386Z" fill="white"/>
<path d="M45.22 28.7386C45.3398 28.7386 45.457 28.7031 45.5567 28.6365C45.6564 28.5699 45.7341 28.4752 45.78 28.3645C45.8258 28.2537 45.8378 28.1318 45.8145 28.0143C45.7911 27.8967 45.7333 27.7887 45.6486 27.7039C45.5638 27.6191 45.4558 27.5614 45.3382 27.538C45.2206 27.5146 45.0988 27.5266 44.988 27.5725C44.8772 27.6184 44.7826 27.6961 44.716 27.7958C44.6494 27.8954 44.6138 28.0126 44.6138 28.1325C44.6138 28.2933 44.6777 28.4474 44.7914 28.5611C44.905 28.6748 45.0592 28.7386 45.22 28.7386Z" fill="white"/>
<path d="M47.5593 28.7386C47.6792 28.7386 47.7964 28.7031 47.8961 28.6365C47.9958 28.5699 48.0734 28.4752 48.1193 28.3645C48.1652 28.2537 48.1772 28.1318 48.1538 28.0143C48.1304 27.8967 48.0727 27.7887 47.9879 27.7039C47.9032 27.6191 47.7952 27.5614 47.6776 27.538C47.56 27.5146 47.4381 27.5266 47.3274 27.5725C47.2166 27.6184 47.1219 27.6961 47.0553 27.7958C46.9887 27.8954 46.9532 28.0126 46.9532 28.1325C46.9532 28.2933 47.017 28.4474 47.1307 28.5611C47.2444 28.6748 47.3986 28.7386 47.5593 28.7386Z" fill="white"/>
<path d="M90.2819 27.6916H87.6069C87.5517 27.6916 87.4989 27.6697 87.4599 27.6307C87.4209 27.5917 87.399 27.5388 87.399 27.4837C87.3971 27.4559 87.4012 27.4281 87.411 27.402C87.4208 27.376 87.4361 27.3523 87.4558 27.3326C87.4755 27.3129 87.4991 27.2977 87.5252 27.2879C87.5512 27.2781 87.5791 27.274 87.6069 27.2758H90.2819C90.3082 27.2761 90.3342 27.2818 90.3582 27.2925C90.3823 27.3033 90.4038 27.319 90.4214 27.3385C90.4391 27.3581 90.4525 27.3811 90.4608 27.4061C90.4691 27.431 90.4722 27.4575 90.4697 27.4837C90.476 27.5105 90.4758 27.5385 90.4689 27.5652C90.462 27.5918 90.4488 27.6165 90.4303 27.6369C90.4118 27.6573 90.3887 27.673 90.3628 27.6825C90.337 27.6921 90.3092 27.6952 90.2819 27.6916V27.6916Z" fill="white"/>
<path d="M90.2819 28.4461H87.6069C87.5794 28.4461 87.5521 28.4406 87.5267 28.43C87.5014 28.4194 87.4783 28.4039 87.459 28.3843C87.4396 28.3647 87.4244 28.3415 87.4141 28.316C87.4038 28.2905 87.3987 28.2632 87.399 28.2357C87.3971 28.2079 87.4012 28.18 87.411 28.154C87.4208 28.1279 87.4361 28.1042 87.4558 28.0846C87.4755 28.0649 87.4991 28.0496 87.5252 28.0398C87.5512 28.03 87.5791 28.0259 87.6069 28.0278H90.2819C90.3373 28.0278 90.3904 28.0496 90.4298 28.0885C90.4692 28.1274 90.4916 28.1803 90.4923 28.2357C90.4941 28.2638 90.4899 28.2919 90.48 28.3183C90.4701 28.3447 90.4547 28.3686 90.4348 28.3885C90.4148 28.4084 90.3909 28.4239 90.3645 28.4338C90.3382 28.4437 90.31 28.4479 90.2819 28.4461V28.4461Z" fill="white"/>
<path d="M90.2819 29.1979H87.6069C87.5517 29.1979 87.4989 29.176 87.4599 29.137C87.4209 29.098 87.399 29.0451 87.399 28.99C87.3972 28.9621 87.4013 28.9341 87.4111 28.908C87.4208 28.8818 87.436 28.858 87.4557 28.8381C87.4753 28.8182 87.4989 28.8027 87.525 28.7926C87.5511 28.7826 87.579 28.7781 87.6069 28.7796H90.2819C90.3083 28.7801 90.3344 28.7862 90.3584 28.7972C90.3824 28.8083 90.4039 28.8242 90.4215 28.8439C90.4391 28.8637 90.4525 28.8868 90.4608 28.9119C90.4691 28.9371 90.4721 28.9636 90.4697 28.99C90.476 29.0168 90.4757 29.0447 90.4689 29.0714C90.462 29.0981 90.4488 29.1227 90.4303 29.1432C90.4118 29.1636 90.3887 29.1793 90.3628 29.1888C90.337 29.1983 90.3092 29.2014 90.2819 29.1979V29.1979Z" fill="white"/>
<path d="M56.714 45.749H50.1092C49.777 45.749 49.4585 45.617 49.2236 45.3822C48.9888 45.1473 48.8568 44.8288 48.8568 44.4966V38.7709C48.8568 38.4388 48.9888 38.1202 49.2236 37.8854C49.4585 37.6505 49.777 37.5186 50.1092 37.5186H56.714C57.0462 37.5186 57.3647 37.6505 57.5996 37.8854C57.8344 38.1202 57.9664 38.4388 57.9664 38.7709V44.4966C57.9664 44.8288 57.8344 45.1473 57.5996 45.3822C57.3647 45.617 57.0462 45.749 56.714 45.749V45.749Z" fill="#99B6FF"/>
<path d="M83.95 40.8816H60.9369C60.7936 40.872 60.6593 40.8084 60.5612 40.7035C60.463 40.5986 60.4084 40.4604 60.4084 40.3168C60.4084 40.1731 60.463 40.0349 60.5612 39.93C60.6593 39.8252 60.7936 39.7615 60.9369 39.752H83.95C84.0933 39.7615 84.2276 39.8252 84.3257 39.93C84.4238 40.0349 84.4784 40.1731 84.4784 40.3168C84.4784 40.4604 84.4238 40.5986 84.3257 40.7035C84.2276 40.8084 84.0933 40.872 83.95 40.8816V40.8816Z" fill="#E4E4E4"/>
<path d="M69.6732 43.5368H60.9369C60.7936 43.5273 60.6593 43.4636 60.5612 43.3588C60.463 43.2539 60.4084 43.1157 60.4084 42.972C60.4084 42.8284 60.463 42.6902 60.5612 42.5853C60.6593 42.4804 60.7936 42.4168 60.9369 42.4072H69.6732C69.7475 42.4069 69.821 42.4212 69.8897 42.4494C69.9583 42.4776 70.0208 42.519 70.0734 42.5714C70.126 42.6238 70.1677 42.686 70.1962 42.7545C70.2246 42.8231 70.2393 42.8966 70.2393 42.9708C70.2414 43.0457 70.2281 43.1202 70.2004 43.1898C70.1727 43.2595 70.1311 43.3227 70.0781 43.3757C70.0251 43.4286 69.9619 43.4703 69.8923 43.498C69.8227 43.5257 69.7481 43.5389 69.6732 43.5368Z" fill="#E4E4E4"/>
<path d="M56.714 62.6827H50.1092C49.777 62.6827 49.4585 62.5507 49.2236 62.3159C48.9888 62.081 48.8568 61.7625 48.8568 61.4303V55.6996C48.8568 55.3675 48.9888 55.0489 49.2236 54.8141C49.4585 54.5792 49.777 54.4473 50.1092 54.4473H56.714C57.0462 54.4473 57.3647 54.5792 57.5996 54.8141C57.8344 55.0489 57.9664 55.3675 57.9664 55.6996V61.4278C57.9667 61.5925 57.9346 61.7556 57.8718 61.9079C57.809 62.0601 57.7168 62.1984 57.6005 62.315C57.4841 62.4316 57.346 62.524 57.1939 62.5871C57.0418 62.6502 56.8787 62.6827 56.714 62.6827V62.6827Z" fill="#99B6FF"/>
<path d="M83.95 57.8117H60.9369C60.7874 57.8117 60.6441 57.7523 60.5384 57.6466C60.4327 57.5409 60.3734 57.3976 60.3734 57.2481C60.3734 57.0987 60.4327 56.9553 60.5384 56.8496C60.6441 56.7439 60.7874 56.6846 60.9369 56.6846H83.95C84.0995 56.6846 84.2428 56.7439 84.3485 56.8496C84.4542 56.9553 84.5136 57.0987 84.5136 57.2481C84.5136 57.3976 84.4542 57.5409 84.3485 57.6466C84.2428 57.7523 84.0995 57.8117 83.95 57.8117V57.8117Z" fill="#E4E4E4"/>
<path d="M69.6732 60.4658H60.9369C60.7936 60.4563 60.6593 60.3926 60.5612 60.2878C60.463 60.1829 60.4084 60.0446 60.4084 59.901C60.4084 59.7574 60.463 59.6192 60.5612 59.5143C60.6593 59.4094 60.7936 59.3458 60.9369 59.3362H69.6732C69.7506 59.3311 69.8281 59.3418 69.9011 59.3679C69.9741 59.3939 70.041 59.4347 70.0976 59.4877C70.1542 59.5406 70.1993 59.6046 70.2302 59.6757C70.261 59.7468 70.2769 59.8235 70.2769 59.901C70.2769 59.9785 70.261 60.0552 70.2302 60.1263C70.1993 60.1974 70.1542 60.2614 70.0976 60.3144C70.041 60.3673 69.9741 60.4081 69.9011 60.4341C69.8281 60.4602 69.7506 60.471 69.6732 60.4658V60.4658Z" fill="#E4E4E4"/>
<path d="M56.714 79.6118H50.1092C49.777 79.6118 49.4585 79.4799 49.2236 79.245C48.9888 79.0102 48.8568 78.6916 48.8568 78.3595V72.6313C48.8568 72.2991 48.9888 71.9806 49.2236 71.7457C49.4585 71.5109 49.777 71.3789 50.1092 71.3789H56.714C57.0462 71.3789 57.3647 71.5109 57.5996 71.7457C57.8344 71.9806 57.9664 72.2991 57.9664 72.6313V78.357C57.9667 78.5217 57.9346 78.6848 57.8718 78.837C57.809 78.9892 57.7168 79.1276 57.6005 79.2441C57.4841 79.3607 57.346 79.4532 57.1939 79.5163C57.0418 79.5794 56.8787 79.6118 56.714 79.6118V79.6118Z" fill="#99B6FF"/>
<path d="M83.95 74.7429H60.9369C60.7936 74.7334 60.6593 74.6697 60.5612 74.5648C60.463 74.4599 60.4084 74.3217 60.4084 74.1781C60.4084 74.0345 60.463 73.8962 60.5612 73.7914C60.6593 73.6865 60.7936 73.6228 60.9369 73.6133H83.95C84.0933 73.6228 84.2276 73.6865 84.3257 73.7914C84.4238 73.8962 84.4784 74.0345 84.4784 74.1781C84.4784 74.3217 84.4238 74.4599 84.3257 74.5648C84.2276 74.6697 84.0933 74.7334 83.95 74.7429V74.7429Z" fill="#E4E4E4"/>
<path d="M69.6733 77.3957H60.9369C60.7874 77.3957 60.6441 77.3363 60.5384 77.2306C60.4327 77.1249 60.3734 76.9816 60.3734 76.8321C60.3734 76.6826 60.4327 76.5393 60.5384 76.4336C60.6441 76.3279 60.7874 76.2686 60.9369 76.2686H69.6733C69.8227 76.2686 69.9661 76.3279 70.0718 76.4336C70.1775 76.5393 70.2368 76.6826 70.2368 76.8321C70.2368 76.9816 70.1775 77.1249 70.0718 77.2306C69.9661 77.3363 69.8227 77.3957 69.6733 77.3957Z" fill="#E4E4E4"/>
</svg>
