<svg width="129" height="79" viewBox="0 0 129 79" fill="none" xmlns="http://www.w3.org/2000/svg">
<path d="M66.0336 78.1066H103.298C104.765 78.1066 104.765 75.8223 103.298 75.8223H66.0336C64.5669 75.8223 64.5669 78.1066 66.0336 78.1066Z" fill="#E6E6E6"/>
<path d="M55.9765 28.4229H18.8473C18.4531 28.4229 18.0751 28.5794 17.7965 28.8581C17.5178 29.1368 17.3612 29.5148 17.3612 29.9089V37.2812C19.2091 37.3198 20.3996 38.8639 20.7117 40.7118V47.388H20.8471C20.8669 47.3894 20.8855 47.398 20.8993 47.4123C20.913 47.4266 20.921 47.4455 20.9217 47.4653V51.0286C20.9204 51.0479 20.9121 51.0661 20.8984 51.0798C20.8847 51.0936 20.8664 51.1018 20.8471 51.1031H20.7117V73.9464H55.9959C56.3898 73.9456 56.7673 73.7888 57.0458 73.5103C57.3244 73.2318 57.4812 72.8542 57.4819 72.4603V29.9089C57.474 29.5139 57.3123 29.1376 57.0311 28.8601C56.7499 28.5825 56.3716 28.4257 55.9765 28.4229Z" fill="#99B6FF"/>
<path d="M124.979 4.15137V44.5207H60.0342V26.746C60.0291 25.9417 59.7073 25.1719 59.1386 24.6031C58.5699 24.0344 57.8 23.7127 56.9958 23.7076H44.8118V4.15137H124.979Z" fill="#99B6FF"/>
<path d="M128.978 50.2165H60.0895V49.9403H128.691V2.40034C128.69 1.83915 128.466 1.30141 128.069 0.904856C127.672 0.508297 127.134 0.285234 126.572 0.284505H42.3259C41.7654 0.286687 41.2285 0.510305 40.8322 0.906628C40.4359 1.30295 40.2122 1.83986 40.2101 2.40034V23.5255H39.9338V2.40034C39.9382 1.76649 40.1913 1.15971 40.6387 0.710727C41.0862 0.261746 41.6921 0.00650503 42.3259 0H126.572C127.208 0.00362525 127.816 0.257681 128.266 0.707048C128.715 1.15641 128.969 1.76485 128.973 2.40034V50.2165H128.978Z" fill="#3F3D56"/>
<path d="M122.462 58.79H60.0895V58.5137H122.443C124.1 58.513 125.689 57.8545 126.86 56.6829C128.032 55.5113 128.69 53.9225 128.691 52.2657V50.2079H60.0895V49.9316H128.978V52.274C128.978 54.0021 128.292 55.6595 127.07 56.8815C125.848 58.1035 124.19 58.79 122.462 58.79Z" fill="#3F3D56"/>
<path d="M103.945 72.582C100.478 69.248 98.1717 64.8865 97.448 58.7904H71.826C71.5498 64.486 69.2931 68.7536 65.1968 72.5626L64.7576 72.582C68.9865 68.7536 71.3122 64.4473 71.5415 58.655V58.5225H97.6773L97.6966 58.655C98.4203 64.8479 100.735 69.2287 104.306 72.582H103.945Z" fill="#3F3D56"/>
<path d="M56.9102 78.3932H17.4662V78.1169H56.9295C57.734 78.1126 58.5043 77.7911 59.0732 77.2222C59.6421 76.6533 59.9636 75.883 59.9679 75.0785V26.8232C59.9629 26.0189 59.6411 25.2491 59.0724 24.6803C58.5037 24.1116 57.7338 23.7899 56.9295 23.7848H17.4662C16.662 23.7899 15.8921 24.1116 15.3234 24.6803C14.7546 25.2491 14.4329 26.0189 14.4278 26.8232V37.2422H14.1516V26.8232C14.1559 25.9437 14.5059 25.1011 15.126 24.4773C15.7462 23.8536 16.5867 23.4987 17.4662 23.4893H56.9295C57.8124 23.4936 58.6579 23.8463 59.2822 24.4706C59.9065 25.0949 60.2591 25.9403 60.2635 26.8232V75.0785C60.254 75.9614 59.8965 76.8048 59.2686 77.4255C58.6406 78.0462 57.7931 78.3939 56.9102 78.3932Z" fill="#3F3D56"/>
<path d="M37.1716 27.0495C36.983 27.0495 36.7986 26.9935 36.6419 26.8887C36.4851 26.7838 36.3629 26.6348 36.2909 26.4605C36.2189 26.2863 36.2001 26.0945 36.2371 25.9096C36.2741 25.7246 36.3652 25.5549 36.4987 25.4217C36.6323 25.2885 36.8023 25.198 36.9874 25.1615C37.1724 25.1251 37.3641 25.1443 37.5382 25.2169C37.7123 25.2894 37.8609 25.412 37.9653 25.5691C38.0697 25.7262 38.1251 25.9107 38.1245 26.0993C38.126 26.2247 38.1024 26.3492 38.055 26.4653C38.0076 26.5814 37.9374 26.6869 37.8486 26.7755C37.7597 26.864 37.6541 26.9339 37.5378 26.981C37.4215 27.028 37.297 27.0513 37.1716 27.0495ZM37.1716 25.3562C37.0289 25.3584 36.8901 25.4027 36.7726 25.4835C36.655 25.5644 36.564 25.6781 36.5109 25.8106C36.4578 25.943 36.4451 26.0881 36.4742 26.2278C36.5034 26.3674 36.5732 26.4953 36.6748 26.5954C36.7764 26.6955 36.9054 26.7634 37.0455 26.7904C37.1855 26.8175 37.3305 26.8025 37.4621 26.7474C37.5937 26.6923 37.706 26.5996 37.7851 26.4808C37.8641 26.3621 37.9063 26.2226 37.9063 26.0799C37.9075 25.9836 37.8892 25.8881 37.8525 25.7991C37.8158 25.71 37.7616 25.6293 37.693 25.5617C37.6244 25.4941 37.5428 25.4411 37.4532 25.4058C37.3636 25.3705 37.2678 25.3536 37.1716 25.3562Z" fill="#3F3D56"/>
<path d="M37.1716 77.3275C36.9301 77.3275 36.6941 77.2559 36.4933 77.1218C36.2925 76.9876 36.136 76.7969 36.0436 76.5738C35.9512 76.3508 35.927 76.1053 35.9741 75.8684C36.0213 75.6316 36.1375 75.4141 36.3083 75.2433C36.479 75.0726 36.6966 74.9563 36.9334 74.9092C37.1702 74.8621 37.4157 74.8863 37.6388 74.9787C37.8619 75.0711 38.0525 75.2276 38.1867 75.4283C38.3208 75.6291 38.3925 75.8652 38.3925 76.1066C38.3903 76.4298 38.261 76.739 38.0325 76.9675C37.804 77.196 37.4947 77.3253 37.1716 77.3275ZM37.1716 75.173C36.9869 75.173 36.8064 75.2278 36.6529 75.3304C36.4993 75.4329 36.3797 75.5788 36.309 75.7494C36.2384 75.92 36.2199 76.1077 36.2559 76.2888C36.2919 76.4699 36.3808 76.6362 36.5114 76.7668C36.642 76.8974 36.8083 76.9863 36.9894 77.0223C37.1705 77.0583 37.3583 77.0398 37.5288 76.9692C37.6994 76.8985 37.8453 76.7789 37.9478 76.6253C38.0504 76.4718 38.1052 76.2913 38.1052 76.1066C38.1082 75.9832 38.0861 75.8604 38.0403 75.7458C37.9944 75.6312 37.9258 75.527 37.8385 75.4397C37.7512 75.3524 37.647 75.2837 37.5324 75.2379C37.4178 75.1921 37.295 75.17 37.1716 75.173Z" fill="#3F3D56"/>
<path d="M17.0546 78.4879H3.98674C3.00188 78.4864 2.05776 78.0945 1.36136 77.3981C0.664952 76.7017 0.273068 75.7576 0.271606 74.7727V40.9388C0.273068 39.9539 0.664952 39.0098 1.36136 38.3134C2.05776 37.617 3.00188 37.2251 3.98674 37.2236H17.0546C17.5432 37.2229 18.0272 37.3184 18.4789 37.5047C18.9306 37.6911 19.3411 37.9645 19.6871 38.3095C20.0332 38.6545 20.3078 39.0642 20.4955 39.5154C20.6831 39.9665 20.7801 40.4502 20.7808 40.9388V46.999C20.8482 47.0275 20.9059 47.0752 20.9466 47.136C20.9873 47.1969 21.0094 47.2683 21.0101 47.3415V51.2831C21.0092 51.3567 20.9871 51.4284 20.9465 51.4897C20.9058 51.5509 20.8483 51.5991 20.7808 51.6284V74.7921C20.7657 75.7728 20.3673 76.7086 19.6709 77.3994C18.9745 78.0901 18.0354 78.4808 17.0546 78.4879ZM3.98674 37.5109C3.07825 37.5138 2.20777 37.8758 1.56511 38.518C0.922449 39.1601 0.559752 40.0303 0.556111 40.9388V74.7727C0.559025 75.6817 0.921401 76.5526 1.56414 77.1953C2.20688 77.8381 3.07778 78.2005 3.98674 78.2034H17.0546C17.9636 78.2005 18.8345 77.8381 19.4772 77.1953C20.12 76.5526 20.4823 75.6817 20.4853 74.7727V51.3605H20.6178C20.6379 51.3592 20.6569 51.3506 20.6711 51.3364C20.6853 51.3222 20.6939 51.3032 20.6952 51.2831V47.3415C20.6939 47.3214 20.6853 47.3025 20.6711 47.2883C20.6569 47.274 20.6379 47.2655 20.6178 47.2642H20.4853V40.9581C20.4823 40.0494 20.1199 39.1788 19.4771 38.5365C18.8342 37.8942 17.9633 37.5324 17.0546 37.5302H3.98674V37.5109Z" fill="#3F3D56"/>
<path d="M17.1899 38.292H15.4746C15.6027 38.603 15.6022 38.9521 15.4733 39.2628C15.3443 39.5735 15.0975 39.8204 14.7868 39.9493C14.6353 40.0088 14.4744 40.0406 14.3117 40.0432H6.8262C6.66093 40.0436 6.4972 40.0113 6.3444 39.9483C6.1916 39.8853 6.05273 39.7928 5.93573 39.6761C5.81873 39.5593 5.72591 39.4207 5.66258 39.268C5.59925 39.1154 5.56665 38.9517 5.56665 38.7864C5.56882 38.6234 5.60161 38.4622 5.66332 38.3113H4.06402C3.35728 38.3128 2.67986 38.594 2.17985 39.0935C1.67985 39.593 1.39794 40.2701 1.39575 40.9768V74.7528C1.39794 75.4598 1.67976 76.1372 2.17968 76.6371C2.67961 77.1371 3.35702 77.4189 4.06402 77.4211H17.1899C17.8967 77.4189 18.5738 77.137 19.0733 76.637C19.5728 76.137 19.854 75.4595 19.8554 74.7528V40.9575C19.8558 40.6074 19.7871 40.2606 19.6533 39.937C19.5194 39.6135 19.3231 39.3195 19.0755 39.0719C18.8279 38.8243 18.5339 38.628 18.2104 38.4942C17.8868 38.3603 17.5401 38.2916 17.1899 38.292Z" fill="#99B6FF"/>
<path d="M104.041 78.3245H65.0945C64.3114 78.3245 63.5603 78.0134 63.0066 77.4596C62.4528 76.9059 62.1417 76.1548 62.1417 75.3717C62.1417 74.5886 62.4528 73.8375 63.0066 73.2838C63.5603 72.73 64.3114 72.4189 65.0945 72.4189H104.041C104.824 72.4189 105.575 72.73 106.129 73.2838C106.683 73.8375 106.994 74.5886 106.994 75.3717C106.994 76.1548 106.683 76.9059 106.129 77.4596C105.575 78.0134 104.824 78.3245 104.041 78.3245ZM65.0945 72.7034C64.3868 72.7034 63.7081 72.9846 63.2077 73.485C62.7073 73.9854 62.4262 74.6641 62.4262 75.3717C62.4262 76.0794 62.7073 76.7581 63.2077 77.2585C63.7081 77.7589 64.3868 78.04 65.0945 78.04H104.041C104.749 78.04 105.428 77.7589 105.928 77.2585C106.428 76.7581 106.71 76.0794 106.71 75.3717C106.71 74.6641 106.428 73.9854 105.928 73.485C105.428 72.9846 104.749 72.7034 104.041 72.7034H65.0945Z" fill="#3F3D56"/>
</svg>
