<svg width="134" height="109" viewBox="0 0 134 109" fill="none" xmlns="http://www.w3.org/2000/svg">
<path d="M56.5173 98.8622H2.1945C2.02589 98.8637 1.85867 98.8316 1.70259 98.7678C1.54652 98.7039 1.40473 98.6096 1.28549 98.4904C1.16626 98.3712 1.07198 98.2294 1.00815 98.0733C0.944325 97.9173 0.912232 97.75 0.913748 97.5814V32.5269C0.912232 32.3583 0.944325 32.1911 1.00815 32.035C1.07198 31.8789 1.16626 31.7372 1.28549 31.6179C1.40473 31.4987 1.54652 31.4044 1.70259 31.3406C1.85867 31.2768 2.02589 31.2447 2.1945 31.2462H56.5173C56.686 31.2443 56.8534 31.2761 57.0097 31.3398C57.1659 31.4035 57.3079 31.4978 57.4272 31.6171C57.5465 31.7364 57.6408 31.8783 57.7045 32.0346C57.7681 32.1908 57.8 32.3582 57.7981 32.5269V97.5814C57.7996 97.75 57.7675 97.9173 57.7037 98.0733C57.6398 98.2294 57.5456 98.3712 57.4263 98.4904C57.3071 98.6096 57.1653 98.7039 57.0092 98.7678C56.8532 98.8316 56.6859 98.8637 56.5173 98.8622ZM2.1945 31.7573C2.09304 31.7554 1.99223 31.774 1.89814 31.812C1.80405 31.85 1.71862 31.9067 1.64699 31.9786C1.57537 32.0505 1.51902 32.1361 1.48134 32.2304C1.44367 32.3246 1.42544 32.4255 1.42775 32.5269V97.5814C1.42583 97.6826 1.44434 97.7832 1.48219 97.8771C1.52004 97.971 1.57645 98.0563 1.64803 98.1279C1.71962 98.1995 1.80492 98.2559 1.89882 98.2937C1.99271 98.3316 2.09328 98.3501 2.1945 98.3482H56.5173C56.6187 98.3501 56.7194 98.3316 56.8134 98.2938C56.9075 98.2559 56.9929 98.1996 57.0648 98.128C57.1366 98.0565 57.1932 97.9712 57.2314 97.8773C57.2696 97.7834 57.2884 97.6828 57.2869 97.5814V32.5269C57.2888 32.4253 57.2702 32.3244 57.2323 32.2302C57.1943 32.1359 57.1376 32.0503 57.0658 31.9785C56.9939 31.9066 56.9083 31.85 56.8141 31.812C56.7198 31.774 56.6189 31.7554 56.5173 31.7573H2.1945Z" fill="#CACACA"/>
<path d="M49.2303 45.0762H9.51837V69.6633H49.2303V45.0762Z" fill="#FFE199"/>
<path d="M19.5088 78.8848H9.51837V85.033H19.5088V78.8848Z" fill="#E4E4E4"/>
<path d="M49.2303 78.8848H39.2285V85.033H49.2303V78.8848Z" fill="#E4E4E4"/>
<path d="M34.3639 78.8848H24.3734V85.033H34.3639V78.8848Z" fill="#E4E4E4"/>
<path d="M131.301 67.6161H76.981C76.8124 67.6176 76.6452 67.5855 76.4891 67.5217C76.333 67.4578 76.1912 67.3636 76.072 67.2443C75.9528 67.1251 75.8585 66.9833 75.7946 66.8272C75.7308 66.6712 75.6987 66.5039 75.7002 66.3353V1.28084C75.6987 1.11222 75.7308 0.944998 75.7946 0.788925C75.8585 0.632852 75.9528 0.491059 76.072 0.371827C76.1912 0.252595 76.333 0.158312 76.4891 0.0944848C76.6452 0.0306575 76.8124 -0.00143521 76.981 8.05054e-05H131.301C131.47 -0.00182181 131.637 0.0300068 131.793 0.0936972C131.95 0.157388 132.092 0.251656 132.211 0.370966C132.33 0.490276 132.424 0.632223 132.488 0.788471C132.552 0.944719 132.584 1.11212 132.582 1.28084V66.3353C132.583 66.5039 132.551 66.6712 132.487 66.8272C132.424 66.9833 132.329 67.1251 132.21 67.2443C132.091 67.3636 131.949 67.4578 131.793 67.5217C131.637 67.5855 131.47 67.6176 131.301 67.6161ZM76.981 0.511247C76.8791 0.508527 76.7776 0.526551 76.6829 0.564227C76.5881 0.601903 76.502 0.658444 76.4298 0.730417C76.3575 0.80239 76.3007 0.888294 76.2627 0.982913C76.2246 1.07753 76.2062 1.17889 76.2086 1.28084V66.3353C76.2066 66.4365 76.2252 66.5371 76.263 66.631C76.3009 66.7249 76.3573 66.8102 76.4289 66.8818C76.5004 66.9534 76.5857 67.0098 76.6796 67.0476C76.7735 67.0855 76.8741 67.104 76.9753 67.1021H131.301C131.402 67.1044 131.503 67.0862 131.598 67.0485C131.692 67.0108 131.777 66.9545 131.849 66.8828C131.921 66.8112 131.978 66.7258 132.016 66.6317C132.054 66.5376 132.073 66.4368 132.071 66.3353V1.28084C132.072 1.17924 132.054 1.0783 132.016 0.984062C131.978 0.889819 131.921 0.804211 131.849 0.73236C131.778 0.660509 131.692 0.603893 131.598 0.5659C131.504 0.527907 131.403 0.509319 131.301 0.511247H76.981Z" fill="#CACACA"/>
<path d="M131.946 108.853H77.6285C77.4598 108.855 77.2924 108.823 77.1361 108.759C76.9799 108.696 76.8379 108.601 76.7186 108.482C76.5993 108.363 76.5051 108.221 76.4414 108.065C76.3777 107.908 76.3458 107.741 76.3477 107.572V88.3609C76.3458 88.1922 76.3777 88.0248 76.4414 87.8686C76.5051 87.7123 76.5993 87.5704 76.7186 87.451C76.8379 87.3317 76.9799 87.2375 77.1361 87.1738C77.2924 87.1101 77.4598 87.0783 77.6285 87.0802H131.946C132.114 87.0786 132.281 87.1107 132.438 87.1746C132.594 87.2384 132.735 87.3327 132.855 87.4519C132.974 87.5711 133.068 87.7129 133.132 87.869C133.196 88.0251 133.228 88.1923 133.226 88.3609V107.569C133.228 107.738 133.196 107.906 133.133 108.062C133.069 108.219 132.975 108.361 132.856 108.48C132.736 108.6 132.594 108.694 132.438 108.758C132.282 108.822 132.114 108.855 131.946 108.853ZM77.6285 87.5913C77.5269 87.5894 77.426 87.608 77.3317 87.646C77.2375 87.684 77.1519 87.7406 77.08 87.8124C77.0082 87.8843 76.9516 87.9699 76.9136 88.0641C76.8756 88.1584 76.857 88.2593 76.8589 88.3609V107.569C76.857 107.671 76.8756 107.772 76.9136 107.866C76.9516 107.96 77.0082 108.046 77.08 108.118C77.1519 108.19 77.2375 108.246 77.3317 108.284C77.426 108.322 77.5269 108.341 77.6285 108.339H131.946C132.047 108.341 132.148 108.322 132.242 108.284C132.335 108.245 132.421 108.189 132.492 108.117C132.564 108.045 132.62 107.96 132.658 107.866C132.696 107.771 132.714 107.671 132.712 107.569V88.3609C132.714 88.2596 132.696 88.1589 132.658 88.0648C132.62 87.9708 132.564 87.8853 132.492 87.8135C132.421 87.7417 132.335 87.685 132.242 87.6468C132.148 87.6087 132.047 87.5898 131.946 87.5913H77.6285Z" fill="#CACACA"/>
<path d="M87.5082 43.668H120.794C121.593 43.6923 122.351 44.0268 122.908 44.6006C123.464 45.1745 123.776 45.9426 123.776 46.7421C123.776 47.5416 123.464 48.3096 122.908 48.8835C122.351 49.4573 121.593 49.7919 120.794 49.8162H87.5082C86.7091 49.7919 85.9508 49.4573 85.3941 48.8835C84.8375 48.3096 84.5261 47.5416 84.5261 46.7421C84.5261 45.9426 84.8375 45.1745 85.3941 44.6006C85.9508 44.0268 86.7091 43.6923 87.5082 43.668Z" fill="#E4E4E4"/>
<path d="M87.5082 53.4004H120.794C121.593 53.4247 122.351 53.7592 122.908 54.3331C123.464 54.9069 123.776 55.675 123.776 56.4745C123.776 57.274 123.464 58.0421 122.908 58.6159C122.351 59.1898 121.593 59.5243 120.794 59.5486H87.5082C86.7091 59.5243 85.9508 59.1898 85.3941 58.6159C84.8375 58.0421 84.5261 57.274 84.5261 56.4745C84.5261 55.675 84.8375 54.9069 85.3941 54.3331C85.9508 53.7592 86.7091 53.4247 87.5082 53.4004Z" fill="#E4E4E4"/>
<path d="M104.155 36.7532C106.992 36.7538 109.766 35.913 112.125 34.3372C114.484 32.7615 116.323 30.5214 117.409 27.9005C118.495 25.2795 118.78 22.3954 118.227 19.6127C117.674 16.8301 116.308 14.274 114.302 12.2677C112.296 10.2614 109.74 8.89495 106.957 8.34126C104.175 7.78757 101.291 8.07146 98.6695 9.15703C96.0484 10.2426 93.808 12.0811 92.2317 14.44C90.6555 16.7989 89.8141 19.5723 89.8141 22.4093C89.8138 24.2929 90.1844 26.158 90.905 27.8983C91.6255 29.6386 92.6818 31.2198 94.0135 32.5518C95.3453 33.8838 96.9263 34.9404 98.6665 35.6613C100.407 36.3822 102.272 36.7532 104.155 36.7532Z" fill="#FFE199"/>
<path d="M105.692 94.8926H120.291C121.106 94.8926 121.887 95.2163 122.464 95.7925C123.04 96.3688 123.364 97.1503 123.364 97.9653C123.364 98.7802 123.04 99.5617 122.464 100.138C121.887 100.714 121.106 101.038 120.291 101.038H105.692C104.877 101.038 104.095 100.714 103.519 100.138C102.943 99.5617 102.619 98.7802 102.619 97.9653C102.619 97.1503 102.943 96.3688 103.519 95.7925C104.095 95.2163 104.877 94.8926 105.692 94.8926Z" fill="#E4E4E4"/>
<path d="M91.8617 103.599C92.976 103.599 94.0653 103.269 94.9919 102.65C95.9184 102.031 96.6405 101.151 97.067 100.121C97.4934 99.0918 97.605 97.959 97.3876 96.8661C97.1702 95.7731 96.6336 94.7692 95.8456 93.9813C95.0577 93.1933 94.0538 92.6567 92.9608 92.4393C91.8679 92.2219 90.7351 92.3335 89.7056 92.7599C88.676 93.1864 87.7961 93.9085 87.177 94.8351C86.5579 95.7616 86.2275 96.8509 86.2275 97.9652C86.2275 99.4595 86.8211 100.893 87.8777 101.949C88.9343 103.006 90.3674 103.599 91.8617 103.599Z" fill="#FFE199"/>
</svg>
