<svg width="300" height="183" viewBox="0 0 300 183" fill="none" xmlns="http://www.w3.org/2000/svg">
<path d="M152.9 181.601H239.543C242.953 181.601 242.953 176.29 239.543 176.29H152.9C149.49 176.29 149.49 181.601 152.9 181.601Z" fill="#E6E6E6"/>
<path d="M129.517 66.084H43.1894C42.273 66.084 41.3942 66.448 40.7462 67.096C40.0983 67.7439 39.7343 68.6228 39.7343 69.5391V86.6801C44.0307 86.77 46.7987 90.36 47.5244 94.6565V110.179H47.8391C47.8851 110.182 47.9284 110.202 47.9604 110.236C47.9925 110.269 48.011 110.313 48.0125 110.359V118.643C48.0095 118.688 47.9903 118.731 47.9584 118.763C47.9265 118.795 47.8841 118.814 47.8391 118.817H47.5244V171.929H129.562C130.478 171.927 131.356 171.562 132.003 170.915C132.651 170.267 133.015 169.389 133.017 168.473V69.5391C132.999 68.6208 132.623 67.7458 131.969 67.1005C131.315 66.4552 130.435 66.0905 129.517 66.084V66.084Z" fill="#99B6FF"/>
<path d="M289.951 9.65234V103.513H138.951V62.1861C138.939 60.3162 138.191 58.5261 136.869 57.2038C135.547 55.8815 133.757 55.1335 131.887 55.1217H103.558V9.65234H289.951Z" fill="#99B6FF"/>
<path d="M299.25 116.756H139.08V116.114H298.582V5.58091C298.579 4.27613 298.058 3.02586 297.135 2.10384C296.212 1.18182 294.961 0.663184 293.656 0.661489H97.7784C96.4753 0.666563 95.227 1.18649 94.3055 2.10796C93.384 3.02943 92.8641 4.27776 92.859 5.58091V54.6981H92.2168V5.58091C92.2268 4.10719 92.8154 2.69638 93.8557 1.65248C94.896 0.608573 96.3048 0.0151246 97.7784 0H293.656C295.134 0.0084289 296.548 0.599123 297.593 1.64393C298.638 2.68873 299.229 4.10336 299.237 5.58091V116.756H299.25Z" fill="#3F3D56"/>
<path d="M284.1 136.69H139.08V136.048H284.055C287.907 136.046 291.601 134.515 294.325 131.791C297.049 129.067 298.58 125.373 298.582 121.521V116.736H139.08V116.094H299.25V121.54C299.25 125.558 297.654 129.411 294.813 132.252C291.971 135.094 288.118 136.69 284.1 136.69Z" fill="#3F3D56"/>
<path d="M241.045 168.756C232.985 161.005 227.623 150.864 225.94 136.69H166.368C165.725 149.933 160.479 159.855 150.954 168.712L149.933 168.756C159.766 159.855 165.173 149.843 165.706 136.376V136.067H226.473L226.518 136.376C228.201 150.774 233.583 160.96 241.887 168.756H241.045Z" fill="#3F3D56"/>
<path d="M131.688 182.269H39.9784V181.627H131.733C133.603 181.616 135.394 180.869 136.717 179.546C138.04 178.224 138.787 176.433 138.797 174.562V62.3659C138.785 60.4959 138.037 58.7059 136.715 57.3836C135.393 56.0613 133.603 55.3132 131.733 55.3014H39.9784C38.1084 55.3132 36.3184 56.0613 34.9961 57.3836C33.6738 58.7059 32.9257 60.4959 32.914 62.3659V86.5905H32.2717V62.3659C32.2817 60.3209 33.0955 58.3618 34.5373 56.9115C35.9792 55.4613 37.9335 54.6362 39.9784 54.6143H131.733C133.785 54.6244 135.751 55.4443 137.203 56.8958C138.654 58.3474 139.474 60.3131 139.484 62.3659V174.562C139.462 176.615 138.631 178.576 137.171 180.019C135.711 181.462 133.741 182.271 131.688 182.269V182.269Z" fill="#3F3D56"/>
<path d="M85.7945 62.8923C85.356 62.8923 84.9274 62.7622 84.5629 62.5184C84.1984 62.2747 83.9144 61.9283 83.7469 61.523C83.5794 61.1178 83.5359 60.672 83.6219 60.242C83.7079 59.812 83.9196 59.4172 84.2301 59.1076C84.5406 58.798 84.936 58.5875 85.3662 58.5027C85.7964 58.418 86.2421 58.4628 86.6469 58.6314C87.0516 58.8001 87.3972 59.0851 87.6399 59.4503C87.8826 59.8155 88.0114 60.2445 88.0102 60.683C88.0136 60.9747 87.9586 61.264 87.8484 61.534C87.7382 61.8041 87.5751 62.0493 87.3685 62.2552C87.162 62.4611 86.9163 62.6236 86.646 62.733C86.3756 62.8424 86.0861 62.8966 85.7945 62.8923V62.8923ZM85.7945 58.9554C85.4629 58.9605 85.1401 59.0635 84.8668 59.2514C84.5935 59.4394 84.3818 59.7039 84.2584 60.0118C84.135 60.3196 84.1053 60.6571 84.1731 60.9818C84.2409 61.3065 84.4031 61.6039 84.6395 61.8367C84.8758 62.0694 85.1756 62.2271 85.5013 62.29C85.8269 62.3529 86.1639 62.3181 86.4699 62.19C86.7759 62.0619 87.0372 61.8463 87.2209 61.5702C87.4047 61.294 87.5028 60.9698 87.5028 60.6381C87.5055 60.4142 87.4629 60.1921 87.3777 59.985C87.2925 59.778 87.1663 59.5903 87.0068 59.4331C86.8473 59.276 86.6577 59.1527 86.4494 59.0706C86.2411 58.9886 86.0183 58.9494 85.7945 58.9554V58.9554Z" fill="#3F3D56"/>
<path d="M85.7944 179.79C85.233 179.79 84.6842 179.623 84.2174 179.311C83.7506 178.999 83.3867 178.556 83.1719 178.037C82.957 177.519 82.9008 176.948 83.0104 176.397C83.1199 175.847 83.3902 175.341 83.7872 174.944C84.1842 174.547 84.69 174.276 85.2407 174.167C85.7913 174.057 86.362 174.114 86.8807 174.328C87.3994 174.543 87.8427 174.907 88.1547 175.374C88.4666 175.841 88.6331 176.39 88.6331 176.951C88.628 177.702 88.3273 178.421 87.7961 178.953C87.2648 179.484 86.5457 179.785 85.7944 179.79ZM85.7944 174.78C85.3651 174.78 84.9454 174.908 84.5885 175.146C84.2315 175.385 83.9533 175.724 83.789 176.12C83.6247 176.517 83.5817 176.953 83.6654 177.374C83.7492 177.795 83.9559 178.182 84.2595 178.486C84.5631 178.789 84.9499 178.996 85.3709 179.08C85.792 179.164 86.2285 179.121 86.6251 178.956C87.0218 178.792 87.3608 178.514 87.5993 178.157C87.8378 177.8 87.9651 177.38 87.9651 176.951C87.9722 176.664 87.9209 176.379 87.8143 176.112C87.7077 175.845 87.548 175.603 87.345 175.4C87.1421 175.197 86.8999 175.038 86.6334 174.931C86.3668 174.825 86.0814 174.773 85.7944 174.78V174.78Z" fill="#3F3D56"/>
<path d="M39.0214 182.488H8.63789C6.34802 182.484 4.15292 181.573 2.53373 179.954C0.914549 178.335 0.00339744 176.14 0 173.85V95.1838C0.00339744 92.8939 0.914549 90.6988 2.53373 89.0796C4.15292 87.4605 6.34802 86.5493 8.63789 86.5459H39.0214C40.1575 86.5442 41.2827 86.7663 42.3329 87.1995C43.3831 87.6327 44.3377 88.2685 45.1422 89.0706C45.9467 89.8727 46.5853 90.8254 47.0216 91.8743C47.4579 92.9232 47.6833 94.0478 47.685 95.1838V109.274C47.8418 109.341 47.9758 109.451 48.0705 109.593C48.1652 109.734 48.2165 109.9 48.2181 110.071V119.235C48.2161 119.406 48.1648 119.573 48.0702 119.715C47.9756 119.858 47.8418 119.97 47.685 120.038V173.895C47.6498 176.175 46.7236 178.351 45.1044 179.957C43.4853 181.563 41.3019 182.471 39.0214 182.488V182.488ZM8.63789 87.2138C6.52561 87.2206 4.50168 88.0622 3.00746 89.5553C1.51324 91.0483 0.669955 93.0715 0.661489 95.1838V173.85C0.668263 175.963 1.51081 177.988 3.00521 179.482C4.49961 180.977 6.5245 181.819 8.63789 181.826H39.0214C41.1348 181.819 43.1597 180.977 44.6541 179.482C46.1485 177.988 46.9911 175.963 46.9978 173.85V119.415H47.3061C47.3528 119.412 47.3968 119.392 47.4299 119.359C47.463 119.326 47.4829 119.282 47.4859 119.235V110.071C47.4829 110.024 47.463 109.98 47.4299 109.947C47.3968 109.914 47.3528 109.894 47.3061 109.891H46.9978V95.2288C46.9911 93.116 46.1483 91.0917 44.6537 89.5984C43.1591 88.105 41.1342 87.2639 39.0214 87.2588H8.63789V87.2138Z" fill="#3F3D56"/>
<path d="M39.336 89.0313H35.3478C35.6456 89.7544 35.6445 90.5661 35.3447 91.2884C35.045 92.0108 34.471 92.5848 33.7487 92.8846C33.3965 93.0229 33.0224 93.0969 32.6441 93.1029H15.2399C14.8556 93.1038 14.4749 93.0288 14.1196 92.8824C13.7644 92.7359 13.4415 92.5208 13.1695 92.2493C12.8974 91.9779 12.6816 91.6555 12.5344 91.3006C12.3871 90.9456 12.3113 90.5651 12.3113 90.1808C12.3164 89.8018 12.3926 89.4271 12.5361 89.0762H8.81764C7.17442 89.0796 5.59938 89.7334 4.43685 90.8948C3.27432 92.0561 2.61886 93.6304 2.61377 95.2736V173.805C2.61885 175.448 3.2741 177.023 4.43645 178.186C5.5988 179.348 7.17383 180.003 8.81764 180.008H39.336C40.9793 180.003 42.5536 179.348 43.7149 178.185C44.8763 177.023 45.5301 175.448 45.5335 173.805V95.2287C45.5343 94.4146 45.3746 93.6083 45.0635 92.856C44.7523 92.1037 44.2958 91.4202 43.7202 90.8445C43.1445 90.2689 42.461 89.8124 41.7087 89.5013C40.9564 89.1901 40.1501 89.0304 39.336 89.0313V89.0313Z" fill="#99B6FF"/>
<path d="M241.27 182.109H150.717C148.896 182.109 147.15 181.385 145.862 180.098C144.575 178.81 143.851 177.064 143.851 175.243C143.851 173.422 144.575 171.676 145.862 170.389C147.15 169.101 148.896 168.378 150.717 168.378H241.27C243.091 168.378 244.837 169.101 246.125 170.389C247.412 171.676 248.136 173.422 248.136 175.243C248.136 177.064 247.412 178.81 246.125 180.098C244.837 181.385 243.091 182.109 241.27 182.109V182.109ZM150.717 169.039C149.071 169.039 147.493 169.693 146.33 170.856C145.167 172.02 144.513 173.598 144.513 175.243C144.513 176.889 145.167 178.467 146.33 179.63C147.493 180.794 149.071 181.447 150.717 181.447H241.27C242.916 181.447 244.493 180.794 245.657 179.63C246.82 178.467 247.474 176.889 247.474 175.243C247.474 173.598 246.82 172.02 245.657 170.856C244.493 169.693 242.916 169.039 241.27 169.039H150.717Z" fill="#3F3D56"/>
</svg>
