<svg width="253" height="198" viewBox="0 0 253 198" fill="none" xmlns="http://www.w3.org/2000/svg">
<path d="M252.545 7.125H187.592V11.2841C187.597 11.5003 187.675 11.7083 187.814 11.8744C187.678 15.1237 187.592 19.3261 187.592 23.8481V135.608C187.592 146.092 187.998 154.562 188.539 154.562H251.597C252.096 154.562 252.545 146.022 252.545 135.608V23.8481C252.545 19.3261 252.458 15.1237 252.323 11.8744C252.462 11.7083 252.54 11.5003 252.545 11.2841V7.125Z" fill="white"/>
<path d="M251.641 155.082H188.512C188.014 155.082 187.7 155.082 187.38 149.07C187.202 145.458 187.11 140.709 187.11 135.607V23.8478C187.11 19.4612 187.202 15.2155 187.337 11.8741C187.429 9.8379 187.516 8.25658 187.608 7.08142C187.835 4.77441 188.014 4.41699 188.512 4.41699H251.597C252.096 4.41699 252.274 4.82315 252.502 7.08142C252.594 8.25658 252.68 9.88123 252.773 11.8741C252.908 15.2155 253 19.4558 253 23.8478V135.607C253 140.665 252.908 145.458 252.729 149.07C252.458 155.082 252.096 155.082 251.641 155.082ZM188.783 154.177H251.37C251.689 152.959 252.096 146.227 252.096 135.651V23.8478C252.096 19.4612 252.004 15.2155 251.868 11.9337C251.776 9.94621 251.689 8.36489 251.597 7.18973C251.553 6.56655 251.462 5.94751 251.327 5.33763H188.783C188.644 5.94694 188.554 6.56621 188.512 7.18973C188.418 8.36669 188.328 9.94802 188.241 11.9337C188.106 15.2751 188.014 19.5154 188.014 23.8478V135.607C188.014 146.227 188.464 152.915 188.783 154.177Z" fill="#E4E4E4"/>
<path d="M251.641 4.86621H188.512C188.266 4.87461 188.033 4.97798 187.861 5.15466C187.689 5.33134 187.593 5.56761 187.592 5.81392V11.3269C187.601 11.5758 187.704 11.8121 187.879 11.9887C188.055 12.1653 188.29 12.2693 188.539 12.28H251.597C251.846 12.2693 252.082 12.1653 252.257 11.9887C252.433 11.8121 252.536 11.5758 252.545 11.3269V5.81392C252.549 5.69193 252.529 5.57031 252.486 5.45621C252.443 5.34211 252.377 5.23783 252.293 5.14953C252.208 5.06122 252.107 4.99066 251.995 4.942C251.883 4.89335 251.763 4.86758 251.641 4.86621V4.86621Z" fill="#CACACA"/>
<path d="M193.007 9.61018C193.267 9.61445 193.521 9.54164 193.739 9.40097C193.957 9.26031 194.129 9.05812 194.232 8.82001C194.335 8.5819 194.365 8.31858 194.318 8.06342C194.271 7.80825 194.149 7.57271 193.969 7.38664C193.788 7.20056 193.556 7.07231 193.302 7.01815C193.049 6.96398 192.785 6.98632 192.544 7.08235C192.303 7.17838 192.095 7.34377 191.949 7.55758C191.802 7.77138 191.721 8.02398 191.718 8.28338C191.714 8.63005 191.847 8.96431 192.089 9.21298C192.33 9.46165 192.66 9.60448 193.007 9.61018V9.61018Z" fill="white"/>
<path d="M198.049 9.61036C198.307 9.61034 198.56 9.53387 198.775 9.39057C198.99 9.24727 199.158 9.04354 199.258 8.80502C199.358 8.56649 199.385 8.30382 199.335 8.05005C199.286 7.79628 199.163 7.56275 198.981 7.37884C198.8 7.19492 198.568 7.06884 198.314 7.01645C198.061 6.96406 197.798 6.98771 197.559 7.08442C197.319 7.18112 197.113 7.34657 196.967 7.55994C196.821 7.77331 196.742 8.02508 196.738 8.28356C196.736 8.45703 196.769 8.6292 196.833 8.79008C196.898 8.95096 196.995 9.09736 197.116 9.22078C197.238 9.3442 197.384 9.44219 197.544 9.50907C197.704 9.57594 197.875 9.61037 198.049 9.61036Z" fill="white"/>
<path d="M203.107 9.61036C203.366 9.61034 203.618 9.53387 203.833 9.39057C204.049 9.24727 204.217 9.04354 204.316 8.80502C204.416 8.56649 204.443 8.30382 204.393 8.05005C204.344 7.79628 204.221 7.56275 204.039 7.37884C203.858 7.19492 203.626 7.06884 203.373 7.01645C203.119 6.96406 202.856 6.98771 202.617 7.08442C202.377 7.18112 202.171 7.34657 202.025 7.55994C201.879 7.77331 201.8 8.02508 201.796 8.28356C201.794 8.45703 201.827 8.6292 201.892 8.79008C201.956 8.95096 202.053 9.09736 202.175 9.22078C202.296 9.3442 202.442 9.44219 202.602 9.50907C202.762 9.57594 202.934 9.61037 203.107 9.61036Z" fill="white"/>
<path d="M246.675 6.49615H240.842C240.789 6.49542 240.736 6.50543 240.686 6.52558C240.636 6.54574 240.591 6.57563 240.553 6.61349C240.516 6.65135 240.486 6.69642 240.465 6.74602C240.445 6.79563 240.435 6.84877 240.436 6.90231C240.43 6.96508 240.445 7.02815 240.479 7.08102C240.517 7.1452 240.57 7.19935 240.633 7.23892C240.696 7.2785 240.768 7.30235 240.842 7.30847H246.675C246.756 7.30794 246.836 7.28681 246.907 7.24703C246.978 7.20726 247.038 7.15015 247.081 7.08102C247.115 7.02815 247.131 6.96508 247.124 6.90231C247.115 6.79029 247.063 6.68606 246.979 6.61068C246.896 6.5353 246.787 6.49437 246.675 6.49615Z" fill="white"/>
<path d="M246.675 8.12105H240.842C240.785 8.12155 240.729 8.13387 240.677 8.15721C240.625 8.18056 240.579 8.21442 240.541 8.25667C240.502 8.29891 240.473 8.34862 240.455 8.40265C240.437 8.45667 240.431 8.51384 240.436 8.57053C240.435 8.62433 240.445 8.67772 240.465 8.72763C240.486 8.77753 240.515 8.82295 240.553 8.86124C240.591 8.89953 240.636 8.92993 240.686 8.95068C240.735 8.97143 240.788 8.98212 240.842 8.98211H246.675C246.788 8.98251 246.897 8.94039 246.98 8.86413C247.063 8.78787 247.115 8.68306 247.124 8.57053C247.128 8.51047 247.119 8.45025 247.098 8.39391C247.077 8.33757 247.044 8.2864 247.001 8.24384C246.959 8.20128 246.908 8.1683 246.851 8.14712C246.795 8.12595 246.735 8.11706 246.675 8.12105V8.12105Z" fill="white"/>
<path d="M246.675 9.74571H240.842C240.785 9.74696 240.729 9.75996 240.677 9.7839C240.625 9.80784 240.578 9.84222 240.54 9.88488C240.502 9.92755 240.473 9.9776 240.455 10.0319C240.437 10.0862 240.431 10.1437 240.436 10.2006C240.435 10.2542 240.445 10.3073 240.465 10.3569C240.486 10.4065 240.516 10.4516 240.553 10.4894C240.591 10.5273 240.636 10.5572 240.686 10.5773C240.736 10.5975 240.789 10.6075 240.842 10.6068H246.675C246.787 10.6086 246.896 10.5676 246.979 10.4922C247.063 10.4169 247.115 10.3126 247.124 10.2006C247.128 10.1403 247.119 10.0799 247.098 10.0233C247.077 9.9667 247.044 9.91522 247.002 9.87224C246.959 9.82927 246.908 9.79577 246.852 9.77396C246.795 9.75215 246.735 9.74253 246.675 9.74571V9.74571Z" fill="white"/>
<path d="M226.334 24.2969H214.42C214.122 24.2948 213.827 24.3519 213.552 24.4649C213.277 24.578 213.027 24.7447 212.816 24.9554C212.606 25.1662 212.44 25.4166 212.328 25.6922C212.215 25.9678 212.159 26.263 212.162 26.5606V36.9096C212.162 37.5042 212.398 38.0745 212.818 38.495C213.239 38.9154 213.809 39.1516 214.404 39.1516H226.318C226.616 39.1545 226.911 39.0981 227.186 38.9857C227.462 38.8733 227.712 38.7072 227.923 38.497C228.134 38.2868 228.301 38.0367 228.414 37.7614C228.527 37.4861 228.584 37.191 228.582 36.8934V26.5606C228.58 25.9635 228.343 25.391 227.923 24.9672C227.502 24.5435 226.931 24.3026 226.334 24.2969V24.2969Z" fill="#FFE199"/>
<path d="M241.205 45.948H199.538C199.396 45.9377 199.253 45.9569 199.118 46.0043C198.983 46.0518 198.86 46.1265 198.755 46.2238C198.65 46.3211 198.567 46.4389 198.51 46.5699C198.453 46.7009 198.423 46.8422 198.423 46.9851C198.423 47.1279 198.453 47.2693 198.51 47.4003C198.567 47.5312 198.65 47.6491 198.755 47.7464C198.86 47.8437 198.983 47.9184 199.118 47.9658C199.253 48.0133 199.396 48.0325 199.538 48.0222H241.156C241.294 48.0251 241.43 48.0002 241.558 47.949C241.685 47.8978 241.801 47.8213 241.898 47.7242C241.995 47.627 242.072 47.5112 242.123 47.3838C242.174 47.2563 242.199 47.1197 242.196 46.9824C242.2 46.8492 242.177 46.7166 242.129 46.5923C242.081 46.468 242.009 46.3545 241.917 46.2583C241.824 46.1621 241.714 46.0852 241.592 46.0319C241.47 45.9786 241.338 45.9501 241.205 45.948Z" fill="#E4E4E4"/>
<path d="M215.357 50.7354H199.538C199.262 50.7354 198.998 50.8449 198.803 51.0399C198.608 51.2349 198.498 51.4994 198.498 51.7751C198.498 52.0509 198.608 52.3154 198.803 52.5104C198.998 52.7054 199.262 52.8149 199.538 52.8149H215.357C215.633 52.8149 215.897 52.7054 216.092 52.5104C216.287 52.3154 216.397 52.0509 216.397 51.7751C216.397 51.4994 216.287 51.2349 216.092 51.0399C215.897 50.8449 215.633 50.7354 215.357 50.7354Z" fill="#E4E4E4"/>
<path d="M226.334 69.0401H214.42C214.123 69.0373 213.828 69.0937 213.552 69.2061C213.277 69.3186 213.027 69.4848 212.817 69.6951C212.606 69.9054 212.44 70.1555 212.328 70.4308C212.215 70.7061 212.159 71.001 212.162 71.2984V81.6474C212.159 81.9448 212.215 82.2397 212.328 82.515C212.44 82.7903 212.606 83.0404 212.817 83.2507C213.027 83.461 213.277 83.6272 213.552 83.7397C213.828 83.8521 214.123 83.9086 214.42 83.9057H226.334C226.632 83.9093 226.928 83.8534 227.203 83.7413C227.479 83.6291 227.73 83.463 227.941 83.2527C228.152 83.0423 228.319 82.792 228.431 82.5163C228.544 82.2406 228.601 81.9452 228.598 81.6474V71.2984C228.595 70.6994 228.355 70.1259 227.931 69.7028C227.507 69.2798 226.933 69.0416 226.334 69.0401V69.0401Z" fill="#FFE199"/>
<path d="M241.205 90.6855H199.538C199.262 90.6855 198.998 90.7951 198.803 90.9901C198.608 91.1851 198.498 91.4496 198.498 91.7253C198.498 92.0011 198.608 92.2656 198.803 92.4606C198.998 92.6556 199.262 92.7651 199.538 92.7651H241.156C241.293 92.7673 241.43 92.7419 241.557 92.6904C241.684 92.6389 241.799 92.5624 241.896 92.4654C241.993 92.3684 242.07 92.2529 242.121 92.1258C242.173 91.9987 242.198 91.8625 242.196 91.7253C242.2 91.5917 242.178 91.4585 242.13 91.3336C242.083 91.2087 242.011 91.0945 241.918 90.9977C241.826 90.901 241.716 90.8235 241.593 90.7699C241.471 90.7163 241.339 90.6876 241.205 90.6855Z" fill="#E4E4E4"/>
<path d="M215.357 95.4727H199.538C199.262 95.4727 198.998 95.5822 198.803 95.7772C198.608 95.9722 198.498 96.2367 198.498 96.5124C198.498 96.7882 198.608 97.0527 198.803 97.2477C198.998 97.4427 199.262 97.5522 199.538 97.5522H215.357C215.633 97.5522 215.897 97.4427 216.092 97.2477C216.287 97.0527 216.397 96.7882 216.397 96.5124C216.397 96.2367 216.287 95.9722 216.092 95.7772C215.897 95.5822 215.633 95.4727 215.357 95.4727V95.4727Z" fill="#E4E4E4"/>
<path d="M226.334 113.777H214.42C214.123 113.775 213.828 113.832 213.553 113.945C213.278 114.058 213.029 114.224 212.818 114.434C212.608 114.644 212.442 114.894 212.329 115.169C212.217 115.444 212.16 115.739 212.162 116.036V126.385C212.159 126.682 212.215 126.977 212.328 127.252C212.44 127.528 212.606 127.778 212.817 127.988C213.027 128.198 213.277 128.364 213.552 128.477C213.828 128.589 214.123 128.646 214.42 128.643H226.334C226.632 128.647 226.928 128.591 227.203 128.479C227.479 128.366 227.73 128.2 227.941 127.99C228.152 127.78 228.319 127.529 228.431 127.254C228.544 126.978 228.601 126.683 228.598 126.385V116.052C228.599 115.754 228.541 115.459 228.427 115.183C228.314 114.908 228.147 114.657 227.937 114.446C227.727 114.235 227.477 114.067 227.202 113.952C226.927 113.838 226.632 113.778 226.334 113.777V113.777Z" fill="#FFE199"/>
<path d="M241.205 135.423H199.538C199.262 135.423 198.998 135.532 198.803 135.727C198.608 135.922 198.498 136.187 198.498 136.463C198.498 136.738 198.608 137.003 198.803 137.198C198.998 137.393 199.262 137.502 199.538 137.502H241.156C241.432 137.509 241.699 137.406 241.899 137.215C242.098 137.025 242.214 136.763 242.22 136.487C242.227 136.211 242.124 135.944 241.933 135.745C241.743 135.545 241.481 135.429 241.205 135.423V135.423Z" fill="#E4E4E4"/>
<path d="M215.357 140.216H199.538C199.262 140.216 198.998 140.325 198.803 140.52C198.608 140.715 198.498 140.98 198.498 141.256C198.498 141.531 198.608 141.796 198.803 141.991C198.998 142.186 199.262 142.295 199.538 142.295H215.357C215.633 142.295 215.897 142.186 216.092 141.991C216.287 141.796 216.397 141.531 216.397 141.256C216.397 140.98 216.287 140.715 216.092 140.52C215.897 140.325 215.633 140.216 215.357 140.216V140.216Z" fill="#E4E4E4"/>
<path d="M169.845 1.74654C169.844 1.49563 169.743 1.2554 169.566 1.07798C169.388 0.900554 169.148 0.80025 168.897 0.798828H1.87258C1.62167 0.80025 1.38144 0.900554 1.20401 1.07798C1.02659 1.2554 0.926287 1.49563 0.924866 1.74654V7.25952C0.929896 7.48891 1.00764 7.71077 1.1469 7.89313C1.01151 11.6461 0.924866 16.5579 0.924866 21.9463V146.178C0.924866 157.837 1.33103 167.298 1.87258 167.298H168.897C169.396 167.298 169.845 157.81 169.845 146.178V21.903C169.845 16.5254 169.758 11.6136 169.623 7.8498C169.762 7.66745 169.84 7.44558 169.845 7.21619V1.74654Z" fill="white"/>
<path d="M168.946 167.737H1.87258C1.37436 167.737 1.06026 167.737 0.740746 161.092C0.562034 157.069 0.469971 151.783 0.469971 146.135V21.9033C0.469971 16.7044 0.562034 11.6897 0.697422 7.85007C1.01152 0.349609 1.37436 0.349609 1.87258 0.349609H168.897C169.396 0.349609 169.758 0.349609 170.029 7.85007C170.165 11.7384 170.257 16.7044 170.257 21.9304V146.162C170.257 151.81 170.165 157.096 169.98 161.119C169.758 167.737 169.439 167.737 168.946 167.737ZM2.14877 166.833H168.675C169.038 165.43 169.444 157.475 169.444 146.178V21.9033C169.444 16.7044 169.358 11.7384 169.222 7.85007C168.995 3.14942 168.767 1.70348 168.681 1.254H2.14336C2.0513 1.70348 1.82926 3.14942 1.64513 7.8934C1.50975 11.7817 1.41768 16.7531 1.41768 21.9466V146.178C1.37436 157.431 1.78052 165.387 2.14336 166.833H2.14877Z" fill="#E4E4E4"/>
<path d="M168.946 0.799198H1.87258C1.62167 0.80062 1.38144 0.900924 1.20401 1.07835C1.02659 1.25577 0.926287 1.496 0.924866 1.74691V7.25989C0.929896 7.48928 1.00764 7.71114 1.1469 7.8935C1.23481 7.99089 1.34157 8.06943 1.46072 8.12435C1.57987 8.17927 1.70893 8.20944 1.84008 8.21301H168.854C168.983 8.21336 169.111 8.18487 169.229 8.1296C169.346 8.07433 169.449 7.99368 169.531 7.8935C169.672 7.71182 169.752 7.48989 169.758 7.25989V1.74691C169.78 1.6292 169.776 1.50808 169.744 1.39245C169.713 1.27682 169.657 1.16962 169.579 1.07872C169.501 0.987813 169.404 0.915521 169.294 0.86715C169.185 0.81878 169.066 0.795561 168.946 0.799198V0.799198Z" fill="#CACACA"/>
<path d="M6.38914 5.54293C6.64879 5.54508 6.90323 5.47004 7.12017 5.32735C7.3371 5.18465 7.50677 4.98073 7.60762 4.74146C7.70848 4.50218 7.73598 4.23834 7.68664 3.98341C7.6373 3.72848 7.51335 3.49395 7.3305 3.30958C7.14766 3.12521 6.91416 2.99931 6.65965 2.94786C6.40514 2.89641 6.14108 2.92172 5.90097 3.02059C5.66087 3.11946 5.45555 3.28742 5.31106 3.50317C5.16657 3.71891 5.08943 3.97272 5.08942 4.23238C5.0894 4.57809 5.22599 4.9098 5.46943 5.15527C5.71287 5.40074 6.04344 5.54007 6.38914 5.54293V5.54293Z" fill="white"/>
<path d="M11.4093 5.54298C11.6685 5.54298 11.9219 5.46611 12.1374 5.32211C12.3529 5.1781 12.5209 4.97342 12.6201 4.73395C12.7193 4.49448 12.7452 4.23097 12.6947 3.97675C12.6441 3.72253 12.5193 3.48901 12.336 3.30573C12.1527 3.12244 11.9192 2.99763 11.665 2.94706C11.4108 2.89649 11.1473 2.92244 10.9078 3.02164C10.6683 3.12083 10.4636 3.2888 10.3196 3.50432C10.1756 3.71984 10.0988 3.97322 10.0988 4.23243C10.0988 4.40453 10.1327 4.57495 10.1985 4.73395C10.2644 4.89295 10.3609 5.03743 10.4826 5.15912C10.7284 5.4049 11.0617 5.54298 11.4093 5.54298Z" fill="white"/>
<path d="M16.462 5.54298C16.7212 5.54298 16.9746 5.46611 17.1901 5.32211C17.4056 5.1781 17.5736 4.97342 17.6728 4.73395C17.772 4.49448 17.7979 4.23097 17.7473 3.97675C17.6968 3.72253 17.572 3.48901 17.3887 3.30573C17.2054 3.12244 16.9719 2.99763 16.7177 2.94706C16.4634 2.89649 16.1999 2.92244 15.9605 3.02164C15.721 3.12083 15.5163 3.2888 15.3723 3.50432C15.2283 3.71984 15.1514 3.97322 15.1514 4.23243C15.1514 4.40453 15.1853 4.57495 15.2512 4.73395C15.317 4.89295 15.4136 5.03743 15.5353 5.15912C15.7811 5.4049 16.1144 5.54298 16.462 5.54298Z" fill="white"/>
<path d="M163.975 4.05366H158.142C158.085 4.05417 158.029 4.06649 157.977 4.08983C157.925 4.11317 157.879 4.14704 157.84 4.18929C157.802 4.23153 157.773 4.28124 157.755 4.33526C157.737 4.38929 157.731 4.44645 157.736 4.50315C157.735 4.55669 157.745 4.60983 157.765 4.65944C157.786 4.70905 157.815 4.75411 157.853 4.79197C157.891 4.82984 157.936 4.85973 157.986 4.87988C158.035 4.90003 158.089 4.91004 158.142 4.90931H163.975C164.087 4.91109 164.196 4.87016 164.279 4.79478C164.363 4.7194 164.415 4.61518 164.424 4.50315C164.428 4.44309 164.419 4.38287 164.398 4.32653C164.377 4.27018 164.344 4.21902 164.301 4.17646C164.259 4.13389 164.208 4.10092 164.151 4.07974C164.095 4.05856 164.035 4.04967 163.975 4.05366V4.05366Z" fill="white"/>
<path d="M163.975 5.67833H158.142C158.085 5.67958 158.029 5.69258 157.977 5.71652C157.925 5.74046 157.878 5.77483 157.84 5.8175C157.802 5.86017 157.773 5.91021 157.755 5.96453C157.737 6.01885 157.731 6.07627 157.736 6.13323C157.736 6.24095 157.779 6.34426 157.855 6.42043C157.931 6.4966 158.034 6.53939 158.142 6.53939H163.975C164.087 6.53992 164.195 6.49855 164.278 6.42341C164.361 6.34827 164.413 6.24478 164.424 6.13323C164.428 6.07294 164.419 6.01251 164.398 5.95591C164.377 5.89931 164.344 5.84783 164.302 5.80486C164.259 5.76188 164.208 5.72839 164.152 5.70658C164.095 5.68477 164.035 5.67514 163.975 5.67833V5.67833Z" fill="white"/>
<path d="M55.8759 28.3643H36.3097C35.3272 28.3685 34.3861 28.7607 33.6913 29.4555C32.9966 30.1503 32.6044 31.0913 32.6001 32.0739V49.019C32.6058 50.0006 32.9986 50.9402 33.6932 51.6338C34.3878 52.3274 35.3281 52.7189 36.3097 52.7232H55.8759C56.8566 52.7175 57.7954 52.3254 58.4889 51.6319C59.1823 50.9385 59.5744 49.9996 59.5801 49.019V32.0739C59.5758 31.0923 59.1844 30.152 58.4908 29.4574C57.7972 28.7628 56.8575 28.37 55.8759 28.3643Z" fill="#FFE199"/>
<path d="M136.496 34.917H68.3478C67.904 34.917 67.4784 35.0933 67.1646 35.4071C66.8507 35.7209 66.6744 36.1466 66.6744 36.5904C66.6814 37.032 66.86 37.4536 67.1723 37.7659C67.4846 38.0782 67.9062 38.2568 68.3478 38.2638H136.496C136.94 38.2638 137.366 38.0875 137.68 37.7736C137.994 37.4598 138.17 37.0342 138.17 36.5904C138.17 36.1466 137.994 35.7209 137.68 35.4071C137.366 35.0933 136.94 34.917 136.496 34.917Z" fill="#E4E4E4"/>
<path d="M94.2447 42.7803H68.3478C68.1281 42.7803 67.9105 42.8236 67.7074 42.9077C67.5044 42.9917 67.3199 43.115 67.1646 43.2704C67.0092 43.4258 66.8859 43.6103 66.8018 43.8133C66.7177 44.0163 66.6744 44.2339 66.6744 44.4537C66.6814 44.8953 66.86 45.3169 67.1723 45.6292C67.4846 45.9415 67.9062 46.1201 68.3478 46.1271H94.2447C94.6885 46.1271 95.1142 45.9507 95.428 45.6369C95.7418 45.3231 95.9181 44.8975 95.9181 44.4537C95.9181 44.0099 95.7418 43.5842 95.428 43.2704C95.1142 42.9566 94.6885 42.7803 94.2447 42.7803V42.7803Z" fill="#E4E4E4"/>
<path d="M55.8759 73.5566H36.3097C35.3281 73.5609 34.3878 73.9524 33.6932 74.646C32.9986 75.3396 32.6058 76.2792 32.6001 77.2608V94.2113C32.6058 95.1929 32.9986 96.1326 33.6932 96.8262C34.3878 97.5198 35.3281 97.9113 36.3097 97.9155H55.8759C56.8566 97.9099 57.7954 97.5178 58.4889 96.8243C59.1823 96.1309 59.5744 95.192 59.5801 94.2113V77.2608C59.5744 76.2802 59.1823 75.3413 58.4889 74.6479C57.7954 73.9544 56.8566 73.5623 55.8759 73.5566V73.5566Z" fill="#FFE199"/>
<path d="M136.496 80.1094H68.3478C67.904 80.1094 67.4784 80.2857 67.1646 80.5995C66.8507 80.9133 66.6744 81.339 66.6744 81.7828C66.6814 82.2244 66.86 82.646 67.1723 82.9583C67.4846 83.2706 67.9062 83.4492 68.3478 83.4561H136.496C136.94 83.4561 137.366 83.2798 137.68 82.966C137.994 82.6522 138.17 82.2266 138.17 81.7828C138.17 81.339 137.994 80.9133 137.68 80.5995C137.366 80.2857 136.94 80.1094 136.496 80.1094Z" fill="#E4E4E4"/>
<path d="M94.2447 87.9727H68.3478C67.904 87.9727 67.4784 88.149 67.1646 88.4628C66.8507 88.7766 66.6744 89.2022 66.6744 89.6461C66.6814 90.0877 66.86 90.5093 67.1723 90.8216C67.4846 91.1339 67.9062 91.3125 68.3478 91.3194H94.2447C94.6885 91.3194 95.1142 91.1431 95.428 90.8293C95.7418 90.5155 95.9181 90.0899 95.9181 89.6461C95.9181 89.2022 95.7418 88.7766 95.428 88.4628C95.1142 88.149 94.6885 87.9727 94.2447 87.9727Z" fill="#E4E4E4"/>
<path d="M55.8759 118.76H36.3097C35.3281 118.764 34.3878 119.155 33.6932 119.849C32.9986 120.543 32.6058 121.482 32.6001 122.464V139.409C32.6015 140.393 32.9925 141.337 33.6875 142.034C34.3826 142.732 35.3253 143.125 36.3097 143.129H55.8759C56.8575 143.124 57.7972 142.731 58.4908 142.036C59.1844 141.342 59.5758 140.401 59.5801 139.42V122.453C59.5716 121.474 59.1782 120.538 58.4851 119.847C57.792 119.156 56.8547 118.765 55.8759 118.76V118.76Z" fill="#FFE199"/>
<path d="M136.496 125.302H68.3478C67.904 125.302 67.4784 125.478 67.1646 125.792C66.8507 126.105 66.6744 126.531 66.6744 126.975C66.6815 127.416 66.8602 127.837 67.1726 128.149C67.4851 128.46 67.9067 128.637 68.3478 128.643H136.496C136.724 128.656 136.951 128.622 137.165 128.544C137.379 128.466 137.575 128.345 137.741 128.189C137.906 128.032 138.038 127.844 138.128 127.635C138.218 127.425 138.265 127.2 138.265 126.972C138.265 126.744 138.218 126.519 138.128 126.31C138.038 126.101 137.906 125.912 137.741 125.756C137.575 125.599 137.379 125.478 137.165 125.4C136.951 125.322 136.724 125.289 136.496 125.302V125.302Z" fill="#E4E4E4"/>
<path d="M94.2447 133.165H68.3478C67.904 133.165 67.4784 133.341 67.1646 133.655C66.8507 133.969 66.6744 134.395 66.6744 134.838C66.6815 135.28 66.8602 135.701 67.1726 136.012C67.4851 136.323 67.9067 136.501 68.3478 136.506H94.2447C94.6714 136.482 95.0726 136.295 95.366 135.985C95.6595 135.674 95.823 135.263 95.823 134.836C95.823 134.408 95.6595 133.997 95.366 133.687C95.0726 133.376 94.6714 133.189 94.2447 133.165V133.165Z" fill="#E4E4E4"/>
<path d="M198.769 197.111H86.8309C86.3327 197.111 85.8832 189.199 85.8832 179.44V75.4359C85.8832 65.688 86.2893 57.7705 86.8309 57.7705H198.726C199.224 57.7705 199.674 65.6771 199.674 75.4359V179.413C199.674 189.161 199.267 197.111 198.769 197.111Z" fill="white"/>
<path d="M198.769 197.561H86.8309C86.3814 197.561 86.0186 197.561 85.6991 191.956C85.5203 188.614 85.4283 184.141 85.4283 179.44V75.4357C85.4283 70.6917 85.5203 66.2618 85.6991 62.9205C86.0186 57.3154 86.3327 57.3154 86.8309 57.3154H198.726C199.175 57.3154 199.538 57.3154 199.852 62.9205C200.036 66.2618 200.123 70.735 200.123 75.4357V179.413C200.123 184.157 200.036 188.587 199.852 191.928C199.582 197.561 199.224 197.561 198.769 197.561ZM87.1017 196.656H198.498C198.813 195.481 199.224 189.248 199.224 179.44V75.4357C199.224 65.6282 198.813 59.395 198.498 58.2198H87.1017C86.7876 59.395 86.3814 65.6282 86.3814 75.4357V179.413C86.3218 189.248 86.7388 195.481 87.1017 196.656Z" fill="#E4E4E4"/>
<path d="M198.769 65.1086H86.8309C86.579 65.1072 86.338 65.0061 86.1604 64.8275C85.9828 64.6489 85.8832 64.4073 85.8832 64.1555V58.6479C85.8846 58.397 85.9849 58.1568 86.1623 57.9793C86.3397 57.8019 86.58 57.7016 86.8309 57.7002H198.726C198.977 57.7016 199.217 57.8019 199.394 57.9793C199.572 58.1568 199.672 58.397 199.674 58.6479V64.1609C199.678 64.2829 199.658 64.4045 199.614 64.5186C199.571 64.6327 199.505 64.737 199.421 64.8253C199.337 64.9136 199.236 64.9841 199.124 65.0328C199.012 65.0815 198.891 65.1072 198.769 65.1086Z" fill="#CACACA"/>
<path d="M91.3528 62.4873C91.612 62.4873 91.8654 62.4105 92.081 62.2664C92.2965 62.1224 92.4644 61.9178 92.5636 61.6783C92.6628 61.4388 92.6888 61.1753 92.6382 60.9211C92.5876 60.6669 92.4628 60.4333 92.2796 60.2501C92.0963 60.0668 91.8627 59.942 91.6085 59.8914C91.3543 59.8408 91.0908 59.8668 90.8513 59.966C90.6119 60.0652 90.4072 60.2331 90.2632 60.4487C90.1192 60.6642 90.0423 60.9176 90.0423 61.1768C90.0437 61.5239 90.1823 61.8564 90.4277 62.1019C90.6732 62.3474 91.0057 62.4859 91.3528 62.4873Z" fill="white"/>
<path d="M96.3676 62.4873C96.6268 62.4873 96.8802 62.4105 97.0957 62.2664C97.3112 62.1224 97.4792 61.9178 97.5784 61.6783C97.6776 61.4388 97.7036 61.1753 97.653 60.9211C97.6024 60.6669 97.4776 60.4333 97.2943 60.2501C97.111 60.0668 96.8775 59.942 96.6233 59.8914C96.3691 59.8408 96.1056 59.8668 95.8661 59.966C95.6266 60.0652 95.4219 60.2331 95.2779 60.4487C95.1339 60.6642 95.0571 60.9176 95.0571 61.1768C95.0571 61.5243 95.1951 61.8577 95.4409 62.1035C95.6867 62.3492 96.02 62.4873 96.3676 62.4873Z" fill="white"/>
<path d="M101.426 62.4873C101.685 62.4873 101.938 62.4105 102.154 62.2664C102.369 62.1224 102.537 61.9178 102.636 61.6783C102.736 61.4388 102.762 61.1753 102.711 60.9211C102.66 60.6669 102.536 60.4333 102.352 60.2501C102.169 60.0668 101.936 59.942 101.681 59.8914C101.427 59.8408 101.164 59.8668 100.924 59.966C100.685 60.0652 100.48 60.2331 100.336 60.4487C100.192 60.6642 100.115 60.9176 100.115 61.1768C100.115 61.5243 100.253 61.8577 100.499 62.1035C100.745 62.3492 101.078 62.4873 101.426 62.4873Z" fill="white"/>
<path d="M193.798 60.2231H188.014C187.895 60.2231 187.781 60.1758 187.696 60.0915C187.612 60.0072 187.565 59.8929 187.565 59.7737C187.561 59.7136 187.569 59.6534 187.591 59.597C187.612 59.5407 187.645 59.4895 187.687 59.447C187.73 59.4044 187.781 59.3714 187.837 59.3503C187.894 59.3291 187.954 59.3202 188.014 59.3242H193.798C193.855 59.3247 193.911 59.337 193.963 59.3603C194.015 59.3837 194.061 59.4175 194.1 59.4598C194.138 59.502 194.167 59.5517 194.185 59.6058C194.203 59.6598 194.209 59.717 194.204 59.7737C194.218 59.8316 194.217 59.8921 194.202 59.9498C194.187 60.0075 194.159 60.0607 194.119 60.1049C194.079 60.1491 194.029 60.1829 193.973 60.2035C193.917 60.2241 193.857 60.2309 193.798 60.2231V60.2231Z" fill="white"/>
<path d="M193.798 61.8536H188.014C187.955 61.8536 187.896 61.8418 187.841 61.8188C187.786 61.7959 187.736 61.7623 187.694 61.72C187.652 61.6777 187.619 61.6275 187.597 61.5723C187.575 61.5172 187.564 61.4581 187.565 61.3987C187.561 61.3386 187.569 61.2784 187.591 61.222C187.612 61.1657 187.645 61.1145 187.687 61.072C187.73 61.0294 187.781 60.9964 187.837 60.9753C187.894 60.9541 187.954 60.9452 188.014 60.9492H193.798C193.918 60.9492 194.032 60.9963 194.118 61.0805C194.203 61.1646 194.251 61.279 194.253 61.3987C194.257 61.4594 194.248 61.5203 194.226 61.5773C194.205 61.6343 194.171 61.6861 194.128 61.7292C194.085 61.7722 194.034 61.8056 193.977 61.8271C193.92 61.8485 193.859 61.8575 193.798 61.8536V61.8536Z" fill="white"/>
<path d="M193.798 63.4782H188.014C187.895 63.4782 187.781 63.4309 187.696 63.3466C187.612 63.2623 187.565 63.1479 187.565 63.0287C187.561 62.9684 187.57 62.908 187.591 62.8514C187.612 62.7948 187.645 62.7433 187.687 62.7004C187.73 62.6574 187.781 62.6239 187.837 62.6021C187.893 62.5803 187.954 62.5707 188.014 62.5738H193.798C193.855 62.5751 193.911 62.5881 193.963 62.612C194.015 62.636 194.062 62.6703 194.1 62.713C194.138 62.7557 194.167 62.8057 194.185 62.86C194.203 62.9144 194.209 62.9718 194.204 63.0287C194.218 63.0867 194.217 63.1472 194.202 63.2049C194.187 63.2625 194.159 63.3158 194.119 63.36C194.079 63.4042 194.029 63.438 193.973 63.4586C193.917 63.4792 193.857 63.4859 193.798 63.4782V63.4782Z" fill="white"/>
<path d="M121.219 99.2641H106.939C106.221 99.2641 105.532 98.9788 105.024 98.471C104.516 97.9632 104.231 97.2745 104.231 96.5563V84.1765C104.231 83.4584 104.516 82.7696 105.024 82.2618C105.532 81.754 106.221 81.4688 106.939 81.4688H121.219C121.937 81.4688 122.626 81.754 123.134 82.2618C123.642 82.7696 123.927 83.4584 123.927 84.1765V96.5563C123.927 97.2745 123.642 97.9632 123.134 98.471C122.626 98.9788 121.937 99.2641 121.219 99.2641V99.2641Z" fill="#99B6FF"/>
<path d="M180.107 88.7412H130.35C130.04 88.7206 129.75 88.5829 129.537 88.3562C129.325 88.1294 129.207 87.8305 129.207 87.52C129.207 87.2095 129.325 86.9106 129.537 86.6839C129.75 86.4571 130.04 86.3195 130.35 86.2988H180.107C180.417 86.3195 180.708 86.4571 180.92 86.6839C181.132 86.9106 181.25 87.2095 181.25 87.52C181.25 87.8305 181.132 88.1294 180.92 88.3562C180.708 88.5829 180.417 88.7206 180.107 88.7412V88.7412Z" fill="#E4E4E4"/>
<path d="M149.239 94.4824H130.35C130.04 94.4618 129.75 94.3242 129.537 94.0974C129.325 93.8707 129.207 93.5718 129.207 93.2612C129.207 92.9507 129.325 92.6518 129.537 92.4251C129.75 92.1983 130.04 92.0607 130.35 92.0401H149.239C149.4 92.0393 149.559 92.0703 149.707 92.1312C149.855 92.1922 149.99 92.2818 150.104 92.395C150.218 92.5082 150.308 92.6428 150.37 92.791C150.431 92.9392 150.463 93.0981 150.463 93.2585C150.467 93.4205 150.439 93.5816 150.379 93.7322C150.319 93.8827 150.229 94.0194 150.114 94.1339C150 94.2485 149.863 94.3385 149.713 94.3984C149.562 94.4583 149.401 94.4869 149.239 94.4824Z" fill="#E4E4E4"/>
<path d="M121.219 135.878H106.939C106.221 135.878 105.532 135.593 105.024 135.085C104.516 134.578 104.231 133.889 104.231 133.171V120.78C104.231 120.062 104.516 119.373 105.024 118.865C105.532 118.358 106.221 118.072 106.939 118.072H121.219C121.937 118.072 122.626 118.358 123.134 118.865C123.642 119.373 123.927 120.062 123.927 120.78V133.165C123.928 133.521 123.858 133.874 123.722 134.203C123.587 134.532 123.387 134.831 123.136 135.083C122.884 135.335 122.586 135.535 122.257 135.672C121.928 135.808 121.575 135.878 121.219 135.878V135.878Z" fill="#99B6FF"/>
<path d="M180.107 125.345H130.35C130.027 125.345 129.717 125.217 129.488 124.988C129.26 124.76 129.131 124.45 129.131 124.127C129.131 123.804 129.26 123.494 129.488 123.265C129.717 123.037 130.027 122.908 130.35 122.908H180.107C180.431 122.908 180.741 123.037 180.969 123.265C181.198 123.494 181.326 123.804 181.326 124.127C181.326 124.45 181.198 124.76 180.969 124.988C180.741 125.217 180.431 125.345 180.107 125.345V125.345Z" fill="#E4E4E4"/>
<path d="M149.239 131.086H130.35C130.04 131.065 129.75 130.927 129.537 130.701C129.325 130.474 129.207 130.175 129.207 129.865C129.207 129.554 129.325 129.255 129.537 129.028C129.75 128.802 130.04 128.664 130.35 128.643H149.239C149.406 128.632 149.574 128.656 149.732 128.712C149.89 128.768 150.034 128.856 150.157 128.971C150.279 129.085 150.377 129.224 150.443 129.377C150.51 129.531 150.544 129.697 150.544 129.865C150.544 130.032 150.51 130.198 150.443 130.352C150.377 130.505 150.279 130.644 150.157 130.758C150.034 130.873 149.89 130.961 149.732 131.017C149.574 131.074 149.406 131.097 149.239 131.086V131.086Z" fill="#E4E4E4"/>
<path d="M121.219 172.481H106.939C106.221 172.481 105.532 172.196 105.024 171.688C104.516 171.181 104.231 170.492 104.231 169.774V157.388C104.231 156.67 104.516 155.982 105.024 155.474C105.532 154.966 106.221 154.681 106.939 154.681H121.219C121.937 154.681 122.626 154.966 123.134 155.474C123.642 155.982 123.927 156.67 123.927 157.388V169.768C123.928 170.124 123.858 170.477 123.722 170.806C123.587 171.135 123.387 171.434 123.136 171.686C122.884 171.938 122.586 172.138 122.257 172.275C121.928 172.411 121.575 172.481 121.219 172.481V172.481Z" fill="#99B6FF"/>
<path d="M180.107 161.954H130.35C130.04 161.933 129.75 161.796 129.537 161.569C129.325 161.342 129.207 161.043 129.207 160.733C129.207 160.422 129.325 160.123 129.537 159.897C129.75 159.67 130.04 159.532 130.35 159.512H180.107C180.417 159.532 180.708 159.67 180.92 159.897C181.132 160.123 181.25 160.422 181.25 160.733C181.25 161.043 181.132 161.342 180.92 161.569C180.708 161.796 180.417 161.933 180.107 161.954V161.954Z" fill="#E4E4E4"/>
<path d="M149.239 167.689H130.35C130.027 167.689 129.717 167.561 129.488 167.332C129.26 167.104 129.131 166.794 129.131 166.47C129.131 166.147 129.26 165.837 129.488 165.609C129.717 165.38 130.027 165.252 130.35 165.252H149.239C149.562 165.252 149.872 165.38 150.101 165.609C150.329 165.837 150.458 166.147 150.458 166.47C150.458 166.794 150.329 167.104 150.101 167.332C149.872 167.561 149.562 167.689 149.239 167.689Z" fill="#E4E4E4"/>
</svg>
