<svg width="159" height="264" viewBox="0 0 159 264" fill="none" xmlns="http://www.w3.org/2000/svg">
<g clip-path="url(#clip0_3014_609)">
<path d="M49.5908 146.091C49.241 145.327 49.046 144.5 49.017 143.66C48.988 142.82 49.1256 141.982 49.4218 141.195C49.718 140.408 50.167 139.687 50.7429 139.075C51.3189 138.462 52.0103 137.969 52.7775 137.625C53.0962 137.498 53.4786 137.37 53.8398 137.243L55.7677 114.606L65.0623 121.925L61.8119 142.294C61.9671 143.125 61.9569 143.979 61.782 144.807C61.607 145.634 61.2707 146.419 60.7922 147.116C60.3138 147.814 59.7026 148.41 58.9935 148.871C58.2845 149.332 57.4916 149.649 56.66 149.804C55.237 150.054 53.7713 149.825 52.4922 149.153C51.2131 148.482 50.1927 147.405 49.5908 146.091Z" fill="#FFB8B8"/>
<path d="M55.5712 134.848C54.9019 134.757 54.2861 134.433 53.8323 133.932C53.3786 133.432 53.116 132.787 53.0909 132.112L52.0286 106.401C51.6308 97.1553 53.5112 87.9538 57.5045 79.6057L67.0647 59.6249C67.7074 58.427 68.6249 57.3986 69.7421 56.624C70.8592 55.8494 72.144 55.3507 73.4912 55.1688C74.7968 54.9767 76.1295 55.1083 77.3723 55.5519C78.6151 55.9955 79.73 56.7376 80.6189 57.7129C81.0771 58.2002 81.483 58.7342 81.8298 59.3062C82.5563 60.4675 82.978 61.7932 83.056 63.1607C83.1339 64.5283 82.8657 65.8934 82.276 67.1297L67.6383 107.038L66.4911 133.005C66.4761 133.381 66.3866 133.751 66.2279 134.093C66.0692 134.434 65.8443 134.741 65.5662 134.996C65.2882 135.25 64.9625 135.447 64.608 135.574C64.2535 135.702 63.8772 135.758 63.5008 135.74H63.3096L55.5712 134.848Z" fill="#FFB500"/>
<path d="M28.2078 247.238L35.3992 250.361L50.8602 224.267L40.2962 219.684L28.2078 247.238Z" fill="#FFB8B8"/>
<path d="M27.443 244.057L41.5071 250.234C42.6857 250.751 43.7508 251.496 44.6415 252.425C45.5321 253.355 46.231 254.45 46.6981 255.65C47.1652 256.849 47.3913 258.129 47.3637 259.416C47.336 260.703 47.055 261.972 46.5368 263.15L46.4094 263.469L23.3693 253.378L27.443 244.057Z" fill="#2F2E41"/>
<path d="M124.112 255.896H131.941L135.659 225.792H124.112V255.896Z" fill="#FFB8B8"/>
<path d="M122.158 253.378H137.497C140.088 253.384 142.571 254.415 144.405 256.246C146.238 258.077 147.271 260.559 147.28 263.151V263.469H122.158V253.378Z" fill="#2F2E41"/>
<path d="M45.5808 247.302C45.2797 247.291 44.9807 247.248 44.6885 247.175L31.453 242.926C30.7431 242.687 30.1536 242.182 29.8088 241.517C29.464 240.852 29.3908 240.08 29.6047 239.362L73.454 99.677L106.293 93.2451L106.421 93.4363C128.122 128.761 135.377 182.792 140.025 240.026C140.086 240.767 139.853 241.503 139.378 242.075C138.902 242.647 138.221 243.01 137.481 243.085L123.034 244.546C122.357 244.606 121.68 244.426 121.122 244.038C120.563 243.649 120.159 243.077 119.98 242.421L93.4401 148.747C93.381 148.502 93.2269 148.291 93.0117 148.159C92.7966 148.028 92.538 147.987 92.2929 148.046C92.1488 148.084 92.0158 148.156 91.905 148.256C91.7942 148.356 91.7087 148.481 91.6556 148.62L48.1886 245.587C47.9783 246.103 47.6165 246.543 47.1509 246.849C46.6854 247.155 46.138 247.313 45.5808 247.302Z" fill="#2F2E41"/>
<path d="M90.4499 43.7768C93.5467 43.7768 96.5739 42.8585 99.1487 41.1381C101.724 39.4176 103.73 36.9722 104.916 34.1112C106.101 31.2502 106.411 28.102 105.807 25.0648C105.202 22.0275 103.711 19.2376 101.521 17.0479C99.3317 14.8581 96.5418 13.3669 93.5046 12.7628C90.4673 12.1586 87.3191 12.4687 84.4581 13.6538C81.5971 14.8388 79.1517 16.8457 77.4312 19.4206C75.7108 21.9954 74.7925 25.0226 74.7925 28.1194C74.7918 30.1757 75.1963 32.2121 75.9829 34.112C76.7695 36.012 77.9228 37.7384 79.3769 39.1924C80.831 40.6465 82.5573 41.7998 84.4573 42.5864C86.3572 43.373 88.3936 43.7775 90.4499 43.7768Z" fill="#FFB8B8"/>
<path d="M70.6391 103.788L70.5116 103.533C70.4479 103.406 63.2565 88.1307 63.8939 70.5028C64.0891 64.9418 66.3248 59.6474 70.1744 55.6295C74.0241 51.6117 79.2181 49.1518 84.7657 48.719C90.3132 48.2863 95.8259 49.911 100.252 53.2833C104.678 56.6556 107.708 61.5393 108.763 67.0027C110.797 77.2533 110.733 86.9251 108.636 95.8373L108.572 96.0232L108.381 96.0869L70.6391 103.788Z" fill="#FFB500"/>
<path d="M150.334 125.871C149.501 125.753 148.7 125.471 147.977 125.042C147.253 124.612 146.622 124.044 146.12 123.37C145.617 122.695 145.253 121.928 145.048 121.112C144.843 120.296 144.802 119.448 144.927 118.616C144.976 118.254 145.062 117.899 145.182 117.554L127.172 103.681L138.373 99.8623L153.775 113.671C154.559 113.991 155.271 114.463 155.871 115.059C156.472 115.655 156.948 116.364 157.274 117.144C157.599 117.925 157.766 118.763 157.767 119.609C157.767 120.455 157.6 121.293 157.276 122.074C156.689 123.376 155.694 124.451 154.441 125.136C153.188 125.821 151.746 126.079 150.334 125.871Z" fill="#FFB8B8"/>
<path d="M106.166 95.1994L106.102 95.1356L87.141 64.3944C86.4737 63.2056 86.1022 61.8737 86.0578 60.5111C86.0134 59.1485 86.2975 57.7953 86.8861 56.5656C87.4488 55.3769 88.2834 54.3373 89.3223 53.5309C90.3612 52.7245 91.5754 52.1739 92.8665 51.9236C93.5157 51.7972 94.1756 51.7331 94.837 51.7324C96.2064 51.7603 97.5472 52.1301 98.7373 52.8082C99.9274 53.4862 100.929 54.4511 101.651 55.6149L127.299 89.5323L148.544 104.552C149.16 104.998 149.577 105.666 149.708 106.415C149.839 107.164 149.673 107.934 149.245 108.562C149.181 108.626 149.181 108.69 149.118 108.754L144.162 114.755C143.731 115.274 143.129 115.623 142.465 115.738C141.8 115.854 141.116 115.73 140.535 115.387L106.166 95.1994Z" fill="#FFB500"/>
<path d="M87.635 27.1207C88.7822 25.214 91.3263 24.7041 93.557 24.8953C95.7877 25.0865 97.8856 25.9151 100.111 25.8513C106.283 25.7876 110.994 18.2775 108.45 12.7379C106.325 8.15968 101.014 6.12018 96.2338 4.59586C86.1797 1.28166 74.596 -1.89975 65.4926 3.44864C62.5897 5.20844 60.2098 7.71188 58.5991 10.7C56.9883 13.6881 56.2052 17.0523 56.3307 20.4445C56.5219 24.6457 58.1737 29.0381 56.7769 32.9843C55.1835 37.6316 50.2228 40.0482 45.448 41.2592C37.1732 43.3836 28.3937 43.0384 20.0551 44.8867C11.7165 46.735 3.18673 51.7329 0.902913 60.0024C-0.562981 65.4146 0.966648 71.2675 3.51072 76.2972C6.02133 81.2251 9.47826 85.6101 13.684 89.2016C17.8898 92.7932 22.762 95.5209 28.0222 97.2289C33.2825 98.937 38.8277 99.5919 44.3411 99.1562C49.8545 98.7206 55.2281 97.2029 60.1548 94.6899L62.2527 93.5427C72.3759 87.626 79.631 77.6994 83.9543 66.8804C86.4273 60.577 88.158 54.007 89.1115 47.3033C90.0675 41.0042 89.239 34.6361 87.5182 28.5282C87.4421 28.2978 87.4132 28.0544 87.4333 27.8125C87.4533 27.5707 87.5219 27.3354 87.635 27.1207Z" fill="#2F2E41"/>
</g>
<defs>
<clipPath id="clip0_3014_609">
<rect width="158.109" height="263.967" fill="white" transform="translate(0 0.0332031)"/>
</clipPath>
</defs>
</svg>
