<svg width="128" height="265" viewBox="0 0 128 265" fill="none" xmlns="http://www.w3.org/2000/svg">
<g clip-path="url(#clip0_3014_610)">
<path d="M0.472476 124.755C0.841568 123.037 1.87229 121.534 3.34149 120.571C4.81069 119.608 6.60014 119.262 8.32245 119.609C8.70324 119.692 9.07771 119.802 9.44311 119.938L24.9412 102.124L28.266 113.957L13.0707 129.068C12.3554 130.541 11.126 131.701 9.61438 132.33C8.10273 132.959 6.41314 133.014 4.86402 132.484C3.3149 131.953 2.01323 130.875 1.20431 129.451C0.395398 128.028 0.135101 126.357 0.472476 124.755Z" fill="#FFB8B8"/>
<path d="M85.4253 41.3048C88.637 41.3069 91.7772 40.3564 94.4487 38.5736C97.1201 36.7908 99.2028 34.2558 100.433 31.2892C101.664 28.3225 101.987 25.0576 101.362 21.9074C100.736 18.7571 99.1908 15.8631 96.9206 13.5913C94.6503 11.3196 91.7573 9.77214 88.6074 9.14479C85.4576 8.51745 82.1925 8.83836 79.225 10.0669C76.2576 11.2955 73.7212 13.3766 71.9366 16.0469C70.1521 18.7171 69.1996 21.8567 69.1996 25.0684C69.1989 27.1999 69.618 29.3107 70.4331 31.2802C71.2481 33.2497 72.4431 35.0394 73.9498 36.5471C75.4565 38.0548 77.2454 39.2509 79.2144 40.0672C81.1833 40.8836 83.2938 41.3041 85.4253 41.3048Z" fill="#FFB8B8"/>
<path d="M66.3634 248.177H58.3169L54.4928 216.963H66.4271L66.3634 248.177Z" fill="#FFB8B8"/>
<path d="M68.4719 256.027H42.447V255.697C42.4484 253.003 43.5193 250.42 45.4244 248.515C47.3296 246.609 49.9131 245.539 52.6073 245.537H68.4719V256.027Z" fill="#2F2E41"/>
<path d="M90.7684 256.755H82.7219L81.6013 226.332L90.8321 225.541L90.7684 256.755Z" fill="#FFB8B8"/>
<path d="M92.8769 264.605H66.8254V264.276C66.8254 261.582 67.8952 258.998 69.7995 257.093C71.7037 255.188 74.2867 254.117 76.9805 254.115H92.8769V264.605Z" fill="#2F2E41"/>
<path d="M88.5271 251.076L82.2598 250.354C81.5448 250.263 80.8854 249.921 80.3991 249.389C79.9128 248.857 79.6311 248.169 79.6042 247.449L78.4198 165.428C78.4144 165.166 78.308 164.917 78.1229 164.732C77.9378 164.546 77.6883 164.44 77.4266 164.435C77.2239 164.438 77.027 164.502 76.8619 164.62C76.6968 164.738 76.5715 164.903 76.5025 165.093L67.7496 189.711L68.3445 235.966C68.3498 236.729 68.0673 237.465 67.5533 238.028C67.0393 238.591 66.3318 238.94 65.572 239.004L57.329 239.333C56.5827 239.373 55.8488 239.13 55.2738 238.653C54.6988 238.175 54.3251 237.498 54.2272 236.757L49.9411 184.431L56.4686 129.795L105.411 133.353L91.8253 248.506C91.742 249.235 91.3935 249.909 90.8462 250.399C90.2988 250.888 89.5907 251.16 88.8563 251.161C88.7553 251.106 88.6422 251.077 88.5271 251.076Z" fill="#2F2E41"/>
<path d="M56.6651 134.613C56.225 134.377 55.8495 134.036 55.5717 133.622C55.2938 133.207 55.1222 132.73 55.0717 132.233C55.0717 132.233 59.4907 104.849 61.0734 104.323L57.5786 75.0207C57.162 71.449 57.4608 67.83 58.4574 64.3749C59.4541 60.9197 61.1288 57.6977 63.3838 54.8966C65.5646 52.1959 68.2636 49.9588 71.322 48.317C74.3804 46.6751 77.7363 45.6617 81.1923 45.3364C81.6544 45.2726 82.1802 45.2726 82.6422 45.2089C86.8187 44.9762 90.9891 45.762 94.7945 47.4987C98.5999 49.2353 101.926 51.8707 104.487 55.1781C107.154 58.5031 108.979 62.4231 109.805 66.6047C110.632 70.7862 110.437 75.1056 109.235 79.1954L107.254 86.0574V134.23C107.247 134.706 107.13 135.173 106.914 135.597C106.698 136.02 106.387 136.388 106.006 136.673C99.8718 141.22 92.8769 142.813 86.0839 142.813C73.4114 142.813 61.2859 137.05 56.6651 134.613Z" fill="#0048FF"/>
<path d="M18.674 125.769L10.1655 119.444C9.85241 119.21 9.58866 118.917 9.38941 118.582C9.19017 118.246 9.05937 117.874 9.00457 117.487C8.94976 117.101 8.97203 116.707 9.07009 116.329C9.16815 115.951 9.34006 115.596 9.57591 115.285C9.63964 115.221 9.70338 115.089 9.77243 115.02L60.4945 60.5797C62.2 58.7516 64.5354 57.6385 67.0295 57.4652C69.5236 57.2918 71.9906 58.0711 73.9326 59.6457C75.8745 61.2203 77.1468 63.473 77.4927 65.949C77.8386 68.4251 77.2323 70.9402 75.7961 72.9867C75.4747 73.5083 75.0732 73.9761 74.6064 74.3729L22.5034 125.515C22.0402 125.968 21.4418 126.259 20.7988 126.342C20.1558 126.425 19.5032 126.297 18.9396 125.977C18.8758 125.897 18.7431 125.817 18.674 125.769Z" fill="#0048FF"/>
<path d="M83.7735 118.572C84.1032 117.768 84.5891 117.037 85.2031 116.422C85.8171 115.806 86.547 115.319 87.3506 114.988C88.1542 114.656 89.0156 114.487 89.8849 114.491C90.7541 114.495 91.614 114.67 92.4149 115.009C92.7813 115.16 93.1363 115.337 93.4771 115.54L112.013 100.955L113.001 113.171L95.2564 125.11C94.2899 126.42 92.8766 127.33 91.2842 127.668C89.6918 128.005 88.0308 127.747 86.6162 126.942C85.2015 126.136 84.1313 124.84 83.6083 123.299C83.0854 121.757 83.1461 120.077 83.7788 118.578L83.7735 118.572Z" fill="#FFB8B8"/>
<path d="M100.398 124.251C99.9105 124.1 99.4713 123.825 99.1237 123.453C98.7761 123.08 98.5323 122.622 98.4165 122.126L96.5736 114.276C96.437 113.716 96.4707 113.127 96.6704 112.586C96.87 112.045 97.2265 111.576 97.6942 111.238L110.292 97.6679L91.7563 69.0936C90.215 67.2 89.4163 64.8098 89.5095 62.37C89.6028 59.9302 90.5815 57.6079 92.2628 55.8374C93.9441 54.067 96.2128 52.9696 98.6445 52.7505C101.076 52.5314 103.504 53.2056 105.475 54.6471C106.922 55.7184 108.06 57.1531 108.773 58.8058L125.992 92.3089C127.715 95.6348 128.149 99.4794 127.212 103.106C126.275 106.732 124.033 109.885 120.915 111.96L103.303 123.703C102.752 124.174 102.051 124.432 101.327 124.431C101.011 124.411 100.698 124.35 100.398 124.251Z" fill="#0048FF"/>
<path d="M97.4287 39.5896C97.1059 39.7922 96.7454 39.9275 96.369 39.9872C95.9926 40.0469 95.608 40.0299 95.2383 39.9371C94.8687 39.8443 94.5216 39.6777 94.218 39.4473C93.9145 39.2169 93.6606 38.9274 93.4718 38.5964C93.3212 38.3744 93.2098 38.1283 93.1425 37.8687V37.805C92.8132 36.4878 93.0788 35.0325 93.1425 33.6463C93.2062 32.2601 93.0628 30.7464 92.1546 29.7532C90.3701 27.8411 87.2736 28.8981 84.7189 28.436C83.2275 28.1117 81.9044 27.2574 80.995 26.0316C80.0857 24.8058 79.6519 23.2918 79.7742 21.7704C79.8379 21.5049 79.8379 21.1756 79.907 20.91C80.1631 19.6574 79.917 18.3542 79.2216 17.2813C78.5262 16.2084 77.4372 15.4516 76.1891 15.1739C75.756 15.0848 75.312 15.0615 74.8719 15.1049C72.3013 15.2376 69.5289 16.029 67.4362 14.1807C66.6638 13.4257 66.123 12.4657 65.8774 11.4139C65.6318 10.362 65.6917 9.26181 66.05 8.24278C67.2344 4.748 70.6655 2.8997 74.0168 1.86932C78.2014 0.622327 82.6118 0.326647 86.9254 1.00392C91.239 1.68119 95.3466 3.31427 98.9477 5.78369C101.125 7.30269 103.101 9.151 104.025 11.6579C104.949 14.1648 104.556 17.2028 102.506 18.8493C104.124 20.5232 105.271 22.5951 105.831 24.855C106.391 27.115 106.343 29.4827 105.693 31.7183C104.684 34.9953 99.8718 38.1343 97.4287 39.5896Z" fill="#2F2E41"/>
</g>
<defs>
<clipPath id="clip0_3014_610">
<rect width="127.883" height="264.355" fill="white" transform="translate(0.116638 0.472656)"/>
</clipPath>
</defs>
</svg>
