<svg width="70" height="145" viewBox="0 0 70 145" fill="none" xmlns="http://www.w3.org/2000/svg">
<g clip-path="url(#clip0_3014_610)">
<path d="M0.194763 68.0293C0.396795 67.0891 0.960983 66.2663 1.76518 65.7391C2.56939 65.2118 3.54889 65.0225 4.49163 65.2122C4.70007 65.2578 4.90504 65.3181 5.10505 65.3924L13.5883 55.6416L15.4082 62.1189L7.09068 70.3899C6.69914 71.1961 6.02624 71.8313 5.1988 72.1757C4.37137 72.5201 3.44653 72.55 2.59858 72.2597C1.75063 71.9694 1.03813 71.3791 0.595352 70.5998C0.152573 69.8206 0.0100933 68.9063 0.194763 68.0293Z" fill="#FFB8B8"/>
<path d="M46.6958 22.3509C48.4538 22.3521 50.1726 21.8318 51.6349 20.8559C53.0972 19.8801 54.2372 18.4925 54.9108 16.8686C55.5843 15.2448 55.7611 13.4576 55.4189 11.7333C55.0766 10.0089 54.2306 8.42479 52.9879 7.18128C51.7453 5.93778 50.1617 5.09076 48.4375 4.74737C46.7134 4.40398 44.9262 4.57964 43.3019 5.25213C41.6776 5.92462 40.2892 7.06374 39.3124 8.52538C38.3356 9.98703 37.8142 11.7055 37.8142 13.4635C37.8138 14.6303 38.0432 15.7856 38.4894 16.8637C38.9355 17.9418 39.5896 18.9214 40.4143 19.7467C41.2391 20.5719 42.2183 21.2267 43.296 21.6735C44.3738 22.1203 45.529 22.3505 46.6958 22.3509Z" fill="#FFB8B8"/>
<path d="M36.2618 135.587H31.8574L29.7642 118.501H36.2967L36.2618 135.587Z" fill="#FFB8B8"/>
<path d="M37.4159 139.883H23.1705V139.703C23.1713 138.228 23.7575 136.814 24.8003 135.771C25.8431 134.729 27.2573 134.142 28.732 134.142H37.4159V139.883Z" fill="#2F2E41"/>
<path d="M49.6204 140.282H45.216L44.6025 123.629L49.6553 123.196L49.6204 140.282Z" fill="#FFB8B8"/>
<path d="M50.7746 144.579H36.5146V144.398C36.5146 142.924 37.1002 141.51 38.1425 140.467C39.1849 139.424 40.5988 138.838 42.0733 138.837H50.7746V144.579Z" fill="#2F2E41"/>
<path d="M48.3935 137.174L44.963 136.779C44.5716 136.729 44.2107 136.542 43.9445 136.251C43.6783 135.959 43.5241 135.583 43.5094 135.189L42.8611 90.2926C42.8581 90.1494 42.7999 90.0128 42.6986 89.9115C42.5973 89.8102 42.4607 89.7519 42.3174 89.749C42.2065 89.7506 42.0987 89.786 42.0083 89.8504C41.918 89.9147 41.8493 90.0051 41.8116 90.1095L37.0205 103.584L37.3461 128.903C37.349 129.321 37.1944 129.724 36.9131 130.032C36.6317 130.34 36.2444 130.531 35.8285 130.566L31.3165 130.747C30.908 130.768 30.5063 130.635 30.1916 130.374C29.8769 130.113 29.6723 129.742 29.6187 129.337L27.2726 100.695L30.8456 70.7881L57.6356 72.7359L50.1989 135.767C50.1533 136.167 49.9626 136.535 49.663 136.803C49.3634 137.071 48.9757 137.22 48.5738 137.221C48.5185 137.191 48.4565 137.175 48.3935 137.174Z" fill="#2F2E41"/>
<path d="M30.9531 73.4249C30.7122 73.2958 30.5067 73.1096 30.3546 72.8825C30.2025 72.6554 30.1085 72.3944 30.0809 72.1225C30.0809 72.1225 32.4997 57.1328 33.3661 56.845L31.4531 40.8059C31.2251 38.8508 31.3886 36.8699 31.9342 34.9786C32.4797 33.0874 33.3964 31.3237 34.6307 29.7905C35.8244 28.3122 37.3018 27.0877 38.9759 26.189C40.65 25.2903 42.4869 24.7356 44.3786 24.5575C44.6316 24.5226 44.9194 24.5226 45.1723 24.4877C47.4584 24.3603 49.7412 24.7905 51.8242 25.7411C53.9071 26.6916 55.7279 28.1342 57.1297 29.9445C58.5896 31.7646 59.5882 33.9103 60.0407 36.1992C60.4932 38.488 60.3862 40.8524 59.7287 43.091L58.6444 46.8471V73.2156C58.6402 73.4759 58.5765 73.7318 58.4581 73.9636C58.3396 74.1954 58.1696 74.397 57.9612 74.5529C54.6033 77.0415 50.7745 77.9136 47.0562 77.9136C40.1196 77.9136 33.4824 74.7593 30.9531 73.4249Z" fill="#0048FF"/>
<path d="M10.1578 68.5846L5.50047 65.1221C5.32912 64.9944 5.18475 64.834 5.07568 64.6501C4.96662 64.4663 4.89503 64.2627 4.86503 64.0511C4.83503 63.8395 4.84722 63.6241 4.9009 63.4172C4.95457 63.2103 5.04867 63.0161 5.17777 62.8457C5.21265 62.8109 5.24754 62.7382 5.28534 62.7004L33.0493 32.9014C33.9828 31.9007 35.2612 31.2915 36.6264 31.1966C37.9916 31.1017 39.3419 31.5283 40.4049 32.3902C41.4679 33.2521 42.1643 34.4851 42.3537 35.8404C42.543 37.1958 42.2111 38.5725 41.425 39.6927C41.249 39.9782 41.0293 40.2342 40.7738 40.4514L12.2539 68.445C12.0004 68.6934 11.6728 68.8523 11.3209 68.898C10.9689 68.9436 10.6117 68.8734 10.3032 68.698C10.2683 68.6544 10.1956 68.6108 10.1578 68.5846Z" fill="#0048FF"/>
<path d="M45.7917 64.6452C45.9721 64.2049 46.2381 63.8048 46.5742 63.468C46.9103 63.1312 47.3098 62.8644 47.7497 62.6829C48.1895 62.5015 48.661 62.4091 49.1368 62.4111C49.6126 62.4131 50.0833 62.5094 50.5217 62.6944C50.7223 62.7772 50.9166 62.8743 51.1031 62.9852L61.2493 55.002L61.7901 61.6886L52.0771 68.224C51.5481 68.941 50.7744 69.439 49.9028 69.6237C49.0311 69.8085 48.122 69.6671 47.3476 69.2263C46.5733 68.7856 45.9875 68.0761 45.7012 67.2323C45.415 66.3885 45.4482 65.469 45.7946 64.6481L45.7917 64.6452Z" fill="#FFB8B8"/>
<path d="M54.8912 67.7532C54.6246 67.671 54.3842 67.5204 54.1939 67.3164C54.0037 67.1123 53.8702 66.862 53.8068 66.5903L52.798 62.2934C52.7233 61.9867 52.7418 61.6646 52.851 61.3684C52.9603 61.0721 53.1554 60.8152 53.4115 60.6305L60.3074 53.2026L50.1612 37.5617C49.3175 36.5252 48.8803 35.2169 48.9314 33.8814C48.9824 32.5459 49.5182 31.2748 50.4385 30.3056C51.3588 29.3365 52.6006 28.7359 53.9316 28.6159C55.2627 28.496 56.5918 28.8651 57.6705 29.6541C58.4624 30.2405 59.0853 31.0258 59.4759 31.9304L68.9011 50.2692C69.8439 52.0897 70.0817 54.1941 69.5688 56.1791C69.056 58.1641 67.8285 59.8899 66.1218 61.0259L56.4815 67.4537C56.18 67.7112 55.7964 67.8524 55.4 67.852C55.2269 67.8409 55.0559 67.8077 54.8912 67.7532Z" fill="#0048FF"/>
<path d="M53.2661 21.4115C53.0894 21.5224 52.8921 21.5965 52.686 21.6291C52.48 21.6618 52.2695 21.6525 52.0671 21.6017C51.8648 21.5509 51.6748 21.4597 51.5086 21.3336C51.3425 21.2075 51.2035 21.0491 51.1002 20.8678C51.0177 20.7464 50.9568 20.6117 50.9199 20.4696V20.4347C50.7397 19.7137 50.885 18.9171 50.9199 18.1583C50.9548 17.3995 50.8763 16.571 50.3792 16.0273C49.4024 14.9807 47.7075 15.5593 46.3091 15.3063C45.4927 15.1288 44.7685 14.6612 44.2707 13.9902C43.773 13.3193 43.5355 12.4905 43.6025 11.6578C43.6373 11.5124 43.6373 11.3322 43.6751 11.1868C43.8154 10.5011 43.6806 9.78784 43.3 9.20056C42.9193 8.61328 42.3232 8.19901 41.6401 8.04701C41.403 7.99824 41.16 7.98549 40.9191 8.00921C39.512 8.08189 37.9944 8.51507 36.849 7.50336C36.4262 7.09006 36.1301 6.56463 35.9957 5.98885C35.8613 5.41307 35.8941 4.81088 36.0902 4.25309C36.7385 2.34014 38.6166 1.32843 40.451 0.764427C42.7416 0.081853 45.1557 -0.0799948 47.5169 0.290725C49.878 0.661446 52.1264 1.55535 54.0975 2.90705C55.2895 3.73851 56.371 4.75022 56.8768 6.12243C57.3827 7.49464 57.1675 9.15757 56.0454 10.0588C56.9311 10.9751 57.559 12.1092 57.8653 13.3462C58.1716 14.5832 58.1455 15.8793 57.7897 17.103C57.2373 18.8967 54.6034 20.6149 53.2661 21.4115Z" fill="#2F2E41"/>
</g>
<defs>
<clipPath id="clip0_3014_610">
<rect width="70" height="144.701" fill="white"/>
</clipPath>
</defs>
</svg>
