<svg width="79" height="131" viewBox="0 0 79 131" fill="none" xmlns="http://www.w3.org/2000/svg">
<g clip-path="url(#clip0_3014_609)">
<path d="M24.9952 72.467C24.8216 72.0876 24.7249 71.6776 24.7105 71.2607C24.6961 70.8437 24.7643 70.4281 24.9113 70.0376C25.0583 69.6472 25.281 69.2897 25.5668 68.9857C25.8525 68.6817 26.1956 68.4373 26.5763 68.2665C26.7344 68.2033 26.9241 68.14 27.1033 68.0768L28.0599 56.8457L32.6714 60.477L31.0587 70.5828C31.1357 70.9954 31.1306 71.419 31.0438 71.8296C30.957 72.2401 30.7902 72.6296 30.5528 72.9756C30.3154 73.3217 30.0121 73.6175 29.6603 73.8463C29.3086 74.0751 28.9151 74.2323 28.5026 74.309C27.7965 74.433 27.0693 74.3195 26.4347 73.9862C25.8 73.6529 25.2938 73.1187 24.9952 72.467Z" fill="#FFB8B8"/>
<path d="M27.9623 66.8888C27.6302 66.8438 27.3247 66.6829 27.0996 66.4347C26.8745 66.1864 26.7442 65.8666 26.7317 65.5317L26.2047 52.7749C26.0073 48.1877 26.9403 43.6224 28.9215 39.4805L33.6648 29.5669C33.9837 28.9726 34.439 28.4624 34.9932 28.078C35.5475 27.6937 36.185 27.4463 36.8534 27.356C37.5011 27.2608 38.1624 27.326 38.779 27.5461C39.3956 27.7662 39.9488 28.1344 40.3898 28.6183C40.6172 28.8601 40.8185 29.125 40.9906 29.4088C41.351 29.985 41.5603 30.6428 41.599 31.3213C41.6377 31.9998 41.5045 32.6771 41.212 33.2904L33.9494 53.0911L33.3802 65.9744C33.3728 66.1613 33.3284 66.3447 33.2497 66.5143C33.1709 66.6839 33.0593 66.8361 32.9214 66.9623C32.7834 67.0885 32.6219 67.1861 32.446 67.2495C32.2701 67.3129 32.0834 67.3408 31.8966 67.3316H31.8018L27.9623 66.8888Z" fill="#FFB500"/>
<path d="M14.386 122.652L17.954 124.201L25.625 111.255L20.3836 108.98L14.386 122.652Z" fill="#FFB8B8"/>
<path d="M14.0065 121.073L20.9844 124.138C21.5692 124.395 22.0976 124.764 22.5395 125.225C22.9815 125.686 23.3282 126.23 23.5599 126.825C23.7917 127.42 23.9039 128.055 23.8902 128.694C23.8764 129.332 23.737 129.962 23.4799 130.547L23.4167 130.705L11.9853 125.698L14.0065 121.073Z" fill="#2F2E41"/>
<path d="M61.9692 126.947H65.8534L67.6981 112.011H61.9692V126.947Z" fill="#FFB8B8"/>
<path d="M60.9995 125.697H68.6098C69.8954 125.7 71.1276 126.212 72.0372 127.12C72.9467 128.029 73.4596 129.26 73.4638 130.546V130.704H60.9995V125.697Z" fill="#2F2E41"/>
<path d="M23.0056 122.683C22.8562 122.677 22.7078 122.656 22.5629 122.62L15.996 120.511C15.6438 120.393 15.3513 120.142 15.1803 119.813C15.0092 119.483 14.9729 119.099 15.079 118.743L36.8349 49.4383L53.1282 46.2471L53.1914 46.3419C63.9587 63.8684 67.5584 90.676 69.8642 119.073C69.8943 119.44 69.7791 119.806 69.543 120.089C69.307 120.373 68.9691 120.553 68.6019 120.59L61.4342 121.315C61.0982 121.345 60.7623 121.256 60.4853 121.063C60.2084 120.87 60.0079 120.587 59.919 120.261L46.7511 73.7846C46.7217 73.663 46.6453 73.558 46.5385 73.4928C46.4318 73.4276 46.3035 73.4074 46.1819 73.4367C46.1104 73.4557 46.0444 73.4914 45.9894 73.5409C45.9345 73.5904 45.892 73.6522 45.8657 73.7213L24.2994 121.832C24.1951 122.088 24.0156 122.306 23.7846 122.458C23.5536 122.61 23.282 122.688 23.0056 122.683Z" fill="#2F2E41"/>
<path d="M45.2675 21.703C46.804 21.703 48.3059 21.2474 49.5834 20.3938C50.861 19.5401 51.8567 18.3269 52.4446 16.9074C53.0326 15.4879 53.1865 13.9259 52.8867 12.4189C52.587 10.912 51.8471 9.5278 50.7606 8.44135C49.6742 7.35491 48.29 6.61504 46.7831 6.31529C45.2761 6.01554 43.7141 6.16938 42.2946 6.75736C40.8751 7.34534 39.6619 8.34104 38.8082 9.61856C37.9546 10.8961 37.499 12.398 37.499 13.9345C37.4987 14.9548 37.6994 15.9651 38.0897 16.9078C38.4799 17.8504 39.0521 18.707 39.7736 19.4284C40.495 20.1499 41.3516 20.7221 42.2942 21.1123C43.2369 21.5026 44.2472 21.7033 45.2675 21.703Z" fill="#FFB8B8"/>
<path d="M35.4383 51.4778L35.3751 51.3513C35.3434 51.2881 31.7754 43.7093 32.0916 34.9632C32.1885 32.2041 33.2978 29.5773 35.2078 27.5838C37.1178 25.5904 39.6948 24.3699 42.4472 24.1551C45.1997 23.9404 47.9348 24.7466 50.1308 26.4197C52.3268 28.0929 53.83 30.5159 54.3536 33.2266C55.3628 38.3125 55.3312 43.1112 54.2903 47.533L54.2587 47.6252L54.1638 47.6568L35.4383 51.4778Z" fill="#FFB500"/>
<path d="M74.979 62.4347C74.5659 62.376 74.1684 62.2361 73.8095 62.0231C73.4507 61.8101 73.1375 61.5281 72.8881 61.1935C72.6388 60.8589 72.4581 60.4782 72.3565 60.0734C72.255 59.6686 72.2346 59.2478 72.2964 58.8351C72.3208 58.6556 72.3632 58.479 72.4229 58.308L63.4871 51.425L69.0446 49.5303L76.6866 56.3817C77.0752 56.5403 77.4286 56.7742 77.7265 57.07C78.0244 57.3657 78.2608 57.7174 78.4222 58.1049C78.5836 58.4923 78.6668 58.9079 78.6669 59.3276C78.6671 59.7473 78.5843 60.163 78.4232 60.5506C78.1321 61.1964 77.6384 61.7298 77.0169 62.0698C76.3954 62.4099 75.6799 62.5379 74.979 62.4347Z" fill="#FFB8B8"/>
<path d="M53.065 47.2166L53.0333 47.185L43.6258 31.9326C43.2947 31.3428 43.1103 30.682 43.0883 30.006C43.0663 29.3299 43.2073 28.6585 43.4993 28.0484C43.7785 27.4586 44.1926 26.9428 44.708 26.5427C45.2235 26.1426 45.8259 25.8694 46.4665 25.7453C46.7886 25.6825 47.116 25.6507 47.4441 25.6504C48.1236 25.6642 48.7888 25.8477 49.3793 26.1841C49.9697 26.5205 50.4667 26.9993 50.8251 27.5767L63.5503 44.4049L74.091 51.8572C74.3964 52.0784 74.6036 52.4099 74.6685 52.7814C74.7335 53.1528 74.6511 53.535 74.4388 53.8467C74.4072 53.8783 74.4072 53.91 74.3756 53.9416L71.917 56.9193C71.703 57.1767 71.4045 57.3496 71.0747 57.4071C70.745 57.4645 70.4056 57.4028 70.1172 57.2329L53.065 47.2166Z" fill="#FFB500"/>
<path d="M43.8709 13.4392C44.4401 12.4932 45.7023 12.2402 46.8091 12.3351C47.9158 12.4299 48.9567 12.841 50.0609 12.8094C53.1229 12.7778 55.4603 9.05165 54.1981 6.30317C53.144 4.03165 50.5089 3.01975 48.1372 2.26345C43.1488 0.619109 37.4015 -0.959358 32.8848 1.69426C31.4446 2.56739 30.2638 3.80947 29.4646 5.29202C28.6654 6.77456 28.2769 8.44372 28.3392 10.1268C28.434 12.2112 29.2536 14.3905 28.5605 16.3484C27.77 18.6542 25.3087 19.8532 22.9397 20.454C18.8341 21.5081 14.4782 21.3368 10.341 22.2538C6.20375 23.1709 1.97167 25.6506 0.838548 29.7535C0.111242 32.4388 0.87017 35.3427 2.13242 37.8382C3.37806 40.2832 5.09323 42.4589 7.17993 44.2408C9.26663 46.0227 11.684 47.3761 14.2938 48.2235C16.9037 49.071 19.655 49.3959 22.3905 49.1798C25.126 48.9636 27.7921 48.2106 30.2365 46.9638L31.2774 46.3946C36.3 43.4591 39.8997 38.5339 42.0447 33.1661C43.2716 30.0386 44.1303 26.7789 44.6034 23.4529C45.0778 20.3275 44.6667 17.168 43.8129 14.1375C43.7751 14.0232 43.7608 13.9024 43.7708 13.7825C43.7807 13.6625 43.8148 13.5457 43.8709 13.4392Z" fill="#2F2E41"/>
</g>
<defs>
<clipPath id="clip0_3014_609">
<rect width="78.4464" height="130.968" fill="white" transform="translate(0.390564)"/>
</clipPath>
</defs>
</svg>
