<svg width="77" height="128" viewBox="0 0 77 128" fill="none" xmlns="http://www.w3.org/2000/svg">
<path d="M52.2295 70.3103C52.416 69.8986 52.51 69.4509 52.5049 68.9988C52.4999 68.5468 52.3958 68.1013 52.2001 67.6939C52.0044 67.2864 51.7219 66.9268 51.3723 66.6405C51.0228 66.3542 50.6147 66.148 50.177 66.0366L49.2455 55.0869L44.7659 58.6238L46.3372 68.4796C46.1989 69.228 46.3397 70.0013 46.7329 70.6527C47.1262 71.3042 47.7446 71.7887 48.4709 72.0144C49.1972 72.24 49.981 72.1912 50.6737 71.8771C51.3664 71.5631 51.92 71.0056 52.2295 70.3103H52.2295Z" fill="#FFB8B8"/>
<path d="M49.3484 64.8868C49.6708 64.8441 49.9678 64.689 50.1872 64.4488C50.4066 64.2086 50.5343 63.8986 50.5478 63.5735L51.0665 51.1474C51.2529 46.6812 50.3447 42.2371 48.421 38.2028L43.822 28.5575C43.5139 27.9774 43.072 27.4792 42.5329 27.1044C41.9939 26.7295 41.3733 26.4887 40.7226 26.402C40.091 26.313 39.4473 26.378 38.8462 26.5916C38.2452 26.8052 37.7046 27.161 37.2706 27.6288C37.0504 27.8643 36.8525 28.1197 36.6797 28.3919C36.3327 28.9553 36.1318 29.5965 36.0952 30.2572C36.0586 30.918 36.1875 31.5775 36.4701 32.1757L43.5222 51.4573L44.0647 64.0189C44.073 64.2093 44.1204 64.3959 44.204 64.567C44.2877 64.7381 44.4057 64.8902 44.5507 65.0135C44.6957 65.1369 44.8647 65.229 45.0469 65.284C45.2292 65.3391 45.4208 65.3558 45.6098 65.3333L49.3301 64.8892L49.3484 64.8868Z" fill="#FFB500"/>
<path d="M62.5425 119.179L59.0932 120.695L51.6119 108.1L56.7027 105.863L62.5425 119.179Z" fill="#FFB8B8"/>
<path d="M62.9279 117.666L56.135 120.65L56.1348 120.65C55.5663 120.9 55.0525 121.259 54.6228 121.708C54.1931 122.156 53.8558 122.685 53.6303 123.264C53.4048 123.843 53.2954 124.461 53.3084 125.082C53.3214 125.703 53.4566 126.316 53.7062 126.885L53.7679 127.026L64.8899 122.14L62.9279 117.666Z" fill="#2F2E41"/>
<path d="M16.2345 123.37H12.4675L10.6755 108.828L16.2351 108.828L16.2345 123.37Z" fill="#FFB8B8"/>
<path d="M17.1951 122.14L9.77659 122.14H9.77629C9.15544 122.14 8.54067 122.262 7.96707 122.5C7.39348 122.738 6.8723 123.086 6.4333 123.525C5.99429 123.965 5.64605 124.486 5.40847 125.061C5.17088 125.635 5.04859 126.25 5.0486 126.871V127.025L17.1948 127.025L17.1951 122.14Z" fill="#2F2E41"/>
<path d="M54.1756 119.237C54.3205 119.237 54.4645 119.214 54.6023 119.169L60.9896 117.114C61.3345 117.002 61.6218 116.759 61.7898 116.437C61.9579 116.115 61.9934 115.74 61.8888 115.392L40.7076 47.8861L24.8422 44.7725L24.7864 44.8635C14.2974 61.9457 10.7962 88.0402 8.57513 115.688C8.54791 116.049 8.66232 116.407 8.89408 116.685C9.12584 116.963 9.4567 117.14 9.81647 117.177L16.7993 117.876C17.1252 117.91 17.4525 117.827 17.7224 117.641C17.9922 117.455 18.1869 117.179 18.2712 116.862L31.0569 71.5925C31.082 71.5001 31.1352 71.4179 31.209 71.3572C31.2829 71.2964 31.3738 71.2602 31.4691 71.2534C31.5645 71.2466 31.6596 71.2697 31.7413 71.3194C31.8229 71.3692 31.8872 71.4431 31.925 71.5309L52.9095 118.4C53.0155 118.648 53.192 118.86 53.4171 119.008C53.6421 119.157 53.9059 119.237 54.1756 119.237V119.237Z" fill="#2F2E41"/>
<path d="M32.5105 20.8542C28.3425 20.8542 24.9638 17.4726 24.9638 13.3011C24.9638 9.12967 28.3425 5.74805 32.5105 5.74805C36.6784 5.74805 40.0571 9.12967 40.0571 13.3011C40.0571 17.4726 36.6784 20.8542 32.5105 20.8542Z" fill="#FFB8B8"/>
<path d="M42.0573 49.8849L42.1091 49.7768C42.1442 49.7032 45.6211 42.3209 45.2976 33.8057C45.1905 31.0108 44.0202 28.3624 42.0264 26.4026C40.0325 24.4427 37.3657 23.3196 34.5716 23.2628V23.2628C31.9966 23.2124 29.4863 24.073 27.483 25.6931C25.4797 27.3132 24.1119 29.5888 23.6204 32.1192C22.6514 37.0699 22.6756 41.759 23.6925 46.0556L23.7151 46.1511L23.8114 46.1709L42.0573 49.8849Z" fill="#FFB500"/>
<path d="M3.58071 60.5396C4.02756 60.4735 4.45449 60.3102 4.83143 60.0611C5.20837 59.812 5.52616 59.4832 5.76241 59.0978C5.99865 58.7125 6.14761 58.28 6.19879 57.8309C6.24997 57.3817 6.20212 56.9268 6.05862 56.4981L14.751 49.784L9.35404 47.9307L1.92705 54.5906C1.2235 54.8796 0.650334 55.4169 0.316132 56.1006C-0.018071 56.7843 -0.0900767 57.567 0.113759 58.3003C0.317595 59.0336 0.783098 59.6665 1.42208 60.0793C2.06106 60.492 2.82913 60.6558 3.58072 60.5396H3.58071Z" fill="#FFB8B8"/>
<path d="M24.9118 45.7381L24.9319 45.7056L34.0955 30.8527C34.4158 30.2794 34.5949 29.6378 34.6178 28.9813C34.6408 28.3248 34.5069 27.6722 34.2273 27.0779C33.9601 26.4982 33.5569 25.9917 33.0519 25.6017C32.5469 25.2116 31.9552 24.9496 31.3272 24.8378V24.8378C31.0103 24.78 30.6887 24.752 30.3665 24.754C29.7054 24.7671 29.058 24.9453 28.4832 25.2724C27.9083 25.5994 27.4242 26.065 27.0747 26.6269L14.6992 43.0034L4.44237 50.2632C4.28693 50.3732 4.15586 50.5141 4.05738 50.6772C3.9589 50.8402 3.89512 51.0219 3.87004 51.2107C3.84496 51.3996 3.85911 51.5916 3.91162 51.7747C3.96413 51.9579 4.05386 52.1282 4.17519 52.275L6.56306 55.1646C6.77175 55.4188 7.06441 55.5899 7.38816 55.6471C7.7119 55.7042 8.04539 55.6436 8.32839 55.4762L24.9118 45.7381Z" fill="#FFB500"/>
<path d="M33.8602 12.8328C33.304 11.9171 32.0766 11.6583 31.0109 11.7628C29.9453 11.8672 28.909 12.2422 27.8382 12.2339C24.8651 12.2108 22.5702 8.5841 23.8202 5.88414C24.8453 3.66988 27.4056 2.69759 29.7216 1.93448C34.5776 0.334491 40.1557 -1.20282 44.5623 1.39144C45.9666 2.24262 47.1183 3.45359 47.8985 4.89925C48.6788 6.34492 49.0592 7.97286 49.0006 9.61491C48.9015 11.6566 48.1203 13.7538 48.781 15.688C49.5433 17.9194 51.9601 19.1166 54.2442 19.6957C58.248 20.7109 62.4695 20.5473 66.4983 21.4579C70.5272 22.3684 74.6557 24.7861 75.7417 28.7745C76.455 31.3942 75.7107 34.2144 74.478 36.6332C73.2204 39.101 71.4726 41.2858 69.3418 43.054C67.211 44.8221 64.742 46.1363 62.0859 46.916C59.4299 47.6957 56.6428 47.9245 53.8954 47.5885C51.1479 47.2525 48.4979 46.3586 46.1076 44.9617C41.237 42.1153 37.7206 37.3045 35.6241 32.064C34.4355 29.0071 33.5987 25.8246 33.1299 22.578C32.6604 19.539 33.0588 16.4678 33.9093 13.5127C33.9495 13.4023 33.9659 13.2847 33.9574 13.1675C33.949 13.0503 33.9159 12.9363 33.8602 12.8328V12.8328Z" fill="#2F2E41"/>
</svg>
