<svg width="69" height="143" viewBox="0 0 69 143" fill="none" xmlns="http://www.w3.org/2000/svg">
<path d="M68.919 67.1764C68.8117 66.6626 68.5928 66.1785 68.2778 65.7582C67.9629 65.338 67.5594 64.9918 67.096 64.7441C66.6325 64.4963 66.1203 64.353 65.5953 64.3244C65.0704 64.2957 64.5456 64.3823 64.0578 64.578L55.6688 54.9531L53.8869 61.3404L62.1265 69.5011C62.5101 70.2975 63.173 70.9257 63.9896 71.2667C64.8061 71.6077 65.7196 71.6378 66.5568 71.3512C67.3941 71.0647 68.097 70.4814 68.5324 69.712C68.9677 68.9425 69.1053 68.0404 68.919 67.1764H68.919Z" fill="#FFB8B8"/>
<path d="M22.877 22.011C18.0262 22.011 14.0939 18.0847 14.0939 13.2413C14.0939 8.39798 18.0262 4.47168 22.877 4.47168C27.7277 4.47168 31.66 8.39798 31.66 13.2413C31.66 18.0847 27.7277 22.011 22.877 22.011Z" fill="#FFB8B8"/>
<path d="M33.1947 133.952L37.5789 133.952L39.6644 117.067L33.194 117.068L33.1947 133.952Z" fill="#FFB8B8"/>
<path d="M32.0767 138.196L46.2128 138.196V138.017C46.2128 137.296 46.0705 136.581 45.7939 135.915C45.5174 135.248 45.1121 134.643 44.6012 134.132C44.0903 133.622 43.4837 133.218 42.8162 132.942C42.1486 132.666 41.4331 132.523 40.7106 132.523H40.7102L32.0764 132.524L32.0767 138.196Z" fill="#2F2E41"/>
<path d="M19.9634 138.594L24.3475 138.594L24.9543 122.113L19.9627 121.71L19.9634 138.594Z" fill="#FFB8B8"/>
<path d="M18.8457 142.836L32.9819 142.835V142.657C32.9819 141.935 32.8396 141.221 32.5631 140.554C32.2866 139.888 31.8813 139.282 31.3703 138.772C30.8594 138.262 30.2528 137.857 29.5853 137.581C28.9177 137.305 28.2022 137.163 27.4796 137.163H27.4793L18.8454 137.163L18.8457 142.836Z" fill="#2F2E41"/>
<path d="M21.2105 135.51L24.6245 135.109C25.0117 135.063 25.3689 134.878 25.6302 134.589C25.8914 134.3 26.039 133.926 26.0455 133.537L26.6853 89.1407C26.6871 89.0151 26.7332 88.8941 26.8153 88.799C26.8974 88.7038 27.0105 88.6405 27.1347 88.6201C27.2588 88.5998 27.3862 88.6237 27.4945 88.6876C27.6028 88.7515 27.6852 88.8514 27.7272 88.9699L32.4638 102.324L32.1251 127.354C32.1193 127.767 32.2733 128.166 32.5549 128.469C32.8365 128.772 33.2242 128.954 33.6373 128.979L38.0943 129.168C38.502 129.191 38.9034 129.06 39.218 128.8C39.5326 128.54 39.7373 128.171 39.7909 127.767L42.1188 99.4521L42.1203 99.4343L38.5882 69.8633L12.0604 71.7796L19.4243 134.103C19.471 134.494 19.6592 134.853 19.9535 135.115C20.2477 135.376 20.6277 135.521 21.0215 135.522C21.0847 135.522 21.1478 135.518 21.2105 135.51Z" fill="#2F2E41"/>
<path d="M38.475 72.4859C38.7131 72.359 38.9152 72.174 39.0625 71.9481C39.2097 71.7222 39.2973 71.4628 39.3171 71.194C39.3171 71.194 36.9316 56.3818 36.0574 56.1039L37.9701 40.2638C38.1992 38.3318 38.0394 36.3736 37.5002 34.5041C36.961 32.6346 36.0532 30.8915 34.8301 29.3771C33.6523 27.9079 32.1885 26.6922 30.5271 25.8035C28.8657 24.9147 27.0412 24.3713 25.1636 24.2061C24.8963 24.182 24.6304 24.1636 24.366 24.151C22.1027 24.03 19.8437 24.4563 17.7808 25.3939C15.7179 26.3314 13.9123 27.7524 12.5173 29.5361C11.0703 31.335 10.08 33.4564 9.63048 35.7196C9.181 37.9828 9.28569 40.321 9.93564 42.5351L11.0083 46.2626V72.3119C11.0095 72.5661 11.0703 72.8166 11.1859 73.0431C11.3015 73.2697 11.4688 73.466 11.6741 73.6163C15.0145 76.0641 18.7893 76.9295 22.4577 76.9295C29.399 76.9295 35.9596 73.8304 38.475 72.4859Z" fill="#0048FF"/>
<path d="M59.0689 67.7193L63.6827 64.2744C63.8638 64.1393 64.0142 63.9677 64.1244 63.7706C64.2345 63.5736 64.3018 63.3556 64.322 63.1308C64.3421 62.906 64.3146 62.6796 64.2412 62.4661C64.1679 62.2527 64.0503 62.0571 63.8962 61.8921L36.41 32.4442C35.5277 31.5072 34.3381 30.9171 33.0572 30.7811C31.7764 30.6451 30.4891 30.9723 29.4292 31.7032L29.4291 31.7032C28.7833 32.1528 28.2447 32.739 27.8516 33.42C27.4586 34.1011 27.2207 34.8603 27.155 35.6437C27.0892 36.427 27.1972 37.2151 27.4713 37.952C27.7454 38.6889 28.1788 39.3564 28.7407 39.907L56.9781 67.5794C57.2262 67.8249 57.548 67.9825 57.8942 68.0282C58.2405 68.0739 58.5922 68.0051 58.8957 67.8324C58.9557 67.7983 59.0136 67.7606 59.0689 67.7193V67.7193Z" fill="#0048FF"/>
<path d="M23.7567 63.8207C23.555 63.3359 23.2493 62.9012 22.8612 62.5472C22.4731 62.1932 22.0119 61.9284 21.5102 61.7716C21.0085 61.6148 20.4785 61.5697 19.9575 61.6395C19.4364 61.7094 18.9371 61.8924 18.4946 62.1758L8.45088 54.2871L7.89672 60.8944L17.5193 67.3726C18.0454 68.0833 18.8142 68.5767 19.6802 68.7592C20.5463 68.9417 21.4492 68.8007 22.2181 68.3628C22.9869 67.925 23.5682 67.2208 23.8517 66.3837C24.1353 65.5465 24.1015 64.6346 23.7567 63.8207V63.8207Z" fill="#FFB8B8"/>
<path d="M14.7672 66.9002C15.033 66.8177 15.2726 66.6672 15.4623 66.4637C15.6519 66.2602 15.7849 66.0108 15.8482 65.7401L16.8627 61.4854C16.9371 61.1834 16.9209 60.8662 16.8159 60.5733C16.711 60.2804 16.522 60.0249 16.2726 59.8386L9.44639 52.4673L19.4873 37.0083C20.2472 36.0739 20.6756 34.9145 20.7055 33.7112C20.7354 32.5079 20.3651 31.3287 19.6525 30.3578C19.0844 29.5843 18.3216 28.9744 17.4414 28.5899C16.5612 28.2055 15.5949 28.0602 14.6404 28.1687C13.6858 28.2773 12.777 28.6358 12.0059 29.2079C11.2348 29.7801 10.6289 30.5456 10.2495 31.4269L0.914721 49.569C-0.0132964 51.3715 -0.244759 53.4518 0.264411 55.4137C0.77358 57.3756 1.98779 59.0819 3.67573 60.2075L13.2153 66.5703C13.5074 66.8313 13.8856 66.9758 14.2776 66.9762C14.4437 66.9759 14.6088 66.9503 14.7672 66.9002Z" fill="#0048FF"/>
<path d="M16.3686 21.0816C16.5756 21.2056 16.8083 21.2804 17.0489 21.3002C17.2895 21.32 17.5314 21.2842 17.7559 21.1957C17.9804 21.1071 18.1814 20.9682 18.3435 20.7896C18.5056 20.611 18.6244 20.3976 18.6906 20.1658L18.6961 20.1439C18.8749 19.4143 18.7337 18.6506 18.6876 17.9008C18.6414 17.151 18.7192 16.328 19.2334 15.7796C20.192 14.7574 21.8846 15.3111 23.2641 15.0587C24.0723 14.8831 24.7887 14.4195 25.2792 13.7546C25.7698 13.0897 26.0008 12.2691 25.9292 11.4464C25.9104 11.2905 25.8805 11.1343 25.8468 10.9783C25.7627 10.5829 25.7715 10.1734 25.8726 9.782C25.9737 9.3906 26.1643 9.02793 26.4294 8.72245C26.6945 8.41697 27.0269 8.17699 27.4005 8.02136C27.7741 7.86574 28.1787 7.79869 28.5827 7.8255C29.975 7.91245 31.476 8.34181 32.6339 7.31799C33.0585 6.91398 33.3545 6.39406 33.4851 5.82311C33.6157 5.25217 33.575 4.65548 33.368 4.10749C32.7202 2.20771 30.866 1.20505 29.0287 0.649491C26.7562 -0.0192656 24.3631 -0.173999 22.0233 0.196526C19.6835 0.56705 17.4557 1.45352 15.502 2.7915C14.3353 3.60334 13.2443 4.6254 12.7418 5.95371C12.2392 7.28201 12.4692 8.96246 13.5816 9.84704C12.7108 10.7578 12.095 11.8811 11.7959 13.1044C11.4968 14.3277 11.525 15.608 11.8775 16.817C12.4198 18.5951 15.044 20.3112 16.3686 21.0816Z" fill="#2F2E41"/>
</svg>
