<svg width="110" height="90" viewBox="0 0 110 90" fill="none" xmlns="http://www.w3.org/2000/svg">
<path d="M45.8278 81.4066H1.05542C0.775606 81.4063 0.507342 81.2951 0.309482 81.0974C0.111623 80.8998 0.00032458 80.6317 0 80.3522V26.784C0.00032458 26.5044 0.111623 26.2364 0.309482 26.0387C0.507342 25.841 0.775606 25.7298 1.05542 25.7295H45.8278C46.1076 25.7298 46.3759 25.841 46.5737 26.0387C46.7716 26.2364 46.8829 26.5044 46.8832 26.784V80.3522C46.8829 80.6317 46.7716 80.8997 46.5737 81.0974C46.3759 81.2951 46.1076 81.4063 45.8278 81.4066V81.4066ZM1.05542 26.1513C0.88753 26.1515 0.726567 26.2182 0.607849 26.3368C0.489132 26.4554 0.422356 26.6162 0.422168 26.784V80.3522C0.422356 80.5199 0.489132 80.6807 0.607849 80.7993C0.726567 80.9179 0.88753 80.9847 1.05542 80.9848H45.8278C45.9957 80.9847 46.1566 80.9179 46.2754 80.7993C46.3941 80.6807 46.4609 80.5199 46.461 80.3522V26.784C46.4609 26.6162 46.3941 26.4554 46.2754 26.3368C46.1566 26.2182 45.9957 26.1515 45.8278 26.1513H1.05542Z" fill="#555555"/>
<path d="M39.8007 37.1182H7.08264V57.3644H39.8007V37.1182Z" fill="#FFE199"/>
<path d="M15.3149 64.957H7.08264V70.0186H15.3149V64.957Z" fill="#E4E4E4"/>
<path d="M39.8006 64.957H31.5684V70.0186H39.8006V64.957Z" fill="#E4E4E4"/>
<path d="M27.5578 64.957H19.3255V70.0186H27.5578V64.957Z" fill="#E4E4E4"/>
<path d="M107.465 55.6772H62.6923C62.4124 55.6769 62.1442 55.5656 61.9463 55.368C61.7485 55.1703 61.6372 54.9023 61.6368 54.6227V1.05449C61.6372 0.774921 61.7485 0.506893 61.9463 0.309207C62.1442 0.11152 62.4124 0.000319838 62.6923 0H107.465C107.744 0.000319838 108.013 0.11152 108.211 0.309207C108.408 0.506893 108.52 0.774921 108.52 1.05449V54.6227C108.52 54.9023 108.408 55.1703 108.211 55.368C108.013 55.5656 107.744 55.6769 107.465 55.6772V55.6772ZM62.6923 0.421797C62.5244 0.42198 62.3634 0.488697 62.2447 0.607311C62.126 0.725925 62.0592 0.886747 62.059 1.05449V54.6227C62.0592 54.7904 62.126 54.9512 62.2447 55.0699C62.3634 55.1885 62.5244 55.2552 62.6923 55.2554H107.465C107.633 55.2552 107.793 55.1885 107.912 55.0699C108.031 54.9512 108.098 54.7904 108.098 54.6227V1.05449C108.098 0.886747 108.031 0.725925 107.912 0.607311C107.793 0.488697 107.633 0.42198 107.465 0.421797H62.6923Z" fill="#555555"/>
<path d="M107.999 89.6314H63.2267C62.9469 89.6311 62.6786 89.5199 62.4807 89.3222C62.2829 89.1245 62.1716 88.8565 62.1713 88.5769V72.7596C62.1716 72.48 62.2829 72.212 62.4807 72.0143C62.6786 71.8166 62.9469 71.7054 63.2267 71.7051H107.999C108.279 71.7054 108.547 71.8166 108.745 72.0143C108.943 72.212 109.054 72.48 109.054 72.7596V88.5769C109.054 88.8565 108.943 89.1245 108.745 89.3222C108.547 89.5199 108.279 89.6311 107.999 89.6314V89.6314ZM63.2267 72.1269C63.0588 72.1271 62.8978 72.1938 62.7791 72.3124C62.6604 72.431 62.5936 72.5918 62.5934 72.7596V88.5769C62.5936 88.7447 62.6604 88.9055 62.7791 89.0241C62.8978 89.1427 63.0588 89.2094 63.2267 89.2096H107.999C108.167 89.2094 108.328 89.1427 108.447 89.0241C108.565 88.9055 108.632 88.7447 108.632 88.5769V72.7596C108.632 72.5918 108.565 72.431 108.447 72.3124C108.328 72.1938 108.167 72.1271 107.999 72.1269H63.2267Z" fill="#555555"/>
<path d="M98.7986 35.959H71.3577C69.9587 35.959 68.8246 37.0921 68.8246 38.4898V38.4898C68.8246 39.8875 69.9587 41.0205 71.3577 41.0205H98.7986C100.198 41.0205 101.332 39.8875 101.332 38.4898C101.332 37.0921 100.198 35.959 98.7986 35.959Z" fill="#E4E4E4"/>
<path d="M98.7986 43.9727H71.3577C69.9587 43.9727 68.8246 45.1057 68.8246 46.5034V46.5034C68.8246 47.9011 69.9587 49.0342 71.3577 49.0342H98.7986C100.198 49.0342 101.332 47.9011 101.332 46.5034C101.332 45.1057 100.198 43.9727 98.7986 43.9727Z" fill="#E4E4E4"/>
<path d="M85.0783 30.2632C91.6067 30.2632 96.8991 24.9755 96.8991 18.4529C96.8991 11.9302 91.6067 6.64258 85.0783 6.64258C78.5499 6.64258 73.2576 11.9302 73.2576 18.4529C73.2576 24.9755 78.5499 30.2632 85.0783 30.2632Z" fill="#FFE199"/>
<path d="M98.3837 78.1377H86.3519C84.9529 78.1377 83.8188 79.2708 83.8188 80.6685C83.8188 82.0662 84.9529 83.1992 86.3519 83.1992H98.3837C99.7826 83.1992 100.917 82.0662 100.917 80.6685C100.917 79.2708 99.7826 78.1377 98.3837 78.1377Z" fill="#E4E4E4"/>
<path d="M74.9534 85.3079C77.5181 85.3079 79.5973 83.2306 79.5973 80.6681C79.5973 78.1056 77.5181 76.0283 74.9534 76.0283C72.3887 76.0283 70.3096 78.1056 70.3096 80.6681C70.3096 83.2306 72.3887 85.3079 74.9534 85.3079Z" fill="#FFE199"/>
</svg>
