<svg width="115" height="89" viewBox="0 0 115 89" fill="none" xmlns="http://www.w3.org/2000/svg">
<path d="M114.684 3.0498H85.1198V4.93093C85.1193 5.02725 85.1528 5.12073 85.2144 5.19531C85.1548 6.66564 85.1198 8.54269 85.1198 10.5824V60.8746C85.1198 65.5886 85.311 69.424 85.5454 69.424H114.258C114.492 69.424 114.684 65.5886 114.684 60.8746V10.5824C114.684 8.54269 114.649 6.66565 114.589 5.19531C114.651 5.12072 114.684 5.02724 114.684 4.93093L114.684 3.0498Z" fill="white"/>
<path d="M114.258 2.0332H85.5454C85.4326 2.03342 85.3245 2.07784 85.2447 2.15673C85.1649 2.23563 85.12 2.34258 85.1198 2.45417V4.93115C85.1193 5.02747 85.1528 5.12095 85.2144 5.19553C85.2544 5.24429 85.3048 5.28364 85.3621 5.31073C85.4193 5.33781 85.482 5.35195 85.5454 5.35212H114.258C114.321 5.35194 114.384 5.33779 114.441 5.31071C114.499 5.28363 114.549 5.24428 114.589 5.19553C114.651 5.12094 114.684 5.02746 114.684 4.93115V2.45417C114.683 2.34259 114.638 2.23564 114.559 2.15674C114.479 2.07784 114.371 2.03342 114.258 2.0332V2.0332Z" fill="#CACACA"/>
<path d="M87.5911 4.16926C87.9249 4.16926 88.1955 3.90161 88.1955 3.57145C88.1955 3.24128 87.9249 2.97363 87.5911 2.97363C87.2573 2.97363 86.9867 3.24128 86.9867 3.57145C86.9867 3.90161 87.2573 4.16926 87.5911 4.16926Z" fill="white"/>
<path d="M89.8854 4.16926C90.2192 4.16926 90.4898 3.90161 90.4898 3.57145C90.4898 3.24128 90.2192 2.97363 89.8854 2.97363C89.5516 2.97363 89.281 3.24128 89.281 3.57145C89.281 3.90161 89.5516 4.16926 89.8854 4.16926Z" fill="white"/>
<path d="M92.1796 4.16926C92.5134 4.16926 92.784 3.90161 92.784 3.57145C92.784 3.24128 92.5134 2.97363 92.1796 2.97363C91.8458 2.97363 91.5752 3.24128 91.5752 3.57145C91.5752 3.90161 91.8458 4.16926 92.1796 4.16926Z" fill="white"/>
<path d="M112.011 2.77441H109.369C109.317 2.77475 109.267 2.79522 109.231 2.83138C109.194 2.86754 109.174 2.91648 109.173 2.96761C109.173 2.99672 109.18 3.02552 109.194 3.05099C109.21 3.08374 109.234 3.11144 109.265 3.13087C109.296 3.1503 109.332 3.16069 109.369 3.16081H112.011C112.048 3.16099 112.084 3.15076 112.115 3.13131C112.147 3.11187 112.172 3.08401 112.188 3.05099C112.2 3.02499 112.207 2.99644 112.206 2.96761C112.206 2.94223 112.201 2.9171 112.191 2.89365C112.181 2.87021 112.167 2.8489 112.149 2.83096C112.131 2.81302 112.109 2.79879 112.085 2.78909C112.062 2.77938 112.036 2.7744 112.011 2.77441V2.77441Z" fill="white"/>
<path d="M112.011 3.5H109.369C109.317 3.5 109.267 3.52035 109.231 3.55659C109.194 3.59282 109.173 3.64196 109.173 3.6932C109.173 3.74443 109.194 3.79358 109.231 3.82981C109.267 3.86604 109.317 3.88639 109.369 3.88639H112.011C112.062 3.88639 112.112 3.86604 112.149 3.82981C112.185 3.79358 112.206 3.74443 112.206 3.6932C112.206 3.64196 112.185 3.59282 112.149 3.55659C112.112 3.52035 112.062 3.5 112.011 3.5V3.5Z" fill="white"/>
<path d="M112.011 4.22559H109.369C109.317 4.22559 109.267 4.24594 109.231 4.28217C109.194 4.31841 109.173 4.36754 109.173 4.41878C109.173 4.47002 109.194 4.51916 109.231 4.55539C109.267 4.59162 109.317 4.61198 109.369 4.61198H112.011C112.062 4.61198 112.112 4.59162 112.149 4.55539C112.185 4.51916 112.206 4.47002 112.206 4.41878C112.206 4.36754 112.185 4.31841 112.149 4.28217C112.112 4.24594 112.062 4.22559 112.011 4.22559V4.22559Z" fill="white"/>
<path d="M102.759 10.7822H97.3225C97.0498 10.7823 96.7884 10.8895 96.5956 11.0802C96.4029 11.2708 96.2945 11.5294 96.2944 11.7991V16.4561C96.2949 16.7256 96.4033 16.984 96.596 17.1746C96.7887 17.3652 97.0499 17.4725 97.3225 17.4729H102.759C103.031 17.4721 103.292 17.3648 103.485 17.1742C103.677 16.9837 103.786 16.7255 103.787 16.4561V11.7991C103.786 11.5295 103.678 11.2711 103.485 11.0805C103.292 10.8899 103.031 10.7827 102.759 10.7822Z" fill="#99B6FF"/>
<path d="M109.513 20.5156H90.5665C90.4427 20.5156 90.324 20.5643 90.2364 20.6508C90.1489 20.7374 90.0997 20.8548 90.0997 20.9773C90.0997 21.0997 90.1489 21.2171 90.2364 21.3037C90.324 21.3903 90.4427 21.4389 90.5665 21.4389H109.513C109.637 21.4389 109.755 21.3903 109.843 21.3037C109.93 21.2171 109.98 21.0997 109.98 20.9773C109.98 20.8548 109.93 20.7374 109.843 20.6508C109.755 20.5643 109.637 20.5156 109.513 20.5156V20.5156Z" fill="#E4E4E4"/>
<path d="M97.7626 22.6797H90.5665C90.4427 22.6797 90.324 22.7283 90.2364 22.8149C90.1489 22.9015 90.0997 23.0189 90.0997 23.1413C90.0997 23.2638 90.1489 23.3812 90.2364 23.4678C90.324 23.5543 90.4427 23.603 90.5665 23.603H97.7626C97.8864 23.603 98.0051 23.5543 98.0926 23.4678C98.1802 23.3812 98.2293 23.2638 98.2293 23.1413C98.2293 23.0189 98.1802 22.9015 98.0926 22.8149C98.0051 22.7283 97.8864 22.6797 97.7626 22.6797V22.6797Z" fill="#E4E4E4"/>
<path d="M102.759 30.916H97.3225C97.0498 30.9161 96.7884 31.0233 96.5956 31.214C96.4029 31.4046 96.2945 31.6632 96.2944 31.9328V36.5899C96.2949 36.8594 96.4033 37.1178 96.596 37.3084C96.7887 37.499 97.0499 37.6063 97.3225 37.6067H102.759C103.031 37.6059 103.292 37.4986 103.485 37.308C103.677 37.1175 103.786 36.8593 103.787 36.5899V31.9328C103.786 31.6633 103.678 31.4049 103.485 31.2143C103.292 31.0237 103.031 30.9165 102.759 30.916Z" fill="#99B6FF"/>
<path d="M109.513 40.6484H90.5665C90.4427 40.6484 90.324 40.6971 90.2364 40.7836C90.1489 40.8702 90.0997 40.9876 90.0997 41.1101C90.0997 41.2325 90.1489 41.3499 90.2364 41.4365C90.324 41.5231 90.4427 41.5717 90.5665 41.5717H109.513C109.637 41.5717 109.755 41.5231 109.843 41.4365C109.93 41.3499 109.98 41.2325 109.98 41.1101C109.98 40.9876 109.93 40.8702 109.843 40.7836C109.755 40.6971 109.637 40.6484 109.513 40.6484V40.6484Z" fill="#E4E4E4"/>
<path d="M97.7626 42.8125H90.5665C90.4427 42.8125 90.324 42.8611 90.2364 42.9477C90.1489 43.0343 90.0997 43.1517 90.0997 43.2741C90.0997 43.3966 90.1489 43.514 90.2364 43.6006C90.324 43.6871 90.4427 43.7358 90.5665 43.7358H97.7626C97.8864 43.7358 98.0051 43.6871 98.0926 43.6006C98.1802 43.514 98.2293 43.3966 98.2293 43.2741C98.2293 43.1517 98.1802 43.0343 98.0926 42.9477C98.0051 42.8611 97.8864 42.8125 97.7626 42.8125V42.8125Z" fill="#E4E4E4"/>
<path d="M102.759 51.0488H97.3225C97.0498 51.0489 96.7884 51.1561 96.5956 51.3468C96.4029 51.5374 96.2945 51.796 96.2944 52.0657V56.7227C96.2949 56.9922 96.4033 57.2506 96.596 57.4412C96.7887 57.6318 97.0499 57.7391 97.3225 57.7395H102.759C103.031 57.7387 103.292 57.6314 103.485 57.4408C103.677 57.2503 103.786 56.9921 103.787 56.7227V52.0657C103.786 51.7961 103.678 51.5377 103.485 51.3471C103.292 51.1565 103.031 51.0493 102.759 51.0488V51.0488Z" fill="#99B6FF"/>
<path d="M109.513 60.7812H90.5665C90.4427 60.7812 90.324 60.8299 90.2364 60.9165C90.1489 61.003 90.0997 61.1205 90.0997 61.2429C90.0997 61.3653 90.1489 61.4827 90.2364 61.5693C90.324 61.6559 90.4427 61.7045 90.5665 61.7045H109.513C109.637 61.7045 109.755 61.6559 109.843 61.5693C109.93 61.4827 109.98 61.3653 109.98 61.2429C109.98 61.1205 109.93 61.003 109.843 60.9165C109.755 60.8299 109.637 60.7812 109.513 60.7812V60.7812Z" fill="#E4E4E4"/>
<path d="M97.7626 62.9463H90.5665C90.4427 62.9463 90.324 62.9949 90.2364 63.0815C90.1489 63.1681 90.0997 63.2855 90.0997 63.4079C90.0997 63.5304 90.1489 63.6478 90.2364 63.7344C90.324 63.8209 90.4427 63.8696 90.5665 63.8696H97.7626C97.8864 63.8696 98.0051 63.8209 98.0926 63.7344C98.1802 63.6478 98.2293 63.5304 98.2293 63.4079C98.2293 63.2855 98.1802 63.1681 98.0926 63.0815C98.0051 62.9949 97.8864 62.9463 97.7626 62.9463Z" fill="#E4E4E4"/>
<path d="M76.6327 0.203125H0.631233C0.518418 0.20334 0.410286 0.247759 0.330507 0.326656C0.250729 0.405554 0.205804 0.512505 0.205569 0.624092V3.10107C0.205209 3.2042 0.244134 3.30367 0.314595 3.37969C0.354103 3.42432 0.402784 3.4601 0.457385 3.48465C0.511985 3.5092 0.571251 3.52195 0.631227 3.52204H76.6327C76.6926 3.52195 76.7519 3.5092 76.8065 3.48465C76.8611 3.4601 76.9098 3.42432 76.9493 3.37969C77.0197 3.30366 77.0586 3.20419 77.0582 3.10107V0.624092C77.058 0.512518 77.0131 0.405574 76.9333 0.326675C76.8536 0.247776 76.7455 0.203349 76.6327 0.203125V0.203125Z" fill="#CACACA"/>
<path d="M2.67691 2.33919C3.01071 2.33919 3.2813 2.07153 3.2813 1.74137C3.2813 1.41121 3.01071 1.14355 2.67691 1.14355C2.34311 1.14355 2.07251 1.41121 2.07251 1.74137C2.07251 2.07153 2.34311 2.33919 2.67691 2.33919Z" fill="white"/>
<path d="M4.97085 2.33919C5.30465 2.33919 5.57525 2.07153 5.57525 1.74137C5.57525 1.41121 5.30465 1.14355 4.97085 1.14355C4.63705 1.14355 4.36646 1.41121 4.36646 1.74137C4.36646 2.07153 4.63705 2.33919 4.97085 2.33919Z" fill="white"/>
<path d="M7.26516 2.33919C7.59896 2.33919 7.86956 2.07153 7.86956 1.74137C7.86956 1.41121 7.59896 1.14355 7.26516 1.14355C6.93136 1.14355 6.66077 1.41121 6.66077 1.74137C6.66077 2.07153 6.93136 2.33919 7.26516 2.33919Z" fill="white"/>
<path d="M74.3851 0.943359H71.7431C71.6913 0.943359 71.6416 0.963713 71.6049 0.999944C71.5683 1.03618 71.5477 1.08532 71.5477 1.13656C71.5477 1.18779 71.5683 1.23694 71.6049 1.27317C71.6416 1.3094 71.6913 1.32975 71.7431 1.32975H74.3851C74.4369 1.32975 74.4866 1.3094 74.5232 1.27317C74.5598 1.23694 74.5804 1.18779 74.5804 1.13656C74.5804 1.08532 74.5598 1.03618 74.5232 0.999944C74.4866 0.963713 74.4369 0.943359 74.3851 0.943359Z" fill="white"/>
<path d="M74.3851 1.66992H71.7431C71.6913 1.66992 71.6416 1.69028 71.6049 1.72651C71.5683 1.76274 71.5477 1.81188 71.5477 1.86312C71.5477 1.91436 71.5683 1.9635 71.6049 1.99973C71.6416 2.03596 71.6913 2.05631 71.7431 2.05631H74.3851C74.4369 2.05631 74.4866 2.03596 74.5232 1.99973C74.5598 1.9635 74.5804 1.91436 74.5804 1.86312C74.5804 1.81188 74.5598 1.76274 74.5232 1.72651C74.4866 1.69028 74.4369 1.66992 74.3851 1.66992V1.66992Z" fill="white"/>
<path d="M74.3851 2.39551H71.7431C71.6913 2.39551 71.6416 2.41586 71.6049 2.4521C71.5683 2.48833 71.5477 2.53746 71.5477 2.5887C71.5477 2.63994 71.5683 2.68908 71.6049 2.72531C71.6416 2.76155 71.6913 2.7819 71.7431 2.7819H74.3851C74.4369 2.7819 74.4866 2.76155 74.5232 2.72531C74.5598 2.68908 74.5804 2.63994 74.5804 2.5887C74.5804 2.53746 74.5598 2.48833 74.5232 2.4521C74.4866 2.41586 74.4369 2.39551 74.3851 2.39551V2.39551Z" fill="white"/>
<path d="M25.1966 12.6133H16.3021C15.8563 12.6138 15.4288 12.7893 15.1135 13.1011C14.7982 13.413 14.6209 13.8358 14.6204 14.2768V21.8969C14.6209 22.3379 14.7982 22.7607 15.1135 23.0726C15.4288 23.3844 15.8563 23.5599 16.3021 23.5604H25.1966C25.6425 23.5599 26.0699 23.3844 26.3852 23.0726C26.7005 22.7607 26.8779 22.3379 26.8784 21.8969V14.2768C26.8779 13.8358 26.7005 13.413 26.3852 13.1011C26.0699 12.7893 25.6425 12.6138 25.1966 12.6133V12.6133Z" fill="#99B6FF"/>
<path d="M61.8826 15.5596H30.8817C30.6792 15.5596 30.4849 15.6392 30.3416 15.7809C30.1984 15.9225 30.1179 16.1147 30.1179 16.3151C30.1179 16.5154 30.1984 16.7076 30.3416 16.8493C30.4849 16.991 30.6792 17.0706 30.8817 17.0706H61.8826C62.0852 17.0706 62.2795 16.991 62.4227 16.8493C62.566 16.7076 62.6465 16.5154 62.6465 16.3151C62.6465 16.1147 62.566 15.9225 62.4227 15.7809C62.2795 15.6392 62.0852 15.5596 61.8826 15.5596V15.5596Z" fill="#E4E4E4"/>
<path d="M0.599285 74.9556L0.751287 74.9155V75.0723H0.636417C0.62743 75.0512 0.614308 75.0149 0.599285 74.9556Z" stroke="#555555" stroke-width="0.5"/>
<path d="M42.6567 19.0996H30.8817C30.6792 19.0996 30.4849 19.1792 30.3416 19.3209C30.1984 19.4626 30.1179 19.6547 30.1179 19.8551C30.1179 20.0555 30.1984 20.2476 30.3416 20.3893C30.4849 20.531 30.6792 20.6106 30.8817 20.6106H42.6567C42.8592 20.6106 43.0535 20.531 43.1968 20.3893C43.34 20.2476 43.4205 20.0555 43.4205 19.8551C43.4205 19.6547 43.34 19.4626 43.1968 19.3209C43.0535 19.1792 42.8592 19.0996 42.6567 19.0996V19.0996Z" fill="#E4E4E4"/>
<path d="M25.1966 32.9492H16.3021C15.8563 32.9498 15.4288 33.1252 15.1135 33.4371C14.7982 33.7489 14.6209 34.1717 14.6204 34.6127V42.2328C14.6209 42.6739 14.7982 43.0967 15.1135 43.4085C15.4288 43.7204 15.8563 43.8958 16.3021 43.8964H25.1966C25.6425 43.8958 26.0699 43.7204 26.3852 43.4085C26.7005 43.0967 26.8779 42.6739 26.8784 42.2328V34.6127C26.8779 34.1717 26.7005 33.7489 26.3852 33.4371C26.0699 33.1252 25.6425 32.9498 25.1966 32.9492V32.9492Z" fill="#99B6FF"/>
<mask id="path-30-inside-1_231_2227" fill="white">
<path d="M114.258 69.6278H85.5453C85.3216 69.6278 85.1737 69.6278 85.0393 66.9275C84.9585 65.307 84.9141 63.1575 84.9141 60.875V10.5829C84.9141 8.61152 84.9477 6.69544 85.0089 5.18758C85.0471 4.28227 85.091 3.55709 85.1391 3.0319C85.2336 2.00375 85.3234 1.83008 85.5453 1.83008H114.258C114.48 1.83008 114.57 2.00375 114.664 3.0319C114.712 3.55908 114.756 4.28426 114.794 5.18719L114.794 5.18758C114.855 6.69385 114.889 8.60993 114.889 10.5829V60.875C114.889 63.1576 114.845 65.3071 114.764 66.9275C114.629 69.6278 114.482 69.6278 114.258 69.6278ZM85.6621 69.2211H114.141C114.29 68.6653 114.478 65.6479 114.478 60.875V10.5829C114.478 8.61529 114.444 6.70517 114.383 5.20427H114.383C114.346 4.30779 114.302 3.58926 114.255 3.06864C114.236 2.78899 114.198 2.511 114.139 2.23681H85.6641C85.6056 2.51101 85.567 2.78899 85.5486 3.06864C85.5011 3.58728 85.4577 4.30581 85.4197 5.20427C85.3588 6.70646 85.3253 8.61678 85.3253 10.5829V60.875C85.3253 65.6478 85.5133 68.6653 85.6621 69.2211Z"/>
</mask>
<path d="M85.0393 66.9275L85.5386 66.9026L85.5386 66.9026L85.0393 66.9275ZM85.0089 5.18758L84.5093 5.16648L84.5093 5.16733L85.0089 5.18758ZM85.1391 3.0319L84.6412 2.98615L84.6412 2.98626L85.1391 3.0319ZM114.664 3.0319L115.162 2.98634L115.162 2.98612L114.664 3.0319ZM114.794 5.18719L114.295 5.20829L114.296 5.22916L114.298 5.24988L114.794 5.18719ZM114.794 5.18758L115.294 5.16732L115.293 5.14603L115.29 5.12489L114.794 5.18758ZM114.764 66.9275L114.265 66.9026L114.265 66.9026L114.764 66.9275ZM85.6621 69.2211L85.1792 69.3504L85.2784 69.7211H85.6621V69.2211ZM114.141 69.2211V69.7211H114.525L114.624 69.3504L114.141 69.2211ZM114.383 5.20427L114.883 5.18401L114.864 4.70427H114.383V5.20427ZM114.383 5.20427L113.884 5.22536L113.904 5.70427H114.383V5.20427ZM114.255 3.06864L113.756 3.10146L113.757 3.11415L114.255 3.06864ZM114.139 2.23681L114.628 2.13246L114.544 1.73681H114.139V2.23681ZM85.6641 2.23681V1.73681H85.2595L85.1751 2.13248L85.6641 2.23681ZM85.5486 3.06864L86.0467 3.11429L86.0475 3.10146L85.5486 3.06864ZM85.4197 5.20427L84.9202 5.18314L84.9201 5.18402L85.4197 5.20427ZM114.258 69.1278H85.5453V70.1278H114.258V69.1278ZM85.5453 69.1278C85.473 69.1278 85.6116 69.1129 85.7231 69.2121C85.7981 69.2788 85.7823 69.3278 85.7448 69.1726C85.6761 68.8889 85.6063 68.2622 85.5386 66.9026L84.5399 66.9523C84.6066 68.2931 84.6781 69.0166 84.7728 69.408C84.817 69.5903 84.8886 69.8081 85.0584 69.9592C85.2648 70.1428 85.5057 70.1278 85.5453 70.1278V69.1278ZM85.5386 66.9026C85.4585 65.293 85.4141 63.1522 85.4141 60.875H84.4141C84.4141 63.1627 84.4586 65.321 84.5399 66.9524L85.5386 66.9026ZM85.4141 60.875V10.5829H84.4141V60.875H85.4141ZM85.4141 10.5829C85.4141 8.61636 85.4477 6.70728 85.5085 5.20784L84.5093 5.16733C84.4478 6.68361 84.4141 8.60668 84.4141 10.5829H85.4141ZM85.5084 5.20869C85.5465 4.30669 85.59 3.59083 85.637 3.07753L84.6412 2.98626C84.592 3.52335 84.5477 4.25786 84.5093 5.16648L85.5084 5.20869ZM85.637 3.07765C85.6852 2.55272 85.7281 2.31684 85.7648 2.21507C85.7807 2.17089 85.7741 2.21637 85.7107 2.26621C85.6344 2.32625 85.558 2.33008 85.5453 2.33008V1.33008C85.4217 1.33008 85.2508 1.35562 85.0923 1.48034C84.9468 1.59488 84.8702 1.74804 84.8241 1.8758C84.7368 2.1179 84.6874 2.48293 84.6412 2.98615L85.637 3.07765ZM85.5453 2.33008H114.258V1.33008H85.5453V2.33008ZM114.258 2.33008C114.245 2.33008 114.169 2.32625 114.092 2.2662C114.029 2.21635 114.022 2.17086 114.038 2.21505C114.075 2.31684 114.118 2.55273 114.166 3.07767L115.162 2.98612C115.116 2.48292 115.066 2.11789 114.979 1.87581C114.933 1.74806 114.856 1.59491 114.711 1.48036C114.552 1.35562 114.382 1.33008 114.258 1.33008V2.33008ZM114.166 3.07746C114.213 3.59279 114.257 4.30868 114.295 5.20829L115.294 5.16608C115.256 4.25983 115.211 3.52536 115.162 2.98634L114.166 3.07746ZM114.298 5.24988L114.298 5.25027L115.29 5.12489L115.29 5.1245L114.298 5.24988ZM114.295 5.20785C114.355 6.70568 114.389 8.61476 114.389 10.5829H115.389C115.389 8.60511 115.355 6.68203 115.294 5.16732L114.295 5.20785ZM114.389 10.5829V60.875H115.389V10.5829H114.389ZM114.389 60.875C114.389 63.1523 114.345 65.2931 114.265 66.9026L115.263 66.9524C115.345 65.3211 115.389 63.1628 115.389 60.875H114.389ZM114.265 66.9026C114.197 68.2622 114.127 68.8889 114.058 69.1726C114.021 69.3278 114.005 69.2788 114.08 69.2121C114.192 69.1129 114.33 69.1278 114.258 69.1278V70.1278C114.297 70.1278 114.538 70.1428 114.745 69.9592C114.915 69.8081 114.986 69.5903 115.03 69.4079C115.125 69.0165 115.197 68.2931 115.263 66.9523L114.265 66.9026ZM85.6621 69.7211H114.141V68.7211H85.6621V69.7211ZM114.624 69.3504C114.674 69.1629 114.717 68.8274 114.755 68.3978C114.794 67.9529 114.832 67.367 114.865 66.6525C114.931 65.2229 114.978 63.2675 114.978 60.875H113.978C113.978 63.2554 113.931 65.1951 113.866 66.6064C113.833 67.3124 113.796 67.8833 113.758 68.3097C113.719 68.7513 113.682 69.0014 113.658 69.0918L114.624 69.3504ZM114.978 60.875V10.5829H113.978V60.875H114.978ZM114.978 10.5829C114.978 8.61047 114.944 6.69336 114.883 5.18401L113.884 5.22452C113.944 6.71699 113.978 8.62012 113.978 10.5829H114.978ZM114.383 4.70427H114.383V5.70427H114.383V4.70427ZM114.883 5.18317C114.845 4.28339 114.801 3.55558 114.753 3.02312L113.757 3.11415C113.803 3.62294 113.846 4.33219 113.884 5.22536L114.883 5.18317ZM114.754 3.03583C114.734 2.73212 114.692 2.43022 114.628 2.13246L113.65 2.34116C113.704 2.59179 113.739 2.84587 113.756 3.10145L114.754 3.03583ZM114.139 1.73681H85.6641V2.73681H114.139V1.73681ZM85.1751 2.13248C85.1116 2.43023 85.0697 2.73211 85.0497 3.03581L86.0475 3.10146C86.0643 2.84587 86.0996 2.59178 86.1531 2.34114L85.1751 2.13248ZM85.0507 3.023C85.0021 3.55358 84.9583 4.28147 84.9202 5.18314L85.9193 5.22539C85.9572 4.33014 86.0001 3.62097 86.0465 3.11427L85.0507 3.023ZM84.9201 5.18402C84.8589 6.69463 84.8253 8.61194 84.8253 10.5829H85.8253C85.8253 8.62162 85.8588 6.71829 85.9193 5.22452L84.9201 5.18402ZM84.8253 10.5829V60.875H85.8253V10.5829H84.8253ZM84.8253 60.875C84.8253 63.2674 84.8724 65.2229 84.9384 66.6525C84.9714 67.367 85.0093 67.9529 85.0487 68.3978C85.0867 68.8274 85.1289 69.1629 85.1792 69.3504L86.1451 69.0918C86.1209 69.0013 86.0839 68.7513 86.0448 68.3096C86.007 67.8833 85.97 67.3123 85.9374 66.6064C85.8722 65.1951 85.8253 63.2554 85.8253 60.875H84.8253Z" fill="#555555" mask="url(#path-30-inside-1_231_2227)"/>
<path d="M61.8826 35.8955H30.8817C30.6792 35.8955 30.4849 35.9751 30.3416 36.1168C30.1984 36.2585 30.1179 36.4506 30.1179 36.651C30.1179 36.8514 30.1984 37.0435 30.3416 37.1852C30.4849 37.3269 30.6792 37.4065 30.8817 37.4065H61.8826C62.0852 37.4065 62.2795 37.3269 62.4227 37.1852C62.566 37.0435 62.6465 36.8514 62.6465 36.651C62.6465 36.4506 62.566 36.2585 62.4227 36.1168C62.2795 35.9751 62.0852 35.8955 61.8826 35.8955V35.8955Z" fill="#E4E4E4"/>
<path d="M42.6567 39.4365H30.8817C30.6792 39.4365 30.4849 39.5161 30.3416 39.6578C30.1984 39.7995 30.1179 39.9916 30.1179 40.192C30.1179 40.3924 30.1984 40.5846 30.3416 40.7262C30.4849 40.8679 30.6792 40.9475 30.8817 40.9475H42.6567C42.8592 40.9475 43.0535 40.8679 43.1968 40.7262C43.34 40.5846 43.4205 40.3924 43.4205 40.192C43.4205 39.9916 43.34 39.7995 43.1968 39.6578C43.0535 39.5161 42.8592 39.4365 42.6567 39.4365V39.4365Z" fill="#E4E4E4"/>
<path d="M25.1966 53.2861H16.3021C15.8563 53.2867 15.4288 53.4621 15.1135 53.774C14.7982 54.0858 14.6209 54.5086 14.6204 54.9497V62.5697C14.6209 63.0108 14.7982 63.4336 15.1135 63.7454C15.4288 64.0573 15.8563 64.2327 16.3021 64.2333H25.1966C25.6425 64.2327 26.0699 64.0573 26.3852 63.7454C26.7005 63.4336 26.8779 63.0108 26.8784 62.5697V54.9497C26.8779 54.5086 26.7005 54.0858 26.3852 53.774C26.0699 53.4621 25.6425 53.2867 25.1966 53.2861V53.2861Z" fill="#99B6FF"/>
<path d="M61.8826 56.2324H30.8817C30.6792 56.2324 30.4849 56.312 30.3416 56.4537C30.1984 56.5954 30.1179 56.7875 30.1179 56.9879C30.1179 57.1883 30.1984 57.3805 30.3416 57.5221C30.4849 57.6638 30.6792 57.7434 30.8817 57.7434H61.8826C62.0852 57.7434 62.2795 57.6638 62.4227 57.5221C62.566 57.3805 62.6465 57.1883 62.6465 56.9879C62.6465 56.7875 62.566 56.5954 62.4227 56.4537C62.2795 56.312 62.0852 56.2324 61.8826 56.2324V56.2324Z" fill="#E4E4E4"/>
<path d="M42.6567 59.7734H30.8817C30.6792 59.7734 30.4849 59.853 30.3416 59.9947C30.1984 60.1364 30.1179 60.3286 30.1179 60.5289C30.1179 60.7293 30.1984 60.9215 30.3416 61.0632C30.4849 61.2048 30.6792 61.2844 30.8817 61.2844H42.6567C42.8592 61.2844 43.0535 61.2048 43.1968 61.0632C43.34 60.9215 43.4205 60.7293 43.4205 60.5289C43.4205 60.3286 43.34 60.1364 43.1968 59.9947C43.0535 59.853 42.8592 59.7734 42.6567 59.7734V59.7734Z" fill="#E4E4E4"/>
<path d="M90.203 88.5409H39.2854C39.0507 88.5409 38.8597 84.972 38.8597 80.5846V33.7835C38.8597 29.3961 39.0507 25.8271 39.2854 25.8271H90.203C90.4378 25.8271 90.6287 29.3961 90.6287 33.7835V80.5846C90.6287 84.972 90.4378 88.5409 90.203 88.5409Z" fill="white"/>
<path d="M90.203 29.1461H39.2854C39.1726 29.146 39.0644 29.1016 38.9846 29.0227C38.9048 28.9437 38.8599 28.8367 38.8597 28.7251V26.2482C38.8599 26.1366 38.9048 26.0296 38.9846 25.9506C39.0644 25.8717 39.1726 25.8273 39.2854 25.8271H90.203C90.3159 25.8273 90.4241 25.8717 90.5039 25.9506C90.5837 26.0296 90.6286 26.1366 90.6287 26.2482V28.7251C90.6286 28.8367 90.5837 28.9437 90.5039 29.0227C90.4241 29.1016 90.3159 29.146 90.203 29.1461V29.1461Z" fill="#CACACA"/>
<path d="M41.3303 27.9632C41.6641 27.9632 41.9347 27.6956 41.9347 27.3654C41.9347 27.0352 41.6641 26.7676 41.3303 26.7676C40.9965 26.7676 40.726 27.0352 40.726 27.3654C40.726 27.6956 40.9965 27.9632 41.3303 27.9632Z" fill="white"/>
<path d="M43.6243 27.9632C43.9581 27.9632 44.2287 27.6956 44.2287 27.3654C44.2287 27.0352 43.9581 26.7676 43.6243 26.7676C43.2905 26.7676 43.0199 27.0352 43.0199 27.3654C43.0199 27.6956 43.2905 27.9632 43.6243 27.9632Z" fill="white"/>
<path d="M45.9187 27.9632C46.2525 27.9632 46.5231 27.6956 46.5231 27.3654C46.5231 27.0352 46.2525 26.7676 45.9187 26.7676C45.5849 26.7676 45.3143 27.0352 45.3143 27.3654C45.3143 27.6956 45.5849 27.9632 45.9187 27.9632Z" fill="white"/>
<path d="M87.9553 26.9535H85.3136C85.2617 26.9535 85.2119 26.9331 85.1752 26.8968C85.1385 26.8605 85.1179 26.8113 85.1179 26.76C85.1179 26.7086 85.1385 26.6594 85.1752 26.6231C85.2119 26.5868 85.2617 26.5664 85.3136 26.5664H87.9553C88.0071 26.5666 88.0567 26.587 88.0933 26.6233C88.1298 26.6596 88.1504 26.7087 88.1504 26.76C88.1504 26.8112 88.1298 26.8603 88.0933 26.8966C88.0567 26.9329 88.0071 26.9533 87.9553 26.9535Z" fill="white"/>
<path d="M87.9553 27.6801H85.3136C85.2617 27.6801 85.2119 27.6597 85.1752 27.6234C85.1385 27.5871 85.1179 27.5379 85.1179 27.4865C85.1179 27.4352 85.1385 27.386 85.1752 27.3497C85.2119 27.3134 85.2617 27.293 85.3136 27.293H87.9553C88.0072 27.293 88.057 27.3134 88.0937 27.3497C88.1304 27.386 88.151 27.4352 88.151 27.4865C88.151 27.5379 88.1304 27.5871 88.0937 27.6234C88.057 27.6597 88.0072 27.6801 87.9553 27.6801V27.6801Z" fill="white"/>
<path d="M87.9553 28.4057H85.3136C85.2617 28.4057 85.2119 28.3853 85.1752 28.349C85.1385 28.3127 85.1179 28.2634 85.1179 28.2121C85.1179 28.1608 85.1385 28.1115 85.1752 28.0752C85.2119 28.0389 85.2617 28.0186 85.3136 28.0186H87.9553C88.0071 28.0187 88.0567 28.0392 88.0933 28.0755C88.1298 28.1117 88.1504 28.1609 88.1504 28.2121C88.1504 28.2633 88.1298 28.3125 88.0933 28.3488C88.0567 28.385 88.0071 28.4055 87.9553 28.4057V28.4057Z" fill="white"/>
<path d="M54.9318 44.5191H48.4362C48.1105 44.5188 47.7982 44.3906 47.568 44.1629C47.3377 43.9351 47.2081 43.6263 47.2078 43.3041V37.7394C47.2081 37.4173 47.3377 37.1085 47.568 36.8807C47.7982 36.6529 48.1105 36.5248 48.4362 36.5244H54.9318C55.2575 36.5248 55.5697 36.6529 55.8 36.8807C56.0303 37.1085 56.1599 37.4173 56.1602 37.7394V43.3041C56.1599 43.6263 56.0303 43.9351 55.8 44.1629C55.5697 44.3906 55.2575 44.5188 54.9318 44.5191Z" fill="#99B6FF"/>
<path d="M81.7231 39.781H59.0839C58.936 39.781 58.7942 39.7228 58.6896 39.6194C58.585 39.516 58.5262 39.3756 58.5262 39.2294C58.5262 39.0831 58.585 38.9427 58.6896 38.8393C58.7942 38.7359 58.936 38.6777 59.0839 38.6777H81.7231C81.871 38.6777 82.0128 38.7359 82.1174 38.8393C82.222 38.9427 82.2808 39.0831 82.2808 39.2294C82.2808 39.3756 82.222 39.516 82.1174 39.6194C82.0128 39.7228 81.871 39.781 81.7231 39.781V39.781Z" fill="#E4E4E4"/>
<path d="M67.6826 42.3669H59.0839C58.936 42.3669 58.7942 42.3088 58.6896 42.2053C58.585 42.1019 58.5262 41.9616 58.5262 41.8153C58.5262 41.669 58.585 41.5287 58.6896 41.4252C58.7942 41.3218 58.936 41.2637 59.0839 41.2637H67.6826C67.756 41.2635 67.8286 41.2777 67.8964 41.3054C67.9642 41.333 68.0258 41.3736 68.0777 41.4249C68.1296 41.4761 68.1708 41.537 68.1989 41.604C68.2269 41.6709 68.2414 41.7428 68.2414 41.8153C68.2414 41.8878 68.2269 41.9596 68.1989 42.0266C68.1708 42.0936 68.1296 42.1545 68.0777 42.2057C68.0258 42.257 67.9642 42.2976 67.8964 42.3252C67.8286 42.3529 67.756 42.3671 67.6826 42.3669Z" fill="#E4E4E4"/>
<path d="M54.9318 60.9918H48.4362C48.1105 60.9914 47.7982 60.8633 47.568 60.6355C47.3377 60.4078 47.2081 60.0989 47.2078 59.7768V54.2121C47.2081 53.89 47.3377 53.5811 47.568 53.3533C47.7982 53.1256 48.1105 52.9974 48.4362 52.9971H54.9318C55.2575 52.9974 55.5697 53.1256 55.8 53.3533C56.0303 53.5811 56.1599 53.89 56.1602 54.2121V59.7768C56.1599 60.0989 56.0303 60.4078 55.8 60.6355C55.5697 60.8633 55.2575 60.9914 54.9318 60.9918V60.9918Z" fill="#99B6FF"/>
<path d="M81.7231 56.2536H59.0839C58.936 56.2536 58.7942 56.1955 58.6896 56.0921C58.585 55.9886 58.5262 55.8483 58.5262 55.702C58.5262 55.5557 58.585 55.4154 58.6896 55.312C58.7942 55.2085 58.936 55.1504 59.0839 55.1504H81.7231C81.871 55.1504 82.0128 55.2085 82.1174 55.312C82.222 55.4154 82.2808 55.5557 82.2808 55.702C82.2808 55.8483 82.222 55.9886 82.1174 56.0921C82.0128 56.1955 81.871 56.2536 81.7231 56.2536V56.2536Z" fill="#E4E4E4"/>
<path d="M67.6826 58.8396H59.0839C58.936 58.8396 58.7942 58.7814 58.6896 58.678C58.585 58.5745 58.5262 58.4342 58.5262 58.2879C58.5262 58.1417 58.585 58.0013 58.6896 57.8979C58.7942 57.7944 58.936 57.7363 59.0839 57.7363H67.6826C67.756 57.7362 67.8286 57.7504 67.8964 57.778C67.9642 57.8057 68.0258 57.8463 68.0777 57.8975C68.1296 57.9488 68.1708 58.0096 68.1989 58.0766C68.2269 58.1436 68.2414 58.2154 68.2414 58.2879C68.2414 58.3605 68.2269 58.4323 68.1989 58.4993C68.1708 58.5663 68.1296 58.6271 68.0777 58.6784C68.0258 58.7296 67.9642 58.7702 67.8964 58.7979C67.8286 58.8255 67.756 58.8397 67.6826 58.8396V58.8396Z" fill="#E4E4E4"/>
<path d="M54.9318 77.4644H48.4362C48.1105 77.4641 47.7982 77.336 47.568 77.1082C47.3377 76.8804 47.2081 76.5716 47.2078 76.2494V70.6847C47.2081 70.3626 47.3377 70.0538 47.568 69.826C47.7982 69.5982 48.1105 69.4701 48.4362 69.4697H54.9318C55.2575 69.4701 55.5697 69.5982 55.8 69.826C56.0303 70.0538 56.1599 70.3626 56.1602 70.6847V76.2494C56.1599 76.5716 56.0303 76.8804 55.8 77.1082C55.5697 77.336 55.2575 77.4641 54.9318 77.4644Z" fill="#99B6FF"/>
<path d="M81.7231 72.7263H59.0839C58.936 72.7263 58.7942 72.6682 58.6896 72.5647C58.585 72.4613 58.5262 72.321 58.5262 72.1747C58.5262 72.0284 58.585 71.8881 58.6896 71.7846C58.7942 71.6812 58.936 71.623 59.0839 71.623H81.7231C81.871 71.623 82.0128 71.6812 82.1174 71.7846C82.222 71.8881 82.2808 72.0284 82.2808 72.1747C82.2808 72.321 82.222 72.4613 82.1174 72.5647C82.0128 72.6682 81.871 72.7263 81.7231 72.7263Z" fill="#E4E4E4"/>
<path d="M67.6826 75.3122H59.0839C58.936 75.3122 58.7942 75.2541 58.6896 75.1507C58.585 75.0472 58.5262 74.9069 58.5262 74.7606C58.5262 74.6143 58.585 74.474 58.6896 74.3705C58.7942 74.2671 58.936 74.209 59.0839 74.209H67.6826C67.756 74.2088 67.8286 74.223 67.8964 74.2507C67.9642 74.2783 68.0258 74.3189 68.0777 74.3702C68.1296 74.4214 68.1708 74.4823 68.1989 74.5493C68.2269 74.6163 68.2414 74.6881 68.2414 74.7606C68.2414 74.8331 68.2269 74.9049 68.1989 74.9719C68.1708 75.0389 68.1296 75.0998 68.0777 75.151C68.0258 75.2023 67.9642 75.2429 67.8964 75.2705C67.8286 75.2982 67.756 75.3124 67.6826 75.3122V75.3122Z" fill="#E4E4E4"/>
<mask id="path-54-inside-2_231_2227" fill="white">
<path d="M90.2031 88.7446H39.2855C39.0701 88.7446 38.9144 88.7446 38.7793 86.2191C38.6986 84.7111 38.6542 82.7103 38.6542 80.5849V33.7837C38.6542 31.6584 38.6986 29.6575 38.7793 28.1496C38.9144 25.624 39.0701 25.624 39.2855 25.624H90.2031C90.4184 25.624 90.5741 25.624 90.7092 28.1496C90.7899 29.6575 90.8344 31.6584 90.8344 33.7837V80.5849C90.8344 82.7103 90.7899 84.7111 90.7092 86.2191C90.5741 88.7446 90.4184 88.7446 90.2031 88.7446ZM39.3993 88.3378H90.0893C90.2368 87.811 90.4232 85.0039 90.4232 80.5849V33.7837C90.4232 29.3647 90.2368 26.5576 90.0893 26.0308H39.3993C39.2517 26.5576 39.0654 29.3647 39.0654 33.7837V80.5849C39.0654 85.0039 39.2517 87.811 39.3993 88.3378Z"/>
</mask>
<path d="M38.7793 86.2191L39.2786 86.1924L39.2786 86.1924L38.7793 86.2191ZM38.7793 28.1496L39.2786 28.1763L39.2786 28.1763L38.7793 28.1496ZM90.7092 28.1496L90.2099 28.1763L90.2099 28.1763L90.7092 28.1496ZM90.7092 86.2191L90.2099 86.1924L90.2099 86.1924L90.7092 86.2191ZM39.3993 88.3378L38.9178 88.4727L39.0201 88.8378H39.3993V88.3378ZM90.0893 88.3378V88.8378H90.4685L90.5707 88.4727L90.0893 88.3378ZM90.0893 26.0308L90.5707 25.8959L90.4685 25.5308H90.0893V26.0308ZM39.3993 26.0308V25.5308H39.0201L38.9178 25.8959L39.3993 26.0308ZM39.0654 80.5849L39.5654 80.5849V80.5849H39.0654ZM90.2031 88.2446H39.2855V89.2446H90.2031V88.2446ZM39.2855 88.2446C39.2159 88.2446 39.3469 88.2305 39.4561 88.3222C39.5348 88.3883 39.5225 88.4416 39.486 88.3021C39.4183 88.044 39.3466 87.4642 39.2786 86.1924L38.28 86.2458C38.3471 87.4995 38.4208 88.1824 38.5186 88.5556C38.5648 88.7319 38.6403 88.943 38.813 89.088C39.0162 89.2586 39.2474 89.2446 39.2855 89.2446V88.2446ZM39.2786 86.1924C39.1985 84.6961 39.1542 82.7046 39.1542 80.5849H38.1542C38.1542 82.7159 38.1987 84.7262 38.28 86.2458L39.2786 86.1924ZM39.1542 80.5849V33.7837H38.1542V80.5849H39.1542ZM39.1542 33.7837C39.1542 31.6641 39.1985 29.6725 39.2786 28.1763L38.28 28.1229C38.1987 29.6424 38.1542 31.6528 38.1542 33.7837H39.1542ZM39.2786 28.1763C39.3466 26.9045 39.4183 26.3246 39.486 26.0665C39.5225 25.927 39.5348 25.9802 39.4561 26.0464C39.3469 26.1381 39.2159 26.124 39.2855 26.124V25.124C39.2474 25.124 39.0162 25.11 38.813 25.2806C38.6402 25.4256 38.5648 25.6367 38.5186 25.813C38.4208 26.1862 38.3471 26.8691 38.28 28.1229L39.2786 28.1763ZM39.2855 26.124H90.2031V25.124H39.2855V26.124ZM90.2031 26.124C90.2726 26.124 90.1417 26.1381 90.0325 26.0464C89.9537 25.9802 89.966 25.927 90.0026 26.0665C90.0702 26.3246 90.1419 26.9045 90.2099 28.1763L91.2085 28.1229C91.1414 26.8691 91.0677 26.1862 90.9699 25.813C90.9237 25.6367 90.8483 25.4256 90.6755 25.2806C90.4723 25.11 90.2412 25.124 90.2031 25.124V26.124ZM90.2099 28.1763C90.29 29.6725 90.3344 31.6641 90.3344 33.7837H91.3344C91.3344 31.6528 91.2899 29.6424 91.2085 28.1229L90.2099 28.1763ZM90.3344 33.7837V80.5849H91.3344V33.7837H90.3344ZM90.3344 80.5849C90.3344 82.7046 90.29 84.6961 90.2099 86.1924L91.2085 86.2458C91.2899 84.7262 91.3344 82.7159 91.3344 80.5849H90.3344ZM90.2099 86.1924C90.1419 87.4642 90.0702 88.044 90.0026 88.3021C89.966 88.4416 89.9537 88.3883 90.0325 88.3222C90.1417 88.2305 90.2726 88.2446 90.2031 88.2446V89.2446C90.2412 89.2446 90.4723 89.2586 90.6755 89.088C90.8483 88.943 90.9237 88.7319 90.9699 88.5556C91.0677 88.1824 91.1414 87.4995 91.2085 86.2458L90.2099 86.1924ZM39.3993 88.8378H90.0893V87.8378H39.3993V88.8378ZM90.5707 88.4727C90.6216 88.2911 90.6638 87.9731 90.7015 87.5724C90.7406 87.1563 90.7782 86.6101 90.8109 85.9455C90.8765 84.6157 90.9232 82.8008 90.9232 80.5849H89.9232C89.9232 82.7879 89.8767 84.586 89.8122 85.8963C89.7799 86.5517 89.7432 87.0822 89.7059 87.4788C89.6671 87.8907 89.6307 88.1211 89.6078 88.203L90.5707 88.4727ZM90.9232 80.5849V33.7837H89.9232V80.5849H90.9232ZM90.9232 33.7837C90.9232 31.5678 90.8765 29.7529 90.8109 28.4231C90.7782 27.7585 90.7406 27.2123 90.7015 26.7962C90.6638 26.3955 90.6216 26.0774 90.5707 25.8959L89.6078 26.1656C89.6307 26.2475 89.6671 26.4779 89.7059 26.8898C89.7432 27.2864 89.7799 27.8168 89.8122 28.4723C89.8767 29.7826 89.9232 31.5807 89.9232 33.7837H90.9232ZM90.0893 25.5308H39.3993V26.5308H90.0893V25.5308ZM38.9178 25.8959C38.867 26.0774 38.8247 26.3955 38.7871 26.7962C38.7479 27.2123 38.7103 27.7585 38.6776 28.4231C38.6121 29.7529 38.5654 31.5678 38.5654 33.7837H39.5654C39.5654 31.5807 39.6118 29.7825 39.6764 28.4723C39.7087 27.8168 39.7454 27.2864 39.7827 26.8898C39.8214 26.4779 39.8578 26.2475 39.8808 26.1656L38.9178 25.8959ZM38.5654 33.7837V80.5849H39.5654V33.7837H38.5654ZM38.5654 80.5848C38.5654 82.8008 38.6121 84.6157 38.6776 85.9455C38.7103 86.6101 38.7479 87.1563 38.7871 87.5724C38.8247 87.9731 38.867 88.2911 38.9178 88.4727L39.8808 88.203C39.8578 88.1211 39.8214 87.8907 39.7827 87.4787C39.7454 87.0822 39.7087 86.5517 39.6764 85.8963C39.6118 84.586 39.5654 82.7879 39.5654 80.5849L38.5654 80.5848Z" fill="#555555" mask="url(#path-54-inside-2_231_2227)"/>
</svg>
