<svg width="143" height="64" viewBox="0 0 143 64" fill="none" xmlns="http://www.w3.org/2000/svg">
<g clip-path="url(#clip0_231_2124)">
<path d="M67.8434 63.6963H98.2414C99.4414 63.6963 99.4434 61.832 98.2414 61.832H67.8434C66.6434 61.832 66.6414 63.6963 67.8434 63.6963Z" fill="#E6E6E6"/>
<path d="M59.6364 23.1846H29.3405C29.0205 23.185 28.7136 23.3122 28.4873 23.5384C28.261 23.7647 28.1337 24.0714 28.1334 24.3913V30.4076C29.6446 30.4431 30.6255 31.6896 30.8632 33.2029V38.657H30.978C30.9962 38.6571 31.0137 38.6643 31.0266 38.6772C31.0395 38.6901 31.0468 38.7076 31.0468 38.7258V41.628C31.0468 41.6463 31.0395 41.6637 31.0266 41.6766C31.0137 41.6895 30.9962 41.6968 30.978 41.6968H30.8632V59.2382C30.8632 59.6236 30.8593 60.3268 30.8593 60.3268H59.6364C59.9564 60.3264 60.2632 60.1991 60.4895 59.9729C60.7158 59.7467 60.8431 59.44 60.8435 59.1201V24.3913C60.8431 24.0714 60.7158 23.7647 60.4895 23.5384C60.2632 23.3122 59.9564 23.185 59.6364 23.1846V23.1846Z" fill="#FFE199"/>
<path d="M115.925 3.38867V36.309H62.9388V21.8149C62.9381 21.1568 62.6763 20.5258 62.2108 20.0604C61.7452 19.595 61.114 19.3333 60.4556 19.3327H50.5184V3.38867H115.925Z" fill="#FFE199"/>
<path d="M119.197 40.9497H62.998V40.7203H118.967V1.94999C118.967 1.49382 118.785 1.05649 118.462 0.733927C118.14 0.411368 117.702 0.229927 117.246 0.22941H48.5115C48.0552 0.229927 47.6177 0.411368 47.295 0.733927C46.9723 1.05649 46.7908 1.49382 46.7903 1.94999V19.1838H46.5608V1.94999C46.5614 1.433 46.7671 0.93735 47.1328 0.571782C47.4985 0.206214 47.9943 0.000581844 48.5115 0H117.246C117.763 0.000581023 118.259 0.206212 118.625 0.57178C118.99 0.937347 119.196 1.433 119.197 1.94999V40.9497Z" fill="#3F3D56"/>
<path d="M113.872 47.9471H62.9979V47.7177H113.872C115.222 47.7162 116.518 47.1791 117.473 46.2242C118.428 45.2693 118.965 43.9746 118.967 42.6242V40.9501H62.9979V40.7207H119.196V42.6242C119.195 44.0354 118.633 45.3884 117.635 46.3863C116.637 47.3842 115.283 47.9455 113.872 47.9471V47.9471Z" fill="#3F3D56"/>
<path d="M98.7732 59.1883C95.9371 56.4661 94.0715 52.9143 93.4718 47.9472H72.5699C72.3573 52.5942 70.5035 56.0794 67.1595 59.1761L66.8062 59.1884C70.2563 56.0628 72.1566 52.5521 72.3453 47.8279L72.3497 47.7178H93.6759L93.6877 47.8192C94.2767 52.8704 96.1814 56.4452 99.0873 59.1699L98.7732 59.1883Z" fill="#3F3D56"/>
<path d="M60.4002 63.934H28.202V63.7046H60.4002C61.0585 63.7038 61.6896 63.4421 62.1551 62.9768C62.6206 62.5114 62.8825 61.8805 62.8832 61.2225V21.8678C62.8825 21.2097 62.6206 20.5788 62.1551 20.1135C61.6896 19.6481 61.0585 19.3864 60.4002 19.3857H28.202C27.5437 19.3864 26.9126 19.6481 26.4471 20.1135C25.9816 20.5788 25.7197 21.2097 25.719 21.8678V30.3608H25.4895V21.8678C25.4903 21.1489 25.7764 20.4597 26.2849 19.9513C26.7934 19.443 27.4829 19.1571 28.202 19.1562H60.4002C61.1193 19.1571 61.8088 19.443 62.3173 19.9513C62.8259 20.4597 63.1119 21.1489 63.1127 21.8678V61.2225C63.1119 61.9414 62.8259 62.6306 62.3173 63.1389C61.8088 63.6472 61.1193 63.9332 60.4002 63.934V63.934Z" fill="#3F3D56"/>
<path d="M44.3011 22.0586C44.1472 22.0586 43.9967 22.013 43.8688 21.9275C43.7408 21.842 43.6411 21.7205 43.5822 21.5784C43.5233 21.4363 43.5079 21.2799 43.5379 21.129C43.5679 20.9781 43.642 20.8395 43.7508 20.7308C43.8597 20.622 43.9983 20.5479 44.1493 20.5179C44.3002 20.4879 44.4566 20.5033 44.5988 20.5621C44.741 20.621 44.8625 20.7207 44.948 20.8486C45.0335 20.9765 45.0792 21.1269 45.0792 21.2807C45.0789 21.4869 44.9969 21.6847 44.851 21.8305C44.7051 21.9763 44.5074 22.0583 44.3011 22.0586V22.0586ZM44.3011 20.6827C44.1827 20.6827 44.0671 20.7178 43.9687 20.7835C43.8703 20.8492 43.7936 20.9426 43.7483 21.0519C43.7031 21.1612 43.6912 21.2814 43.7143 21.3974C43.7374 21.5134 43.7944 21.62 43.878 21.7036C43.9617 21.7873 44.0683 21.8442 44.1844 21.8673C44.3004 21.8904 44.4207 21.8785 44.53 21.8333C44.6393 21.788 44.7328 21.7113 44.7985 21.613C44.8642 21.5146 44.8993 21.399 44.8993 21.2807C44.8991 21.1222 44.836 20.9702 44.7239 20.8581C44.6117 20.746 44.4597 20.6829 44.3011 20.6827V20.6827Z" fill="#3F3D56"/>
<path d="M44.3011 63.0543C44.1047 63.0543 43.9128 62.9961 43.7495 62.8871C43.5862 62.778 43.459 62.623 43.3838 62.4417C43.3087 62.2603 43.289 62.0607 43.3273 61.8682C43.3656 61.6757 43.4602 61.4988 43.599 61.36C43.7379 61.2212 43.9148 61.1267 44.1074 61.0884C44.3 61.0501 44.4996 61.0698 44.681 61.1449C44.8625 61.22 45.0175 61.3472 45.1266 61.5104C45.2357 61.6736 45.294 61.8655 45.294 62.0618C45.2937 62.3249 45.189 62.5772 45.0028 62.7633C44.8167 62.9494 44.5643 63.054 44.3011 63.0543V63.0543ZM44.3011 61.2987C44.1501 61.2987 44.0025 61.3435 43.877 61.4274C43.7515 61.5112 43.6536 61.6304 43.5958 61.7698C43.5381 61.9093 43.5229 62.0627 43.5524 62.2107C43.5819 62.3587 43.6546 62.4947 43.7613 62.6014C43.8681 62.7082 44.0041 62.7808 44.1522 62.8103C44.3003 62.8397 44.4538 62.8246 44.5932 62.7668C44.7327 62.7091 44.852 62.6113 44.9358 62.4858C45.0197 62.3603 45.0645 62.2127 45.0645 62.0618C45.0642 61.8595 44.9837 61.6655 44.8406 61.5225C44.6975 61.3794 44.5035 61.299 44.3011 61.2987V61.2987Z" fill="#3F3D56"/>
<path d="M27.8787 64.0001H17.2203C16.4179 63.9991 15.6486 63.6801 15.0812 63.1129C14.5138 62.5458 14.1947 61.7768 14.1938 60.9747V33.3856C14.1947 32.5836 14.5138 31.8146 15.0812 31.2474C15.6486 30.6803 16.4179 30.3613 17.2202 30.3604H27.8787C28.6811 30.3613 29.4504 30.6803 30.0177 31.2474C30.5851 31.8146 30.9043 32.5836 30.9052 33.3856V38.3228C30.9595 38.3455 31.0059 38.3838 31.0386 38.4328C31.0713 38.4818 31.0888 38.5393 31.0888 38.5982L31.0888 41.8107C31.0887 41.8696 31.0713 41.9271 31.0386 41.9761C31.0059 42.0251 30.9595 42.0633 30.9052 42.086V60.9748C30.9043 61.7768 30.5851 62.5458 30.0177 63.113C29.4504 63.6801 28.6811 63.9991 27.8787 64.0001V64.0001ZM17.2202 30.5898C16.4787 30.5906 15.7678 30.8854 15.2434 31.4096C14.7191 31.9337 14.4241 32.6444 14.4233 33.3856V60.9747C14.4241 61.716 14.7191 62.4266 15.2434 62.9508C15.7678 63.475 16.4787 63.7698 17.2202 63.7706H27.8787C28.6202 63.7698 29.3312 63.475 29.8555 62.9508C30.3799 62.4267 30.6748 61.716 30.6757 60.9748V41.8795H30.7904C30.8087 41.8795 30.8262 41.8723 30.8391 41.8594C30.852 41.8465 30.8593 41.829 30.8593 41.8107L30.8593 38.5982C30.8593 38.5799 30.852 38.5624 30.8391 38.5495C30.8262 38.5366 30.8087 38.5293 30.7904 38.5293H30.6757V33.3856C30.6748 32.6444 30.3799 31.9337 29.8555 31.4096C29.3312 30.8854 28.6203 30.5906 27.8787 30.5898H17.2202Z" fill="#3F3D56"/>
<path d="M27.9962 31.2324H26.6049C26.6689 31.3892 26.6933 31.5594 26.676 31.7278C26.6587 31.8963 26.6003 32.0579 26.5058 32.1985C26.4113 32.339 26.2836 32.4542 26.1341 32.5338C25.9846 32.6134 25.8178 32.6551 25.6484 32.6551H19.5423C19.3729 32.6551 19.2061 32.6134 19.0566 32.5338C18.9071 32.4542 18.7795 32.339 18.685 32.1985C18.5905 32.0579 18.532 31.8963 18.5147 31.7278C18.4974 31.5594 18.5218 31.3892 18.5858 31.2324H17.2864C16.7097 31.2324 16.1566 31.4614 15.7488 31.8691C15.341 32.2767 15.1119 32.8296 15.1119 33.406V60.9546C15.1119 61.5311 15.341 62.084 15.7488 62.4916C16.1566 62.8992 16.7097 63.1282 17.2864 63.1282H27.9962C28.5729 63.1282 29.1259 62.8992 29.5337 62.4916C29.9415 62.084 30.1706 61.5311 30.1706 60.9546V33.406C30.1706 32.8296 29.9415 32.2767 29.5337 31.8691C29.1259 31.4614 28.5729 31.2324 27.9962 31.2324V31.2324Z" fill="#FFE199"/>
<path d="M142.863 63.9548H0.136601C0.11862 63.9548 0.100805 63.9514 0.0841754 63.9445C0.0675456 63.9377 0.0524275 63.9276 0.0396915 63.9149C0.0269554 63.9023 0.0168508 63.8872 0.00995566 63.8706C0.00306053 63.854 -0.000488281 63.8362 -0.000488281 63.8182C-0.000488281 63.8002 0.00306053 63.7824 0.00995566 63.7658C0.0168508 63.7492 0.0269554 63.7342 0.0396915 63.7215C0.0524275 63.7088 0.0675456 63.6987 0.0841754 63.6919C0.100805 63.6851 0.11862 63.6816 0.136601 63.6816H142.863C142.881 63.6816 142.899 63.6851 142.916 63.6919C142.932 63.6987 142.948 63.7088 142.96 63.7215C142.973 63.7342 142.983 63.7492 142.99 63.7658C142.997 63.7824 143 63.8002 143 63.8182C143 63.8362 142.997 63.854 142.99 63.8706C142.983 63.8872 142.973 63.9023 142.96 63.9149C142.948 63.9276 142.932 63.9377 142.916 63.9445C142.899 63.9514 142.881 63.9548 142.863 63.9548V63.9548Z" fill="#3F3D56"/>
<path d="M98.8441 63.8909H67.0587C66.7421 63.8911 66.4286 63.829 66.136 63.7081C65.8434 63.5871 65.5775 63.4097 65.3536 63.186C65.1296 62.9623 64.9519 62.6967 64.8307 62.4043C64.7095 62.1119 64.6471 61.7986 64.6471 61.4821C64.6471 61.1656 64.7095 60.8522 64.8307 60.5598C64.9519 60.2674 65.1296 60.0018 65.3536 59.7781C65.5775 59.5544 65.8434 59.377 66.136 59.2561C66.4286 59.1351 66.7421 59.073 67.0587 59.0732H98.8441C99.4828 59.0738 100.095 59.3278 100.547 59.7795C100.998 60.2311 101.252 60.8435 101.252 61.4821C101.252 62.1206 100.998 62.733 100.547 63.1847C100.095 63.6364 99.4828 63.8904 98.8441 63.8909ZM67.0587 59.3027C66.4805 59.3027 65.926 59.5323 65.5171 59.941C65.1082 60.3497 64.8785 60.904 64.8785 61.4821C64.8785 62.0601 65.1082 62.6144 65.5171 63.0231C65.926 63.4318 66.4805 63.6615 67.0587 63.6615H98.8441C99.4223 63.6615 99.9768 63.4318 100.386 63.0231C100.795 62.6144 101.024 62.0601 101.024 61.4821C101.024 60.904 100.795 60.3497 100.386 59.941C99.9768 59.5323 99.4223 59.3027 98.8441 59.3027H67.0587Z" fill="#3F3D56"/>
</g>
<defs>
<clipPath id="clip0_231_2124">
<rect width="143" height="64" fill="white"/>
</clipPath>
</defs>
</svg>
