<svg width="25" height="25" viewBox="0 0 25 25" fill="none" xmlns="http://www.w3.org/2000/svg">
    <path d="M22.3963 1.64712e-07H2.60463C2.26255 -0.000121507 1.9238 0.067166 1.60774 0.198018C1.29167 0.32887 1.00449 0.520721 0.762607 0.762607C0.520721 1.00449 0.32887 1.29167 0.198018 1.60774C0.067166 1.9238 -0.000121507 2.26255 1.64712e-07 2.60463V22.3963C1.43087e-07 22.7383 0.0673778 23.0769 0.198284 23.3929C0.32919 23.7089 0.52106 23.9959 0.762935 24.2377C1.00481 24.4795 1.29195 24.6713 1.60795 24.8021C1.92395 24.9329 2.26263 25.0001 2.60463 25H22.3963C23.0868 25 23.7491 24.7257 24.2374 24.2374C24.7257 23.7491 25 23.0868 25 22.3963V2.60463C25.0001 2.26263 24.9329 1.92395 24.8021 1.60795C24.6713 1.29195 24.4795 1.00481 24.2377 0.762935C23.9959 0.52106 23.7089 0.32919 23.3929 0.198284C23.0769 0.0673778 22.7383 1.43087e-07 22.3963 1.64712e-07ZM15.625 19.7917H5.20833V16.6667H15.625V19.7917ZM19.7917 14.063H5.20833V10.938H19.7917V14.063ZM19.7917 8.33426H5.20833V5.20833H19.7917V8.33426Z" fill="#FFB500"/>
</svg>
