<svg width="15" height="14" viewBox="0 0 15 14" fill="none" xmlns="http://www.w3.org/2000/svg">
    <path d="M13.5387 0.8871C12.7464 0.249656 11.7419 -0.0635323 10.7277 0.0107322C9.7135 0.0849967 8.76525 0.541185 8.07426 1.28724L7.49739 1.87913L6.91884 1.28724C6.22789 0.54142 5.27981 0.0853812 4.26583 0.0111198C3.25185 -0.0631417 2.24744 0.2499 1.4552 0.8871C1.0241 1.25739 0.673099 1.71177 0.423693 2.22241C0.174286 2.73306 0.0317187 3.28924 0.00471709 3.8569C-0.0222845 4.42455 0.0668479 4.99175 0.266658 5.52377C0.466468 6.05578 0.772753 6.54142 1.16676 6.95096L6.83548 12.7789C6.92111 12.8687 7.02408 12.9402 7.13814 12.989C7.2522 13.0378 7.37498 13.063 7.49905 13.063C7.62313 13.063 7.74591 13.0378 7.85997 12.989C7.97403 12.9402 8.07699 12.8687 8.16263 12.7789L13.8313 6.95096C14.2258 6.54171 14.5325 6.0562 14.7326 5.52422C14.9328 4.99223 15.0222 4.42496 14.9953 3.8572C14.9685 3.28944 14.826 2.73315 14.5765 2.22242C14.327 1.7117 13.9759 1.2573 13.5446 0.8871H13.5387Z" fill="#FFB500"/>
</svg>
