<svg width="25" height="26" viewBox="0 0 25 26" fill="none" xmlns="http://www.w3.org/2000/svg">
    <path d="M22.3963 0.828125H2.60463C2.26255 0.828003 1.9238 0.895291 1.60774 1.02614C1.29167 1.15699 1.00449 1.34885 0.762607 1.59073C0.520721 1.83262 0.32887 2.1198 0.198018 2.43586C0.067166 2.75193 -0.000121507 3.09068 1.64712e-07 3.43275V23.2244C1.43087e-07 23.5664 0.0673778 23.9051 0.198284 24.221C0.32919 24.537 0.52106 24.8241 0.762935 25.0658C1.00481 25.3076 1.29195 25.4994 1.60795 25.6302C1.92395 25.761 2.26263 25.8282 2.60463 25.8281H22.3963C23.0868 25.8281 23.7491 25.5538 24.2374 25.0655C24.7257 24.5772 25 23.915 25 23.2244V3.43275C25.0001 3.09075 24.9329 2.75208 24.8021 2.43608C24.6713 2.12007 24.4795 1.83293 24.2377 1.59106C23.9959 1.34919 23.7089 1.15732 23.3929 1.02641C23.0769 0.895503 22.7383 0.828125 22.3963 0.828125ZM15.625 20.6198H5.20833V17.4948H15.625V20.6198ZM19.7917 14.8911H5.20833V11.7661H19.7917V14.8911ZM19.7917 9.16238H5.20833V6.03646H19.7917V9.16238Z" fill="#999999"/>
</svg>
