<svg width="19" height="14" viewBox="0 0 19 14" fill="none" xmlns="http://www.w3.org/2000/svg">
    <path d="M9.5 0C7.41619 0.0264919 5.3901 0.688354 3.69251 1.89713C1.99492 3.10591 0.706693 4.80402 0 6.76452C0.706693 8.72501 1.99492 10.4231 3.69251 11.6319C5.3901 12.8407 7.41619 13.5025 9.5 13.529C11.5838 13.5025 13.6099 12.8407 15.3075 11.6319C17.0051 10.4231 18.2933 8.72501 19 6.76452C18.2933 4.80402 17.0051 3.10591 15.3075 1.89713C13.6099 0.688354 11.5838 0.0264919 9.5 0ZM9.5 11.2754C8.33062 11.2458 7.22039 10.755 6.4116 9.90986C5.60281 9.06477 5.16112 7.93407 5.18293 6.76452C5.16112 5.59497 5.60281 4.46427 6.4116 3.61917C7.22039 2.77408 8.33062 2.28321 9.5 2.25368C10.6694 2.28321 11.7796 2.77408 12.5884 3.61917C13.3972 4.46427 13.8389 5.59497 13.8171 6.76452C13.8386 7.93392 13.3969 9.06439 12.5881 9.9093C11.7793 10.7542 10.6692 11.245 9.5 11.2745V11.2754ZM9.5 4.05871C8.78238 4.05871 8.09414 4.34379 7.58671 4.85122C7.07927 5.35866 6.79419 6.04689 6.79419 6.76452C6.79419 7.48214 7.07927 8.17037 7.58671 8.67781C8.09414 9.18525 8.78238 9.47032 9.5 9.47032C10.2176 9.47032 10.9059 9.18525 11.4133 8.67781C11.9207 8.17037 12.2058 7.48214 12.2058 6.76452C12.2058 6.04689 11.9207 5.35866 11.4133 4.85122C10.9059 4.34379 10.2176 4.05871 9.5 4.05871Z" fill="#999999"/>
</svg>
