<svg width="70" height="58" viewBox="0 0 70 58" fill="none" xmlns="http://www.w3.org/2000/svg">
<path d="M69.6667 54.3555C69.6609 55.1871 69.3282 55.9831 68.7404 56.5715C68.1526 57.1598 67.357 57.4934 66.5253 57.5H9.47467C8.64124 57.4992 7.84224 57.1675 7.25322 56.5779C6.66419 55.9883 6.33333 55.1889 6.33333 54.3555V51.1667H63.3333V14.1167L38 36.9167L6.33333 8.41667V3.66667C6.33333 2.82681 6.66696 2.02136 7.26083 1.4275C7.85469 0.83363 8.66015 0.5 9.5 0.5H66.5C67.3399 0.5 68.1453 0.83363 68.7392 1.4275C69.333 2.02136 69.6667 2.82681 69.6667 3.66667V54.3555ZM14.041 6.83333L38 28.3983L61.959 6.83333H14.041ZM0 38.5H25.3333V44.8333H0V38.5ZM0 22.6667H15.8333V29H0V22.6667Z" fill="#0048FF"/>
</svg>
