<svg width="76" height="76" viewBox="0 0 76 76" fill="none" xmlns="http://www.w3.org/2000/svg">
<path d="M69.6667 63.3555C69.6609 64.1871 69.3282 64.9831 68.7404 65.5715C68.1526 66.1598 67.357 66.4934 66.5253 66.5H9.47467C8.64124 66.4992 7.84224 66.1675 7.25322 65.5779C6.66419 64.9883 6.33333 64.1889 6.33333 63.3555V60.1667H63.3333V23.1167L38 45.9167L6.33333 17.4167V12.6667C6.33333 11.8268 6.66696 11.0214 7.26083 10.4275C7.85469 9.83363 8.66015 9.5 9.5 9.5H66.5C67.3399 9.5 68.1453 9.83363 68.7392 10.4275C69.333 11.0214 69.6667 11.8268 69.6667 12.6667V63.3555ZM14.041 15.8333L38 37.3983L61.959 15.8333H14.041ZM0 47.5H25.3333V53.8333H0V47.5ZM0 31.6667H15.8333V38H0V31.6667Z" fill="#0048FF"/>
</svg>
