<svg width="171" height="238" viewBox="0 0 171 238" fill="none" xmlns="http://www.w3.org/2000/svg">
<path d="M44.256 230.382C42.69 230.382 41.592 228.69 41.592 226.062C41.592 223.452 42.69 221.76 44.256 221.76C45.804 221.76 46.902 223.452 46.902 226.062C46.902 228.69 45.804 230.382 44.256 230.382ZM44.256 220.428C41.88 220.428 40.188 222.624 40.188 226.062C40.188 229.5 41.88 231.696 44.256 231.696C46.632 231.696 48.306 229.5 48.306 226.062C48.306 222.624 46.632 220.428 44.256 220.428ZM55.038 225.63H52.374V219.204H50.898V235.332H52.374V226.872H55.038V225.63ZM68.2486 219.186V235.368H69.7246V219.186H68.2486ZM61.2106 220.428C58.8166 220.428 57.1066 222.624 57.1066 226.062C57.1066 229.5 58.8166 231.696 61.2106 231.696C63.6046 231.696 65.3146 229.5 65.3146 226.062C65.3146 222.624 63.6046 220.428 61.2106 220.428ZM61.2106 221.76C62.7766 221.76 63.8926 223.452 63.8926 226.062C63.8926 228.69 62.7766 230.382 61.2106 230.382C59.6266 230.382 58.5106 228.69 58.5106 226.062C58.5106 223.452 59.6266 221.76 61.2106 221.76ZM75.5732 221.958H81.7472V220.716H74.1152V231.354H75.4112C78.6692 231.354 80.7752 231.246 83.2592 230.796L83.0972 229.554C80.7212 230.004 78.6872 230.094 75.5732 230.094V221.958ZM84.8072 219.186V235.368H86.2832V219.186H84.8072ZM94.8545 235.099H93.1758L98.2119 221.203H99.8906L94.8545 235.099ZM117.45 219.186V235.35H118.926V219.186H117.45ZM106.632 220.554V231.444H114.228V220.554H112.77V224.82H108.09V220.554H106.632ZM108.09 225.99H112.77V230.238H108.09V225.99ZM135.502 219.204H134.026V227.502H135.502V219.204ZM129.22 225.504H124.558V221.256H129.22V225.504ZM130.66 220.086H123.118V226.674H130.66V220.086ZM126.538 233.982V232.2H135.502V228.312H125.044V229.464H134.044V231.102H125.098V235.152H136.06V233.982H126.538ZM145.455 227.196H141.099V224.28H145.455V227.196ZM146.913 224.946H150.639V231.138H152.133V219.186H150.639V223.74H146.913V220.266H145.455V223.11H141.099V220.266H139.641V228.384H146.913V224.946ZM143.223 233.766V229.968H141.747V234.972H152.511V233.766H143.223ZM169.214 221.544H163.436V219.438H161.96V221.544H156.11V222.75H169.214V221.544ZM158.882 226.908C158.882 225.72 160.34 225 162.698 225C165.02 225 166.46 225.72 166.46 226.908C166.46 228.114 165.02 228.834 162.698 228.834C160.34 228.834 158.882 228.114 158.882 226.908ZM163.436 232.236V229.968C166.244 229.788 167.954 228.708 167.954 226.908C167.954 224.964 165.92 223.848 162.698 223.848C159.422 223.848 157.388 224.964 157.388 226.908C157.388 228.708 159.116 229.806 161.96 229.968V232.236H155.39V233.442H170.024V232.236H163.436Z" fill="#E0E0E0"/>
<path d="M48.576 116.38V117.586H51.762V121.816H53.256V112.204H51.762V116.38H48.576ZM49.476 120.052C47.136 119.224 45.552 117.19 45.552 115.12V114.562H49.098V113.374H40.476V114.562H44.076V115.12C44.076 117.442 42.42 119.62 40.008 120.502L40.782 121.672C42.672 120.952 44.166 119.44 44.85 117.568C45.552 119.224 46.938 120.556 48.738 121.204L49.476 120.052ZM47.928 127.18C45.498 127.18 44.022 126.496 44.022 125.326C44.022 124.156 45.498 123.454 47.928 123.454C50.358 123.454 51.834 124.156 51.834 125.326C51.834 126.496 50.358 127.18 47.928 127.18ZM47.928 122.32C44.616 122.32 42.546 123.418 42.546 125.326C42.546 127.234 44.616 128.332 47.928 128.332C51.24 128.332 53.31 127.234 53.31 125.326C53.31 123.418 51.24 122.32 47.928 122.32ZM59.6986 117.424H67.9426V120.394H59.6986V117.424ZM64.5586 125.056V121.582H69.3826V113.338H67.9426V116.218H59.6986V113.338H58.2406V121.582H63.0646V125.056H56.5126V126.262H71.1466V125.056H64.5586ZM89.3256 112.204V120.862H90.8016V112.204H89.3256ZM80.3976 121.654V128.116H90.8016V121.654H89.3436V123.634H81.8556V121.654H80.3976ZM81.8556 124.786H89.3436V126.928H81.8556V124.786ZM82.1256 112.96C79.6956 112.96 77.9316 114.472 77.9316 116.668C77.9316 118.9 79.6956 120.394 82.1256 120.394C84.5736 120.394 86.3556 118.9 86.3556 116.668C86.3556 114.472 84.5736 112.96 82.1256 112.96ZM82.1256 114.184C83.7636 114.184 84.9156 115.21 84.9156 116.668C84.9156 118.144 83.7636 119.17 82.1256 119.17C80.5236 119.17 79.3716 118.144 79.3716 116.668C79.3716 115.21 80.5236 114.184 82.1256 114.184ZM102.644 119.8C100.772 120.106 99.2242 120.178 96.2362 120.178V117.73H101.708V113.158H94.7422V114.364H100.268V116.596H94.7962V121.384H95.9482C99.1702 121.384 100.808 121.33 102.788 120.988L102.644 119.8ZM96.5962 124.192H105.92V128.35H107.414V122.986H96.5962V124.192ZM105.92 112.204V114.58H102.77V115.786H105.92V117.946H102.77V119.134H105.92V122.122H107.414V112.204H105.92Z" fill="#FFB500"/>
<path d="M41.7 6.974C41.7 5.444 42.852 4.4 44.472 4.4C46.074 4.4 47.244 5.444 47.244 6.974C47.244 8.486 46.074 9.548 44.472 9.548C42.852 9.548 41.7 8.486 41.7 6.974ZM48.684 6.974C48.684 4.706 46.902 3.158 44.472 3.158C42.024 3.158 40.26 4.706 40.26 6.974C40.26 9.224 42.024 10.79 44.472 10.79C46.902 10.79 48.684 9.224 48.684 6.974ZM41.988 13.742H51.006V18.332H52.482V12.536H41.988V13.742ZM54.822 5.876V4.652H52.482V2.204H51.006V11.78H52.482V9.314H54.822V8.108H52.482V5.876H54.822ZM64.9906 9.08C65.4046 6.956 65.4046 5.354 65.4046 4.292V3.446H57.3766V4.652H63.9646C63.9646 5.678 63.9106 7.064 63.5326 8.918L64.9906 9.08ZM66.5206 10.052C64.8826 10.268 63.0466 10.412 61.2826 10.484V7.046H59.8246V10.538C58.6006 10.556 57.4306 10.574 56.4046 10.574L56.5486 11.78C59.4106 11.78 63.2806 11.69 66.6286 11.132L66.5206 10.052ZM60.3466 13.238H58.8706V17.972H69.5986V16.766H60.3466V13.238ZM69.0766 7.442V2.186H67.6006V14.354H69.0766V8.666H71.3806V7.442H69.0766ZM84.8616 17.18C82.3056 17.18 80.8116 16.55 80.8116 15.416C80.8116 14.282 82.3056 13.652 84.8616 13.652C87.3816 13.652 88.8756 14.282 88.8756 15.416C88.8756 16.55 87.3816 17.18 84.8616 17.18ZM84.8616 12.5C81.4056 12.5 79.3176 13.544 79.3176 15.416C79.3176 17.288 81.4056 18.332 84.8616 18.332C88.2816 18.332 90.3696 17.288 90.3696 15.416C90.3696 13.544 88.2816 12.5 84.8616 12.5ZM85.5996 10.16V8.288H90.4596V7.1H80.8656V4.112H90.3516V2.924H79.3896V8.288H84.1236V10.16H77.5536V11.348H92.1696V10.16H85.5996ZM99.3502 3.374C96.8482 3.374 95.0302 4.904 95.0302 7.172C95.0302 9.422 96.8482 10.97 99.3502 10.97C101.87 10.97 103.67 9.422 103.67 7.172C103.67 4.904 101.87 3.374 99.3502 3.374ZM99.3502 4.634C101.024 4.634 102.23 5.66 102.23 7.172C102.23 8.666 101.024 9.71 99.3502 9.71C97.6942 9.71 96.4702 8.666 96.4702 7.172C96.4702 5.66 97.6942 4.634 99.3502 4.634ZM105.794 2.186V18.368H107.27V2.186H105.794ZM94.4002 14.822C97.3162 14.822 101.222 14.786 104.858 14.12L104.732 13.022C101.204 13.562 97.1542 13.58 94.2202 13.58L94.4002 14.822Z" fill="black"/>
<path d="M11 14V110" stroke="#FFB500" stroke-width="2"/>
<path d="M11 130V226" stroke="#DCDCDC" stroke-width="2"/>
<path d="M11 16C13.7614 16 16 13.7614 16 11C16 8.23858 13.7614 6 11 6C8.23858 6 6 8.23858 6 11C6 13.7614 8.23858 16 11 16Z" fill="#FFB500"/>
<path d="M11 126C13.7614 126 16 123.761 16 121C16 118.239 13.7614 116 11 116C8.23858 116 6 118.239 6 121C6 123.761 8.23858 126 11 126Z" fill="#FFB500"/>
<path d="M11 233C13.7614 233 16 230.761 16 228C16 225.239 13.7614 223 11 223C8.23858 223 6 225.239 6 228C6 230.761 8.23858 233 11 233Z" fill="#E0E0E0"/>
<circle cx="11" cy="121" r="10" stroke="#FFB500" stroke-width="2"/>
</svg>
