<svg width="172" height="239" viewBox="0 0 172 239" fill="none" xmlns="http://www.w3.org/2000/svg">
<path d="M48.576 116.38V117.586H51.762V121.816H53.256V112.204H51.762V116.38H48.576ZM49.476 120.052C47.136 119.224 45.552 117.19 45.552 115.12V114.562H49.098V113.374H40.476V114.562H44.076V115.12C44.076 117.442 42.42 119.62 40.008 120.502L40.782 121.672C42.672 120.952 44.166 119.44 44.85 117.568C45.552 119.224 46.938 120.556 48.738 121.204L49.476 120.052ZM47.928 127.18C45.498 127.18 44.022 126.496 44.022 125.326C44.022 124.156 45.498 123.454 47.928 123.454C50.358 123.454 51.834 124.156 51.834 125.326C51.834 126.496 50.358 127.18 47.928 127.18ZM47.928 122.32C44.616 122.32 42.546 123.418 42.546 125.326C42.546 127.234 44.616 128.332 47.928 128.332C51.24 128.332 53.31 127.234 53.31 125.326C53.31 123.418 51.24 122.32 47.928 122.32ZM59.6986 117.424H67.9426V120.394H59.6986V117.424ZM64.5586 125.056V121.582H69.3826V113.338H67.9426V116.218H59.6986V113.338H58.2406V121.582H63.0646V125.056H56.5126V126.262H71.1466V125.056H64.5586ZM89.308 112.204V120.862H90.784V112.204H89.308ZM80.38 121.654V128.116H90.784V121.654H89.326V123.634H81.838V121.654H80.38ZM81.838 124.786H89.326V126.928H81.838V124.786ZM82.108 112.96C79.678 112.96 77.914 114.472 77.914 116.668C77.914 118.9 79.678 120.394 82.108 120.394C84.556 120.394 86.338 118.9 86.338 116.668C86.338 114.472 84.556 112.96 82.108 112.96ZM82.108 114.184C83.746 114.184 84.898 115.21 84.898 116.668C84.898 118.144 83.746 119.17 82.108 119.17C80.506 119.17 79.354 118.144 79.354 116.668C79.354 115.21 80.506 114.184 82.108 114.184ZM102.627 119.8C100.755 120.106 99.2066 120.178 96.2186 120.178V117.73H101.691V113.158H94.7246V114.364H100.251V116.596H94.7786V121.384H95.9306C99.1526 121.384 100.791 121.33 102.771 120.988L102.627 119.8ZM96.5786 124.192H105.903V128.35H107.397V122.986H96.5786V124.192ZM105.903 112.204V114.58H102.753V115.786H105.903V117.946H102.753V119.134H105.903V122.122H107.397V112.204H105.903Z" fill="black"/>
<path d="M44.256 230.382C42.69 230.382 41.592 228.69 41.592 226.062C41.592 223.452 42.69 221.76 44.256 221.76C45.804 221.76 46.902 223.452 46.902 226.062C46.902 228.69 45.804 230.382 44.256 230.382ZM44.256 220.428C41.88 220.428 40.188 222.624 40.188 226.062C40.188 229.5 41.88 231.696 44.256 231.696C46.632 231.696 48.306 229.5 48.306 226.062C48.306 222.624 46.632 220.428 44.256 220.428ZM55.038 225.63H52.374V219.204H50.898V235.332H52.374V226.872H55.038V225.63ZM68.2486 219.186V235.368H69.7246V219.186H68.2486ZM61.2106 220.428C58.8166 220.428 57.1066 222.624 57.1066 226.062C57.1066 229.5 58.8166 231.696 61.2106 231.696C63.6046 231.696 65.3146 229.5 65.3146 226.062C65.3146 222.624 63.6046 220.428 61.2106 220.428ZM61.2106 221.76C62.7766 221.76 63.8926 223.452 63.8926 226.062C63.8926 228.69 62.7766 230.382 61.2106 230.382C59.6266 230.382 58.5106 228.69 58.5106 226.062C58.5106 223.452 59.6266 221.76 61.2106 221.76ZM75.5732 221.958H81.7472V220.716H74.1152V231.354H75.4112C78.6692 231.354 80.7752 231.246 83.2592 230.796L83.0972 229.554C80.7212 230.004 78.6872 230.094 75.5732 230.094V221.958ZM84.8072 219.186V235.368H86.2832V219.186H84.8072ZM94.6963 235.099H93.2988L98.6426 221.203H100.031L94.6963 235.099ZM117.713 219.186V235.35H119.189V219.186H117.713ZM106.895 220.554V231.444H114.491V220.554H113.033V224.82H108.353V220.554H106.895ZM108.353 225.99H113.033V230.238H108.353V225.99ZM135.766 219.204H134.29V227.502H135.766V219.204ZM129.484 225.504H124.822V221.256H129.484V225.504ZM130.924 220.086H123.382V226.674H130.924V220.086ZM126.802 233.982V232.2H135.766V228.312H125.308V229.464H134.308V231.102H125.362V235.152H136.324V233.982H126.802ZM145.719 227.196H141.363V224.28H145.719V227.196ZM147.177 224.946H150.903V231.138H152.397V219.186H150.903V223.74H147.177V220.266H145.719V223.11H141.363V220.266H139.905V228.384H147.177V224.946ZM143.487 233.766V229.968H142.011V234.972H152.775V233.766H143.487ZM169.477 221.544H163.699V219.438H162.223V221.544H156.373V222.75H169.477V221.544ZM159.145 226.908C159.145 225.72 160.603 225 162.961 225C165.283 225 166.723 225.72 166.723 226.908C166.723 228.114 165.283 228.834 162.961 228.834C160.603 228.834 159.145 228.114 159.145 226.908ZM163.699 232.236V229.968C166.507 229.788 168.217 228.708 168.217 226.908C168.217 224.964 166.183 223.848 162.961 223.848C159.685 223.848 157.651 224.964 157.651 226.908C157.651 228.708 159.379 229.806 162.223 229.968V232.236H155.653V233.442H170.287V232.236H163.699Z" fill="#FFB500"/>
<path d="M41.7 6.974C41.7 5.444 42.852 4.4 44.472 4.4C46.074 4.4 47.244 5.444 47.244 6.974C47.244 8.486 46.074 9.548 44.472 9.548C42.852 9.548 41.7 8.486 41.7 6.974ZM48.684 6.974C48.684 4.706 46.902 3.158 44.472 3.158C42.024 3.158 40.26 4.706 40.26 6.974C40.26 9.224 42.024 10.79 44.472 10.79C46.902 10.79 48.684 9.224 48.684 6.974ZM41.988 13.742H51.006V18.332H52.482V12.536H41.988V13.742ZM54.822 5.876V4.652H52.482V2.204H51.006V11.78H52.482V9.314H54.822V8.108H52.482V5.876H54.822ZM64.9906 9.08C65.4046 6.956 65.4046 5.354 65.4046 4.292V3.446H57.3766V4.652H63.9646C63.9646 5.678 63.9106 7.064 63.5326 8.918L64.9906 9.08ZM66.5206 10.052C64.8826 10.268 63.0466 10.412 61.2826 10.484V7.046H59.8246V10.538C58.6006 10.556 57.4306 10.574 56.4046 10.574L56.5486 11.78C59.4106 11.78 63.2806 11.69 66.6286 11.132L66.5206 10.052ZM60.3466 13.238H58.8706V17.972H69.5986V16.766H60.3466V13.238ZM69.0766 7.442V2.186H67.6006V14.354H69.0766V8.666H71.3806V7.442H69.0766ZM84.844 17.18C82.288 17.18 80.794 16.55 80.794 15.416C80.794 14.282 82.288 13.652 84.844 13.652C87.364 13.652 88.858 14.282 88.858 15.416C88.858 16.55 87.364 17.18 84.844 17.18ZM84.844 12.5C81.388 12.5 79.3 13.544 79.3 15.416C79.3 17.288 81.388 18.332 84.844 18.332C88.264 18.332 90.352 17.288 90.352 15.416C90.352 13.544 88.264 12.5 84.844 12.5ZM85.582 10.16V8.288H90.442V7.1H80.848V4.112H90.334V2.924H79.372V8.288H84.106V10.16H77.536V11.348H92.152V10.16H85.582ZM99.3326 3.374C96.8306 3.374 95.0126 4.904 95.0126 7.172C95.0126 9.422 96.8306 10.97 99.3326 10.97C101.853 10.97 103.653 9.422 103.653 7.172C103.653 4.904 101.853 3.374 99.3326 3.374ZM99.3326 4.634C101.007 4.634 102.213 5.66 102.213 7.172C102.213 8.666 101.007 9.71 99.3326 9.71C97.6766 9.71 96.4526 8.666 96.4526 7.172C96.4526 5.66 97.6766 4.634 99.3326 4.634ZM105.777 2.186V18.368H107.253V2.186H105.777ZM94.3826 14.822C97.2986 14.822 101.205 14.786 104.841 14.12L104.715 13.022C101.187 13.562 97.1366 13.58 94.2026 13.58L94.3826 14.822Z" fill="black"/>
<path d="M11 14V118" stroke="#FFB500" stroke-width="2"/>
<path d="M11 124L11 218" stroke="#FFB500" stroke-width="2"/>
<path d="M11 16C13.7614 16 16 13.7614 16 11C16 8.23858 13.7614 6 11 6C8.23858 6 6 8.23858 6 11C6 13.7614 8.23858 16 11 16Z" fill="#FFB500"/>
<path d="M11 126C13.7614 126 16 123.761 16 121C16 118.239 13.7614 116 11 116C8.23858 116 6 118.239 6 121C6 123.761 8.23858 126 11 126Z" fill="#FFB500"/>
<path d="M11 233C13.7614 233 16 230.761 16 228C16 225.239 13.7614 223 11 223C8.23858 223 6 225.239 6 228C6 230.761 8.23858 233 11 233Z" fill="#FFB500"/>
<circle cx="11" cy="228" r="10" stroke="#FFB500" stroke-width="2"/>
</svg>
