<svg width="172" height="239" viewBox="0 0 172 239" fill="none" xmlns="http://www.w3.org/2000/svg">
<path d="M44.256 231.382C42.69 231.382 41.592 229.69 41.592 227.062C41.592 224.452 42.69 222.76 44.256 222.76C45.804 222.76 46.902 224.452 46.902 227.062C46.902 229.69 45.804 231.382 44.256 231.382ZM44.256 221.428C41.88 221.428 40.188 223.624 40.188 227.062C40.188 230.5 41.88 232.696 44.256 232.696C46.632 232.696 48.306 230.5 48.306 227.062C48.306 223.624 46.632 221.428 44.256 221.428ZM55.038 226.63H52.374V220.204H50.898V236.332H52.374V227.872H55.038V226.63ZM68.2486 220.186V236.368H69.7246V220.186H68.2486ZM61.2106 221.428C58.8166 221.428 57.1066 223.624 57.1066 227.062C57.1066 230.5 58.8166 232.696 61.2106 232.696C63.6046 232.696 65.3146 230.5 65.3146 227.062C65.3146 223.624 63.6046 221.428 61.2106 221.428ZM61.2106 222.76C62.7766 222.76 63.8926 224.452 63.8926 227.062C63.8926 229.69 62.7766 231.382 61.2106 231.382C59.6266 231.382 58.5106 229.69 58.5106 227.062C58.5106 224.452 59.6266 222.76 61.2106 222.76ZM75.5732 222.958H81.7472V221.716H74.1152V232.354H75.4112C78.6692 232.354 80.7752 232.246 83.2592 231.796L83.0972 230.554C80.7212 231.004 78.6872 231.094 75.5732 231.094V222.958ZM84.8072 220.186V236.368H86.2832V220.186H84.8072ZM94.6963 236.099H93.2988L98.6426 222.203H100.031L94.6963 236.099ZM117.713 220.186V236.35H119.189V220.186H117.713ZM106.895 221.554V232.444H114.491V221.554H113.033V225.82H108.353V221.554H106.895ZM108.353 226.99H113.033V231.238H108.353V226.99ZM135.766 220.204H134.29V228.502H135.766V220.204ZM129.484 226.504H124.822V222.256H129.484V226.504ZM130.924 221.086H123.382V227.674H130.924V221.086ZM126.802 234.982V233.2H135.766V229.312H125.308V230.464H134.308V232.102H125.362V236.152H136.324V234.982H126.802ZM145.719 228.196H141.363V225.28H145.719V228.196ZM147.177 225.946H150.903V232.138H152.397V220.186H150.903V224.74H147.177V221.266H145.719V224.11H141.363V221.266H139.905V229.384H147.177V225.946ZM143.487 234.766V230.968H142.011V235.972H152.775V234.766H143.487ZM169.477 222.544H163.699V220.438H162.223V222.544H156.373V223.75H169.477V222.544ZM159.145 227.908C159.145 226.72 160.603 226 162.961 226C165.283 226 166.723 226.72 166.723 227.908C166.723 229.114 165.283 229.834 162.961 229.834C160.603 229.834 159.145 229.114 159.145 227.908ZM163.699 233.236V230.968C166.507 230.788 168.217 229.708 168.217 227.908C168.217 225.964 166.183 224.848 162.961 224.848C159.685 224.848 157.651 225.964 157.651 227.908C157.651 229.708 159.379 230.806 162.223 230.968V233.236H155.653V234.442H170.287V233.236H163.699Z" fill="#E0E0E0"/>
<path d="M48.576 117.38V118.586H51.762V122.816H53.256V113.204H51.762V117.38H48.576ZM49.476 121.052C47.136 120.224 45.552 118.19 45.552 116.12V115.562H49.098V114.374H40.476V115.562H44.076V116.12C44.076 118.442 42.42 120.62 40.008 121.502L40.782 122.672C42.672 121.952 44.166 120.44 44.85 118.568C45.552 120.224 46.938 121.556 48.738 122.204L49.476 121.052ZM47.928 128.18C45.498 128.18 44.022 127.496 44.022 126.326C44.022 125.156 45.498 124.454 47.928 124.454C50.358 124.454 51.834 125.156 51.834 126.326C51.834 127.496 50.358 128.18 47.928 128.18ZM47.928 123.32C44.616 123.32 42.546 124.418 42.546 126.326C42.546 128.234 44.616 129.332 47.928 129.332C51.24 129.332 53.31 128.234 53.31 126.326C53.31 124.418 51.24 123.32 47.928 123.32ZM59.6986 118.424H67.9426V121.394H59.6986V118.424ZM64.5586 126.056V122.582H69.3826V114.338H67.9426V117.218H59.6986V114.338H58.2406V122.582H63.0646V126.056H56.5126V127.262H71.1466V126.056H64.5586ZM89.308 113.204V121.862H90.784V113.204H89.308ZM80.38 122.654V129.116H90.784V122.654H89.326V124.634H81.838V122.654H80.38ZM81.838 125.786H89.326V127.928H81.838V125.786ZM82.108 113.96C79.678 113.96 77.914 115.472 77.914 117.668C77.914 119.9 79.678 121.394 82.108 121.394C84.556 121.394 86.338 119.9 86.338 117.668C86.338 115.472 84.556 113.96 82.108 113.96ZM82.108 115.184C83.746 115.184 84.898 116.21 84.898 117.668C84.898 119.144 83.746 120.17 82.108 120.17C80.506 120.17 79.354 119.144 79.354 117.668C79.354 116.21 80.506 115.184 82.108 115.184ZM102.627 120.8C100.755 121.106 99.2066 121.178 96.2186 121.178V118.73H101.691V114.158H94.7246V115.364H100.251V117.596H94.7786V122.384H95.9306C99.1526 122.384 100.791 122.33 102.771 121.988L102.627 120.8ZM96.5786 125.192H105.903V129.35H107.397V123.986H96.5786V125.192ZM105.903 113.204V115.58H102.753V116.786H105.903V118.946H102.753V120.134H105.903V123.122H107.397V113.204H105.903Z" fill="#E0E0E0"/>
<path d="M41.7 6.974C41.7 5.444 42.852 4.4 44.472 4.4C46.074 4.4 47.244 5.444 47.244 6.974C47.244 8.486 46.074 9.548 44.472 9.548C42.852 9.548 41.7 8.486 41.7 6.974ZM48.684 6.974C48.684 4.706 46.902 3.158 44.472 3.158C42.024 3.158 40.26 4.706 40.26 6.974C40.26 9.224 42.024 10.79 44.472 10.79C46.902 10.79 48.684 9.224 48.684 6.974ZM41.988 13.742H51.006V18.332H52.482V12.536H41.988V13.742ZM54.822 5.876V4.652H52.482V2.204H51.006V11.78H52.482V9.314H54.822V8.108H52.482V5.876H54.822ZM64.9906 9.08C65.4046 6.956 65.4046 5.354 65.4046 4.292V3.446H57.3766V4.652H63.9646C63.9646 5.678 63.9106 7.064 63.5326 8.918L64.9906 9.08ZM66.5206 10.052C64.8826 10.268 63.0466 10.412 61.2826 10.484V7.046H59.8246V10.538C58.6006 10.556 57.4306 10.574 56.4046 10.574L56.5486 11.78C59.4106 11.78 63.2806 11.69 66.6286 11.132L66.5206 10.052ZM60.3466 13.238H58.8706V17.972H69.5986V16.766H60.3466V13.238ZM69.0766 7.442V2.186H67.6006V14.354H69.0766V8.666H71.3806V7.442H69.0766ZM84.844 17.18C82.288 17.18 80.794 16.55 80.794 15.416C80.794 14.282 82.288 13.652 84.844 13.652C87.364 13.652 88.858 14.282 88.858 15.416C88.858 16.55 87.364 17.18 84.844 17.18ZM84.844 12.5C81.388 12.5 79.3 13.544 79.3 15.416C79.3 17.288 81.388 18.332 84.844 18.332C88.264 18.332 90.352 17.288 90.352 15.416C90.352 13.544 88.264 12.5 84.844 12.5ZM85.582 10.16V8.288H90.442V7.1H80.848V4.112H90.334V2.924H79.372V8.288H84.106V10.16H77.536V11.348H92.152V10.16H85.582ZM99.3326 3.374C96.8306 3.374 95.0126 4.904 95.0126 7.172C95.0126 9.422 96.8306 10.97 99.3326 10.97C101.853 10.97 103.653 9.422 103.653 7.172C103.653 4.904 101.853 3.374 99.3326 3.374ZM99.3326 4.634C101.007 4.634 102.213 5.66 102.213 7.172C102.213 8.666 101.007 9.71 99.3326 9.71C97.6766 9.71 96.4526 8.666 96.4526 7.172C96.4526 5.66 97.6766 4.634 99.3326 4.634ZM105.777 2.186V18.368H107.253V2.186H105.777ZM94.3826 14.822C97.2986 14.822 101.205 14.786 104.841 14.12L104.715 13.022C101.187 13.562 97.1366 13.58 94.2026 13.58L94.3826 14.822Z" fill="#FFB500"/>
<path d="M11 122L11 227" stroke="#E0E0E0" stroke-width="2"/>
<path d="M11 22L11 127" stroke="#E0E0E0" stroke-width="2"/>
<path d="M11 17C13.7614 17 16 14.7614 16 12C16 9.23858 13.7614 7 11 7C8.23858 7 6 9.23858 6 12C6 14.7614 8.23858 17 11 17Z" fill="#FFB500"/>
<path d="M11 127C13.7614 127 16 124.761 16 122C16 119.239 13.7614 117 11 117C8.23858 117 6 119.239 6 122C6 124.761 8.23858 127 11 127Z" fill="#E0E0E0"/>
<path d="M11 234C13.7614 234 16 231.761 16 229C16 226.239 13.7614 224 11 224C8.23858 224 6 226.239 6 229C6 231.761 8.23858 234 11 234Z" fill="#E0E0E0"/>
<circle cx="11" cy="12" r="10" stroke="#FFB500" stroke-width="2"/>
</svg>
