<svg width="25" height="25" viewBox="0 0 25 25" fill="none" xmlns="http://www.w3.org/2000/svg">
    <path d="M25 12.5005C24.9999 14.9728 24.2667 17.3895 22.8931 19.4451C21.5195 21.5006 19.5672 23.1027 17.2831 24.0487C14.9989 24.9947 12.4856 25.2421 10.0609 24.7597C7.63612 24.2773 5.40889 23.0867 3.6608 21.3385C1.91272 19.5902 0.722302 17.3629 0.240088 14.9381C-0.242126 12.5133 0.00551999 10 0.95171 7.71598C1.8979 5.43194 3.50014 3.47977 5.55581 2.10634C7.61148 0.732908 10.0283 -0.000102844 12.5005 1.08228e-08C14.1421 5.13957e-09 15.7675 0.323343 17.2841 0.951566C18.8007 1.57979 20.1787 2.50059 21.3394 3.66138C22.5001 4.82217 23.4207 6.20023 24.0488 7.71686C24.6769 9.23348 25.0001 10.859 25 12.5005ZM12.8354 4.13286C10.0885 4.13286 8.33646 5.28998 6.95884 7.34627C6.87287 7.47458 6.83916 7.63088 6.86458 7.78321C6.89 7.93555 6.97264 8.07243 7.09561 8.16587L8.84455 9.49201C8.97072 9.58762 9.12934 9.62995 9.28637 9.60992C9.44339 9.58989 9.58631 9.5091 9.68444 9.38488C10.5846 8.24076 11.2025 7.58081 12.5728 7.58081C13.6025 7.58081 14.8761 8.24336 14.8761 9.24186C14.8761 9.99646 14.2521 10.386 13.2364 10.9544C12.0507 11.619 10.4801 12.4464 10.4801 14.5157V14.7175C10.4801 14.8779 10.5438 15.0318 10.6573 15.1452C10.7707 15.2586 10.9245 15.3223 11.0849 15.3223H13.9078C13.9872 15.3223 14.0659 15.3067 14.1392 15.2763C14.2126 15.2459 14.2793 15.2013 14.3355 15.1452C14.3916 15.089 14.4362 15.0223 14.4666 14.949C14.497 14.8756 14.5126 14.7969 14.5126 14.7175V14.6504C14.5126 13.2156 18.7053 13.1563 18.7053 9.27411C18.7089 6.35037 15.6765 4.13286 12.8354 4.13286ZM12.5005 16.6329C12.0419 16.6328 11.5935 16.7687 11.2121 17.0235C10.8308 17.2782 10.5335 17.6404 10.358 18.0642C10.1825 18.4879 10.1367 18.9542 10.2262 19.404C10.3158 19.8538 10.5368 20.267 10.8612 20.5912C11.1856 20.9154 11.5989 21.1361 12.0488 21.2253C12.4987 21.3146 12.9649 21.2684 13.3885 21.0926C13.8122 20.9169 14.1741 20.6194 14.4287 20.2378C14.6832 19.8563 14.8188 19.4078 14.8184 18.9492C14.8172 18.335 14.5725 17.7463 14.138 17.3121C13.7036 16.8779 13.1147 16.6337 12.5005 16.6329Z" fill="#FF9D00"/>
</svg>
