<svg width="850" height="530" viewBox="0 0 850 530" fill="none" xmlns="http://www.w3.org/2000/svg">
<rect width="850" height="530" rx="30" fill="white"/>
<mask id="mask0_3138_653" style="mask-type:alpha" maskUnits="userSpaceOnUse" x="0" y="0" width="850" height="530">
<rect width="850" height="530" rx="30" transform="matrix(-1 0 0 1 850 0)" fill="white"/>
</mask>
<g mask="url(#mask0_3138_653)">
<rect width="946.748" height="592.463" transform="matrix(-0.817739 -0.575589 -0.577399 0.816462 703.656 675.938)" fill="#FFB500"/>
</g>
<circle cx="385" cy="171" r="1" fill="black"/>
<g clip-path="url(#clip0_3138_653)">
<path d="M202.157 313.86L275.519 251.124L275.86 252.045L202.756 314.56L202.157 313.86Z" fill="#2F2E41"/>
<path d="M281.759 265.322C287.697 265.322 292.511 260.51 292.511 254.573C292.511 248.637 287.697 243.824 281.759 243.824C275.821 243.824 271.008 248.637 271.008 254.573C271.008 260.51 275.821 265.322 281.759 265.322Z" fill="#0048FF"/>
<path d="M372.378 278.375H274.209C273.789 278.376 273.372 278.293 272.983 278.133C272.594 277.972 272.241 277.736 271.943 277.439C271.645 277.142 271.409 276.789 271.248 276.4C271.087 276.012 271.004 275.595 271.004 275.174C271.004 274.754 271.087 274.337 271.248 273.949C271.409 273.56 271.645 273.207 271.943 272.91C272.241 272.613 272.594 272.377 272.983 272.216C273.372 272.056 273.789 271.973 274.209 271.974H372.378C372.798 271.973 373.215 272.056 373.604 272.216C373.993 272.377 374.346 272.613 374.644 272.91C374.942 273.207 375.178 273.56 375.339 273.949C375.5 274.337 375.583 274.754 375.583 275.174C375.583 275.595 375.5 276.012 375.339 276.4C375.178 276.789 374.942 277.142 374.644 277.439C374.346 277.736 373.993 277.972 373.604 278.133C373.215 278.293 372.798 278.376 372.378 278.375Z" fill="#0048FF"/>
<path d="M372.378 291.024H274.21C273.36 291.024 272.546 290.687 271.946 290.087C271.345 289.486 271.008 288.672 271.008 287.823C271.008 286.974 271.345 286.16 271.946 285.56C272.546 284.959 273.36 284.622 274.21 284.622H372.378C373.227 284.622 374.041 284.959 374.642 285.56C375.242 286.16 375.579 286.974 375.579 287.823C375.579 288.672 375.242 289.486 374.642 290.087C374.041 290.687 373.227 291.024 372.378 291.024V291.024Z" fill="#0048FF"/>
<path d="M316.763 303.672H274.21C273.36 303.672 272.546 303.334 271.946 302.734C271.345 302.134 271.008 301.32 271.008 300.471C271.008 299.622 271.345 298.807 271.946 298.207C272.546 297.607 273.36 297.27 274.21 297.27H316.763C317.612 297.27 318.427 297.607 319.027 298.207C319.628 298.807 319.965 299.622 319.965 300.471C319.965 301.32 319.628 302.134 319.027 302.734C318.427 303.334 317.612 303.672 316.763 303.672V303.672Z" fill="#0048FF"/>
<path d="M299.88 343.464C303.95 343.464 307.249 340.165 307.249 336.096C307.249 332.027 303.95 328.729 299.88 328.729C295.81 328.729 292.511 332.027 292.511 336.096C292.511 340.165 295.81 343.464 299.88 343.464Z" fill="#E6E7E8"/>
<path d="M361.992 352.41H294.705C294.417 352.411 294.131 352.354 293.865 352.244C293.598 352.134 293.356 351.973 293.152 351.769C292.948 351.565 292.786 351.323 292.675 351.057C292.565 350.79 292.508 350.505 292.508 350.216C292.508 349.928 292.565 349.643 292.675 349.376C292.786 349.11 292.948 348.868 293.152 348.664C293.356 348.46 293.598 348.299 293.865 348.189C294.131 348.078 294.417 348.022 294.705 348.022H361.992C362.281 348.022 362.567 348.078 362.833 348.189C363.1 348.299 363.342 348.46 363.546 348.664C363.75 348.868 363.912 349.11 364.023 349.376C364.133 349.643 364.19 349.928 364.19 350.216C364.19 350.505 364.133 350.79 364.023 351.057C363.912 351.323 363.75 351.565 363.546 351.769C363.342 351.973 363.1 352.134 362.833 352.244C362.567 352.354 362.281 352.411 361.992 352.41V352.41Z" fill="#E6E7E8"/>
<path d="M311.417 361.081H294.705C294.124 361.08 293.566 360.848 293.155 360.437C292.744 360.025 292.514 359.468 292.514 358.886C292.514 358.305 292.744 357.747 293.155 357.336C293.566 356.925 294.124 356.693 294.705 356.692H311.417C311.999 356.693 312.556 356.925 312.967 357.336C313.378 357.747 313.609 358.305 313.609 358.886C313.609 359.468 313.378 360.025 312.967 360.437C312.556 360.848 311.999 361.08 311.417 361.081V361.081Z" fill="#E6E7E8"/>
<path d="M276.36 417.143C280.43 417.143 283.729 413.844 283.729 409.775C283.729 405.706 280.43 402.407 276.36 402.407C272.29 402.407 268.99 405.706 268.99 409.775C268.99 413.844 272.29 417.143 276.36 417.143Z" fill="#E6E7E8"/>
<path d="M338.472 426.09H271.185C270.896 426.09 270.611 426.034 270.344 425.924C270.078 425.814 269.835 425.652 269.631 425.449C269.427 425.245 269.265 425.003 269.155 424.736C269.044 424.47 268.987 424.184 268.987 423.896C268.987 423.608 269.044 423.322 269.155 423.056C269.265 422.789 269.427 422.547 269.631 422.344C269.835 422.14 270.078 421.978 270.344 421.868C270.611 421.758 270.896 421.702 271.185 421.702H338.472C338.76 421.702 339.046 421.758 339.313 421.868C339.579 421.978 339.821 422.14 340.026 422.344C340.23 422.547 340.392 422.789 340.502 423.056C340.613 423.322 340.669 423.608 340.669 423.896C340.669 424.184 340.613 424.47 340.502 424.736C340.392 425.003 340.23 425.245 340.026 425.449C339.821 425.652 339.579 425.814 339.313 425.924C339.046 426.034 338.76 426.09 338.472 426.09V426.09Z" fill="#E6E7E8"/>
<path d="M311.618 434.759H271.185C270.603 434.759 270.045 434.528 269.633 434.117C269.221 433.705 268.99 433.147 268.99 432.565C268.99 431.983 269.221 431.425 269.633 431.014C270.045 430.602 270.603 430.371 271.185 430.371H311.618C312.2 430.371 312.758 430.602 313.17 431.014C313.581 431.425 313.812 431.983 313.812 432.565C313.812 433.147 313.581 433.705 313.17 434.117C312.758 434.528 312.2 434.759 311.618 434.759Z" fill="#E6E7E8"/>
<path d="M300.352 443.428H271.185C270.603 443.428 270.045 443.197 269.633 442.786C269.221 442.374 268.99 441.816 268.99 441.234C268.99 440.652 269.221 440.094 269.633 439.683C270.045 439.271 270.603 439.04 271.185 439.04H300.352C300.934 439.04 301.492 439.271 301.904 439.683C302.315 440.094 302.547 440.652 302.547 441.234C302.547 441.816 302.315 442.374 301.904 442.786C301.492 443.197 300.934 443.428 300.352 443.428V443.428Z" fill="#E6E7E8"/>
<path d="M77.0563 467.964C65.5474 462.512 56.9751 451.542 58.3124 439.486C68.6373 447.845 82.6944 452.513 97.206 452.401C102.858 452.358 109.188 451.783 113.295 454.954C115.851 456.926 117.004 460.059 117.15 463.182C117.295 466.304 116.538 469.464 115.785 472.583L116.014 473.322C102.501 474.182 88.5651 473.416 77.0563 467.964Z" fill="#F2F2F2"/>
<path d="M58.596 439.456C63.0472 448.14 70.7644 455.377 80.3553 459.613C82.4567 460.594 84.6942 461.251 86.992 461.563C89.3321 461.807 91.6969 461.498 93.8955 460.661C95.9799 459.913 98.0346 458.939 100.245 458.643C101.328 458.492 102.429 458.56 103.484 458.845C104.54 459.129 105.526 459.624 106.386 460.298C108.429 461.886 109.647 464.084 110.751 466.276C111.977 468.711 113.206 471.26 115.606 472.919C115.897 473.12 115.492 473.538 115.202 473.337C111.025 470.451 110.422 465.231 107.104 461.736C105.555 460.105 103.406 458.922 100.826 459.112C98.5699 459.278 96.4503 460.281 94.3457 461.054C92.2057 461.899 89.9096 462.276 87.6118 462.159C85.2952 461.955 83.0268 461.378 80.8941 460.451C76.2569 458.521 71.9642 455.851 68.1839 452.544C64.0074 448.933 60.5596 444.557 58.026 439.652C57.8723 439.352 58.4433 439.158 58.596 439.456L58.596 439.456Z" fill="white"/>
<path d="M77.1429 458.389C75.9314 459.818 74.3045 460.834 72.4885 461.295C70.6726 461.757 68.7579 461.641 67.0109 460.964C66.676 460.823 66.9495 460.332 67.2849 460.473C68.9103 461.107 70.6933 461.214 72.3832 460.782C74.0731 460.349 75.5848 459.398 76.7058 458.061C76.9412 457.775 77.3769 458.104 77.1429 458.389Z" fill="white"/>
<path d="M92.8829 461.16C92.6599 459.464 92.0803 457.834 91.182 456.378C90.2837 454.922 89.0872 453.673 87.6712 452.712C87.3812 452.51 87.7862 452.092 88.0758 452.294C89.5471 453.296 90.7893 454.599 91.7205 456.116C92.6516 457.633 93.2507 459.33 93.478 461.096C93.5192 461.432 92.9238 461.494 92.8829 461.16L92.8829 461.16Z" fill="white"/>
<path d="M64.6902 448.564C65.2437 448.138 65.6793 447.579 65.9558 446.938C66.2322 446.297 66.3404 445.597 66.2699 444.902C66.2239 444.567 66.8194 444.505 66.8651 444.838C66.9394 445.605 66.8192 446.379 66.5154 447.087C66.2117 447.796 65.7343 448.416 65.1273 448.891C65.0726 448.945 65.0012 448.979 64.9248 448.987C64.8484 448.995 64.7714 448.978 64.7065 448.937C64.6783 448.915 64.6552 448.887 64.6388 448.856C64.6224 448.824 64.6131 448.789 64.6116 448.754C64.61 448.718 64.6163 448.683 64.6298 448.65C64.6434 448.617 64.6641 448.588 64.6902 448.564V448.564Z" fill="white"/>
<path d="M96.2841 413.997C96.3196 414.205 96.3551 414.414 96.395 414.624C96.8875 417.416 97.6399 420.156 98.6424 422.808C98.7161 423.014 98.7944 423.222 98.8748 423.426C101.41 429.847 105.265 435.665 110.191 440.503C112.198 442.479 114.362 444.289 116.663 445.914C119.87 448.183 123.571 450.4 125.601 453.457C125.816 453.772 126.009 454.102 126.178 454.444L117.034 472.94C116.99 472.975 116.951 473.011 116.907 473.046L116.579 473.796C116.452 473.719 116.322 473.637 116.195 473.56C116.121 473.516 116.049 473.468 115.975 473.424C115.926 473.393 115.878 473.362 115.832 473.337C115.816 473.327 115.799 473.316 115.788 473.307C115.742 473.282 115.702 473.254 115.661 473.231C114.934 472.773 114.21 472.31 113.488 471.841C113.484 471.84 113.484 471.84 113.481 471.834C107.997 468.248 102.838 464.197 98.6004 459.522C98.473 459.382 98.3408 459.24 98.2176 459.091C96.3338 456.99 94.6467 454.721 93.1774 452.312C92.3858 451.002 91.6706 449.647 91.0355 448.255C89.4055 444.657 88.4397 440.795 88.1848 436.854C87.6683 428.959 90.0107 420.796 95.8342 414.476C95.9833 414.315 96.1304 414.157 96.2841 413.997Z" fill="#F2F2F2"/>
<path d="M96.5176 414.123C93.9707 423.887 94.8482 434.186 99.1605 442.948C100.057 444.894 101.293 446.665 102.809 448.179C104.434 449.668 106.431 450.689 108.589 451.135C110.656 451.624 112.853 451.906 114.709 452.846C115.62 453.302 116.409 453.967 117.014 454.786C117.618 455.605 118.02 456.556 118.186 457.56C118.64 460.008 118.064 462.529 117.406 464.984C116.676 467.71 115.87 470.534 116.544 473.235C116.625 473.562 116.039 473.698 115.958 473.371C114.785 468.672 117.867 463.92 117.75 459.167C117.695 456.948 116.886 454.787 114.826 453.557C113.024 452.482 110.759 452.19 108.66 451.712C106.539 451.3 104.551 450.375 102.87 449.019C101.269 447.59 99.954 445.87 98.9967 443.949C96.8026 439.718 95.3924 435.125 94.8343 430.392C94.1647 424.9 94.5461 419.331 95.9582 413.982C96.0462 413.644 96.605 413.788 96.5176 414.123V414.123Z" fill="white"/>
<path d="M97.5836 440.179C93.8221 441.357 89.8317 439.948 88.2545 436.902C88.0991 436.602 88.6361 436.333 88.7917 436.633C90.2693 439.487 93.962 440.767 97.4782 439.665C97.8482 439.55 97.9515 440.064 97.5836 440.179L97.5836 440.179Z" fill="white"/>
<path d="M107.493 451.013C108.456 449.561 109.114 447.928 109.426 446.213C109.738 444.498 109.699 442.738 109.311 441.039C109.23 440.712 109.816 440.575 109.897 440.902C110.297 442.672 110.334 444.504 110.005 446.288C109.676 448.072 108.987 449.77 107.982 451.28C107.785 451.587 107.297 451.319 107.493 451.013Z" fill="white"/>
<path d="M94.9134 425.133C95.652 425.05 96.3631 424.805 96.996 424.415C97.6289 424.025 98.1681 423.501 98.5751 422.879C98.7679 422.57 99.2556 422.838 99.0642 423.146C98.6115 423.831 98.0153 424.41 97.3168 424.841C96.6183 425.273 95.8341 425.548 95.0188 425.647C94.8569 425.666 94.7059 425.609 94.673 425.459C94.664 425.384 94.6839 425.309 94.7286 425.248C94.7733 425.188 94.8394 425.147 94.9134 425.133V425.133Z" fill="white"/>
<path d="M123.707 290.185L139.269 306.706L175.492 319.981L179.844 311.897L151.97 297.078C151.97 297.078 139.403 283.951 131.948 281.247L123.707 290.185Z" fill="#FBDBBE"/>
<path d="M179.251 322.049C182.217 322.049 184.621 319.645 184.621 316.679C184.621 313.714 182.217 311.31 179.251 311.31C176.284 311.31 173.88 313.714 173.88 316.679C173.88 319.645 176.284 322.049 179.251 322.049Z" fill="#FBDBBE"/>
<path d="M135.783 282.165L124.66 291.984L124.608 291.998C119.436 293.318 111.967 287.219 106.612 281.871C104.847 280.106 103.819 277.737 103.735 275.243C103.651 272.749 104.517 270.316 106.158 268.436C107.378 267.058 108.96 266.048 110.724 265.521C112.488 264.994 114.364 264.97 116.141 265.453L125.182 267.947L135.783 282.165Z" fill="#3F3D56"/>
<path d="M148.223 477.2L155.889 477.2L159.536 447.638L148.222 447.638L148.223 477.2Z" fill="#FBDBBE"/>
<path d="M146.268 474.698L148.425 474.698L156.849 471.272L161.364 474.697H161.365C163.917 474.697 166.364 475.711 168.168 477.514C169.972 479.318 170.986 481.765 170.986 484.316V484.628L146.268 484.629L146.268 474.698Z" fill="#2F2E41"/>
<path d="M114.208 477.2L121.874 477.2L125.521 447.638L114.207 447.638L114.208 477.2Z" fill="#FBDBBE"/>
<path d="M112.252 474.698L114.41 474.698L122.834 471.272L127.349 474.697H127.349C129.901 474.697 132.348 475.711 134.152 477.514C135.957 479.318 136.97 481.765 136.97 484.316V484.628L112.252 484.629L112.252 474.698Z" fill="#2F2E41"/>
<path d="M102.519 349.867C102.519 349.867 101.623 360.606 103.861 370.898C106.099 381.189 106.099 410.174 106.099 410.174L111.022 466.655L125.792 465.313L129.82 370.898L144.142 402.668L142.8 407.142L144.588 408.261C144.588 408.261 143.247 416.987 144.142 416.987C145.037 416.987 147.275 418.329 147.275 418.329L145.485 464.418L160.702 463.97L166.073 399.088L160.255 361.948L159.807 354.789L157.793 354.872L156.767 351.88L154.884 346.734L102.519 349.867Z" fill="#2F2E41"/>
<path d="M101.745 352.122L101.666 352.01C97.4055 346.047 103.813 331.718 104.779 329.641L100.709 328.32L101.625 320.531L102.06 317.058L98.9488 313.948L98.9401 313.871L97.1498 298.209L94.5468 287.807C93.566 283.875 93.6496 279.752 94.789 275.863C95.9284 271.974 98.0825 268.458 101.03 265.675L107.047 260.004L114.359 249.187H126.151L130.194 256.822C134.114 257.728 137.592 259.98 140.022 263.185C142.452 266.391 143.68 270.348 143.492 274.366L142.576 294.391L146.163 319.324L146.165 323.836L150.203 328.322L149.321 332.729L152.393 334.045L153.75 340.374C154.311 341.115 158.017 346.055 158.017 347.405C158.017 347.608 157.868 347.804 157.546 348.021C155.021 349.731 141.062 353.217 134.885 350.745C128.304 348.115 102.145 352.061 101.881 352.101L101.745 352.122Z" fill="#3F3D56"/>
<path d="M198.448 484.468C198.448 484.538 198.435 484.607 198.408 484.671C198.382 484.736 198.343 484.794 198.294 484.844C198.244 484.893 198.186 484.933 198.122 484.959C198.057 484.986 197.988 485 197.919 485H72.4672C72.3259 485 72.1904 484.944 72.0906 484.845C71.9907 484.745 71.9346 484.609 71.9346 484.468C71.9346 484.327 71.9907 484.191 72.0906 484.091C72.1904 483.992 72.3259 483.936 72.4672 483.936H197.915C198.056 483.935 198.191 483.991 198.291 484.09C198.391 484.189 198.448 484.324 198.448 484.465V484.468Z" fill="#CCCCCC"/>
<path d="M121.778 245.695C130.403 245.695 137.395 238.704 137.395 230.081C137.395 221.458 130.403 214.468 121.778 214.468C113.153 214.468 106.161 221.458 106.161 230.081C106.161 238.704 113.153 245.695 121.778 245.695Z" fill="#FBDBBE"/>
<path d="M123.274 245.947C120.856 245.923 118.444 245.691 116.064 245.256C113.709 244.714 108.512 240.696 107.096 238.323C106.044 236.559 105.412 233.832 105.067 231.854C104.602 229.237 104.692 226.551 105.331 223.971C105.97 221.391 107.143 218.973 108.776 216.875C109.405 215.996 110.261 215.304 111.251 214.871C111.339 214.839 111.429 214.812 111.52 214.788C112.956 214.45 114.258 213.69 115.259 212.606C115.454 212.387 115.663 212.182 115.887 211.993C117.01 211.094 118.33 210.473 119.739 210.182C122.015 209.636 125.27 210.32 129.415 212.219C131.497 213.173 133.808 212.907 135.589 212.568C135.689 212.552 135.792 212.562 135.887 212.597C135.981 212.632 136.065 212.692 136.13 212.769C136.866 213.496 137.849 213.918 138.882 213.949C139.515 213.994 140.157 214.887 140.93 216.051C141.105 216.315 141.31 216.623 141.459 216.811L141.489 216.458L141.836 216.862C142.383 217.497 142.761 218.26 142.933 219.08C143.106 219.9 143.068 220.75 142.824 221.552C142.579 222.353 142.135 223.08 141.534 223.664C140.933 224.248 140.194 224.67 139.386 224.892C138.745 225.045 138.089 225.132 137.43 225.152C137.031 225.177 136.618 225.204 136.221 225.262C134.946 225.489 133.752 226.042 132.755 226.868C131.758 227.694 130.992 228.765 130.533 229.975C130.424 230.255 130.253 230.506 130.032 230.709C129.811 230.912 129.546 231.061 129.258 231.146C128.97 231.23 128.667 231.247 128.371 231.196C128.076 231.144 127.796 231.026 127.553 230.849C127.15 230.518 126.673 230.289 126.162 230.183C125.651 230.076 125.122 230.094 124.62 230.236C124.183 230.465 123.838 230.836 123.643 231.288C123.407 231.792 123.026 232.213 122.549 232.499C120.923 233.285 120.718 236.946 121.216 240.015C121.695 242.974 122.738 245.132 123.752 245.264C124.533 245.365 124.621 245.423 124.674 245.563L124.721 245.688L124.631 245.802C124.542 245.903 124.025 245.947 123.274 245.947Z" fill="#2F2E41"/>
<path d="M199.885 364.321C215.158 364.321 227.54 351.943 227.54 336.673C227.54 321.403 215.158 309.024 199.885 309.024C184.612 309.024 172.23 321.403 172.23 336.673C172.23 351.943 184.612 364.321 199.885 364.321Z" fill="#0048FF"/>
<path d="M197.471 347.51C197.411 347.51 197.351 347.508 197.29 347.505C196.76 347.479 196.241 347.339 195.77 347.095C195.299 346.85 194.886 346.506 194.561 346.087L190.202 340.485C189.603 339.713 189.334 338.735 189.455 337.765C189.576 336.795 190.077 335.913 190.848 335.313L191.004 335.191C191.776 334.592 192.755 334.323 193.725 334.444C194.695 334.565 195.577 335.066 196.179 335.836C196.374 336.088 196.622 336.295 196.905 336.442C197.188 336.589 197.499 336.673 197.818 336.688C198.137 336.707 198.456 336.655 198.752 336.536C199.048 336.417 199.315 336.234 199.532 336L208.382 326.661C209.055 325.952 209.981 325.54 210.958 325.513C211.935 325.487 212.883 325.849 213.593 326.52L213.737 326.656C214.446 327.328 214.859 328.255 214.886 329.232C214.912 330.209 214.55 331.156 213.879 331.866L200.146 346.359C199.802 346.722 199.387 347.012 198.927 347.21C198.467 347.408 197.972 347.51 197.471 347.51V347.51Z" fill="white"/>
<path d="M126.871 290.759L137.72 310.694L169.375 332.741L175.641 326.029L152.452 304.611C152.452 304.611 143.637 288.72 137.114 284.21L126.871 290.759Z" fill="#FBDBBE"/>
<path d="M173.85 335.874C176.816 335.874 179.221 333.47 179.221 330.504C179.221 327.539 176.816 325.135 173.85 325.135C170.884 325.135 168.479 327.539 168.479 330.504C168.479 333.47 170.884 335.874 173.85 335.874Z" fill="#FBDBBE"/>
<path d="M127.847 293.416L121.025 277.047L123.493 268C123.984 266.226 124.961 264.625 126.315 263.377C127.668 262.129 129.344 261.284 131.152 260.938C133.607 260.486 136.142 260.983 138.244 262.328C140.347 263.672 141.86 265.765 142.478 268.183C144.347 275.517 145.782 285.051 142.008 288.824L141.969 288.862L127.847 293.416Z" fill="#3F3D56"/>
<path d="M280.004 260.651C279.979 260.651 279.954 260.651 279.929 260.65C279.711 260.639 279.498 260.581 279.304 260.481C279.11 260.38 278.94 260.238 278.806 260.066L277.013 257.761C276.767 257.444 276.656 257.041 276.706 256.643C276.756 256.244 276.962 255.881 277.279 255.634L277.343 255.584C277.661 255.337 278.064 255.227 278.463 255.276C278.862 255.326 279.225 255.532 279.472 255.849C279.553 255.953 279.654 256.038 279.771 256.098C279.887 256.159 280.015 256.193 280.146 256.199C280.277 256.207 280.409 256.186 280.531 256.137C280.653 256.088 280.762 256.013 280.852 255.917L284.492 252.074C284.769 251.783 285.15 251.613 285.552 251.602C285.954 251.591 286.344 251.74 286.636 252.016L286.696 252.072C286.987 252.349 287.157 252.73 287.168 253.132C287.179 253.534 287.03 253.924 286.754 254.216L281.104 260.178C280.963 260.328 280.792 260.447 280.603 260.528C280.414 260.61 280.21 260.651 280.004 260.651Z" fill="white"/>
<path d="M365.461 429.084C368.661 431.256 372.218 433.699 373.249 437.663C373.486 438.509 373.549 439.395 373.435 440.267C373.321 441.138 373.032 441.978 372.584 442.735C371.763 444.103 370.54 445.178 369.347 446.214C367.929 447.445 366.5 448.655 365.4 450.191C364.897 450.895 366.061 451.566 366.56 450.869C368.599 448.02 371.987 446.406 373.782 443.349C375.904 439.733 374.488 435.445 371.858 432.517C370.217 430.691 368.158 429.296 366.139 427.925C365.422 427.439 364.749 428.601 365.461 429.084L365.461 429.084Z" fill="#E6E7E8"/>
<path d="M376.651 429.084C379.85 431.256 383.407 433.699 384.438 437.663C384.675 438.509 384.739 439.395 384.624 440.267C384.51 441.138 384.221 441.978 383.774 442.735C382.953 444.103 381.729 445.178 380.536 446.214C379.119 447.445 377.69 448.655 376.59 450.191C376.086 450.895 377.25 451.566 377.749 450.869C379.788 448.02 383.177 446.406 384.971 443.349C387.094 439.733 385.677 435.445 383.047 432.517C381.406 430.691 379.348 429.296 377.328 427.925C376.611 427.439 375.939 428.601 376.651 429.084L376.651 429.084Z" fill="#E6E7E8"/>
<path d="M270.144 330.711C270.855 330.228 270.183 329.066 269.466 329.552C267.447 330.923 265.388 332.318 263.747 334.144C261.117 337.072 259.701 341.36 261.823 344.976C263.617 348.033 267.006 349.647 269.045 352.496C269.544 353.193 270.708 352.522 270.204 351.818C269.105 350.282 267.676 349.072 266.258 347.841C265.065 346.805 263.842 345.73 263.02 344.362C262.573 343.605 262.284 342.765 262.17 341.894C262.056 341.022 262.119 340.136 262.356 339.29C263.387 335.326 266.944 332.883 270.144 330.711L270.144 330.711Z" fill="#E6E7E8"/>
<path d="M258.954 330.711C259.666 330.228 258.993 329.066 258.277 329.552C256.257 330.923 254.199 332.318 252.558 334.144C249.927 337.072 248.511 341.36 250.634 344.976C252.428 348.033 255.817 349.647 257.856 352.496C258.355 353.193 259.519 352.522 259.015 351.818C257.915 350.282 256.486 349.072 255.069 347.841C253.875 346.805 252.652 345.73 251.831 344.362C251.384 343.605 251.095 342.765 250.98 341.894C250.866 341.022 250.93 340.136 251.167 339.29C252.198 335.326 255.755 332.883 258.954 330.711L258.954 330.711Z" fill="#E6E7E8"/>
</g>
<defs>
<clipPath id="clip0_3138_653">
<rect width="328" height="275" fill="white" transform="translate(58 210)"/>
</clipPath>
</defs>
</svg>
