<svg width="850" height="530" viewBox="0 0 850 530" fill="none" xmlns="http://www.w3.org/2000/svg">
<rect width="850" height="530" rx="30" fill="white"/>
<mask id="mask0_2293_532" style="mask-type:alpha" maskUnits="userSpaceOnUse" x="0" y="0" width="850" height="530">
<rect width="850" height="530" rx="30" transform="matrix(-1 0 0 1 850 0)" fill="white"/>
</mask>
<g mask="url(#mask0_2293_532)">
<rect width="946.748" height="592.463" transform="matrix(-0.817739 -0.575589 -0.577399 0.816462 703.656 675.938)" fill="#FFB500"/>
</g>
<path d="M323.756 97.52V101.76H339.596V97.52H323.756ZM328.316 105.8V114.96H333.596V105.8H328.316ZM337.516 97.52V99.92C337.516 102.4 337.516 105.32 336.756 109.28L341.916 109.68C342.756 105.64 342.756 102.4 342.756 99.92V97.52H337.516ZM346.356 95.52V118.08H351.716V95.52H346.356ZM349.596 104.6V109H356.156V104.6H349.596ZM322.116 116.6C328.676 116.6 337.076 116.44 344.676 115.12L344.356 111.36C336.956 112.28 328.236 112.36 321.596 112.36L322.116 116.6ZM339.196 118.52C331.316 118.52 326.396 121.16 326.396 125.48C326.396 129.92 331.316 132.52 339.196 132.52C347.076 132.52 352.036 129.92 352.036 125.48C352.036 121.16 347.076 118.52 339.196 118.52ZM339.196 122.6C343.996 122.6 346.556 123.56 346.556 125.48C346.556 127.48 343.996 128.4 339.196 128.4C334.436 128.4 331.796 127.48 331.796 125.48C331.796 123.56 334.436 122.6 339.196 122.6ZM372.633 99.64V100.72C372.633 104.52 368.713 108.68 360.553 109.68L362.513 113.84C371.913 112.56 377.233 107.24 377.233 100.72V99.64H372.633ZM374.153 99.64V100.72C374.153 107.24 379.473 112.56 388.913 113.84L390.833 109.68C382.673 108.68 378.753 104.52 378.753 100.72V99.64H374.153ZM372.913 119V132.6H378.193V119H372.913ZM358.953 115.96V120.2H392.433V115.96H358.953ZM361.913 97.4V101.6H389.393V97.4H361.913ZM405.71 123.88V128.24H439.23V123.88H405.71ZM419.63 115.64V125.04H424.91V115.64H419.63ZM419.43 97.56V100.24C419.43 105.36 414.91 111.04 406.47 112.4L408.67 116.84C418.35 115.08 424.07 108.12 424.07 100.24V97.56H419.43ZM420.47 97.56V100.24C420.47 108.24 426.19 115.04 435.91 116.84L438.11 112.4C429.63 111.04 425.11 105.48 425.11 100.24V97.56H420.47ZM442.507 123.92V128.28H476.027V123.92H442.507ZM445.067 98.72V102.96H473.267V98.72H445.067ZM445.227 114.04V118.32H473.147V114.04H445.227ZM450.107 102.64V114.44H455.427V102.64H450.107ZM462.947 102.64V114.44H468.227V102.64H462.947ZM483.224 114.6V118.76H509.264V114.6H483.224ZM479.304 124V128.32H512.824V124H479.304ZM483.224 98.2V115.76H488.624V102.48H508.944V98.2H483.224ZM486.984 106.36V110.48H508.104V106.36H486.984ZM525.261 97.6C520.501 97.6 517.061 100.48 517.061 104.6C517.061 108.72 520.501 111.6 525.261 111.6C529.981 111.6 533.461 108.72 533.461 104.6C533.461 100.48 529.981 97.6 525.261 97.6ZM525.261 101.52C527.301 101.52 528.741 102.64 528.741 104.6C528.741 106.56 527.301 107.68 525.261 107.68C523.181 107.68 521.741 106.56 521.741 104.6C521.741 102.64 523.181 101.52 525.261 101.52ZM543.421 95.52V132.56H548.461V95.52H543.421ZM536.021 96.12V130.88H540.981V96.12H536.021ZM530.181 119.36V123.36H537.621V119.36H530.181ZM522.661 115.64V129.68H527.701V115.64H522.661ZM516.101 117.88C520.941 117.88 528.541 117.76 534.581 116.56L534.181 112.68C528.381 113.52 520.461 113.6 515.501 113.6L516.101 117.88ZM563.018 98.08C557.458 98.08 553.458 103.2 553.458 111.28C553.458 119.44 557.458 124.56 563.018 124.56C568.538 124.56 572.578 119.44 572.578 111.28C572.578 103.2 568.538 98.08 563.018 98.08ZM563.018 102.92C565.738 102.92 567.498 105.84 567.498 111.28C567.498 116.8 565.738 119.76 563.018 119.76C560.338 119.76 558.538 116.8 558.538 111.28C558.538 105.84 560.338 102.92 563.018 102.92ZM578.658 95.48V132.64H583.938V95.48H578.658ZM571.018 108.84V113.12H580.898V108.84H571.018ZM600.736 99V123.56H618.456V99H600.736ZM613.216 103.16V119.36H605.976V103.16H613.216ZM623.296 95.52V132.56H628.656V95.52H623.296ZM627.456 109.48V113.88H634.016V109.48H627.456ZM661.813 95.48V132.64H667.173V95.48H661.813ZM647.213 98.08C641.613 98.08 637.493 103.2 637.493 111.28C637.493 119.44 641.613 124.56 647.213 124.56C652.813 124.56 656.933 119.44 656.933 111.28C656.933 103.2 652.813 98.08 647.213 98.08ZM647.213 102.92C649.973 102.92 651.813 105.84 651.813 111.28C651.813 116.8 649.973 119.76 647.213 119.76C644.453 119.76 642.573 116.8 642.573 111.28C642.573 105.84 644.453 102.92 647.213 102.92ZM686.969 97.64V100.32C686.969 105.64 682.369 111.52 674.009 112.96L676.289 117.36C685.889 115.48 691.609 108.36 691.609 100.32V97.64H686.969ZM688.049 97.64V100.32C688.049 108.48 693.729 115.48 703.329 117.36L705.609 112.96C697.209 111.52 692.649 105.76 692.649 100.32V97.64H688.049ZM673.249 123.72V128.04H706.769V123.72H673.249ZM735.806 95.48V132.64H741.086V95.48H735.806ZM729.446 108.52V112.84H736.406V108.52H729.446ZM711.686 119.96V124.28H714.646C720.886 124.28 725.686 124.12 731.046 123.28L730.566 119.04C725.326 119.88 720.766 119.96 714.646 119.96H711.686ZM711.686 98.6V121.32H716.966V102.92H728.846V98.6H711.686ZM715.766 108.92V113.08H727.566V108.92H715.766ZM750.243 98.64V102.92H773.723V98.64H750.243ZM746.843 123.8V128.12H780.323V123.8H746.843ZM758.683 111.08V125.92H764.003V111.08H758.683ZM771.803 98.64V102.2C771.803 106.64 771.803 112 770.323 119.36L775.643 119.96C777.123 112.04 777.123 106.84 777.123 102.2V98.64H771.803Z" fill="black"/>
<path d="M358.029 170.34C355.389 169.56 353.649 167.58 353.649 165.4V165.04H357.609V163.72H353.649V161.44H352.009V163.72H348.029V165.04H352.009V165.4C352.009 167.8 350.209 169.96 347.549 170.78L348.369 172.08C350.469 171.36 352.089 169.88 352.849 167.98C353.649 169.68 355.229 170.98 357.269 171.62L358.029 170.34ZM355.749 178.18C353.069 178.18 351.469 177.46 351.469 176.22C351.469 174.98 353.069 174.26 355.749 174.26C358.389 174.26 360.009 174.98 360.009 176.22C360.009 177.46 358.389 178.18 355.749 178.18ZM355.749 172.98C352.049 172.98 349.829 174.14 349.829 176.22C349.829 178.28 352.049 179.44 355.749 179.44C359.409 179.44 361.649 178.28 361.649 176.22C361.649 174.14 359.409 172.98 355.749 172.98ZM361.449 166.18V161.54H359.809V172.54H361.449V167.54H364.109V166.18H361.449ZM371.747 162.86C368.967 162.86 366.947 164.56 366.947 167.08C366.947 169.58 368.967 171.3 371.747 171.3C374.547 171.3 376.547 169.58 376.547 167.08C376.547 164.56 374.547 162.86 371.747 162.86ZM371.747 164.26C373.607 164.26 374.947 165.4 374.947 167.08C374.947 168.74 373.607 169.9 371.747 169.9C369.907 169.9 368.547 168.74 368.547 167.08C368.547 165.4 369.907 164.26 371.747 164.26ZM378.907 161.54V179.52H380.547V161.54H378.907ZM366.247 175.58C369.487 175.58 373.827 175.54 377.867 174.8L377.727 173.58C373.807 174.18 369.307 174.2 366.047 174.2L366.247 175.58ZM397.387 163.18C400.227 163.18 402.007 163.94 402.007 165.26C402.007 166.56 400.227 167.34 397.387 167.34C394.547 167.34 392.767 166.56 392.767 165.26C392.767 163.94 394.547 163.18 397.387 163.18ZM397.387 168.6C401.287 168.6 403.687 167.38 403.687 165.26C403.687 163.14 401.287 161.9 397.387 161.9C393.507 161.9 391.087 163.14 391.087 165.26C391.087 167.38 393.507 168.6 397.387 168.6ZM399.827 173.3C399.107 173.16 398.287 173.1 397.387 173.1C396.507 173.1 395.727 173.16 395.007 173.28V171.26H399.827V173.3ZM401.867 176.28C401.867 177.52 400.187 178.2 397.387 178.2C394.567 178.2 392.907 177.52 392.907 176.28C392.907 175.08 394.567 174.36 397.387 174.36C400.187 174.36 401.867 175.08 401.867 176.28ZM405.507 171.26V169.94H389.287V171.26H393.367V173.72C392.027 174.22 391.247 175.12 391.247 176.28C391.247 178.34 393.547 179.48 397.387 179.48C401.227 179.48 403.527 178.34 403.527 176.28C403.527 175.14 402.787 174.26 401.467 173.74V171.26H405.507ZM418.325 163.38H413.845V161.36H412.205V163.38H407.745V164.7H418.325V163.38ZM410.305 168.68C410.305 167.52 411.385 166.78 413.025 166.78C414.665 166.78 415.765 167.52 415.765 168.68C415.765 169.86 414.665 170.58 413.025 170.58C411.385 170.58 410.305 169.86 410.305 168.68ZM417.325 168.68C417.325 166.78 415.585 165.56 413.025 165.56C410.465 165.56 408.745 166.78 408.745 168.68C408.745 170.6 410.465 171.82 413.025 171.82C415.585 171.82 417.325 170.6 417.325 168.68ZM419.985 177.92H411.945V175.94H419.985V177.92ZM419.985 174.66H411.945V172.76H410.325V179.24H421.605V172.76H419.985V174.66ZM424.265 166.1H421.605V161.54H419.965V171.96H421.605V167.48H424.265V166.1ZM435.563 170C433.483 170.34 431.763 170.42 428.443 170.42V167.7H434.523V162.62H426.783V163.96H432.923V166.44H426.843V171.76H428.123C431.703 171.76 433.523 171.7 435.723 171.32L435.563 170ZM428.843 174.88H439.203V179.5H440.863V173.54H428.843V174.88ZM439.203 161.56V164.2H435.703V165.54H439.203V167.94H435.703V169.26H439.203V172.58H440.863V161.56H439.203ZM452.582 163.08C455.522 163.08 457.202 163.76 457.202 164.96C457.202 166.16 455.522 166.84 452.582 166.84C449.642 166.84 447.962 166.16 447.962 164.96C447.962 163.76 449.642 163.08 452.582 163.08ZM452.582 168.06C456.522 168.06 458.882 166.98 458.882 164.96C458.882 162.94 456.522 161.84 452.582 161.84C448.642 161.84 446.282 162.94 446.282 164.96C446.282 166.98 448.642 168.06 452.582 168.06ZM448.082 176.18H458.622V172.14H446.422V173.38H457.002V174.98H446.482V179.28H459.162V178H448.082V176.18ZM444.462 169.28V170.6H460.702V169.28H444.462ZM468.661 162.68V164.02H475.161C474.881 166.96 472.321 169.3 467.881 170.44L468.501 171.78C473.801 170.38 476.921 167.24 476.921 162.68H468.661ZM482.061 174V172.68H470.341V174H475.361C475.241 176 472.681 177.72 469.681 178.18L470.281 179.44C472.901 179 475.221 177.68 476.221 175.86C477.221 177.66 479.521 179.02 482.121 179.46L482.761 178.18C479.801 177.72 477.201 175.96 477.081 174H482.061ZM481.761 166.1V161.5H480.121V171.8H481.761V167.48H484.421V166.1H481.761ZM487.74 169.92C490.68 169.6 493.26 168.46 494.34 166.6C495.44 168.46 497.98 169.6 500.92 169.92L501.46 168.66C498.12 168.32 495.4 166.86 495.24 164.76H500.8V163.46H495.18V161.52H493.54V163.46H487.9V164.76H493.46C493.3 166.86 490.58 168.32 487.22 168.66L487.74 169.92ZM489.92 174.14H488.28V179.08H500.68V177.74H489.92V174.14ZM486.2 171V172.34H493.66V175.86H495.3V172.34H502.48V171H486.2ZM513.199 175.86H523.839V171.34H511.519V172.64H522.199V174.62H511.579V179.26H524.279V177.96H513.199V175.86ZM523.379 168.22C523.779 166.2 523.779 164.66 523.779 163.44V162.3H511.679V163.62H522.159C522.159 164.8 522.139 166.24 521.739 168.22H509.599V169.54H525.879V168.22H523.379ZM536.938 175.92V172.54H542.678V171.22H531.638V168.32H542.258V162.86H529.978V164.2H540.658V167H530.018V172.54H535.278V175.92H527.978V177.26H544.278V175.92H536.938ZM553.756 168.86H548.916V166.2H553.756V168.86ZM555.376 166.88H559.516V170.88H561.156V161.56H559.516V165.56H555.376V162.38H553.756V164.94H548.916V162.38H547.296V170.16H555.376V166.88ZM551.256 177.94V176.02H561.156V171.76H549.596V173.04H559.536V174.8H549.636V179.24H561.836V177.94H551.256ZM585.235 170.3C582.095 169.74 578.675 167.1 578.675 164.12V162.74H576.955V164.12C576.955 167.1 573.555 169.74 570.415 170.3L571.095 171.66C573.855 171.08 576.655 169.22 577.815 166.66C578.975 169.22 581.795 171.08 584.535 171.66L585.235 170.3ZM578.635 175.8V171.44H576.995V175.8H569.755V177.14H586.035V175.8H578.635ZM598.474 170.9H594.014V164.66H598.474V170.9ZM592.374 170.9H589.634V172.24H602.854V170.9H600.114V164.66H602.894V163.34H589.594V164.66H592.374V170.9ZM588.154 175.82V177.18H604.414V175.82H588.154ZM620.952 171.22H610.292V168.38H620.372V167.08H610.292V164.42H620.772V163.1H608.632V172.54H620.952V171.22ZM606.532 175.82V177.16H622.812V175.82H606.532ZM629.471 163.94C630.891 163.94 631.891 164.78 631.891 166C631.891 167.2 630.891 168.06 629.471 168.06C628.051 168.06 627.031 167.2 627.031 166C627.031 164.78 628.051 163.94 629.471 163.94ZM629.471 169.3C631.711 169.3 633.371 167.94 633.371 166C633.371 164.04 631.711 162.7 629.471 162.7C627.211 162.7 625.571 164.04 625.571 166C625.571 167.94 627.211 169.3 629.471 169.3ZM634.051 170.22C631.151 170.66 627.171 170.68 624.711 170.68L624.911 172.06C625.951 172.06 627.251 172.06 628.611 172V178.04H630.171V171.9C631.531 171.82 632.911 171.68 634.171 171.42L634.051 170.22ZM635.191 173.32H631.831V174.6H635.191V178.56H636.731V161.98H635.191V173.32ZM638.571 161.56V179.48H640.151V161.56H638.571ZM648.149 173.98C646.429 173.98 645.229 172.1 645.229 169.18C645.229 166.28 646.429 164.4 648.149 164.4C649.849 164.4 651.049 166.28 651.049 169.18C651.049 172.1 649.849 173.98 648.149 173.98ZM656.489 161.54V168.38H652.589C652.329 165.02 650.569 162.92 648.149 162.92C645.529 162.92 643.669 165.36 643.669 169.18C643.669 173 645.529 175.44 648.149 175.44C650.649 175.44 652.429 173.24 652.589 169.72H656.489V179.52H658.129V161.54H656.489ZM669.028 164.66H674.048V173.6H669.028V164.66ZM667.428 174.92H675.648V163.34H667.428V174.92ZM683.468 168.7H680.508V161.56H678.868V179.48H680.508V170.08H683.468V168.7ZM698.147 161.54V179.52H699.787V161.54H698.147ZM690.327 162.92C687.667 162.92 685.767 165.36 685.767 169.18C685.767 173 687.667 175.44 690.327 175.44C692.987 175.44 694.887 173 694.887 169.18C694.887 165.36 692.987 162.92 690.327 162.92ZM690.327 164.4C692.067 164.4 693.307 166.28 693.307 169.18C693.307 172.1 692.067 173.98 690.327 173.98C688.567 173.98 687.327 172.1 687.327 169.18C687.327 166.28 688.567 164.4 690.327 164.4ZM718.965 170.56C715.825 169.96 712.425 167.24 712.425 164.18V162.8H710.705V164.18C710.705 167.24 707.325 169.94 704.185 170.56L704.925 171.92C707.625 171.28 710.425 169.36 711.565 166.74C712.705 169.38 715.505 171.3 718.225 171.92L718.965 170.56ZM703.505 175.72V177.08H719.765V175.72H703.505ZM724.364 169.54H730.244V168.22H724.364V164.52H731.024V163.16H722.724V175.18H724.104C727.524 175.18 729.704 175.08 732.304 174.62L732.124 173.28C729.684 173.72 727.604 173.84 724.364 173.84V169.54ZM735.044 161.52V168.3H731.344V169.66H735.044V179.5H736.684V161.52H735.044ZM753.363 163.26C756.203 163.26 757.983 164.06 757.983 165.4C757.983 166.74 756.203 167.54 753.363 167.54C750.523 167.54 748.743 166.74 748.743 165.4C748.743 164.06 750.523 163.26 753.363 163.26ZM753.363 168.82C757.243 168.82 759.663 167.56 759.663 165.4C759.663 163.24 757.243 161.96 753.363 161.96C749.503 161.96 747.063 163.24 747.063 165.4C747.063 167.56 749.503 168.82 753.363 168.82ZM755.563 173.78H751.183V171.5H755.563V173.78ZM761.483 171.5V170.18H745.263V171.5H749.543V173.78H747.063V175.1H757.843V179.5H759.483V173.78H757.203V171.5H761.483ZM776.782 172.16H778.442V161.56H776.782V165.36H772.882V166.7H776.782V172.16ZM774.182 170.04C771.562 169.12 769.822 166.9 769.822 164.34V162.56H768.182V164.4C768.182 167.14 766.402 169.54 763.642 170.52L764.502 171.86C766.662 171.04 768.282 169.42 769.042 167.3C769.822 169.16 771.342 170.58 773.302 171.32L774.182 170.04ZM772.522 178.16C769.822 178.16 768.182 177.38 768.182 176.08C768.182 174.76 769.822 173.98 772.522 173.98C775.222 173.98 776.862 174.76 776.862 176.08C776.862 177.38 775.222 178.16 772.522 178.16ZM772.522 172.7C768.842 172.7 766.542 173.92 766.542 176.08C766.542 178.22 768.842 179.46 772.522 179.46C776.202 179.46 778.502 178.22 778.502 176.08C778.502 173.92 776.202 172.7 772.522 172.7Z" fill="black"/>
<path d="M682.072 441.016H677V439.64H675.688V441.016H670.52V442.04H682.072V441.016ZM672.728 450.904H679.96V453H672.728V450.904ZM671.448 453.992H681.24V449.912H671.448V453.992ZM673.08 444.632C673.08 443.928 674.248 443.528 676.344 443.528C678.408 443.528 679.576 443.928 679.576 444.632C679.576 445.352 678.408 445.752 676.344 445.752C674.248 445.752 673.08 445.352 673.08 444.632ZM677 447.752V446.664C679.528 446.568 680.968 445.864 680.968 444.632C680.968 443.304 679.288 442.6 676.344 442.6C673.368 442.6 671.704 443.304 671.704 444.632C671.704 445.864 673.128 446.568 675.688 446.664V447.752H669.848V448.792H682.808V447.752H677ZM687.079 442.712H688.871V449.448C688.263 449.48 687.671 449.496 687.079 449.512V442.712ZM690.071 442.712H691.255V441.656H684.695V442.712H685.879V449.544C685.335 449.56 684.855 449.56 684.423 449.56L684.551 450.648C686.423 450.648 689.431 450.584 691.655 450.168L691.575 449.208C691.111 449.272 690.583 449.32 690.071 449.368V442.712ZM692.791 445.304H690.823V446.456H692.791V453.432H694.023V440.184H692.791V445.304ZM695.559 439.848V454.184H696.823V439.848H695.559ZM709.718 439.832V454.216H711.03V439.832H709.718ZM703.462 440.936C701.334 440.936 699.814 442.888 699.814 445.944C699.814 449 701.334 450.952 703.462 450.952C705.59 450.952 707.11 449 707.11 445.944C707.11 442.888 705.59 440.936 703.462 440.936ZM703.462 442.12C704.854 442.12 705.846 443.624 705.846 445.944C705.846 448.28 704.854 449.784 703.462 449.784C702.054 449.784 701.062 448.28 701.062 445.944C701.062 443.624 702.054 442.12 703.462 442.12ZM719.124 442.392H722.5V441.304H714.484V442.392H717.812V444.216C717.812 446.696 716.068 449.4 714.004 450.376L714.772 451.432C716.404 450.6 717.812 448.792 718.468 446.696C719.156 448.664 720.564 450.312 722.228 451.08L722.964 450.024C720.852 449.128 719.124 446.648 719.124 444.216V442.392ZM724.436 439.848V454.184H725.748V439.848H724.436ZM738.675 449.656H734.579V445.88H738.675V449.656ZM738.675 444.84H734.579V441.048H733.283V450.728H739.955V441.048H738.675V444.84ZM746.115 445.48H743.747V439.848H742.435V454.168H743.747V446.584H746.115V445.48ZM754.578 451.336V448.632H759.17V447.576H750.338V445.256H758.834V440.888H749.01V441.96H757.554V444.2H749.042V448.632H753.25V451.336H747.41V452.408H760.45V451.336H754.578ZM762.913 441.368V442.456H768.177C767.873 445.848 765.905 448.6 762.241 450.44L762.961 451.464C767.601 449.144 769.473 445.448 769.473 441.368H762.913ZM775.489 445.656H773.185V439.832H771.873V454.184H773.185V446.744H775.489V445.656ZM777.712 441.384V442.44H783.104C782.832 445.848 780.912 448.6 777.056 450.44L777.76 451.512C782.528 449.176 784.432 445.528 784.432 441.384H777.712ZM787.328 439.832V454.184H788.64V439.832H787.328Z" fill="black"/>
<path d="M670.95 282.455C668.281 281.979 665.374 279.735 665.374 277.202V276.029H663.912V277.202C663.912 279.735 661.022 281.979 658.353 282.455L658.931 283.611C661.277 283.118 663.657 281.537 664.643 279.361C665.629 281.537 668.026 283.118 670.355 283.611L670.95 282.455ZM665.34 287.13V283.424H663.946V287.13H657.792V288.269H671.63V287.13H665.34ZM682.202 282.965H678.411V277.661H682.202V282.965ZM677.017 282.965H674.688V284.104H685.925V282.965H683.596V277.661H685.959V276.539H674.654V277.661H677.017V282.965ZM673.43 287.147V288.303H687.251V287.147H673.43ZM701.309 283.237H692.248V280.823H700.816V279.718H692.248V277.457H701.156V276.335H690.837V284.359H701.309V283.237ZM689.052 287.147V288.286H702.89V287.147H689.052ZM708.55 277.049C709.757 277.049 710.607 277.763 710.607 278.8C710.607 279.82 709.757 280.551 708.55 280.551C707.343 280.551 706.476 279.82 706.476 278.8C706.476 277.763 707.343 277.049 708.55 277.049ZM708.55 281.605C710.454 281.605 711.865 280.449 711.865 278.8C711.865 277.134 710.454 275.995 708.55 275.995C706.629 275.995 705.235 277.134 705.235 278.8C705.235 280.449 706.629 281.605 708.55 281.605ZM712.443 282.387C709.978 282.761 706.595 282.778 704.504 282.778L704.674 283.951C705.558 283.951 706.663 283.951 707.819 283.9V289.034H709.145V283.815C710.301 283.747 711.474 283.628 712.545 283.407L712.443 282.387ZM713.412 285.022H710.556V286.11H713.412V289.476H714.721V275.383H713.412V285.022ZM716.285 275.026V290.258H717.628V275.026H716.285ZM724.426 285.583C722.964 285.583 721.944 283.985 721.944 281.503C721.944 279.038 722.964 277.44 724.426 277.44C725.871 277.44 726.891 279.038 726.891 281.503C726.891 283.985 725.871 285.583 724.426 285.583ZM731.515 275.009V280.823H728.2C727.979 277.967 726.483 276.182 724.426 276.182C722.199 276.182 720.618 278.256 720.618 281.503C720.618 284.75 722.199 286.824 724.426 286.824C726.551 286.824 728.064 284.954 728.2 281.962H731.515V290.292H732.909V275.009H731.515ZM736.563 276.981V278.12H741.136C740.932 281.282 739.487 284.036 735.985 285.991L736.801 286.994C741.136 284.546 742.513 280.908 742.513 276.981H736.563ZM747.579 275.009V281.146H745.505V275.417H744.196V289.493H745.505V282.285H747.579V290.258H748.922V275.009H747.579ZM757.948 281.18H753.63V278.902H757.948V281.18ZM759.308 275.638H757.948V277.831H753.63V275.638H752.253V282.302H759.308V275.638ZM755.177 287.317H763.456V283.611H753.766V284.716H762.079V286.28H753.817V290.088H764.017V288.983H755.177V287.317ZM763.456 278.29V275.026H762.062V282.897H763.456V279.446H765.717V278.29H763.456ZM775.218 283.56C775.643 280.721 775.643 278.732 775.643 277.508V276.675H767.942V277.814H774.283C774.283 279.038 774.249 280.891 773.824 283.424L775.218 283.56ZM771.716 281.027H770.339V285.719C769.2 285.753 768.078 285.77 767.109 285.77L767.262 286.926C769.965 286.926 773.552 286.858 776.714 286.348L776.629 285.328C775.082 285.515 773.382 285.617 771.716 285.685V281.027ZM781.389 281.384H778.958V275.009H777.564V290.258H778.958V282.557H781.389V281.384ZM707.257 322.676C704.588 322.166 701.698 319.854 701.698 317.253V316.08H700.236V317.253C700.236 319.854 697.363 322.149 694.694 322.676L695.323 323.832C697.618 323.288 699.998 321.656 700.967 319.429C701.936 321.673 704.316 323.305 706.628 323.832L707.257 322.676ZM694.116 327.062V328.218H707.937V327.062H694.116ZM711.727 317.661H715.994V325.26H711.727V317.661ZM710.367 326.382H717.354V316.539H710.367V326.382ZM724.001 321.095H721.485V315.026H720.091V330.258H721.485V322.268H724.001V321.095ZM737.633 323.237H728.572V320.823H737.14V319.718H728.572V317.457H737.48V316.335H727.161V324.359H737.633V323.237ZM725.376 327.147V328.286H739.214V327.147H725.376ZM743.244 329H741.65V316.914H743.244V329ZM755.462 323.347C755.462 324.531 755.263 325.566 754.865 326.452C754.466 327.332 753.902 328.004 753.171 328.469C752.441 328.934 751.589 329.166 750.615 329.166C749.663 329.166 748.819 328.934 748.083 328.469C747.347 327.998 746.774 327.332 746.365 326.468C745.961 325.599 745.753 324.595 745.742 323.455V322.583C745.742 321.421 745.944 320.395 746.348 319.504C746.752 318.613 747.322 317.932 748.058 317.462C748.8 316.986 749.646 316.748 750.598 316.748C751.567 316.748 752.419 316.983 753.155 317.454C753.896 317.918 754.466 318.596 754.865 319.487C755.263 320.373 755.462 321.405 755.462 322.583V323.347ZM753.877 322.567C753.877 321.134 753.589 320.035 753.014 319.271C752.438 318.502 751.633 318.118 750.598 318.118C749.591 318.118 748.797 318.502 748.216 319.271C747.64 320.035 747.344 321.098 747.328 322.459V323.347C747.328 324.736 747.618 325.829 748.199 326.626C748.786 327.417 749.591 327.813 750.615 327.813C751.644 327.813 752.441 327.439 753.005 326.692C753.57 325.94 753.86 324.863 753.877 323.463V322.567ZM765.971 318.226H762.086V329H760.501V318.226H756.625V316.914H765.971V318.226ZM775.218 323.56C775.643 320.721 775.643 318.732 775.643 317.508V316.675H767.942V317.814H774.283C774.283 319.038 774.249 320.891 773.824 323.424L775.218 323.56ZM771.716 321.027H770.339V325.719C769.2 325.753 768.078 325.77 767.109 325.77L767.262 326.926C769.965 326.926 773.552 326.858 776.714 326.348L776.629 325.328C775.082 325.515 773.382 325.617 771.716 325.685V321.027ZM781.389 321.384H778.958V315.009H777.564V330.258H778.958V322.557H781.389V321.384Z" fill="#2E2E2E"/>
<path d="M781 252H600" stroke="#EEB322"/>
<line y1="-0.25" x2="121" y2="-0.25" transform="matrix(-1 0 0 1 790 455)" stroke="black" stroke-width="0.5"/>
<circle cx="385" cy="171" r="1" fill="black"/>
<g clip-path="url(#clip0_2293_532)">
<path d="M202.157 313.86L275.519 251.124L275.859 252.045L202.756 314.56L202.157 313.86Z" fill="#2F2E41"/>
<path d="M281.759 265.322C287.697 265.322 292.51 260.51 292.51 254.573C292.51 248.637 287.697 243.824 281.759 243.824C275.821 243.824 271.007 248.637 271.007 254.573C271.007 260.51 275.821 265.322 281.759 265.322Z" fill="#0048FF"/>
<path d="M372.377 278.375H274.209C273.788 278.376 273.372 278.293 272.983 278.133C272.594 277.972 272.241 277.736 271.943 277.439C271.645 277.142 271.409 276.789 271.248 276.4C271.087 276.012 271.004 275.595 271.004 275.174C271.004 274.754 271.087 274.337 271.248 273.949C271.409 273.56 271.645 273.207 271.943 272.91C272.241 272.613 272.594 272.377 272.983 272.216C273.372 272.056 273.788 271.973 274.209 271.974H372.377C372.798 271.973 373.215 272.056 373.604 272.216C373.993 272.377 374.346 272.613 374.644 272.91C374.941 273.207 375.177 273.56 375.339 273.949C375.5 274.337 375.583 274.754 375.583 275.174C375.583 275.595 375.5 276.012 375.339 276.4C375.177 276.789 374.941 277.142 374.644 277.439C374.346 277.736 373.993 277.972 373.604 278.133C373.215 278.293 372.798 278.376 372.377 278.375Z" fill="#0048FF"/>
<path d="M372.377 291.024H274.209C273.36 291.024 272.546 290.687 271.945 290.087C271.345 289.486 271.007 288.672 271.007 287.823C271.007 286.974 271.345 286.16 271.945 285.56C272.546 284.959 273.36 284.622 274.209 284.622H372.377C373.226 284.622 374.041 284.959 374.641 285.56C375.242 286.16 375.579 286.974 375.579 287.823C375.579 288.672 375.242 289.486 374.641 290.087C374.041 290.687 373.226 291.024 372.377 291.024V291.024Z" fill="#0048FF"/>
<path d="M316.763 303.672H274.209C273.36 303.672 272.546 303.334 271.945 302.734C271.345 302.134 271.007 301.32 271.007 300.471C271.007 299.622 271.345 298.807 271.945 298.207C272.546 297.607 273.36 297.27 274.209 297.27H316.763C317.612 297.27 318.426 297.607 319.027 298.207C319.627 298.807 319.964 299.622 319.964 300.471C319.964 301.32 319.627 302.134 319.027 302.734C318.426 303.334 317.612 303.672 316.763 303.672V303.672Z" fill="#0048FF"/>
<path d="M299.88 343.464C303.95 343.464 307.249 340.165 307.249 336.096C307.249 332.027 303.95 328.729 299.88 328.729C295.81 328.729 292.51 332.027 292.51 336.096C292.51 340.165 295.81 343.464 299.88 343.464Z" fill="#E6E7E8"/>
<path d="M361.992 352.41H294.705C294.417 352.411 294.131 352.354 293.864 352.244C293.598 352.134 293.355 351.973 293.151 351.769C292.947 351.565 292.785 351.323 292.675 351.057C292.564 350.79 292.507 350.505 292.507 350.216C292.507 349.928 292.564 349.643 292.675 349.376C292.785 349.11 292.947 348.868 293.151 348.664C293.355 348.46 293.598 348.299 293.864 348.189C294.131 348.078 294.417 348.022 294.705 348.022H361.992C362.28 348.022 362.566 348.078 362.833 348.189C363.099 348.299 363.342 348.46 363.546 348.664C363.75 348.868 363.912 349.11 364.022 349.376C364.133 349.643 364.19 349.928 364.19 350.216C364.19 350.505 364.133 350.79 364.022 351.057C363.912 351.323 363.75 351.565 363.546 351.769C363.342 351.973 363.099 352.134 362.833 352.244C362.566 352.354 362.28 352.411 361.992 352.41V352.41Z" fill="#E6E7E8"/>
<path d="M311.417 361.081H294.705C294.123 361.08 293.566 360.848 293.155 360.437C292.744 360.025 292.514 359.468 292.514 358.886C292.514 358.305 292.744 357.747 293.155 357.336C293.566 356.925 294.123 356.693 294.705 356.692H311.417C311.998 356.693 312.556 356.925 312.967 357.336C313.378 357.747 313.608 358.305 313.608 358.886C313.608 359.468 313.378 360.025 312.967 360.437C312.556 360.848 311.998 361.08 311.417 361.081V361.081Z" fill="#E6E7E8"/>
<path d="M276.36 417.143C280.43 417.143 283.729 413.844 283.729 409.775C283.729 405.706 280.43 402.407 276.36 402.407C272.29 402.407 268.99 405.706 268.99 409.775C268.99 413.844 272.29 417.143 276.36 417.143Z" fill="#E6E7E8"/>
<path d="M338.472 426.09H271.185C270.897 426.09 270.611 426.034 270.344 425.924C270.078 425.814 269.835 425.652 269.631 425.449C269.427 425.245 269.265 425.003 269.155 424.736C269.044 424.47 268.987 424.184 268.987 423.896C268.987 423.608 269.044 423.322 269.155 423.056C269.265 422.789 269.427 422.547 269.631 422.344C269.835 422.14 270.078 421.978 270.344 421.868C270.611 421.758 270.897 421.702 271.185 421.702H338.472C338.76 421.702 339.046 421.758 339.313 421.868C339.579 421.978 339.822 422.14 340.026 422.344C340.23 422.547 340.392 422.789 340.502 423.056C340.613 423.322 340.669 423.608 340.669 423.896C340.669 424.184 340.613 424.47 340.502 424.736C340.392 425.003 340.23 425.245 340.026 425.449C339.822 425.652 339.579 425.814 339.313 425.924C339.046 426.034 338.76 426.09 338.472 426.09V426.09Z" fill="#E6E7E8"/>
<path d="M311.618 434.759H271.185C270.603 434.759 270.045 434.528 269.633 434.117C269.222 433.705 268.99 433.147 268.99 432.565C268.99 431.983 269.222 431.425 269.633 431.014C270.045 430.602 270.603 430.371 271.185 430.371H311.618C312.2 430.371 312.758 430.602 313.17 431.014C313.581 431.425 313.813 431.983 313.813 432.565C313.813 433.147 313.581 433.705 313.17 434.117C312.758 434.528 312.2 434.759 311.618 434.759Z" fill="#E6E7E8"/>
<path d="M300.352 443.428H271.185C270.603 443.428 270.045 443.197 269.633 442.786C269.222 442.374 268.99 441.816 268.99 441.234C268.99 440.652 269.222 440.094 269.633 439.683C270.045 439.271 270.603 439.04 271.185 439.04H300.352C300.934 439.04 301.492 439.271 301.904 439.683C302.316 440.094 302.547 440.652 302.547 441.234C302.547 441.816 302.316 442.374 301.904 442.786C301.492 443.197 300.934 443.428 300.352 443.428V443.428Z" fill="#E6E7E8"/>
<path d="M77.0565 467.964C65.5477 462.512 56.9754 451.542 58.3126 439.486C68.6376 447.845 82.6946 452.513 97.2062 452.401C102.858 452.358 109.188 451.783 113.296 454.954C115.851 456.926 117.004 460.059 117.15 463.182C117.295 466.304 116.538 469.464 115.786 472.583L116.014 473.322C102.502 474.182 88.5653 473.416 77.0565 467.964Z" fill="#F2F2F2"/>
<path d="M58.596 439.456C63.0472 448.14 70.7644 455.377 80.3553 459.613C82.4567 460.594 84.6942 461.251 86.992 461.563C89.3321 461.807 91.6969 461.498 93.8955 460.661C95.9799 459.913 98.0346 458.939 100.245 458.643C101.328 458.492 102.429 458.56 103.484 458.845C104.54 459.129 105.526 459.624 106.386 460.298C108.429 461.886 109.647 464.084 110.751 466.276C111.977 468.711 113.206 471.26 115.606 472.919C115.897 473.12 115.492 473.538 115.202 473.337C111.025 470.451 110.422 465.231 107.104 461.736C105.555 460.105 103.406 458.922 100.826 459.112C98.5699 459.278 96.4503 460.281 94.3457 461.054C92.2057 461.899 89.9096 462.276 87.6118 462.159C85.2952 461.955 83.0268 461.378 80.8941 460.451C76.2569 458.521 71.9642 455.851 68.1839 452.544C64.0074 448.933 60.5596 444.557 58.026 439.652C57.8723 439.352 58.4433 439.158 58.596 439.456L58.596 439.456Z" fill="white"/>
<path d="M77.1425 458.389C75.931 459.818 74.3041 460.834 72.4882 461.295C70.6722 461.757 68.7576 461.641 67.0106 460.964C66.6756 460.823 66.9492 460.332 67.2846 460.473C68.91 461.107 70.693 461.214 72.3829 460.782C74.0727 460.349 75.5845 459.398 76.7054 458.061C76.9408 457.775 77.3766 458.104 77.1425 458.389Z" fill="white"/>
<path d="M92.8832 461.16C92.6603 459.464 92.0806 457.834 91.1823 456.378C90.2841 454.922 89.0876 453.673 87.6716 452.712C87.3816 452.51 87.7866 452.092 88.0762 452.294C89.5475 453.296 90.7897 454.599 91.7208 456.116C92.652 457.633 93.251 459.33 93.4784 461.096C93.5196 461.432 92.9242 461.494 92.8832 461.16L92.8832 461.16Z" fill="white"/>
<path d="M64.6907 448.564C65.2441 448.138 65.6797 447.579 65.9562 446.938C66.2326 446.297 66.3408 445.597 66.2704 444.902C66.2244 444.567 66.8198 444.505 66.8655 444.838C66.9399 445.605 66.8196 446.379 66.5159 447.087C66.2121 447.796 65.7347 448.416 65.1277 448.891C65.073 448.945 65.0016 448.979 64.9252 448.987C64.8488 448.995 64.7719 448.978 64.7069 448.937C64.6787 448.915 64.6556 448.887 64.6392 448.856C64.6228 448.824 64.6135 448.789 64.612 448.754C64.6104 448.718 64.6167 448.683 64.6303 448.65C64.6439 448.617 64.6645 448.588 64.6907 448.564V448.564Z" fill="white"/>
<path d="M96.2837 413.997C96.3192 414.205 96.3547 414.414 96.3947 414.624C96.8871 417.416 97.6395 420.156 98.6421 422.808C98.7158 423.014 98.7941 423.222 98.8745 423.426C101.41 429.847 105.265 435.665 110.191 440.503C112.198 442.479 114.362 444.289 116.663 445.914C119.87 448.183 123.571 450.4 125.601 453.457C125.816 453.772 126.008 454.102 126.177 454.444L117.034 472.94C116.99 472.975 116.951 473.011 116.907 473.046L116.579 473.796C116.451 473.719 116.322 473.637 116.195 473.56C116.121 473.516 116.049 473.468 115.975 473.424C115.926 473.393 115.878 473.362 115.831 473.337C115.815 473.327 115.799 473.316 115.787 473.307C115.741 473.282 115.702 473.254 115.66 473.231C114.933 472.773 114.209 472.31 113.488 471.841C113.483 471.84 113.483 471.84 113.481 471.834C107.996 468.248 102.838 464.197 98.6001 459.522C98.4726 459.382 98.3405 459.24 98.2172 459.091C96.3334 456.99 94.6463 454.721 93.1771 452.312C92.3854 451.002 91.6702 449.647 91.0351 448.255C89.4051 444.657 88.4394 440.795 88.1844 436.854C87.6679 428.959 90.0103 420.796 95.8338 414.476C95.9829 414.315 96.1301 414.157 96.2837 413.997Z" fill="#F2F2F2"/>
<path d="M96.5176 414.123C93.9707 423.887 94.8482 434.186 99.1605 442.948C100.057 444.894 101.293 446.665 102.809 448.179C104.434 449.668 106.431 450.689 108.589 451.135C110.656 451.624 112.853 451.906 114.709 452.846C115.62 453.302 116.409 453.967 117.014 454.786C117.618 455.605 118.02 456.556 118.186 457.56C118.64 460.008 118.064 462.529 117.406 464.984C116.676 467.71 115.87 470.534 116.544 473.235C116.625 473.562 116.039 473.698 115.958 473.371C114.785 468.672 117.867 463.92 117.75 459.167C117.695 456.948 116.886 454.787 114.826 453.557C113.024 452.482 110.759 452.19 108.66 451.712C106.539 451.3 104.551 450.375 102.87 449.019C101.269 447.59 99.954 445.87 98.9967 443.949C96.8026 439.718 95.3924 435.125 94.8343 430.392C94.1647 424.9 94.5461 419.331 95.9582 413.982C96.0462 413.644 96.605 413.788 96.5176 414.123V414.123Z" fill="white"/>
<path d="M97.5838 440.179C93.8223 441.357 89.8319 439.948 88.2547 436.902C88.0993 436.602 88.6364 436.333 88.792 436.633C90.2695 439.487 93.9623 440.767 97.4785 439.665C97.8485 439.55 97.9517 440.064 97.5838 440.179L97.5838 440.179Z" fill="white"/>
<path d="M107.493 451.013C108.456 449.561 109.113 447.928 109.426 446.213C109.738 444.498 109.699 442.738 109.31 441.039C109.23 440.712 109.816 440.575 109.897 440.902C110.297 442.672 110.334 444.504 110.005 446.288C109.676 448.072 108.987 449.77 107.982 451.28C107.785 451.587 107.297 451.319 107.493 451.013Z" fill="white"/>
<path d="M94.9139 425.133C95.6524 425.05 96.3635 424.805 96.9964 424.415C97.6293 424.025 98.1685 423.501 98.5756 422.879C98.7683 422.57 99.256 422.838 99.0646 423.146C98.612 423.831 98.0157 424.41 97.3172 424.841C96.6187 425.273 95.8346 425.548 95.0192 425.647C94.8573 425.666 94.7063 425.609 94.6735 425.459C94.6644 425.384 94.6843 425.309 94.729 425.248C94.7737 425.188 94.8399 425.147 94.9139 425.133V425.133Z" fill="white"/>
<path d="M123.707 290.185L139.269 306.706L175.492 319.981L179.844 311.897L151.97 297.078C151.97 297.078 139.403 283.951 131.947 281.247L123.707 290.185Z" fill="#FBDBBE"/>
<path d="M179.251 322.049C182.217 322.049 184.622 319.645 184.622 316.679C184.622 313.714 182.217 311.31 179.251 311.31C176.285 311.31 173.88 313.714 173.88 316.679C173.88 319.645 176.285 322.049 179.251 322.049Z" fill="#FBDBBE"/>
<path d="M135.783 282.165L124.66 291.984L124.607 291.998C119.436 293.318 111.966 287.219 106.611 281.871C104.847 280.106 103.819 277.737 103.735 275.243C103.65 272.749 104.517 270.316 106.158 268.436C107.378 267.058 108.959 266.048 110.724 265.521C112.488 264.994 114.364 264.97 116.141 265.453L125.182 267.947L135.783 282.165Z" fill="#3F3D56"/>
<path d="M148.223 477.2L155.889 477.2L159.536 447.638L148.222 447.638L148.223 477.2Z" fill="#FBDBBE"/>
<path d="M146.267 474.698L148.425 474.698L156.849 471.272L161.364 474.697H161.365C163.916 474.697 166.363 475.711 168.168 477.514C169.972 479.318 170.986 481.765 170.986 484.316V484.628L146.268 484.629L146.267 474.698Z" fill="#2F2E41"/>
<path d="M114.208 477.2L121.874 477.2L125.521 447.638L114.207 447.638L114.208 477.2Z" fill="#FBDBBE"/>
<path d="M112.252 474.698L114.41 474.698L122.834 471.272L127.349 474.697H127.35C129.901 474.697 132.348 475.711 134.153 477.514C135.957 479.318 136.971 481.765 136.971 484.316V484.628L112.253 484.629L112.252 474.698Z" fill="#2F2E41"/>
<path d="M102.519 349.867C102.519 349.867 101.624 360.606 103.861 370.898C106.099 381.189 106.099 410.174 106.099 410.174L111.023 466.655L125.792 465.313L129.82 370.898L144.142 402.668L142.8 407.142L144.588 408.261C144.588 408.261 143.247 416.987 144.142 416.987C145.038 416.987 147.275 418.329 147.275 418.329L145.485 464.418L160.702 463.97L166.073 399.088L160.255 361.948L159.807 354.789L157.793 354.872L156.768 351.88L154.884 346.734L102.519 349.867Z" fill="#2F2E41"/>
<path d="M101.745 352.122L101.665 352.01C97.4053 346.047 103.813 331.718 104.779 329.641L100.709 328.32L101.625 320.531L102.059 317.058L98.9486 313.948L98.9399 313.871L97.1496 298.209L94.5466 287.807C93.5658 283.875 93.6494 279.752 94.7888 275.863C95.9281 271.974 98.0822 268.458 101.03 265.675L107.047 260.004L114.359 249.187H126.151L130.194 256.822C134.114 257.728 137.592 259.98 140.022 263.185C142.452 266.391 143.68 270.348 143.492 274.366L142.576 294.391L146.163 319.324L146.165 323.836L150.202 328.322L149.321 332.729L152.393 334.045L153.75 340.374C154.311 341.115 158.017 346.055 158.017 347.405C158.017 347.608 157.867 347.804 157.546 348.021C155.021 349.731 141.062 353.217 134.884 350.745C128.304 348.115 102.145 352.061 101.881 352.101L101.745 352.122Z" fill="#3F3D56"/>
<path d="M198.448 484.468C198.448 484.538 198.435 484.607 198.408 484.671C198.382 484.736 198.343 484.794 198.294 484.844C198.244 484.893 198.186 484.933 198.122 484.959C198.057 484.986 197.988 485 197.918 485H72.4671C72.3259 485 72.1904 484.944 72.0905 484.845C71.9906 484.745 71.9345 484.609 71.9345 484.468C71.9345 484.327 71.9906 484.191 72.0905 484.091C72.1904 483.992 72.3259 483.936 72.4671 483.936H197.915C198.056 483.935 198.191 483.991 198.291 484.09C198.391 484.189 198.448 484.324 198.448 484.465V484.468Z" fill="#CCCCCC"/>
<path d="M121.778 245.695C130.403 245.695 137.395 238.704 137.395 230.081C137.395 221.458 130.403 214.468 121.778 214.468C113.153 214.468 106.161 221.458 106.161 230.081C106.161 238.704 113.153 245.695 121.778 245.695Z" fill="#FBDBBE"/>
<path d="M123.274 245.947C120.856 245.923 118.444 245.691 116.064 245.256C113.709 244.714 108.512 240.696 107.096 238.323C106.044 236.559 105.412 233.832 105.067 231.854C104.602 229.237 104.692 226.551 105.331 223.971C105.97 221.391 107.143 218.973 108.776 216.875C109.405 215.996 110.261 215.304 111.251 214.871C111.339 214.839 111.429 214.812 111.52 214.788C112.956 214.45 114.258 213.69 115.259 212.606C115.454 212.387 115.663 212.182 115.887 211.993C117.01 211.094 118.33 210.473 119.739 210.182C122.015 209.636 125.27 210.32 129.415 212.219C131.497 213.173 133.808 212.907 135.589 212.568C135.689 212.552 135.792 212.562 135.887 212.597C135.981 212.632 136.065 212.692 136.13 212.769C136.866 213.496 137.849 213.918 138.882 213.949C139.515 213.994 140.157 214.887 140.93 216.051C141.105 216.315 141.31 216.623 141.459 216.811L141.489 216.458L141.836 216.862C142.383 217.497 142.761 218.26 142.933 219.08C143.106 219.9 143.068 220.75 142.824 221.552C142.579 222.353 142.135 223.08 141.534 223.664C140.933 224.248 140.194 224.67 139.386 224.892C138.745 225.045 138.089 225.132 137.43 225.152C137.031 225.177 136.618 225.204 136.221 225.262C134.946 225.489 133.752 226.042 132.755 226.868C131.758 227.694 130.992 228.765 130.533 229.975C130.424 230.255 130.253 230.506 130.032 230.709C129.811 230.912 129.546 231.061 129.258 231.146C128.97 231.23 128.667 231.247 128.371 231.196C128.076 231.144 127.796 231.026 127.553 230.849C127.15 230.518 126.673 230.289 126.162 230.183C125.651 230.076 125.122 230.094 124.62 230.236C124.183 230.465 123.838 230.836 123.643 231.288C123.407 231.792 123.026 232.213 122.549 232.499C120.923 233.285 120.718 236.946 121.216 240.015C121.695 242.974 122.738 245.132 123.752 245.264C124.533 245.365 124.621 245.423 124.674 245.563L124.721 245.688L124.631 245.802C124.542 245.903 124.025 245.947 123.274 245.947Z" fill="#2F2E41"/>
<path d="M199.885 364.321C215.159 364.321 227.54 351.943 227.54 336.673C227.54 321.403 215.159 309.024 199.885 309.024C184.612 309.024 172.231 321.403 172.231 336.673C172.231 351.943 184.612 364.321 199.885 364.321Z" fill="#0048FF"/>
<path d="M197.471 347.51C197.411 347.51 197.351 347.508 197.291 347.505C196.76 347.479 196.242 347.339 195.77 347.095C195.299 346.85 194.887 346.506 194.561 346.087L190.202 340.485C189.603 339.713 189.334 338.735 189.455 337.765C189.577 336.795 190.077 335.913 190.848 335.313L191.004 335.191C191.777 334.592 192.755 334.323 193.725 334.444C194.695 334.565 195.578 335.066 196.179 335.836C196.375 336.088 196.622 336.295 196.905 336.442C197.188 336.589 197.499 336.673 197.818 336.688C198.137 336.707 198.456 336.655 198.752 336.536C199.048 336.417 199.315 336.234 199.532 336L208.382 326.661C209.055 325.952 209.982 325.54 210.959 325.513C211.935 325.487 212.883 325.849 213.593 326.52L213.737 326.656C214.446 327.328 214.859 328.255 214.886 329.232C214.913 330.209 214.55 331.156 213.879 331.866L200.146 346.359C199.802 346.722 199.387 347.012 198.927 347.21C198.467 347.408 197.972 347.51 197.471 347.51V347.51Z" fill="white"/>
<path d="M126.871 290.759L137.72 310.694L169.375 332.741L175.641 326.029L152.452 304.611C152.452 304.611 143.637 288.72 137.114 284.21L126.871 290.759Z" fill="#FBDBBE"/>
<path d="M173.851 335.874C176.817 335.874 179.221 333.47 179.221 330.504C179.221 327.539 176.817 325.135 173.851 325.135C170.885 325.135 168.48 327.539 168.48 330.504C168.48 333.47 170.885 335.874 173.851 335.874Z" fill="#FBDBBE"/>
<path d="M127.848 293.416L121.026 277.047L123.493 268C123.984 266.226 124.962 264.625 126.315 263.377C127.669 262.129 129.344 261.284 131.153 260.938C133.607 260.486 136.142 260.983 138.245 262.328C140.347 263.672 141.86 265.765 142.478 268.183C144.347 275.517 145.782 285.051 142.008 288.824L141.97 288.862L127.848 293.416Z" fill="#3F3D56"/>
<path d="M280.004 260.651C279.979 260.651 279.955 260.651 279.93 260.65C279.712 260.639 279.498 260.581 279.304 260.481C279.111 260.38 278.941 260.238 278.807 260.066L277.014 257.761C276.767 257.444 276.657 257.041 276.706 256.643C276.756 256.244 276.962 255.881 277.279 255.634L277.344 255.584C277.661 255.337 278.064 255.227 278.463 255.276C278.862 255.326 279.225 255.532 279.472 255.849C279.553 255.953 279.655 256.038 279.771 256.098C279.888 256.159 280.016 256.193 280.147 256.199C280.278 256.207 280.409 256.186 280.531 256.137C280.653 256.088 280.763 256.013 280.852 255.917L284.493 252.074C284.77 251.783 285.151 251.613 285.553 251.602C285.955 251.591 286.344 251.74 286.637 252.016L286.696 252.072C286.988 252.349 287.157 252.73 287.168 253.132C287.179 253.534 287.03 253.924 286.754 254.216L281.105 260.178C280.963 260.328 280.792 260.447 280.603 260.528C280.414 260.61 280.21 260.651 280.004 260.651Z" fill="white"/>
<path d="M365.461 429.084C368.661 431.256 372.218 433.699 373.249 437.663C373.486 438.509 373.549 439.395 373.435 440.267C373.321 441.138 373.031 441.978 372.584 442.735C371.763 444.103 370.54 445.178 369.347 446.214C367.929 447.445 366.5 448.655 365.4 450.191C364.897 450.895 366.061 451.566 366.56 450.869C368.599 448.02 371.987 446.406 373.782 443.349C375.904 439.733 374.488 435.445 371.858 432.517C370.216 430.691 368.158 429.296 366.139 427.925C365.422 427.439 364.749 428.601 365.461 429.084L365.461 429.084Z" fill="#E6E7E8"/>
<path d="M376.65 429.084C379.85 431.256 383.407 433.699 384.438 437.663C384.675 438.509 384.738 439.395 384.624 440.267C384.51 441.138 384.221 441.978 383.773 442.735C382.952 444.103 381.729 445.178 380.536 446.214C379.118 447.445 377.689 448.655 376.589 450.191C376.086 450.895 377.25 451.566 377.749 450.869C379.788 448.02 383.176 446.406 384.971 443.349C387.093 439.733 385.677 435.445 383.047 432.517C381.406 430.691 379.347 429.296 377.328 427.925C376.611 427.439 375.938 428.601 376.65 429.084L376.65 429.084Z" fill="#E6E7E8"/>
<path d="M270.143 330.711C270.855 330.228 270.182 329.066 269.466 329.552C267.446 330.923 265.388 332.318 263.747 334.144C261.116 337.072 259.7 341.36 261.822 344.976C263.617 348.033 267.006 349.647 269.045 352.496C269.544 353.193 270.708 352.522 270.204 351.818C269.104 350.282 267.675 349.072 266.258 347.841C265.064 346.805 263.841 345.73 263.02 344.362C262.573 343.605 262.284 342.765 262.169 341.894C262.055 341.022 262.119 340.136 262.356 339.29C263.387 335.326 266.943 332.883 270.143 330.711L270.143 330.711Z" fill="#E6E7E8"/>
<path d="M258.954 330.711C259.666 330.228 258.993 329.066 258.276 329.552C256.257 330.923 254.199 332.318 252.558 334.144C249.927 337.072 248.511 341.36 250.633 344.976C252.428 348.033 255.816 349.647 257.856 352.496C258.355 353.193 259.519 352.522 259.015 351.818C257.915 350.282 256.486 349.072 255.069 347.841C253.875 346.805 252.652 345.73 251.831 344.362C251.384 343.605 251.095 342.765 250.98 341.894C250.866 341.022 250.93 340.136 251.167 339.29C252.198 335.326 255.754 332.883 258.954 330.711L258.954 330.711Z" fill="#E6E7E8"/>
</g>
<defs>
<clipPath id="clip0_2293_532">
<rect width="328" height="275" fill="white" transform="translate(58 210)"/>
</clipPath>
</defs>
</svg>
