<svg width="850" height="530" viewBox="0 0 850 530" fill="none" xmlns="http://www.w3.org/2000/svg">
<rect width="850" height="530" rx="30" fill="white"/>
<mask id="mask0_141_645" style="mask-type:alpha" maskUnits="userSpaceOnUse" x="0" y="0" width="850" height="530">
<rect width="850" height="530" rx="30" fill="white"/>
</mask>
<g mask="url(#mask0_141_645)">
<rect x="405" y="595.957" width="861.808" height="592" transform="rotate(-51.6603 405 595.957)" fill="#FFB500"/>
</g>
<path d="M723.741 219L779.483 249.196C778.53 250.838 777.916 252.653 777.677 254.536C777.439 256.419 777.58 258.331 778.094 260.158C778.608 261.985 779.483 263.69 780.668 265.173C781.852 266.656 783.323 267.885 784.991 268.789C786.66 269.693 788.493 270.253 790.382 270.436C792.271 270.618 794.177 270.419 795.988 269.851C797.799 269.283 799.477 268.358 800.924 267.129C802.37 265.901 803.556 264.394 804.409 262.699L823.416 272.995L774.183 363.898L674.508 309.903L723.741 219Z" fill="#F2F2F2"/>
<path d="M792.593 267.827C786.237 267.827 781.085 262.674 781.085 256.318C781.085 249.962 786.237 244.81 792.593 244.81C798.948 244.81 804.1 249.962 804.1 256.318C804.1 262.674 798.948 267.827 792.593 267.827Z" fill="#0048FF"/>
<path d="M583.77 462.354L523.5 442.692C524.143 440.906 524.42 439.01 524.315 437.115C524.211 435.22 523.727 433.365 522.893 431.66C522.058 429.955 520.89 428.436 519.458 427.191C518.026 425.946 516.358 425.001 514.554 424.412C512.75 423.824 510.846 423.603 508.955 423.764C507.064 423.925 505.224 424.464 503.545 425.349C501.867 426.233 500.382 427.446 499.181 428.915C497.979 430.384 497.085 432.08 496.55 433.901L476 427.197L508.056 328.912L615.826 364.069L583.77 462.354Z" fill="#F2F2F2"/>
<path d="M509.323 449.558C502.967 449.558 497.815 444.405 497.815 438.049C497.815 431.693 502.967 426.54 509.323 426.54C515.678 426.54 520.83 431.693 520.83 438.049C520.83 444.405 515.678 449.558 509.323 449.558Z" fill="#0048FF"/>
<path d="M506.948 272.921H785.214V399.354H506.948V272.921Z" fill="#3F3D56"/>
<path d="M511.539 277.512H780.623V392.29H511.539V277.512Z" fill="white"/>
<path d="M538.906 386.816H565.038V395.646H538.906V386.816Z" fill="#3F3D56"/>
<path d="M566.45 393.526H585.519V395.999H566.45V393.526Z" fill="#0048FF"/>
<path d="M758.729 320.951H655.969L640.037 328.713L614.652 341.081L598.055 310.003H551.089" stroke="#3F3D56" stroke-width="2" stroke-miterlimit="10"/>
<path d="M718.322 320.951L710.704 338.963H691.988" stroke="#3F3D56" stroke-width="2" stroke-miterlimit="10"/>
<path d="M689.76 320.951L663.737 306.824H645.375" stroke="#3F3D56" stroke-width="2" stroke-miterlimit="10"/>
<path d="M718.472 324.129C716.717 324.129 715.294 322.706 715.294 320.951C715.294 319.196 716.717 317.772 718.472 317.772C720.227 317.772 721.65 319.196 721.65 320.951C721.65 322.706 720.227 324.129 718.472 324.129Z" fill="#0048FF"/>
<path d="M688.809 324.129C687.054 324.129 685.631 322.706 685.631 320.951C685.631 319.196 687.054 317.772 688.809 317.772C690.565 317.772 691.988 319.196 691.988 320.951C691.988 322.706 690.565 324.129 688.809 324.129Z" fill="#0048FF"/>
<path d="M640.078 328.721L637.959 360.152H619.596" stroke="#3F3D56" stroke-width="2" stroke-miterlimit="10"/>
<path d="M604.712 322.467L624.893 306.824H605.824" stroke="#3F3D56" stroke-width="2" stroke-miterlimit="10"/>
<path d="M571.376 310.003L551.796 325.542H533.433" stroke="#3F3D56" stroke-width="2" stroke-miterlimit="10"/>
<path d="M640.078 331.899C638.322 331.899 636.9 330.476 636.9 328.72C636.9 326.965 638.322 325.542 640.078 325.542C641.833 325.542 643.256 326.965 643.256 328.72C643.256 330.476 641.833 331.899 640.078 331.899Z" fill="#0048FF"/>
<path d="M571.571 313.181C569.815 313.181 568.392 311.758 568.392 310.003C568.392 308.247 569.815 306.824 571.571 306.824C573.326 306.824 574.749 308.247 574.749 310.003C574.749 311.758 573.326 313.181 571.571 313.181Z" fill="#0048FF"/>
<path d="M604.765 325.543C603.009 325.543 601.587 324.119 601.587 322.364C601.587 320.609 603.009 319.186 604.765 319.186C606.52 319.186 607.943 320.609 607.943 322.364C607.943 324.119 606.52 325.543 604.765 325.543Z" fill="#0048FF"/>
<path d="M710.35 341.788H691.988" stroke="#3F3D56" stroke-width="2" stroke-miterlimit="10"/>
<path d="M540.128 250.885C537.25 250.885 534.917 248.552 534.917 245.674C534.917 242.796 537.25 240.463 540.128 240.463C543.005 240.463 545.338 242.796 545.338 245.674C545.338 248.552 543.005 250.885 540.128 250.885Z" stroke="#3F3D56" stroke-width="2" stroke-miterlimit="10"/>
<path d="M772.324 491C742.68 491 718.649 486.573 718.649 481.111C718.649 475.65 742.68 471.223 772.324 471.223C801.969 471.223 826 475.65 826 481.111C826 486.573 801.969 491 772.324 491Z" fill="#F2F2F2"/>
<path d="M735.462 393.343L745.037 398.174L744.418 399.409L734.842 394.577L735.462 393.343Z" fill="#6C63FF"/>
<path d="M737.019 384.356L737.449 386.937C737.449 386.937 736.804 404.792 741.536 399.199C746.268 393.606 743.041 386.077 743.041 386.077L741.751 383.926L737.019 384.356Z" fill="#FBDBBE"/>
<path d="M764.551 301.75C764.551 301.75 765.411 310.785 765.841 311.215C766.272 311.645 759.389 319.82 759.389 319.82L753.366 314.227C753.366 314.227 753.796 306.052 752.505 304.331C751.215 302.61 764.551 301.75 764.551 301.75Z" fill="#F8D3B1"/>
<path d="M780.468 466.531V474.275L783.479 474.706L787.781 473.415L786.491 465.24L780.468 466.531Z" fill="#3F3D56"/>
<path d="M784.34 470.403C784.34 470.403 785.63 466.961 787.781 467.392C789.932 467.822 790.363 470.403 790.363 470.403C790.363 470.403 792.083 476.857 794.665 479.008C797.246 481.159 799.827 486.752 794.665 487.613C789.502 488.473 785.2 486.322 785.2 485.892C785.2 485.462 783.91 482.88 781.759 482.45C779.608 482.02 777.887 481.59 777.887 479.869C777.887 478.148 779.178 476.427 779.178 476.427C779.178 476.427 779.608 468.266 780.468 469.335C781.063 470.179 781.5 471.124 781.759 472.124L784.34 470.403Z" fill="#2F2E41"/>
<path d="M761.97 462.66L763.69 469.113L759.389 469.974L757.238 467.823L756.808 462.229L761.97 462.66Z" fill="#3F3D56"/>
<path d="M762.4 468.253C762.4 468.253 760.679 466.962 759.819 466.962H758.528C758.528 466.962 758.528 463.95 756.377 463.95C754.226 463.95 754.657 466.101 754.657 466.101C754.657 466.101 749.924 473.415 748.634 474.706C747.343 475.997 740.46 479.869 746.053 481.59C751.645 483.311 755.517 483.311 758.098 480.299C758.098 480.299 760.679 479.009 762.4 479.009C764.121 479.009 766.272 478.148 766.272 476.857C766.272 475.567 764.981 472.985 764.981 472.985C764.981 472.985 764.121 465.241 763.691 466.101C763.26 466.962 762.4 468.253 762.4 468.253Z" fill="#2F2E41"/>
<path d="M780.898 363.704V377.902C780.898 377.902 785.63 405.437 785.63 414.472C785.63 423.507 792.944 466.531 789.502 467.391C786.061 468.252 777.887 469.543 777.457 468.252C777.027 466.961 774.015 426.089 773.585 425.658C773.155 425.228 764.121 391.239 764.121 391.239L762.4 391.67L761.54 430.391C761.54 430.391 765.842 465.24 763.691 465.24C761.54 465.24 752.506 464.81 752.506 462.229C752.506 459.647 747.773 411.891 747.773 411.891C747.773 411.891 742.181 374.03 744.332 370.158C746.483 366.286 746.483 364.134 746.483 364.134L780.898 363.704Z" fill="#2F2E41"/>
<path d="M757.453 308.419C752.701 308.419 748.849 304.566 748.849 299.814C748.849 295.061 752.701 291.209 757.453 291.209C762.205 291.209 766.057 295.061 766.057 299.814C766.057 304.566 762.205 308.419 757.453 308.419Z" fill="#FBDBBE"/>
<path d="M759.389 314.657C759.389 314.657 764.766 310.14 765.196 308.419C765.196 308.419 767.993 311.215 767.993 311.646C767.993 312.076 780.038 313.367 783.049 316.809C786.061 320.25 788.642 327.565 788.642 327.565L781.329 341.332C781.329 341.332 780.898 349.076 780.898 349.937C780.898 350.797 783.049 364.565 782.189 364.995C781.329 365.425 772.725 369.728 765.411 368.867C758.098 368.007 750.785 366.716 748.634 366.716C746.483 366.716 744.762 367.577 744.762 366.716C744.762 365.856 746.053 364.135 746.053 363.274C746.053 362.414 746.483 360.263 746.483 358.972C746.483 357.681 747.343 355.53 747.343 353.809C747.343 352.088 737.879 328.855 737.879 328.855C737.879 328.855 738.309 321.541 745.192 318.099C752.075 314.657 752.936 313.367 752.936 313.367C752.936 313.367 753.07 310.785 753.433 310.785C753.796 310.785 755.087 314.657 758.528 315.088L759.389 314.657Z" fill="#CDD6E1"/>
<path d="M782.619 371.879L779.608 376.612L771.864 374.891L777.457 368.438L782.619 371.879Z" fill="#FBDBBE"/>
<path d="M740.46 325.413L737.879 328.855C737.879 328.855 732.717 353.809 733.577 362.844C734.437 371.879 735.298 378.763 735.298 378.763C735.298 378.763 733.577 385.216 734.868 385.216C736.158 385.216 743.902 385.646 743.902 384.356C743.902 383.065 743.041 374.89 743.041 374.89L745.192 355.96L749.924 349.506L740.46 325.413Z" fill="#CDD6E1"/>
<path d="M763.297 295.637C762.769 295.414 762.16 295.595 761.595 295.5C760.932 295.388 760.338 294.896 759.668 294.958C759.351 295.017 759.043 295.117 758.751 295.256C758.605 295.325 758.446 295.363 758.285 295.369C758.123 295.375 757.962 295.348 757.812 295.29C757.74 295.256 757.676 295.207 757.626 295.146C757.575 295.085 757.538 295.014 757.519 294.937C757.499 294.86 757.497 294.78 757.512 294.702C757.528 294.625 757.56 294.551 757.607 294.488C757.041 294.438 756.505 294.207 756.079 293.83C755.994 293.742 755.896 293.668 755.787 293.611C755.661 293.578 755.529 293.571 755.401 293.591C755.272 293.611 755.148 293.658 755.038 293.728L754.054 294.181C753.832 294.26 753.637 294.399 753.491 294.584C753.374 294.766 753.351 295.012 753.185 295.152C752.974 295.33 752.657 295.243 752.381 295.26C752.13 295.285 751.897 295.4 751.726 295.585C751.555 295.77 751.457 296.011 751.452 296.263C751.456 296.552 751.561 296.907 751.333 297.083C751.2 297.186 751.012 297.17 750.857 297.233C750.455 297.396 750.453 297.956 750.512 298.386C750.572 298.817 750.543 299.384 750.129 299.517C749.838 299.61 749.54 299.411 749.238 299.367C748.781 299.3 748.359 299.585 747.953 299.804C747.546 300.022 747.006 300.17 746.654 299.872C746.327 299.594 746.348 299.087 746.438 298.667C746.567 298.066 746.779 297.485 747.069 296.941C747.176 296.782 747.239 296.596 747.252 296.404C747.227 296.269 747.174 296.141 747.097 296.028C747.019 295.914 746.918 295.819 746.801 295.747C746.303 295.354 745.73 294.958 745.569 294.344C745.451 293.893 745.584 293.418 745.573 292.952C745.561 292.386 745.336 291.821 745.441 291.265C745.633 290.255 746.756 289.769 747.481 289.042C748.478 288.041 748.801 286.442 749.977 285.661C750.918 285.036 752.148 285.11 753.219 284.753C754.396 284.36 755.343 283.458 756.504 283.02C757.138 282.786 757.815 282.696 758.488 282.755C759.161 282.814 759.812 283.021 760.395 283.361C760.742 283.618 761.128 283.816 761.539 283.946C761.885 283.986 762.235 283.982 762.58 283.934C763.266 283.898 763.95 284.04 764.566 284.344C764.802 284.438 764.998 284.61 765.122 284.832C765.33 285.293 765.028 286.015 765.484 286.236C765.696 286.338 765.947 286.24 766.183 286.245C766.642 286.255 766.995 286.654 767.213 287.058C767.383 287.485 767.628 287.878 767.935 288.22C768.496 288.711 769.515 288.792 769.661 289.523C769.664 289.833 769.646 290.142 769.609 290.45C769.651 291.097 770.344 291.59 770.308 292.238C770.266 292.986 769.317 293.351 769.063 294.056C768.869 294.592 769.124 295.172 769.299 295.715C769.474 296.258 769.527 296.953 769.075 297.301C768.897 297.437 768.669 297.493 768.488 297.624C768.021 297.964 768.027 298.651 768.078 299.228C768.108 299.347 768.109 299.472 768.079 299.592C768.049 299.712 767.991 299.822 767.908 299.914C767.831 299.961 767.745 299.991 767.655 300.001C767.566 300.012 767.475 300.004 767.389 299.977C767.108 299.908 766.844 299.784 766.613 299.61C766.382 299.436 766.189 299.217 766.045 298.966C765.895 298.716 765.864 298.497 765.591 298.365C765.405 298.275 765.179 298.355 764.99 298.239C764.091 297.685 764.401 296.105 763.297 295.637Z" fill="#2F2E41"/>
<path d="M787.351 326.273L788.642 327.564C788.642 327.564 796.385 350.797 793.804 355.96C791.223 361.123 786.061 374.03 784.34 373.6C782.619 373.169 776.596 369.297 776.596 368.867C776.596 368.437 783.91 356.39 783.91 356.39C783.91 356.39 784.77 353.809 784.34 353.378C783.91 352.948 783.91 353.378 784.34 352.518C784.77 351.657 784.77 352.518 783.91 351.657C783.049 350.797 783.049 350.797 783.049 350.367C783.049 349.937 780.468 339.181 780.468 339.181L787.351 326.273Z" fill="#CDD6E1"/>
<path d="M780.683 376.827L771.219 373.815L769.928 376.827L780.253 378.978L780.683 376.827Z" fill="#2F2E41"/>
<path opacity="0.1" d="M780.683 376.827L771.219 373.815L769.928 376.827L780.253 378.978L780.683 376.827Z" fill="black"/>
<path opacity="0.1" d="M767.778 311.861L760.464 317.885L759.604 316.594L767.778 311.861Z" fill="black"/>
<path opacity="0.1" d="M753.151 313.582L758.313 316.593L757.883 317.884L753.151 313.582Z" fill="black"/>
<path d="M105.36 95.52V132.56H110.4V95.52H105.36ZM100.4 109.76V114.04H106.56V109.76H100.4ZM97.08 96.16V130.8H102V96.16H97.08ZM79.64 119.84V124.2H82.24C87 124.2 90.92 124.08 95.4 123.2L95 118.88C90.6 119.68 86.8 119.84 82.24 119.84H79.64ZM79.64 99.8V121.92H84.92V104.08H93.32V99.8H79.64ZM119.237 97.68V101.88H142.477V97.68H119.237ZM115.437 113.44V117.72H148.917V113.44H115.437ZM129.317 116.44V132.6H134.677V116.44H129.317ZM139.757 97.68V100.96C139.757 104.8 139.757 109.2 138.317 115.4L143.557 116C144.997 109.44 144.997 104.96 144.997 100.96V97.68H139.757ZM162.195 123.88V128.24H195.715V123.88H162.195ZM176.115 115.64V125.04H181.395V115.64H176.115ZM175.915 97.56V100.24C175.915 105.36 171.395 111.04 162.955 112.4L165.155 116.84C174.835 115.08 180.555 108.12 180.555 100.24V97.56H175.915ZM176.955 97.56V100.24C176.955 108.24 182.675 115.04 192.395 116.84L194.595 112.4C186.115 111.04 181.595 105.48 181.595 100.24V97.56H176.955ZM198.992 123.92V128.28H232.512V123.92H198.992ZM201.552 98.72V102.96H229.752V98.72H201.552ZM201.712 114.04V118.32H229.632V114.04H201.712ZM206.592 102.64V114.44H211.912V102.64H206.592ZM219.432 102.64V114.44H224.712V102.64H219.432ZM239.708 114.6V118.76H265.748V114.6H239.708ZM235.788 124V128.32H269.308V124H235.788ZM239.708 98.2V115.76H245.108V102.48H265.428V98.2H239.708ZM243.468 106.36V110.48H264.588V106.36H243.468ZM281.745 97.6C276.985 97.6 273.545 100.48 273.545 104.6C273.545 108.72 276.985 111.6 281.745 111.6C286.465 111.6 289.945 108.72 289.945 104.6C289.945 100.48 286.465 97.6 281.745 97.6ZM281.745 101.52C283.785 101.52 285.225 102.64 285.225 104.6C285.225 106.56 283.785 107.68 281.745 107.68C279.665 107.68 278.225 106.56 278.225 104.6C278.225 102.64 279.665 101.52 281.745 101.52ZM299.905 95.52V132.56H304.945V95.52H299.905ZM292.505 96.12V130.88H297.465V96.12H292.505ZM286.665 119.36V123.36H294.105V119.36H286.665ZM279.145 115.64V129.68H284.185V115.64H279.145ZM272.585 117.88C277.425 117.88 285.025 117.76 291.065 116.56L290.665 112.68C284.865 113.52 276.945 113.6 271.985 113.6L272.585 117.88ZM319.502 98.08C313.942 98.08 309.942 103.2 309.942 111.28C309.942 119.44 313.942 124.56 319.502 124.56C325.022 124.56 329.062 119.44 329.062 111.28C329.062 103.2 325.022 98.08 319.502 98.08ZM319.502 102.92C322.222 102.92 323.982 105.84 323.982 111.28C323.982 116.8 322.222 119.76 319.502 119.76C316.822 119.76 315.022 116.8 315.022 111.28C315.022 105.84 316.822 102.92 319.502 102.92ZM335.142 95.48V132.64H340.422V95.48H335.142ZM327.502 108.84V113.12H337.382V108.84H327.502ZM357.22 99V123.56H374.94V99H357.22ZM369.7 103.16V119.36H362.46V103.16H369.7ZM379.78 95.52V132.56H385.14V95.52H379.78ZM383.94 109.48V113.88H390.5V109.48H383.94ZM418.297 95.48V132.64H423.657V95.48H418.297ZM403.697 98.08C398.097 98.08 393.977 103.2 393.977 111.28C393.977 119.44 398.097 124.56 403.697 124.56C409.297 124.56 413.417 119.44 413.417 111.28C413.417 103.2 409.297 98.08 403.697 98.08ZM403.697 102.92C406.457 102.92 408.297 105.84 408.297 111.28C408.297 116.8 406.457 119.76 403.697 119.76C400.937 119.76 399.057 116.8 399.057 111.28C399.057 105.84 400.937 102.92 403.697 102.92ZM443.454 97.64V100.32C443.454 105.64 438.854 111.52 430.494 112.96L432.774 117.36C442.374 115.48 448.094 108.36 448.094 100.32V97.64H443.454ZM444.534 97.64V100.32C444.534 108.48 450.214 115.48 459.814 117.36L462.094 112.96C453.694 111.52 449.134 105.76 449.134 100.32V97.64H444.534ZM429.734 123.72V128.04H463.254V123.72H429.734ZM492.291 95.48V132.64H497.571V95.48H492.291ZM485.931 108.52V112.84H492.891V108.52H485.931ZM468.171 119.96V124.28H471.131C477.371 124.28 482.171 124.12 487.531 123.28L487.051 119.04C481.811 119.88 477.251 119.96 471.131 119.96H468.171ZM468.171 98.6V121.32H473.451V102.92H485.331V98.6H468.171ZM472.251 108.92V113.08H484.051V108.92H472.251ZM506.728 98.64V102.92H530.208V98.64H506.728ZM503.328 123.8V128.12H536.808V123.8H503.328ZM515.168 111.08V125.92H520.488V111.08H515.168ZM528.288 98.64V102.2C528.288 106.64 528.288 112 526.808 119.36L532.128 119.96C533.608 112.04 533.608 106.84 533.608 102.2V98.64H528.288Z" fill="black"/>
<path d="M78.71 173.148V174.408H79.952C83.048 174.408 85.01 174.3 87.35 173.868L87.188 172.644C84.92 173.076 82.976 173.148 79.952 173.148H78.71ZM78.71 163.68V173.616H80.186V164.904H86.108V163.68H78.71ZM89.816 162.132V178.44H91.31V162.132H89.816ZM85.154 168.018V169.26H90.428V168.018H85.154ZM111.037 168.612V169.872H114.043V168.612H111.037ZM109.939 162.114V178.404H111.451V162.114H109.939ZM99.571 163.716V173.796H101.065V163.716H99.571ZM99.571 173.022V174.282H100.867C103.333 174.282 105.835 174.12 108.607 173.544L108.427 172.302C105.745 172.86 103.279 173.022 100.867 173.022H99.571ZM115.482 170.682V171.906H130.188V170.682H115.482ZM117.39 176.82V178.044H128.568V176.82H117.39ZM117.39 173.328V177.198H118.884V173.328H117.39ZM122.844 162.672C119.352 162.672 117.12 163.896 117.12 165.93C117.12 167.946 119.352 169.17 122.844 169.17C126.318 169.17 128.568 167.946 128.568 165.93C128.568 163.896 126.318 162.672 122.844 162.672ZM122.844 163.896C125.4 163.896 127.038 164.652 127.038 165.93C127.038 167.208 125.4 167.964 122.844 167.964C120.288 167.964 118.65 167.208 118.65 165.93C118.65 164.652 120.288 163.896 122.844 163.896ZM142.949 167.946V169.188H146.063V167.946H142.949ZM139.907 163.662V166.758C139.907 169.548 138.575 172.464 136.343 173.778L137.279 174.912C139.655 173.454 141.077 170.16 141.077 166.758V163.662H139.907ZM140.195 163.662V166.704C140.195 169.872 141.509 173.112 143.849 174.552L144.713 173.382C142.571 172.086 141.347 169.314 141.347 166.704V163.662H140.195ZM148.925 162.132V178.404H150.365V162.132H148.925ZM145.631 162.474V177.594H147.035V162.474H145.631ZM157.041 162.978V164.634C157.041 167.118 155.457 169.314 153.009 170.214L153.801 171.42C156.519 170.358 158.283 167.766 158.283 164.634V162.978H157.041ZM157.311 162.978V164.742C157.311 167.568 159.093 169.98 161.703 170.952L162.495 169.782C160.155 168.972 158.535 166.938 158.535 164.742V162.978H157.311ZM164.223 162.132V171.996H165.717V162.132H164.223ZM165.303 166.326V167.586H168.129V166.326H165.303ZM160.533 172.446C157.203 172.446 155.187 173.544 155.187 175.416C155.187 177.288 157.203 178.368 160.533 178.368C163.863 178.368 165.879 177.288 165.879 175.416C165.879 173.544 163.863 172.446 160.533 172.446ZM160.533 173.634C162.945 173.634 164.421 174.282 164.421 175.416C164.421 176.55 162.945 177.198 160.533 177.198C158.121 177.198 156.645 176.55 156.645 175.416C156.645 174.282 158.121 173.634 160.533 173.634ZM177.002 162.402C173.402 162.402 171.278 163.41 171.278 165.228C171.278 167.046 173.402 168.054 177.002 168.054C180.584 168.054 182.726 167.046 182.726 165.228C182.726 163.41 180.584 162.402 177.002 162.402ZM177.002 163.536C179.648 163.536 181.178 164.148 181.178 165.228C181.178 166.308 179.648 166.92 177.002 166.92C174.338 166.92 172.808 166.308 172.808 165.228C172.808 164.148 174.338 163.536 177.002 163.536ZM169.64 169.134V170.34H184.346V169.134H169.64ZM171.422 171.726V172.878H180.998V174.318H171.458V177.378H172.934V175.398H182.474V171.726H171.422ZM171.458 177.054V178.224H182.96V177.054H171.458ZM191.365 163.59V171.132H198.835V163.59H191.365ZM197.377 164.796V169.926H192.823V164.796H197.377ZM201.823 162.114V174.048H203.317V162.114H201.823ZM202.849 167.082V168.324H205.729V167.082H202.849ZM193.183 176.82V178.044H204.055V176.82H193.183ZM193.183 172.914V177.342H194.677V172.914H193.183ZM207.257 168.918V170.142H221.963V168.918H207.257ZM209.201 166.398V167.604H220.217V166.398H209.201ZM209.201 162.654V167.37H210.677V163.878H220.037V162.654H209.201ZM209.021 171.546V172.716H218.597V174.264H209.057V177.432H210.533V175.38H220.073V171.546H209.021ZM209.057 177.036V178.224H220.559V177.036H209.057ZM235.432 173.704C235.432 173.44 235.391 173.206 235.309 173.001C235.232 172.796 235.095 172.608 234.896 172.438C234.696 172.269 234.415 172.104 234.052 171.946C233.694 171.782 233.237 171.615 232.681 171.445C232.071 171.258 231.509 171.05 230.993 170.821C230.483 170.587 230.038 170.317 229.657 170.013C229.276 169.702 228.98 169.348 228.77 168.949C228.559 168.545 228.453 168.079 228.453 167.552C228.453 167.03 228.562 166.556 228.778 166.128C229.001 165.7 229.314 165.331 229.719 165.021C230.129 164.704 230.612 164.461 231.169 164.291C231.726 164.115 232.341 164.027 233.015 164.027C233.964 164.027 234.781 164.203 235.467 164.555C236.158 164.906 236.688 165.378 237.058 165.97C237.433 166.562 237.62 167.215 237.62 167.93H235.432C235.432 167.508 235.341 167.136 235.159 166.813C234.983 166.485 234.714 166.228 234.351 166.04C233.993 165.853 233.539 165.759 232.988 165.759C232.467 165.759 232.033 165.838 231.688 165.996C231.342 166.154 231.084 166.368 230.914 166.638C230.744 166.907 230.659 167.212 230.659 167.552C230.659 167.792 230.715 168.012 230.826 168.211C230.938 168.404 231.107 168.586 231.336 168.756C231.564 168.92 231.852 169.075 232.197 169.222C232.543 169.368 232.95 169.509 233.419 169.644C234.128 169.854 234.746 170.089 235.273 170.347C235.801 170.599 236.24 170.886 236.592 171.208C236.943 171.53 237.207 171.896 237.383 172.307C237.559 172.711 237.646 173.171 237.646 173.687C237.646 174.226 237.538 174.712 237.321 175.146C237.104 175.573 236.794 175.939 236.39 176.244C235.991 176.543 235.511 176.774 234.948 176.938C234.392 177.097 233.771 177.176 233.085 177.176C232.47 177.176 231.863 177.094 231.266 176.93C230.674 176.766 230.135 176.517 229.648 176.183C229.162 175.843 228.775 175.421 228.488 174.917C228.201 174.407 228.058 173.812 228.058 173.133H230.264C230.264 173.549 230.334 173.903 230.475 174.196C230.621 174.489 230.823 174.729 231.081 174.917C231.339 175.099 231.638 175.233 231.978 175.321C232.323 175.409 232.692 175.453 233.085 175.453C233.601 175.453 234.031 175.38 234.377 175.233C234.729 175.087 234.992 174.882 235.168 174.618C235.344 174.354 235.432 174.05 235.432 173.704ZM242.806 174.126L245.354 164.203H246.69L246.541 166.761L243.816 177H242.428L242.806 174.126ZM240.898 164.203L242.964 174.047L243.148 177H241.672L238.71 164.203H240.898ZM249.582 174.021L251.621 164.203H253.818L250.856 177H249.38L249.582 174.021ZM247.209 164.203L249.731 174.152L250.101 177H248.712L246.031 166.761L245.891 164.203H247.209ZM266.878 162.15V174.03H268.39V162.15H266.878ZM257.932 176.82V178.044H268.876V176.82H257.932ZM257.932 172.806V177.234H259.408V172.806H257.932ZM259.66 163.266C257.23 163.266 255.412 164.922 255.412 167.28C255.412 169.62 257.23 171.294 259.66 171.294C262.09 171.294 263.89 169.62 263.89 167.28C263.89 164.922 262.09 163.266 259.66 163.266ZM259.66 164.562C261.244 164.562 262.45 165.678 262.45 167.28C262.45 168.864 261.244 169.98 259.66 169.98C258.076 169.98 256.87 168.864 256.87 167.28C256.87 165.678 258.076 164.562 259.66 164.562ZM284.049 162.132V178.404H285.471V162.132H284.049ZM281.475 168.684V169.944H284.607V168.684H281.475ZM280.503 162.474V177.594H281.907V162.474H280.503ZM274.959 164.652V166.524C274.959 169.836 273.771 172.608 271.431 173.904L272.349 175.056C274.851 173.562 276.129 170.43 276.129 166.524V164.652H274.959ZM275.229 164.652V166.524C275.229 170.106 276.525 173.112 279.009 174.48L279.891 173.328C277.605 172.158 276.399 169.512 276.399 166.524V164.652H275.229ZM271.809 164.04V165.282H279.369V164.04H271.809ZM299.168 162.114V178.404H300.68V162.114H299.168ZM300.266 168.72V169.962H303.272V168.72H300.266ZM295.01 163.878V164.112C295.01 168.414 292.76 171.888 288.26 174.174L289.088 175.326C294.344 172.68 296.468 168.504 296.468 163.878H295.01ZM289.016 163.878V165.102H295.784V163.878H289.016ZM309.211 175.092V176.334H323.953V175.092H309.211ZM315.799 170.88V175.434H317.293V170.88H315.799ZM310.921 163.482V171.15H322.153V163.482H310.921ZM320.713 164.688V169.944H312.379V164.688H320.713ZM337.577 162.114V178.422H339.071V162.114H337.577ZM330.485 163.374C328.091 163.374 326.363 165.588 326.363 169.044C326.363 172.518 328.091 174.732 330.485 174.732C332.897 174.732 334.625 172.518 334.625 169.044C334.625 165.588 332.897 163.374 330.485 163.374ZM330.485 164.724C332.087 164.724 333.185 166.416 333.185 169.044C333.185 171.69 332.087 173.418 330.485 173.418C328.901 173.418 327.785 171.69 327.785 169.044C327.785 166.416 328.901 164.724 330.485 164.724ZM344.308 167.01V168.234H355.36V167.01H344.308ZM342.31 170.412V171.636H357.07V170.412H342.31ZM344.308 162.726V167.622H345.784V162.726H344.308ZM344.2 176.784V178.008H355.45V176.784H344.2ZM344.2 173.256V177.108H345.676V173.256H344.2ZM375.735 162.132V178.404H377.175V162.132H375.735ZM372.981 168.648V169.89H376.113V168.648H372.981ZM372.045 162.492V177.576H373.449V162.492H372.045ZM363.945 173.148V174.39H365.007C367.455 174.39 369.093 174.318 371.037 173.904L370.893 172.662C369.003 173.058 367.383 173.148 365.007 173.148H363.945ZM363.945 164.112V173.706H365.421V165.336H369.993V164.112H363.945ZM381.763 163.194V164.4H391.933V163.194H381.763ZM379.927 170.178V171.402H394.633V170.178H379.927ZM386.497 170.988V178.422H387.991V170.988H386.497ZM391.231 163.194V164.598C391.231 166.236 391.231 168.126 390.601 170.754L392.077 170.952C392.689 168.198 392.689 166.29 392.689 164.598V163.194H391.231ZM396.486 175.056V176.298H411.228V175.056H396.486ZM403.038 171.114V175.47H404.514V171.114H403.038ZM403.002 163.212V164.472C403.002 167.154 399.924 169.548 397.062 170.07L397.692 171.312C400.968 170.628 404.298 167.946 404.298 164.472V163.212H403.002ZM403.272 163.212V164.472C403.272 167.946 406.602 170.628 409.878 171.312L410.526 170.07C407.664 169.548 404.568 167.172 404.568 164.472V163.212H403.272ZM413.045 175.074V176.316H427.787V175.074H413.045ZM414.323 163.752V164.976H426.401V163.752H414.323ZM414.359 170.628V171.852H426.383V170.628H414.359ZM416.861 164.886V170.754H418.355V164.886H416.861ZM422.405 164.886V170.754H423.881V164.886H422.405ZM431.493 170.898V172.104H442.671V170.898H431.493ZM429.603 175.074V176.316H444.345V175.074H429.603ZM431.493 163.518V171.276H433.005V164.742H442.491V163.518H431.493ZM432.519 167.154V168.342H442.149V167.154H432.519ZM450.248 163.176C448.196 163.176 446.72 164.382 446.72 166.164C446.72 167.946 448.196 169.17 450.248 169.17C452.3 169.17 453.794 167.946 453.794 166.164C453.794 164.382 452.3 163.176 450.248 163.176ZM450.248 164.31C451.526 164.31 452.444 165.066 452.444 166.164C452.444 167.262 451.526 168.036 450.248 168.036C448.97 168.036 448.052 167.262 448.052 166.164C448.052 165.066 448.97 164.31 450.248 164.31ZM458.492 162.132V178.404H459.932V162.132H458.492ZM455.432 162.492V177.558H456.836V162.492H455.432ZM452.39 172.806V173.976H455.936V172.806H452.39ZM449.456 171.078V177.09H450.896V171.078H449.456ZM446.126 171.672C448.322 171.672 451.76 171.636 454.514 171.096L454.388 169.998C451.76 170.394 448.16 170.43 445.928 170.43L446.126 171.672ZM467.058 163.374C464.682 163.374 463.008 165.588 463.008 169.044C463.008 172.518 464.682 174.732 467.058 174.732C469.416 174.732 471.108 172.518 471.108 169.044C471.108 165.588 469.416 163.374 467.058 163.374ZM467.058 164.724C468.624 164.724 469.686 166.416 469.686 169.044C469.686 171.69 468.624 173.418 467.058 173.418C465.492 173.418 464.43 171.69 464.43 169.044C464.43 166.416 465.492 164.724 467.058 164.724ZM474.636 162.114V178.422H476.112V162.114H474.636ZM470.622 168.324V169.548H475.284V168.324H470.622ZM480.827 163.752V164.994H491.303V163.752H480.827ZM479.279 174.894V176.136H493.985V174.894H479.279ZM484.985 169.08V175.506H486.479V169.08H484.985ZM490.745 163.752V165.372C490.745 167.316 490.745 169.602 490.133 172.716L491.627 172.914C492.221 169.62 492.221 167.388 492.221 165.372V163.752H490.745ZM495.838 169.872V171.114H510.544V169.872H495.838ZM497.692 167.118V168.324H508.834V167.118H497.692ZM497.692 162.78V167.694H499.168V164.004H508.708V162.78H497.692ZM503.164 172.518C499.689 172.518 497.583 173.58 497.583 175.452C497.583 177.324 499.689 178.368 503.164 178.368C506.638 178.368 508.744 177.324 508.744 175.452C508.744 173.58 506.638 172.518 503.164 172.518ZM503.164 173.67C505.72 173.67 507.232 174.318 507.232 175.452C507.232 176.568 505.72 177.198 503.164 177.198C500.626 177.198 499.096 176.568 499.096 175.452C499.096 174.318 500.626 173.67 503.164 173.67ZM512.432 163.842V165.066H522.044V163.842H512.432ZM517.238 165.894C514.898 165.894 513.332 167.046 513.332 168.846C513.332 170.628 514.898 171.762 517.238 171.762C519.542 171.762 521.126 170.628 521.126 168.846C521.126 167.046 519.542 165.894 517.238 165.894ZM517.238 167.064C518.696 167.064 519.704 167.748 519.704 168.846C519.704 169.908 518.696 170.61 517.238 170.61C515.744 170.61 514.754 169.908 514.754 168.846C514.754 167.748 515.744 167.064 517.238 167.064ZM523.52 162.132V172.302H525.014V162.132H523.52ZM524.6 166.614V167.856H527.426V166.614H524.6ZM514.448 173.184V174.408H523.52V178.404H525.014V173.184H514.448ZM516.482 162.042V164.526H517.976V162.042H516.482ZM530.467 163.752V164.994H540.943V163.752H530.467ZM528.955 174.894V176.136H543.661V174.894H528.955ZM532.555 169.512V175.344H534.031V169.512H532.555ZM540.457 163.752V165.552C540.457 167.568 540.457 169.728 539.881 172.608L541.375 172.788C541.933 169.746 541.933 167.622 541.933 165.552V163.752H540.457ZM536.569 169.512V175.344H538.045V169.512H536.569Z" fill="black"/>
<path d="M92.072 441.016H87V439.64H85.688V441.016H80.52V442.04H92.072V441.016ZM82.728 450.904H89.96V453H82.728V450.904ZM81.448 453.992H91.24V449.912H81.448V453.992ZM83.08 444.632C83.08 443.928 84.248 443.528 86.344 443.528C88.408 443.528 89.576 443.928 89.576 444.632C89.576 445.352 88.408 445.752 86.344 445.752C84.248 445.752 83.08 445.352 83.08 444.632ZM87 447.752V446.664C89.528 446.568 90.968 445.864 90.968 444.632C90.968 443.304 89.288 442.6 86.344 442.6C83.368 442.6 81.704 443.304 81.704 444.632C81.704 445.864 83.128 446.568 85.688 446.664V447.752H79.848V448.792H92.808V447.752H87ZM97.0788 442.712H98.8708V449.448C98.2628 449.48 97.6708 449.496 97.0788 449.512V442.712ZM100.071 442.712H101.255V441.656H94.6948V442.712H95.8788V449.544C95.3348 449.56 94.8548 449.56 94.4228 449.56L94.5508 450.648C96.4228 450.648 99.4308 450.584 101.655 450.168L101.575 449.208C101.111 449.272 100.583 449.32 100.071 449.368V442.712ZM102.791 445.304H100.823V446.456H102.791V453.432H104.023V440.184H102.791V445.304ZM105.559 439.848V454.184H106.823V439.848H105.559ZM119.718 439.832V454.216H121.03V439.832H119.718ZM113.462 440.936C111.334 440.936 109.814 442.888 109.814 445.944C109.814 449 111.334 450.952 113.462 450.952C115.59 450.952 117.11 449 117.11 445.944C117.11 442.888 115.59 440.936 113.462 440.936ZM113.462 442.12C114.854 442.12 115.846 443.624 115.846 445.944C115.846 448.28 114.854 449.784 113.462 449.784C112.054 449.784 111.062 448.28 111.062 445.944C111.062 443.624 112.054 442.12 113.462 442.12ZM129.124 442.392H132.5V441.304H124.484V442.392H127.812V444.216C127.812 446.696 126.068 449.4 124.004 450.376L124.772 451.432C126.404 450.6 127.812 448.792 128.468 446.696C129.156 448.664 130.564 450.312 132.228 451.08L132.964 450.024C130.852 449.128 129.124 446.648 129.124 444.216V442.392ZM134.436 439.848V454.184H135.748V439.848H134.436ZM148.675 449.656H144.579V445.88H148.675V449.656ZM148.675 444.84H144.579V441.048H143.283V450.728H149.955V441.048H148.675V444.84ZM156.115 445.48H153.747V439.848H152.435V454.168H153.747V446.584H156.115V445.48ZM164.578 451.336V448.632H169.17V447.576H160.338V445.256H168.834V440.888H159.01V441.96H167.554V444.2H159.042V448.632H163.25V451.336H157.41V452.408H170.45V451.336H164.578ZM172.913 441.368V442.456H178.177C177.873 445.848 175.905 448.6 172.241 450.44L172.961 451.464C177.601 449.144 179.473 445.448 179.473 441.368H172.913ZM185.489 445.656H183.185V439.832H181.873V454.184H183.185V446.744H185.489V445.656ZM187.712 441.384V442.44H193.104C192.832 445.848 190.912 448.6 187.056 450.44L187.76 451.512C192.528 449.176 194.432 445.528 194.432 441.384H187.712ZM197.328 439.832V454.184H198.64V439.832H197.328Z" fill="black"/>
<path d="M79.8 286.272V287.376H92.904V286.272H79.8ZM85.624 282.768V286.64H86.936V282.768H85.624ZM85.592 275.744V276.864C85.592 279.248 82.856 281.376 80.312 281.84L80.872 282.944C83.784 282.336 86.744 279.952 86.744 276.864V275.744H85.592ZM85.832 275.744V276.864C85.832 279.952 88.792 282.336 91.704 282.944L92.28 281.84C89.736 281.376 86.984 279.264 86.984 276.864V275.744H85.832ZM94.5188 286.288V287.392H107.623V286.288H94.5188ZM95.6548 276.224V277.312H106.391V276.224H95.6548ZM95.6868 282.336V283.424H106.375V282.336H95.6868ZM97.9108 277.232V282.448H99.2388V277.232H97.9108ZM102.839 277.232V282.448H104.151V277.232H102.839ZM110.918 282.576V283.648H120.854V282.576H110.918ZM109.238 286.288V287.392H122.342V286.288H109.238ZM110.918 276.016V282.912H112.262V277.104H120.694V276.016H110.918ZM111.83 279.248V280.304H120.39V279.248H111.83ZM127.588 275.712C125.764 275.712 124.452 276.784 124.452 278.368C124.452 279.952 125.764 281.04 127.588 281.04C129.412 281.04 130.74 279.952 130.74 278.368C130.74 276.784 129.412 275.712 127.588 275.712ZM127.588 276.72C128.724 276.72 129.54 277.392 129.54 278.368C129.54 279.344 128.724 280.032 127.588 280.032C126.452 280.032 125.636 279.344 125.636 278.368C125.636 277.392 126.452 276.72 127.588 276.72ZM134.916 274.784V289.248H136.196V274.784H134.916ZM132.196 275.104V288.496H133.444V275.104H132.196ZM129.492 284.272V285.312H132.644V284.272H129.492ZM126.884 282.736V288.08H128.164V282.736H126.884ZM123.924 283.264C125.876 283.264 128.932 283.232 131.38 282.752L131.268 281.776C128.932 282.128 125.732 282.16 123.748 282.16L123.924 283.264ZM142.531 275.888C140.419 275.888 138.931 277.856 138.931 280.928C138.931 284.016 140.419 285.984 142.531 285.984C144.627 285.984 146.131 284.016 146.131 280.928C146.131 277.856 144.627 275.888 142.531 275.888ZM142.531 277.088C143.923 277.088 144.867 278.592 144.867 280.928C144.867 283.28 143.923 284.816 142.531 284.816C141.139 284.816 140.195 283.28 140.195 280.928C140.195 278.592 141.139 277.088 142.531 277.088ZM149.267 274.768V289.264H150.579V274.768H149.267ZM145.699 280.288V281.376H149.843V280.288H145.699ZM164.37 274.784V289.248H165.65V274.784H164.37ZM162.034 280.592V281.68H164.802V280.592H162.034ZM158.29 276.64V276.896C158.29 280.24 157.01 283.168 153.378 285.2L154.162 286.144C158.29 283.824 159.57 280.368 159.57 276.64H158.29ZM153.938 276.64V277.744H158.738V276.64H153.938ZM161.154 275.168V288.544H162.418V275.168H161.154ZM168.705 275.376V281.696H175.392V275.376H174.097V277.456H170.017V275.376H168.705ZM170.017 278.496H174.097V280.624H170.017V278.496ZM178.001 274.784V282.24H179.329V274.784H178.001ZM178.753 277.888V278.992H181.457V277.888H178.753ZM170.145 282.944V284H178.033V285.456H170.177V288.624H171.489V286.448H179.329V282.944H170.145ZM170.177 288.032V289.088H179.857V288.032H170.177ZM183.471 276.368V277.44H190.015V276.368H183.471ZM185.727 280.496V285.392H187.039V280.496H185.727ZM189.471 276.368V277.136C189.471 278.304 189.471 280.16 189.039 282.768L190.351 282.896C190.767 280.208 190.767 278.32 190.767 277.136V276.368H189.471ZM192.591 274.784V289.248H193.903V274.784H192.591ZM193.551 280.832V281.952H196.223V280.832H193.551ZM182.831 286.096C185.391 286.08 188.783 286.016 191.775 285.536L191.711 284.56C188.783 284.928 185.295 284.976 182.671 284.976L182.831 286.096ZM90.312 312.8V321.056H91.656V312.8H90.312ZM82.312 321.84V327.056H91.656V321.84H82.312ZM90.344 322.896V325.984H83.608V322.896H90.344ZM83.896 313.552C81.704 313.552 80.12 314.928 80.12 316.928C80.12 318.928 81.704 320.304 83.896 320.304C86.088 320.304 87.656 318.928 87.656 316.928C87.656 314.928 86.088 313.552 83.896 313.552ZM83.896 314.656C85.336 314.656 86.376 315.584 86.376 316.928C86.376 318.272 85.336 319.184 83.896 319.184C82.456 319.184 81.416 318.272 81.416 316.928C81.416 315.584 82.456 314.656 83.896 314.656ZM95.0308 314.208V323.616H100.567V314.208H99.3348V317.728H96.2948V314.208H95.0308ZM96.2948 318.8H99.3348V322.528H96.2948V318.8ZM105.527 312.784V327.248H106.807V312.784H105.527ZM100.343 318.272V319.376H103.127V318.272H100.343ZM102.663 313.088V326.528H103.927V313.088H102.663ZM119.734 312.784V327.28H121.062V312.784H119.734ZM110.166 322.56V323.68H111.334C114.246 323.68 116.134 323.6 118.342 323.184L118.198 322.064C116.054 322.464 114.198 322.56 111.334 322.56H110.166ZM110.166 314.16V322.976H111.478V315.264H116.998V314.16H110.166ZM125.604 319.712V320.8H135.54V319.712H125.604ZM123.956 324.192V325.296H137.06V324.192H123.956ZM125.604 314.112V320.192H126.932V315.216H135.396V314.112H125.604ZM138.675 324.272V325.376H151.779V324.272H138.675ZM144.499 320.768V324.64H145.811V320.768H144.499ZM144.467 313.744V314.864C144.467 317.248 141.731 319.376 139.187 319.84L139.747 320.944C142.659 320.336 145.619 317.952 145.619 314.864V313.744H144.467ZM144.707 313.744V314.864C144.707 317.952 147.667 320.336 150.579 320.944L151.155 319.84C148.611 319.376 145.859 317.264 145.859 314.864V313.744H144.707ZM153.394 324.288V325.392H166.498V324.288H153.394ZM154.53 314.224V315.312H165.266V314.224H154.53ZM154.562 320.336V321.424H165.25V320.336H154.562ZM156.786 315.232V320.448H158.114V315.232H156.786ZM161.714 315.232V320.448H163.026V315.232H161.714ZM169.793 320.576V321.648H179.729V320.576H169.793ZM168.113 324.288V325.392H181.217V324.288H168.113ZM169.793 314.016V320.912H171.137V315.104H179.569V314.016H169.793ZM170.705 317.248V318.304H179.265V317.248H170.705ZM186.463 313.712C184.639 313.712 183.327 314.784 183.327 316.368C183.327 317.952 184.639 319.04 186.463 319.04C188.287 319.04 189.615 317.952 189.615 316.368C189.615 314.784 188.287 313.712 186.463 313.712ZM186.463 314.72C187.599 314.72 188.415 315.392 188.415 316.368C188.415 317.344 187.599 318.032 186.463 318.032C185.327 318.032 184.511 317.344 184.511 316.368C184.511 315.392 185.327 314.72 186.463 314.72ZM193.791 312.784V327.248H195.071V312.784H193.791ZM191.071 313.104V326.496H192.319V313.104H191.071ZM188.367 322.272V323.312H191.519V322.272H188.367ZM185.759 320.736V326.08H187.039V320.736H185.759ZM182.799 321.264C184.751 321.264 187.807 321.232 190.255 320.752L190.143 319.776C187.807 320.128 184.607 320.16 182.623 320.16L182.799 321.264ZM201.406 313.888C199.294 313.888 197.806 315.856 197.806 318.928C197.806 322.016 199.294 323.984 201.406 323.984C203.502 323.984 205.006 322.016 205.006 318.928C205.006 315.856 203.502 313.888 201.406 313.888ZM201.406 315.088C202.798 315.088 203.742 316.592 203.742 318.928C203.742 321.28 202.798 322.816 201.406 322.816C200.014 322.816 199.07 321.28 199.07 318.928C199.07 316.592 200.014 315.088 201.406 315.088ZM208.142 312.768V327.264H209.454V312.768H208.142ZM204.574 318.288V319.376H208.718V318.288H204.574ZM212.909 314.368V315.44H219.453V314.368H212.909ZM215.165 318.496V323.392H216.477V318.496H215.165ZM218.909 314.368V315.136C218.909 316.304 218.909 318.16 218.477 320.768L219.789 320.896C220.205 318.208 220.205 316.32 220.205 315.136V314.368H218.909ZM222.029 312.784V327.248H223.341V312.784H222.029ZM222.989 318.832V319.952H225.661V318.832H222.989ZM212.269 324.096C214.829 324.08 218.221 324.016 221.213 323.536L221.149 322.56C218.221 322.928 214.733 322.976 212.109 322.976L212.269 324.096ZM90.312 350.8V361.36H91.656V350.8H90.312ZM82.36 363.84V364.928H92.088V363.84H82.36ZM82.36 360.272V364.208H83.672V360.272H82.36ZM83.896 351.792C81.736 351.792 80.12 353.264 80.12 355.36C80.12 357.44 81.736 358.928 83.896 358.928C86.056 358.928 87.656 357.44 87.656 355.36C87.656 353.264 86.056 351.792 83.896 351.792ZM83.896 352.944C85.304 352.944 86.376 353.936 86.376 355.36C86.376 356.768 85.304 357.76 83.896 357.76C82.488 357.76 81.416 356.768 81.416 355.36C81.416 353.936 82.488 352.944 83.896 352.944ZM100.999 359.904C97.9108 359.904 95.9588 360.912 95.9588 362.576C95.9588 364.224 97.9108 365.216 100.999 365.216C104.071 365.216 106.039 364.224 106.039 362.576C106.039 360.912 104.071 359.904 100.999 359.904ZM100.999 360.944C103.271 360.944 104.711 361.568 104.711 362.576C104.711 363.568 103.271 364.192 100.999 364.192C98.7268 364.192 97.2708 363.568 97.2708 362.576C97.2708 361.568 98.7268 360.944 100.999 360.944ZM96.0707 351.504V352.592H105.383V351.504H96.0707ZM94.5188 357.52V358.592H107.575V357.52H94.5188ZM99.8788 354.736V357.824H101.191V354.736H99.8788ZM104.615 351.504V352.736C104.615 353.872 104.615 354.928 104.215 356.416L105.527 356.576C105.911 355.072 105.911 353.904 105.911 352.736V351.504H104.615ZM113.062 352.848V355.2C113.062 357.696 111.318 360.416 109.222 361.408L109.99 362.464C112.294 361.328 114.134 358.256 114.134 355.2V352.848H113.062ZM113.318 352.848V355.2C113.318 358.208 115.174 361.024 117.51 362.112L118.262 361.056C116.134 360.144 114.39 357.648 114.39 355.2V352.848H113.318ZM109.702 352.256V353.376H117.782V352.256H109.702ZM119.734 350.784V365.248H121.062V350.784H119.734ZM125.732 354.8V355.888H135.54V354.8H125.732ZM125.732 351.072V355.28H127.044V351.072H125.732ZM123.956 357.568V358.64H137.028V357.568H123.956ZM130.468 359.936C127.38 359.936 125.508 360.88 125.508 362.576C125.508 364.24 127.38 365.2 130.468 365.2C133.556 365.2 135.428 364.24 135.428 362.576C135.428 360.88 133.556 359.936 130.468 359.936ZM130.468 360.976C132.74 360.976 134.084 361.552 134.084 362.576C134.084 363.568 132.74 364.144 130.468 364.144C128.212 364.144 126.852 363.568 126.852 362.576C126.852 361.552 128.212 360.976 130.468 360.976ZM142.644 362.272V363.376H155.748V362.272H142.644ZM148.468 358.768V362.64H149.78V358.768H148.468ZM148.436 351.744V352.864C148.436 355.248 145.7 357.376 143.156 357.84L143.716 358.944C146.628 358.336 149.588 355.952 149.588 352.864V351.744H148.436ZM148.676 351.744V352.864C148.676 355.952 151.636 358.336 154.548 358.944L155.124 357.84C152.58 357.376 149.828 355.264 149.828 352.864V351.744H148.676ZM157.363 362.288V363.392H170.467V362.288H157.363ZM158.499 352.224V353.312H169.235V352.224H158.499ZM158.531 358.336V359.424H169.219V358.336H158.531ZM160.755 353.232V358.448H162.083V353.232H160.755ZM165.683 353.232V358.448H166.995V353.232H165.683ZM173.761 358.576V359.648H183.697V358.576H173.761ZM172.081 362.288V363.392H185.185V362.288H172.081ZM173.761 352.016V358.912H175.105V353.104H183.537V352.016H173.761ZM174.673 355.248V356.304H183.233V355.248H174.673ZM190.432 351.712C188.608 351.712 187.296 352.784 187.296 354.368C187.296 355.952 188.608 357.04 190.432 357.04C192.256 357.04 193.584 355.952 193.584 354.368C193.584 352.784 192.256 351.712 190.432 351.712ZM190.432 352.72C191.568 352.72 192.384 353.392 192.384 354.368C192.384 355.344 191.568 356.032 190.432 356.032C189.296 356.032 188.48 355.344 188.48 354.368C188.48 353.392 189.296 352.72 190.432 352.72ZM197.76 350.784V365.248H199.04V350.784H197.76ZM195.04 351.104V364.496H196.288V351.104H195.04ZM192.336 360.272V361.312H195.488V360.272H192.336ZM189.728 358.736V364.08H191.008V358.736H189.728ZM186.768 359.264C188.72 359.264 191.776 359.232 194.224 358.752L194.112 357.776C191.776 358.128 188.576 358.16 186.592 358.16L186.768 359.264ZM205.375 351.888C203.263 351.888 201.775 353.856 201.775 356.928C201.775 360.016 203.263 361.984 205.375 361.984C207.471 361.984 208.975 360.016 208.975 356.928C208.975 353.856 207.471 351.888 205.375 351.888ZM205.375 353.088C206.767 353.088 207.711 354.592 207.711 356.928C207.711 359.28 206.767 360.816 205.375 360.816C203.983 360.816 203.039 359.28 203.039 356.928C203.039 354.592 203.983 353.088 205.375 353.088ZM212.111 350.768V365.264H213.423V350.768H212.111ZM208.543 356.288V357.376H212.687V356.288H208.543ZM216.878 352.368V353.44H223.422V352.368H216.878ZM219.134 356.496V361.392H220.446V356.496H219.134ZM222.878 352.368V353.136C222.878 354.304 222.878 356.16 222.446 358.768L223.758 358.896C224.174 356.208 224.174 354.32 224.174 353.136V352.368H222.878ZM225.998 350.784V365.248H227.31V350.784H225.998ZM226.958 356.832V357.952H229.63V356.832H226.958ZM216.238 362.096C218.798 362.08 222.19 362.016 225.182 361.536L225.118 360.56C222.19 360.928 218.702 360.976 216.078 360.976L216.238 362.096Z" fill="#2E2E2E"/>
<path d="M77 252H258" stroke="#EEB322"/>
<line x1="80" y1="454.75" x2="201" y2="454.75" stroke="black" stroke-width="0.5"/>
</svg>
