<svg width="850" height="530" viewBox="0 0 850 530" fill="none" xmlns="http://www.w3.org/2000/svg">
<rect width="850" height="530" rx="30" fill="white"/>
<mask id="mask0_3138_711" style="mask-type:alpha" maskUnits="userSpaceOnUse" x="0" y="0" width="850" height="530">
<rect width="850" height="530" rx="30" fill="white"/>
</mask>
<g mask="url(#mask0_3138_711)">
<rect x="405" y="595.957" width="861.808" height="592" transform="rotate(-51.6603 405 595.957)" fill="#FFB500"/>
</g>
<path d="M723.741 219L779.483 249.196C778.53 250.838 777.916 252.653 777.677 254.536C777.439 256.419 777.58 258.331 778.094 260.158C778.608 261.985 779.483 263.69 780.668 265.173C781.852 266.656 783.323 267.885 784.991 268.789C786.66 269.693 788.493 270.253 790.382 270.436C792.271 270.618 794.177 270.419 795.988 269.851C797.799 269.283 799.477 268.358 800.924 267.129C802.37 265.901 803.556 264.394 804.409 262.699L823.416 272.995L774.183 363.898L674.508 309.903L723.741 219Z" fill="#F2F2F2"/>
<path d="M792.593 267.827C786.237 267.827 781.085 262.674 781.085 256.318C781.085 249.962 786.237 244.81 792.593 244.81C798.948 244.81 804.1 249.962 804.1 256.318C804.1 262.674 798.948 267.827 792.593 267.827Z" fill="#0048FF"/>
<path d="M583.77 462.354L523.5 442.693C524.143 440.906 524.42 439.01 524.315 437.115C524.211 435.22 523.727 433.365 522.893 431.66C522.058 429.955 520.89 428.435 519.458 427.191C518.026 425.946 516.358 425.001 514.554 424.412C512.75 423.824 510.846 423.603 508.955 423.764C507.064 423.925 505.224 424.464 503.545 425.349C501.867 426.233 500.382 427.446 499.181 428.915C497.979 430.384 497.085 432.08 496.55 433.901L476 427.197L508.056 328.912L615.826 364.069L583.77 462.354Z" fill="#F2F2F2"/>
<path d="M509.323 449.558C502.967 449.558 497.815 444.405 497.815 438.049C497.815 431.693 502.967 426.54 509.323 426.54C515.678 426.54 520.83 431.693 520.83 438.049C520.83 444.405 515.678 449.558 509.323 449.558Z" fill="#0048FF"/>
<path d="M506.948 272.921H785.214V399.354H506.948V272.921Z" fill="#3F3D56"/>
<path d="M511.539 277.512H780.623V392.29H511.539V277.512Z" fill="white"/>
<path d="M538.907 386.816H565.038V395.646H538.907V386.816Z" fill="#3F3D56"/>
<path d="M566.451 393.526H585.52V395.999H566.451V393.526Z" fill="#0048FF"/>
<path d="M758.729 320.951H655.969L640.037 328.713L614.652 341.081L598.055 310.003H551.089" stroke="#3F3D56" stroke-width="2" stroke-miterlimit="10"/>
<path d="M718.322 320.951L710.704 338.963H691.988" stroke="#3F3D56" stroke-width="2" stroke-miterlimit="10"/>
<path d="M689.76 320.951L663.737 306.824H645.374" stroke="#3F3D56" stroke-width="2" stroke-miterlimit="10"/>
<path d="M718.472 324.129C716.717 324.129 715.294 322.706 715.294 320.951C715.294 319.196 716.717 317.772 718.472 317.772C720.227 317.772 721.65 319.196 721.65 320.951C721.65 322.706 720.227 324.129 718.472 324.129Z" fill="#0048FF"/>
<path d="M688.81 324.129C687.054 324.129 685.631 322.706 685.631 320.951C685.631 319.196 687.054 317.772 688.81 317.772C690.565 317.772 691.988 319.196 691.988 320.951C691.988 322.706 690.565 324.129 688.81 324.129Z" fill="#0048FF"/>
<path d="M640.078 328.721L637.959 360.152H619.596" stroke="#3F3D56" stroke-width="2" stroke-miterlimit="10"/>
<path d="M604.712 322.467L624.893 306.824H605.824" stroke="#3F3D56" stroke-width="2" stroke-miterlimit="10"/>
<path d="M571.376 310.003L551.795 325.542H533.433" stroke="#3F3D56" stroke-width="2" stroke-miterlimit="10"/>
<path d="M640.078 331.899C638.322 331.899 636.9 330.476 636.9 328.72C636.9 326.965 638.322 325.542 640.078 325.542C641.833 325.542 643.256 326.965 643.256 328.72C643.256 330.476 641.833 331.899 640.078 331.899Z" fill="#0048FF"/>
<path d="M571.571 313.181C569.816 313.181 568.393 311.758 568.393 310.003C568.393 308.247 569.816 306.824 571.571 306.824C573.326 306.824 574.749 308.247 574.749 310.003C574.749 311.758 573.326 313.181 571.571 313.181Z" fill="#0048FF"/>
<path d="M604.765 325.543C603.009 325.543 601.587 324.119 601.587 322.364C601.587 320.609 603.009 319.186 604.765 319.186C606.52 319.186 607.943 320.609 607.943 322.364C607.943 324.119 606.52 325.543 604.765 325.543Z" fill="#0048FF"/>
<path d="M710.35 341.788H691.987" stroke="#3F3D56" stroke-width="2" stroke-miterlimit="10"/>
<path d="M540.127 250.885C537.25 250.885 534.917 248.552 534.917 245.674C534.917 242.796 537.25 240.463 540.127 240.463C543.005 240.463 545.338 242.796 545.338 245.674C545.338 248.552 543.005 250.885 540.127 250.885Z" stroke="#3F3D56" stroke-width="2" stroke-miterlimit="10"/>
<path d="M772.324 491C742.68 491 718.649 486.573 718.649 481.111C718.649 475.65 742.68 471.223 772.324 471.223C801.969 471.223 826 475.65 826 481.111C826 486.573 801.969 491 772.324 491Z" fill="#F2F2F2"/>
<path d="M735.462 393.343L745.038 398.174L744.418 399.409L734.842 394.577L735.462 393.343Z" fill="#6C63FF"/>
<path d="M737.019 384.356L737.449 386.937C737.449 386.937 736.804 404.792 741.536 399.199C746.268 393.606 743.041 386.077 743.041 386.077L741.751 383.926L737.019 384.356Z" fill="#FBDBBE"/>
<path d="M764.551 301.75C764.551 301.75 765.411 310.785 765.841 311.215C766.272 311.645 759.389 319.82 759.389 319.82L753.366 314.227C753.366 314.227 753.796 306.052 752.505 304.331C751.215 302.61 764.551 301.75 764.551 301.75Z" fill="#F8D3B1"/>
<path d="M780.468 466.531V474.275L783.479 474.706L787.781 473.415L786.491 465.24L780.468 466.531Z" fill="#3F3D56"/>
<path d="M784.34 470.403C784.34 470.403 785.63 466.961 787.781 467.392C789.932 467.822 790.363 470.403 790.363 470.403C790.363 470.403 792.083 476.857 794.665 479.008C797.246 481.159 799.827 486.752 794.665 487.613C789.502 488.473 785.2 486.322 785.2 485.892C785.2 485.462 783.91 482.88 781.759 482.45C779.608 482.02 777.887 481.59 777.887 479.869C777.887 478.148 779.178 476.427 779.178 476.427C779.178 476.427 779.608 468.266 780.468 469.335C781.063 470.179 781.5 471.124 781.759 472.124L784.34 470.403Z" fill="#2F2E41"/>
<path d="M761.97 462.66L763.69 469.113L759.389 469.974L757.238 467.823L756.808 462.229L761.97 462.66Z" fill="#3F3D56"/>
<path d="M762.4 468.253C762.4 468.253 760.679 466.962 759.819 466.962H758.528C758.528 466.962 758.528 463.95 756.377 463.95C754.226 463.95 754.656 466.101 754.656 466.101C754.656 466.101 749.924 473.415 748.634 474.706C747.343 475.997 740.46 479.869 746.052 481.59C751.645 483.311 755.517 483.311 758.098 480.299C758.098 480.299 760.679 479.009 762.4 479.009C764.121 479.009 766.271 478.148 766.271 476.857C766.271 475.567 764.981 472.985 764.981 472.985C764.981 472.985 764.121 465.241 763.69 466.101C763.26 466.962 762.4 468.253 762.4 468.253Z" fill="#2F2E41"/>
<path d="M780.898 363.704V377.902C780.898 377.902 785.63 405.437 785.63 414.472C785.63 423.507 792.944 466.531 789.502 467.391C786.06 468.252 777.887 469.543 777.457 468.252C777.026 466.961 774.015 426.089 773.585 425.658C773.155 425.228 764.121 391.239 764.121 391.239L762.4 391.67L761.539 430.391C761.539 430.391 765.841 465.24 763.69 465.24C761.539 465.24 752.505 464.81 752.505 462.229C752.505 459.647 747.773 411.891 747.773 411.891C747.773 411.891 742.181 374.03 744.332 370.158C746.483 366.286 746.483 364.134 746.483 364.134L780.898 363.704Z" fill="#2F2E41"/>
<path d="M757.453 308.419C752.701 308.419 748.849 304.566 748.849 299.814C748.849 295.061 752.701 291.209 757.453 291.209C762.205 291.209 766.057 295.061 766.057 299.814C766.057 304.566 762.205 308.419 757.453 308.419Z" fill="#FBDBBE"/>
<path d="M759.388 314.657C759.388 314.657 764.766 310.14 765.196 308.419C765.196 308.419 767.992 311.215 767.992 311.646C767.992 312.076 780.038 313.367 783.049 316.809C786.06 320.25 788.642 327.565 788.642 327.565L781.328 341.332C781.328 341.332 780.898 349.076 780.898 349.937C780.898 350.797 783.049 364.565 782.189 364.995C781.328 365.425 772.724 369.728 765.411 368.867C758.098 368.007 750.785 366.716 748.634 366.716C746.483 366.716 744.762 367.577 744.762 366.716C744.762 365.856 746.052 364.135 746.052 363.274C746.052 362.414 746.483 360.263 746.483 358.972C746.483 357.681 747.343 355.53 747.343 353.809C747.343 352.088 737.879 328.855 737.879 328.855C737.879 328.855 738.309 321.541 745.192 318.099C752.075 314.657 752.936 313.367 752.936 313.367C752.936 313.367 753.07 310.785 753.433 310.785C753.796 310.785 755.086 314.657 758.528 315.088L759.388 314.657Z" fill="#CDD6E1"/>
<path d="M782.619 371.879L779.608 376.612L771.864 374.891L777.457 368.438L782.619 371.879Z" fill="#FBDBBE"/>
<path d="M740.46 325.413L737.879 328.855C737.879 328.855 732.717 353.809 733.577 362.844C734.437 371.879 735.298 378.763 735.298 378.763C735.298 378.763 733.577 385.216 734.868 385.216C736.158 385.216 743.902 385.646 743.902 384.356C743.902 383.065 743.041 374.89 743.041 374.89L745.192 355.96L749.924 349.506L740.46 325.413Z" fill="#CDD6E1"/>
<path d="M763.297 295.637C762.769 295.414 762.16 295.595 761.595 295.5C760.932 295.388 760.338 294.896 759.668 294.958C759.351 295.017 759.043 295.117 758.751 295.256C758.605 295.325 758.446 295.363 758.285 295.369C758.123 295.375 757.962 295.348 757.812 295.29C757.74 295.256 757.676 295.207 757.626 295.146C757.575 295.085 757.538 295.014 757.519 294.937C757.499 294.86 757.497 294.78 757.512 294.702C757.528 294.625 757.56 294.551 757.607 294.488C757.041 294.438 756.505 294.207 756.079 293.83C755.994 293.742 755.896 293.668 755.787 293.611C755.661 293.578 755.529 293.571 755.401 293.591C755.272 293.611 755.148 293.658 755.038 293.728L754.054 294.181C753.832 294.26 753.637 294.399 753.491 294.584C753.374 294.766 753.351 295.012 753.185 295.152C752.974 295.33 752.657 295.243 752.381 295.26C752.13 295.285 751.897 295.4 751.726 295.585C751.555 295.77 751.457 296.011 751.452 296.263C751.456 296.552 751.561 296.907 751.333 297.083C751.2 297.186 751.012 297.17 750.857 297.233C750.455 297.396 750.453 297.956 750.512 298.386C750.572 298.817 750.543 299.384 750.129 299.517C749.838 299.61 749.54 299.411 749.238 299.367C748.781 299.3 748.359 299.585 747.953 299.804C747.546 300.022 747.006 300.17 746.654 299.872C746.327 299.594 746.348 299.087 746.438 298.667C746.567 298.066 746.779 297.485 747.069 296.941C747.176 296.782 747.239 296.596 747.252 296.404C747.227 296.269 747.174 296.141 747.097 296.028C747.019 295.914 746.918 295.819 746.801 295.747C746.303 295.354 745.73 294.958 745.569 294.344C745.451 293.893 745.584 293.418 745.573 292.952C745.561 292.386 745.336 291.821 745.441 291.265C745.633 290.255 746.756 289.769 747.481 289.042C748.478 288.041 748.801 286.442 749.977 285.661C750.918 285.036 752.148 285.11 753.219 284.753C754.396 284.36 755.343 283.458 756.504 283.02C757.138 282.786 757.815 282.696 758.488 282.755C759.161 282.814 759.812 283.021 760.395 283.361C760.742 283.618 761.128 283.816 761.539 283.946C761.885 283.986 762.235 283.982 762.58 283.934C763.266 283.898 763.95 284.04 764.566 284.344C764.802 284.438 764.998 284.61 765.122 284.832C765.33 285.293 765.028 286.015 765.484 286.236C765.696 286.338 765.947 286.24 766.183 286.245C766.642 286.255 766.995 286.654 767.213 287.058C767.383 287.485 767.628 287.878 767.935 288.22C768.496 288.711 769.515 288.792 769.661 289.523C769.664 289.833 769.646 290.142 769.609 290.45C769.651 291.097 770.344 291.59 770.308 292.238C770.266 292.986 769.317 293.351 769.063 294.056C768.869 294.592 769.124 295.172 769.299 295.715C769.474 296.258 769.527 296.953 769.075 297.301C768.897 297.437 768.669 297.493 768.488 297.624C768.021 297.964 768.027 298.651 768.078 299.228C768.108 299.347 768.109 299.472 768.079 299.592C768.049 299.712 767.991 299.822 767.908 299.914C767.831 299.961 767.745 299.991 767.655 300.001C767.566 300.012 767.475 300.004 767.389 299.977C767.108 299.908 766.844 299.784 766.613 299.61C766.382 299.436 766.189 299.217 766.045 298.966C765.895 298.716 765.864 298.497 765.591 298.365C765.405 298.275 765.179 298.355 764.99 298.239C764.091 297.685 764.401 296.105 763.297 295.637Z" fill="#2F2E41"/>
<path d="M787.351 326.273L788.642 327.564C788.642 327.564 796.385 350.797 793.804 355.96C791.223 361.123 786.061 374.03 784.34 373.6C782.619 373.169 776.597 369.297 776.597 368.867C776.597 368.437 783.91 356.39 783.91 356.39C783.91 356.39 784.77 353.809 784.34 353.378C783.91 352.948 783.91 353.378 784.34 352.518C784.77 351.657 784.77 352.518 783.91 351.657C783.049 350.797 783.049 350.797 783.049 350.367C783.049 349.937 780.468 339.181 780.468 339.181L787.351 326.273Z" fill="#CDD6E1"/>
<path d="M780.683 376.827L771.219 373.815L769.928 376.827L780.253 378.978L780.683 376.827Z" fill="#2F2E41"/>
<path opacity="0.1" d="M780.683 376.827L771.219 373.815L769.928 376.827L780.253 378.978L780.683 376.827Z" fill="black"/>
<path opacity="0.1" d="M767.777 311.861L760.464 317.885L759.603 316.594L767.777 311.861Z" fill="black"/>
<path opacity="0.1" d="M753.151 313.582L758.313 316.593L757.883 317.884L753.151 313.582Z" fill="black"/>
</svg>
