<svg width="850" height="530" viewBox="0 0 850 530" fill="none" xmlns="http://www.w3.org/2000/svg">
<rect width="850" height="530" rx="30" fill="white"/>
<mask id="mask0_3138_763" style="mask-type:alpha" maskUnits="userSpaceOnUse" x="0" y="0" width="850" height="530">
<rect width="850" height="530" rx="30" fill="white"/>
</mask>
<g mask="url(#mask0_3138_763)">
<rect x="-60.9297" y="429.051" width="946.612" height="622.896" transform="rotate(-6.01471 -60.9297 429.051)" fill="#FFB500"/>
</g>
<path d="M468.337 474.518C467.9 474.539 467.467 474.424 467.098 474.19C466.728 473.955 466.439 473.613 466.27 473.209C466.102 472.805 466.061 472.359 466.154 471.931C466.247 471.503 466.469 471.114 466.791 470.817C466.844 470.603 466.883 470.449 466.937 470.235C466.917 470.188 466.898 470.142 466.879 470.095C466.438 469.054 465.701 468.167 464.758 467.544C463.815 466.922 462.71 466.592 461.58 466.596C460.451 466.6 459.348 466.938 458.41 467.568C457.472 468.198 456.741 469.09 456.308 470.135C454.579 474.302 452.378 478.477 451.836 482.883C451.598 484.831 451.698 486.805 452.134 488.718C448.073 479.853 445.965 470.218 445.951 460.465C445.95 458.018 446.086 455.573 446.358 453.141C446.583 451.147 446.895 449.167 447.293 447.202C449.47 436.538 454.143 426.542 460.928 418.037C464.212 416.243 466.868 413.485 468.538 410.135C469.143 408.93 469.57 407.644 469.807 406.317C469.437 406.366 469.06 406.396 468.69 406.421C468.574 406.427 468.453 406.433 468.338 406.439L468.294 406.441C467.887 406.459 467.483 406.359 467.131 406.153C466.78 405.947 466.495 405.644 466.311 405.279C466.128 404.915 466.054 404.506 466.097 404.1C466.141 403.694 466.301 403.31 466.558 402.993C466.718 402.796 466.878 402.6 467.038 402.403C467.281 402.099 467.53 401.801 467.773 401.497C467.801 401.468 467.827 401.438 467.852 401.406C468.131 401.059 468.41 400.719 468.69 400.372C468.18 399.58 467.494 398.917 466.686 398.433C463.886 396.792 460.023 397.929 458.001 400.464C455.972 402.998 455.59 406.554 456.294 409.721C456.987 412.416 458.133 414.973 459.683 417.283C459.531 417.478 459.373 417.666 459.221 417.861C456.446 421.433 454.027 425.268 451.999 429.313C452.492 424.782 451.903 420.198 450.281 415.94C448.638 411.971 445.556 408.628 442.843 405.197C439.584 401.075 432.901 402.874 432.327 408.099C432.321 408.149 432.316 408.2 432.31 408.25C432.713 408.478 433.108 408.719 433.494 408.975C433.979 409.299 434.354 409.762 434.572 410.304C434.789 410.846 434.838 411.44 434.712 412.01C434.586 412.58 434.29 413.099 433.865 413.498C433.439 413.897 432.903 414.158 432.327 414.247L432.268 414.256C432.411 415.71 432.665 417.15 433.027 418.566C434.075 422.517 435.928 426.208 438.469 429.409C441.009 432.61 444.183 435.251 447.791 437.166C448.028 437.288 448.259 437.409 448.496 437.525C446.458 443.304 445.18 449.323 444.694 455.432C444.419 459.036 444.435 462.657 444.743 466.258L444.724 466.13C443.947 462.126 441.812 458.512 438.681 455.9C434.031 452.077 427.461 450.669 422.444 447.595C421.911 447.253 421.291 447.07 420.657 447.068C420.023 447.067 419.402 447.247 418.868 447.587C418.333 447.927 417.906 448.413 417.638 448.987C417.37 449.562 417.272 450.202 417.355 450.83C417.362 450.875 417.369 450.92 417.376 450.964C418.124 451.269 418.852 451.62 419.556 452.016C419.959 452.244 420.354 452.485 420.74 452.74C421.225 453.065 421.6 453.528 421.818 454.07C422.035 454.611 422.084 455.206 421.958 455.776C421.832 456.346 421.536 456.864 421.111 457.263C420.685 457.662 420.149 457.923 419.573 458.012L419.514 458.022C419.471 458.028 419.435 458.034 419.392 458.04C420.67 461.094 422.464 463.904 424.694 466.349C427.45 469.309 430.78 471.673 434.482 473.299C438.183 474.924 442.177 475.776 446.218 475.801H446.224C447.322 480.573 448.911 485.218 450.968 489.66H467.912C467.973 489.472 468.028 489.277 468.083 489.089C466.514 489.188 464.939 489.094 463.394 488.809C464.651 487.265 465.908 485.709 467.165 484.165C467.193 484.137 467.22 484.106 467.244 484.074C467.882 483.284 468.526 482.5 469.164 481.71L469.164 481.709C469.198 479.287 468.92 476.87 468.338 474.519L468.337 474.518Z" fill="#F2F2F2"/>
<path d="M746.542 474.518C746.979 474.539 747.412 474.424 747.781 474.189C748.151 473.955 748.44 473.613 748.609 473.209C748.778 472.805 748.818 472.359 748.725 471.931C748.632 471.503 748.41 471.114 748.089 470.817C748.035 470.603 747.996 470.449 747.942 470.235C747.962 470.188 747.981 470.142 748 470.095C748.441 469.054 749.179 468.167 750.121 467.544C751.064 466.922 752.169 466.592 753.299 466.596C754.428 466.6 755.531 466.938 756.469 467.568C757.407 468.197 758.138 469.09 758.571 470.135C760.3 474.302 762.501 478.477 763.043 482.883C763.281 484.831 763.181 486.805 762.745 488.718C766.806 479.853 768.914 470.218 768.928 460.465C768.929 458.018 768.793 455.573 768.521 453.14C768.296 451.147 767.984 449.167 767.586 447.202C765.409 436.538 760.737 426.542 753.951 418.037C750.667 416.243 748.011 413.485 746.341 410.135C745.736 408.93 745.309 407.644 745.072 406.317C745.442 406.366 745.819 406.396 746.189 406.421C746.305 406.427 746.426 406.433 746.542 406.439L746.585 406.441C746.992 406.459 747.396 406.359 747.748 406.153C748.099 405.947 748.384 405.644 748.568 405.279C748.751 404.915 748.826 404.506 748.782 404.1C748.738 403.694 748.578 403.31 748.321 402.993C748.161 402.796 748.001 402.6 747.841 402.403C747.598 402.099 747.349 401.801 747.106 401.497C747.078 401.468 747.052 401.438 747.027 401.406C746.748 401.059 746.469 400.719 746.189 400.372C746.699 399.58 747.385 398.917 748.193 398.433C750.993 396.792 754.856 397.929 756.878 400.464C758.907 402.998 759.29 406.554 758.585 409.721C757.892 412.416 756.746 414.973 755.196 417.283C755.348 417.478 755.506 417.666 755.658 417.861C758.433 421.433 760.852 425.268 762.88 429.313C762.387 424.782 762.976 420.198 764.598 415.94C766.242 411.971 769.323 408.628 772.036 405.197C775.295 401.075 781.978 402.874 782.552 408.099C782.558 408.149 782.563 408.2 782.569 408.25C782.166 408.478 781.771 408.719 781.385 408.975C780.9 409.299 780.525 409.762 780.307 410.304C780.09 410.846 780.041 411.44 780.167 412.01C780.293 412.58 780.589 413.099 781.014 413.498C781.44 413.897 781.976 414.158 782.552 414.247L782.611 414.256C782.468 415.71 782.214 417.15 781.852 418.566C780.804 422.516 778.951 426.208 776.411 429.409C773.87 432.61 770.696 435.25 767.088 437.166C766.851 437.288 766.62 437.409 766.383 437.525C768.421 443.304 769.699 449.323 770.185 455.432C770.461 459.036 770.444 462.657 770.137 466.258L770.155 466.13C770.932 462.126 773.067 458.512 776.198 455.9C780.848 452.077 787.418 450.669 792.435 447.595C792.969 447.253 793.589 447.07 794.222 447.068C794.856 447.067 795.477 447.247 796.011 447.587C796.546 447.927 796.973 448.413 797.241 448.987C797.509 449.562 797.607 450.201 797.524 450.83C797.517 450.875 797.51 450.92 797.503 450.964C796.755 451.269 796.027 451.62 795.323 452.016C794.92 452.243 794.525 452.485 794.139 452.74C793.654 453.065 793.279 453.528 793.061 454.07C792.844 454.611 792.795 455.206 792.921 455.776C793.047 456.346 793.343 456.864 793.768 457.263C794.194 457.662 794.73 457.923 795.306 458.012L795.365 458.021C795.408 458.028 795.444 458.034 795.487 458.04C794.209 461.094 792.415 463.904 790.185 466.349C787.429 469.308 784.099 471.673 780.397 473.299C776.696 474.924 772.702 475.776 768.661 475.801H768.655C767.557 480.573 765.968 485.218 763.911 489.66H746.967C746.906 489.472 746.851 489.277 746.797 489.089C748.365 489.188 749.94 489.094 751.485 488.809C750.228 487.265 748.971 485.709 747.714 484.165C747.686 484.136 747.659 484.106 747.635 484.074C746.997 483.284 746.353 482.5 745.716 481.71L745.715 481.709C745.681 479.286 745.959 476.87 746.542 474.519L746.542 474.518Z" fill="#F2F2F2"/>
<path d="M536.723 482.078H540.825L542.777 466.24H536.723V482.078Z" fill="#9E616A"/>
<path d="M535.384 479.266L541.938 478.874V481.685L548.169 485.992C548.477 486.204 548.709 486.51 548.83 486.864C548.952 487.218 548.958 487.601 548.847 487.959C548.736 488.316 548.513 488.629 548.212 488.85C547.91 489.072 547.546 489.192 547.172 489.192H539.369L538.024 486.412L537.499 489.192H534.557L535.384 479.266Z" fill="#2F2E41"/>
<path d="M485.305 478.589L489.117 480.108L496.782 466.116L491.157 463.875L485.305 478.589Z" fill="#9E616A"/>
<path d="M485.1 475.48L491.334 477.543L490.295 480.154L494.493 486.462C494.701 486.774 494.803 487.144 494.786 487.517C494.768 487.891 494.632 488.25 494.396 488.541C494.161 488.832 493.839 489.04 493.477 489.134C493.115 489.229 492.732 489.205 492.385 489.067L485.135 486.178L484.913 483.098L483.397 485.486L480.664 484.397L485.1 475.48Z" fill="#2F2E41"/>
<path d="M528.453 434.952L521.612 403L510.93 438.501L494.015 472.166L493.925 472.344L488.567 469.457C487.811 455.788 489.607 442.979 496.176 431.778L499.286 401.035C499.381 399.985 501.702 375.323 509.048 370.95L511.2 366.04L532.599 360.75L532.677 360.838C534.735 363.153 536.094 366.004 536.597 369.062L542.991 407.832L542.995 407.853L541.281 434.9L543.626 474.803H535.14C529.89 464.916 527.661 451.633 528.453 434.952Z" fill="#2F2E41"/>
<path d="M632.966 304.572C632.966 313.653 646.44 329.601 649.395 321.015C653.013 310.503 660.731 303.839 665.824 304.572C674.805 305.863 658.468 288.129 649.395 288.129C645.038 288.129 640.859 289.861 637.778 292.945C634.697 296.029 632.966 300.211 632.966 304.572V304.572Z" fill="#E6E6E6"/>
<path d="M629.515 253.077C627.385 261.904 636.871 269.519 645.944 269.519C648.102 269.519 650.238 269.094 652.231 268.268C654.225 267.441 656.036 266.23 657.561 264.703C659.087 263.177 660.297 261.364 661.122 259.369C661.948 257.374 662.373 255.236 662.373 253.077C662.373 243.995 650.144 244.684 645.944 236.634C641.137 227.418 634.095 234.102 629.515 253.077Z" fill="#E6E6E6"/>
<path d="M553.595 252.386C553.595 256.747 555.326 260.929 558.407 264.013C561.488 267.096 565.667 268.829 570.024 268.829C579.097 268.829 586.717 261.463 586.453 252.386C585.9 233.37 578.54 225.918 570.024 235.943C564.147 242.861 553.595 243.305 553.595 252.386Z" fill="#E6E6E6"/>
<path d="M552.215 304.572C544.548 301.254 557.864 318.255 568.644 321.015C577.434 323.265 585.073 313.653 585.073 304.572C585.073 302.412 584.648 300.274 583.822 298.279C582.996 296.284 581.786 294.472 580.261 292.945C578.735 291.418 576.924 290.207 574.931 289.381C572.938 288.554 570.801 288.129 568.644 288.129C559.57 288.129 560.543 308.175 552.215 304.572Z" fill="#E6E6E6"/>
<path d="M647.557 245.613H625.581C625.125 245.613 624.672 245.703 624.25 245.878C623.829 246.053 623.445 246.31 623.122 246.633C622.799 246.956 622.543 247.34 622.368 247.762C622.193 248.184 622.104 248.637 622.104 249.094V271.088C622.104 272.011 622.47 272.897 623.122 273.549C623.774 274.202 624.659 274.569 625.581 274.569H647.557C648.479 274.569 649.364 274.202 650.016 273.549C650.668 272.897 651.034 272.011 651.034 271.088V249.094C651.034 248.171 650.668 247.285 650.016 246.633C649.364 245.98 648.479 245.613 647.557 245.613ZM643.43 253.039H640.91C639.19 253.039 638.855 253.854 638.855 255.058V257.611H642.958L642.425 261.619H638.847V272.07C637.317 272.358 635.747 272.354 634.218 272.059V261.619H630.937V257.611H634.279V254.647C634.279 251.103 636.738 249.168 639.905 249.168C641.428 249.168 643.057 249.282 643.43 249.335V253.039Z" fill="#0048FF"/>
<path d="M592.588 245.613H570.613C569.69 245.613 568.806 245.98 568.153 246.633C567.501 247.286 567.135 248.171 567.135 249.094V271.088C567.135 272.011 567.501 272.897 568.153 273.549C568.806 274.202 569.69 274.569 570.613 274.569H592.588C593.51 274.569 594.395 274.202 595.047 273.549C595.699 272.897 596.066 272.011 596.066 271.088V249.094C596.066 248.171 595.699 247.285 595.047 246.633C594.395 245.98 593.51 245.613 592.588 245.613V245.613ZM581.6 267.813C580.074 267.813 578.583 267.36 577.314 266.511C576.045 265.663 575.056 264.457 574.473 263.046C573.889 261.635 573.736 260.083 574.034 258.585C574.331 257.087 575.066 255.711 576.145 254.631C577.224 253.551 578.599 252.816 580.095 252.518C581.592 252.22 583.143 252.373 584.553 252.957C585.962 253.542 587.167 254.531 588.015 255.801C588.863 257.071 589.315 258.564 589.315 260.091C589.315 262.139 588.502 264.103 587.056 265.551C585.609 266.999 583.646 267.813 581.6 267.813H581.6ZM590.28 252.37C589.898 252.37 589.525 252.256 589.208 252.044C588.891 251.832 588.644 251.531 588.498 251.178C588.352 250.825 588.313 250.437 588.388 250.063C588.462 249.688 588.646 249.344 588.916 249.074C589.185 248.804 589.529 248.62 589.903 248.546C590.277 248.471 590.665 248.51 591.018 248.656C591.37 248.802 591.671 249.049 591.883 249.367C592.095 249.684 592.208 250.057 592.208 250.439C592.208 250.951 592.005 251.442 591.643 251.804C591.282 252.166 590.791 252.37 590.28 252.37H590.28Z" fill="#0048FF"/>
<path d="M652.851 297.562C653.478 297.566 654.096 297.708 654.662 297.978C655.228 298.247 655.728 298.637 656.127 299.121C656.526 299.605 656.814 300.17 656.971 300.777C657.128 301.385 657.15 302.019 657.035 302.635L665.246 307.983L663.216 313.769L651.727 306.055C650.705 305.794 649.814 305.166 649.223 304.292C648.632 303.417 648.382 302.356 648.52 301.309C648.659 300.262 649.176 299.302 649.974 298.612C650.773 297.921 651.796 297.548 652.851 297.562V297.562Z" fill="#FFB6B6"/>
<path d="M655.775 311.622L661.636 304.851L669.208 308.365L684.681 320.69C686.71 320.928 702.103 322.916 701.82 328.574C701.813 329.235 701.663 329.887 701.381 330.484C701.098 331.082 700.69 331.612 700.183 332.036C697.754 334.044 693.544 333.474 693.386 333.451L683.313 332.946C682.786 333.073 677.317 334.331 674.423 332.531C673.545 331.985 655.775 311.622 655.775 311.622Z" fill="#3F3D56"/>
<path d="M672.676 484.588L667.876 484.587L665.593 466.059H672.676L672.676 484.588Z" fill="#FFB6B6"/>
<path d="M673.9 489.245L658.424 489.244V489.048C658.424 487.449 659.059 485.916 660.188 484.785C661.318 483.655 662.85 483.02 664.448 483.02H664.448L667.275 480.873L672.549 483.02L673.9 483.02L673.9 489.245Z" fill="#2F2E41"/>
<path d="M725.356 480.828L720.73 482.107L713.6 464.855L720.428 462.968L725.356 480.828Z" fill="#FFB6B6"/>
<path d="M727.775 484.991L712.857 489.114L712.805 488.926C712.38 487.384 712.584 485.737 713.372 484.346C714.16 482.955 715.468 481.935 717.008 481.509L717.008 481.509L719.162 478.687L724.817 479.35L726.119 478.99L727.775 484.991Z" fill="#2F2E41"/>
<path d="M672.887 372.454L709.155 374.306L709.167 374.339C711.339 380.379 711.847 386.892 710.635 393.196V393.196L711.746 402.456L717.297 431.347L724.698 468.386C724.698 468.386 734.32 470.979 721.738 475.424C709.155 479.868 711.746 477.276 713.596 473.942C715.446 470.609 704.529 433.014 704.529 433.014L691.206 403.012L678.254 434.125L676.773 468.571C676.773 468.571 680.659 473.201 669.557 475.053C658.454 476.905 659.01 473.386 661.6 470.794C664.191 468.201 666.411 433.754 666.411 433.754L669.002 401.16C669.002 401.16 668.261 382.27 672.887 372.454Z" fill="#2F2E41"/>
<path d="M708.35 330.137L705.434 322.482L696.043 313.225L684.151 312.291L675.41 320.123L672.939 327.915C676.18 342.938 676.114 356.774 671.521 370.179C671.195 371.105 671.074 372.092 671.168 373.07C671.262 374.048 671.568 374.994 672.065 375.841C672.561 376.689 673.237 377.418 674.044 377.977C674.851 378.537 675.77 378.913 676.738 379.08C690.21 381.346 715.298 384.744 713.57 378.276C711.284 369.719 703.332 351.302 706.278 341.564C707.35 338.181 708.024 334.684 708.288 331.144L708.35 330.137Z" fill="#3F3D56"/>
<path d="M688.098 309.304C693.96 309.304 698.712 304.548 698.712 298.681C698.712 292.814 693.96 288.058 688.098 288.058C682.236 288.058 677.483 292.814 677.483 298.681C677.483 304.548 682.236 309.304 688.098 309.304Z" fill="#FFB6B6"/>
<path d="M685.201 308.746L693.292 308.333C694.329 308.28 695.46 308.188 696.214 307.474C696.62 307.033 696.932 306.514 697.131 305.949C697.879 304.21 698.627 302.471 699.356 300.724C700.364 298.308 701.354 295.756 701.097 293.15C701.037 291.96 700.538 290.835 699.697 289.991C699.268 289.584 698.717 289.331 698.129 289.272C697.541 289.212 696.95 289.349 696.448 289.661C696.323 288.837 696.013 288.052 695.541 287.365C695.068 286.679 694.446 286.109 693.721 285.698C692.257 284.889 690.585 284.534 688.919 284.679C686.5 284.835 684.192 285.746 682.318 287.283C681.791 287.77 681.228 288.216 680.634 288.619C680.335 288.818 679.999 288.955 679.646 289.021C679.292 289.086 678.929 289.079 678.579 288.999C678.232 288.906 677.93 288.691 677.729 288.393C677.528 288.094 677.442 287.733 677.487 287.377C676.917 287.803 676.526 288.427 676.391 289.126C676.256 289.825 676.386 290.549 676.755 291.158C676.335 291.334 675.877 291.398 675.424 291.345C674.972 291.291 674.542 291.121 674.174 290.852C673.781 291.048 673.432 291.323 673.151 291.661C672.87 291.999 672.663 292.392 672.542 292.815C672.422 293.238 672.391 293.681 672.452 294.117C672.512 294.552 672.663 294.97 672.894 295.344C673.126 295.718 673.433 296.039 673.795 296.288C674.158 296.536 674.568 296.705 675 296.786C675.432 296.866 675.876 296.855 676.304 296.754C676.731 296.653 677.133 296.463 677.483 296.197C677.974 296.886 677.791 297.821 677.727 298.664C677.663 299.508 677.889 300.556 678.702 300.789C679.8 301.104 680.689 299.624 681.832 299.64C682.114 299.663 682.385 299.755 682.623 299.908C682.861 300.062 683.057 300.271 683.194 300.519C683.463 301.016 683.648 301.554 683.739 302.112L685.201 308.7" fill="#2F2E41"/>
<path d="M631.007 325.648C626.966 325.651 623.01 324.477 619.623 322.271L617.918 321.162L619.939 321.386C620.468 321.445 621.039 321.479 621.633 321.488C624.357 321.49 627.023 320.706 629.313 319.229C627.952 318.934 626.692 318.289 625.658 317.357C624.623 316.425 623.849 315.238 623.413 313.915L623.16 313.135L623.965 313.293C624.33 313.365 624.701 313.407 625.073 313.418C623.798 312.761 622.728 311.767 621.98 310.543C621.232 309.319 620.835 307.912 620.831 306.477V305.651L621.55 305.969C621.977 306.209 622.428 306.401 622.897 306.542C621.789 305.297 621.1 303.734 620.929 302.076C620.759 300.417 621.115 298.746 621.947 297.302L622.298 296.695L622.739 297.239C625.949 301.215 630.549 303.821 635.607 304.53C635.746 304.549 635.887 304.539 636.021 304.499C636.156 304.459 636.28 304.39 636.385 304.297C636.493 304.204 636.579 304.088 636.638 303.958C636.697 303.829 636.727 303.688 636.727 303.545C636.715 302.002 637.163 300.491 638.013 299.204C638.862 297.916 640.076 296.911 641.498 296.317C642.921 295.722 644.488 295.565 646 295.866C647.512 296.166 648.9 296.91 649.988 298.003C651.477 297.678 652.904 297.117 654.216 296.342L655.323 295.686L654.919 296.908C654.546 298.042 653.919 299.076 653.086 299.931C653.825 299.739 654.547 299.488 655.246 299.181L656.746 298.521L655.842 299.888C654.885 301.34 653.689 302.618 652.305 303.669V304.367C652.305 314.828 644.355 325.648 631.05 325.648L631.007 325.648Z" fill="#0048FF"/>
<path d="M640.538 318.2C641.165 318.174 641.789 318.286 642.367 318.528C642.945 318.77 643.464 319.135 643.885 319.599C644.307 320.063 644.622 320.614 644.808 321.213C644.994 321.812 645.047 322.444 644.962 323.066L653.421 328.011L651.672 333.888L639.825 326.737C638.791 326.526 637.871 325.942 637.238 325.097C636.606 324.252 636.305 323.204 636.393 322.151C636.481 321.099 636.951 320.116 637.716 319.387C638.48 318.659 639.484 318.237 640.538 318.2V318.2Z" fill="#FFB6B6"/>
<path d="M650.498 336.651L644.18 329.809L648.56 323.256L653.28 327.219L658.44 328.455L665.722 331.219C666.736 329.444 674.602 316.053 679.691 318.533C680.296 318.799 680.836 319.192 681.274 319.687C681.713 320.181 682.039 320.765 682.231 321.398C683.123 324.422 680.948 328.075 680.865 328.21L676.449 337.286C676.359 337.821 675.37 343.349 672.581 345.308C672.186 345.596 671.737 345.8 671.26 345.905C670.783 346.011 670.29 346.016 669.811 345.921C661.144 344.28 655.037 341.743 651.921 338.516C651.371 337.956 650.893 337.329 650.498 336.651V336.651Z" fill="#3F3D56"/>
<path d="M538.123 310.198C537.15 308.105 538.694 305.768 539.244 303.514C540.272 299.309 537.376 294.756 533.451 293.299C529.526 291.841 525.015 293.059 521.643 295.609C518.338 298.109 516.014 299.286 513.737 302.818C512.974 304.002 512.165 307.679 512.021 309.098C511.876 310.516 512.61 312.142 513.946 312.453C513.818 312.706 513.762 312.989 513.784 313.272C513.805 313.555 513.904 313.826 514.069 314.057C514.235 314.288 514.46 314.468 514.72 314.58C514.981 314.691 515.267 314.729 515.548 314.689C518.107 314.194 522.806 315.554 522.806 315.554C527.188 315.805 531.569 316.056 535.951 316.307C537.074 316.371 538.239 316.43 539.247 315.809C539.526 315.645 539.767 315.423 539.952 315.158C540.137 314.893 540.263 314.59 540.32 314.272C540.577 312.611 538.793 311.642 538.123 310.198Z" fill="#2F2E41"/>
<path d="M541.431 328.515L540.473 334.903L538.952 345.022L538.694 348.772L536.802 376.253L531.591 380.265C528.574 382.588 524.808 383.718 521.011 383.439C517.215 383.16 513.654 381.492 511.007 378.753L504.679 375.704C508.071 372.365 507.44 356.888 507.44 356.888L507.402 326.49L515.98 323.603L518.806 318.036H528.942L531.476 323.954L536.076 326.059L538.171 327.023L541.431 328.515Z" fill="#E6E6E6"/>
<path d="M524.293 315.181C529.026 315.181 532.863 311.341 532.863 306.603C532.863 301.866 529.026 298.025 524.293 298.025C519.559 298.025 515.722 301.866 515.722 306.603C515.722 311.341 519.559 315.181 524.293 315.181Z" fill="#9E616A"/>
<path d="M519.396 303.912C517.132 303.915 514.922 303.218 513.07 301.914L513.008 301.871C513.008 300.775 513.223 299.69 513.642 298.678C514.061 297.666 514.675 296.746 515.449 295.971C516.224 295.196 517.143 294.582 518.154 294.162C519.165 293.743 520.249 293.527 521.344 293.527H524.747C525.835 293.529 526.911 293.744 527.915 294.163C528.919 294.581 529.831 295.193 530.599 295.965C531.366 296.736 531.974 297.651 532.387 298.658C532.801 299.665 533.012 300.743 533.008 301.832C533.001 302.328 532.8 302.803 532.449 303.154C532.098 303.505 531.623 303.705 531.127 303.711L519.592 303.91C519.526 303.911 519.461 303.912 519.396 303.912Z" fill="#2F2E41"/>
<path d="M544.484 346.149L536.72 346.213L536.15 360.043L529.842 367.771C529.075 367.901 528.358 368.24 527.771 368.751C527.184 369.262 526.75 369.926 526.517 370.669C526.283 371.412 526.259 372.205 526.447 372.961C526.636 373.716 527.029 374.405 527.584 374.951C528.139 375.497 528.834 375.878 529.592 376.054C530.35 376.229 531.142 376.191 531.88 375.945C532.618 375.698 533.274 375.252 533.775 374.656C534.275 374.059 534.601 373.336 534.717 372.566L543.406 360.51L544.484 346.149Z" fill="#9E616A"/>
<path d="M503.549 346.563L495.591 342.84L486.901 353.607L477.235 356.054C476.542 355.701 475.764 355.546 474.988 355.606C474.213 355.667 473.469 355.941 472.839 356.399C472.209 356.856 471.718 357.479 471.419 358.198C471.121 358.917 471.027 359.705 471.148 360.474C471.269 361.244 471.6 361.965 472.104 362.558C472.609 363.151 473.267 363.592 474.007 363.834C474.746 364.076 475.539 364.109 476.296 363.928C477.052 363.748 477.745 363.362 478.296 362.812L492.451 358.31L503.549 346.563Z" fill="#9E616A"/>
<path d="M528.581 314.519L531.548 310.814C531.868 310.49 532.077 310.071 532.143 309.62C532.159 309.167 531.733 308.682 531.303 308.824C530.904 308.956 528.604 303.189 528.184 303.19C527.748 303.191 527.606 302.61 527.6 302.174C527.579 300.522 528.921 302.296 529.364 300.705C529.808 299.114 531.537 300.482 533.027 299.771C534.517 299.061 536.541 299.383 537.462 300.754C538.145 301.77 538.12 303.091 538.029 304.312C537.819 307.147 537.393 309.961 536.755 312.731C536.598 313.411 536.364 314.171 535.738 314.478C535.393 314.615 535.022 314.671 534.652 314.641L530.083 314.618" fill="#2F2E41"/>
<path d="M535.7 298.591C538.032 298.591 539.923 296.699 539.923 294.364C539.923 292.029 538.032 290.137 535.7 290.137C533.367 290.137 531.476 292.029 531.476 294.364C531.476 296.699 533.367 298.591 535.7 298.591Z" fill="#2F2E41"/>
<path d="M545.198 346.015C544.742 346.81 543.771 347.127 542.884 347.372C541.684 347.706 541.334 348.044 540.134 348.378C539.657 348.513 539.176 348.649 538.694 348.771C537.904 348.984 537.101 349.149 536.291 349.266C535.611 349.363 534.808 349.363 534.365 348.835C534.071 348.381 533.952 347.835 534.031 347.3C534.204 340.807 534.379 334.314 534.555 327.821L534.922 327.948C535.088 327.839 535.26 327.74 535.438 327.652C536.283 327.221 537.222 327.005 538.17 327.022C538.713 327.027 539.253 327.111 539.771 327.272C540.576 327.528 541.316 327.956 541.939 328.527C542.562 329.098 543.053 329.797 543.378 330.578C543.799 331.755 544 333 543.969 334.251C543.973 334.441 543.973 334.631 543.978 334.822C544.003 336.445 543.179 338.068 543.205 339.691C543.185 340.148 543.248 340.605 543.391 341.04C543.56 341.471 543.889 341.83 544.016 342.278C544.142 342.722 543.935 343.331 543.475 343.365C543.8 343.33 544.129 343.386 544.424 343.527C544.72 343.667 544.97 343.887 545.149 344.161C545.327 344.436 545.426 344.754 545.435 345.081C545.444 345.408 545.362 345.732 545.198 346.015V346.015Z" fill="#E6E6E6"/>
<path d="M507.437 326.527C508.282 326.578 509.105 326.815 509.848 327.221C510.59 327.626 511.234 328.191 511.733 328.875C512.233 329.559 512.575 330.344 512.736 331.176C512.897 332.007 512.873 332.864 512.665 333.685C512.223 335.056 511.529 336.333 510.619 337.449L507.78 341.403C507.492 341.757 507.27 342.161 507.126 342.594C507.006 343.043 507.054 343.529 506.89 343.963C506.726 344.397 506.2 344.761 505.808 344.512C506.09 344.679 506.321 344.919 506.474 345.208C506.628 345.497 506.699 345.823 506.679 346.15C506.659 346.476 506.55 346.791 506.362 347.06C506.175 347.328 505.917 347.539 505.618 347.67C504.775 348.038 503.808 347.71 502.949 347.381L499.463 346.046C498.224 345.603 497.015 345.076 495.847 344.468C495.244 344.137 494.6 343.66 494.557 342.972C494.524 342.437 494.976 342.025 495.203 341.54C498.042 335.456 502.217 330.615 507.402 326.49L507.437 326.527Z" fill="#E6E6E6"/>
<path d="M511.516 363.149C511.516 359.747 509.011 357.006 505.878 357.006C501.682 356.805 497.413 356.732 493.048 356.732H491.686C487.329 356.732 483.044 356.805 478.856 357.006C475.771 357.006 473.266 359.755 473.266 363.165C473.073 365.866 472.992 368.558 473.001 371.226C473.009 373.895 473.073 376.619 473.258 379.288C473.258 382.697 475.763 385.462 478.848 385.462C483.246 385.664 487.764 385.753 492.355 385.753C496.946 385.753 501.456 385.672 505.87 385.462C508.963 385.462 511.508 382.697 511.508 379.288C511.685 376.587 511.774 373.895 511.766 371.186C511.758 368.478 511.693 365.801 511.516 363.125L511.516 363.149ZM488.698 378.683V363.802L499.668 371.234L488.698 378.683Z" fill="#0048FF"/>
<path d="M797.297 490.819L417.703 491C417.517 491 417.339 490.925 417.207 490.794C417.076 490.662 417.002 490.483 417.002 490.297C417.002 490.11 417.076 489.932 417.207 489.8C417.339 489.668 417.517 489.593 417.703 489.593L797.297 489.411C797.483 489.412 797.661 489.486 797.793 489.618C797.924 489.75 797.998 489.929 797.998 490.115C797.998 490.301 797.924 490.48 797.793 490.612C797.661 490.744 797.483 490.818 797.297 490.819V490.819Z" fill="#CACACA"/>
</svg>
