<svg width="850" height="530" viewBox="0 0 850 530" fill="none" xmlns="http://www.w3.org/2000/svg">
<rect width="850" height="530" rx="30" fill="white"/>
<mask id="mask0_141_855" style="mask-type:alpha" maskUnits="userSpaceOnUse" x="0" y="0" width="850" height="530">
<rect width="850" height="530" rx="30" fill="white"/>
</mask>
<g mask="url(#mask0_141_855)">
<rect x="-60.9297" y="429.051" width="946.612" height="622.896" transform="rotate(-6.01471 -60.9297 429.051)" fill="#FFB500"/>
</g>
<path d="M88.96 104.12H97.4V99.84H83.76V124.16H86.32C91.04 124.16 94.96 124 99.44 123.16L99.04 118.88C95.52 119.52 92.4 119.72 88.96 119.8V104.12ZM109.32 95.56V109.76H106V96.28H101.08V130.72H106V114H109.32V132.44H114.32V95.56H109.32ZM139.677 111.4C135.917 112.16 132.597 112.44 126.717 112.48V102.28H138.077V98.08H121.477V116.72H124.397C131.957 116.72 135.837 116.52 140.157 115.6L139.677 111.4ZM125.197 123.64H145.037V132.48H150.317V119.44H125.197V123.64ZM145.037 95.56V104.8H136.357V109H145.037V117.84H150.317V95.56H145.037ZM198.515 112.4C190.115 111.04 185.595 105.52 185.595 100.28V97.64H179.955V100.28C179.955 105.4 175.395 111.04 167.075 112.4L169.235 116.76C175.675 115.6 180.355 112.12 182.755 107.6C185.155 112.16 189.875 115.6 196.355 116.76L198.515 112.4ZM185.435 123.84V115.6H180.155V123.84H166.275V128.08H199.635V123.84H185.435ZM223.432 114.04H215.912V103H223.432V114.04ZM210.672 114.04H205.872V118.24H233.552V114.04H228.672V103H233.672V98.8H205.672V103H210.672V114.04ZM203.072 123.88V128.16H236.432V123.88H203.072ZM269.668 114.6H249.148V110.48H268.548V106.4H249.148V102.52H269.388V98.28H243.788V118.76H269.668V114.6ZM239.868 123.92V128.2H273.228V123.92H239.868ZM285.825 101.6C287.825 101.6 289.265 102.68 289.265 104.68C289.265 106.6 287.825 107.72 285.825 107.72C283.785 107.72 282.305 106.6 282.305 104.68C282.305 102.68 283.785 101.6 285.825 101.6ZM285.825 111.64C290.505 111.64 293.945 108.72 293.945 104.68C293.945 100.56 290.505 97.68 285.825 97.68C281.105 97.68 277.625 100.56 277.625 104.68C277.625 108.72 281.105 111.64 285.825 111.64ZM294.705 112.68C288.905 113.48 281.025 113.56 276.105 113.56L276.665 117.84C278.545 117.84 280.785 117.84 283.225 117.72V129.56H288.265V117.44C290.585 117.24 292.985 116.92 295.105 116.52L294.705 112.68ZM296.505 119.32H290.745V123.28H296.505V130.76H301.425V96.24H296.505V119.32ZM303.865 95.64V132.44H308.865V95.64H303.865ZM323.542 119.68C320.862 119.68 319.062 116.76 319.062 111.28C319.062 105.84 320.862 102.92 323.542 102.92C326.262 102.92 328.062 105.84 328.062 111.28C328.062 116.76 326.262 119.68 323.542 119.68ZM339.102 95.56V108.84H332.942C332.222 102.2 328.502 98.16 323.542 98.16C318.062 98.16 314.022 103.2 314.022 111.28C314.022 119.4 318.062 124.48 323.542 124.48C328.662 124.48 332.422 120.16 332.982 113.12H339.102V132.52H344.382V95.56H339.102ZM366.54 103.24H373.74V119.32H366.54V103.24ZM361.34 123.48H378.94V99.08H361.34V123.48ZM394.42 109.48H389.06V95.64H383.78V132.44H389.06V113.84H394.42V109.48ZM422.257 95.56V132.52H427.537V95.56H422.257ZM407.737 98.16C402.177 98.16 398.057 103.2 398.057 111.28C398.057 119.4 402.177 124.48 407.737 124.48C413.297 124.48 417.417 119.4 417.417 111.28C417.417 103.2 413.297 98.16 407.737 98.16ZM407.737 102.92C410.457 102.92 412.337 105.84 412.337 111.28C412.337 116.76 410.457 119.68 407.737 119.68C405.017 119.68 403.137 116.76 403.137 111.28C403.137 105.84 405.017 102.92 407.737 102.92ZM466.014 112.92C457.694 111.52 453.134 105.8 453.134 100.4V97.76H447.494V100.4C447.494 105.68 442.894 111.52 434.614 112.92L436.854 117.36C443.254 116.12 447.934 112.52 450.294 107.84C452.654 112.52 457.374 116.08 463.774 117.36L466.014 112.92ZM433.814 123.68V127.96H467.174V123.68H433.814ZM477.531 113.04H488.091V108.92H477.531V102.92H489.331V98.68H472.291V124.16H475.291C481.491 124.16 486.211 124.04 491.531 123.2L491.051 118.96C486.531 119.68 482.491 119.88 477.531 119.92V113.04ZM496.251 95.56V108.56H489.931V112.8H496.251V132.52H501.531V95.56H496.251ZM536.088 119.92C537.568 112.08 537.568 106.88 537.568 102.28V98.76H510.808V102.96H532.288C532.288 107.24 532.208 112.36 530.808 119.32L536.088 119.92ZM524.488 123.76V111.08H519.208V123.76H507.448V128H540.768V123.76H524.488Z" fill="black"/>
<path d="M90.56 170.34C87.92 169.56 86.18 167.58 86.18 165.4V165.04H90.14V163.72H86.18V161.44H84.54V163.72H80.56V165.04H84.54V165.4C84.54 167.8 82.74 169.96 80.08 170.78L80.9 172.08C83 171.36 84.62 169.88 85.38 167.98C86.18 169.68 87.76 170.98 89.8 171.62L90.56 170.34ZM88.28 178.18C85.6 178.18 84 177.46 84 176.22C84 174.98 85.6 174.26 88.28 174.26C90.92 174.26 92.54 174.98 92.54 176.22C92.54 177.46 90.92 178.18 88.28 178.18ZM88.28 172.98C84.58 172.98 82.36 174.14 82.36 176.22C82.36 178.28 84.58 179.44 88.28 179.44C91.94 179.44 94.18 178.28 94.18 176.22C94.18 174.14 91.94 172.98 88.28 172.98ZM93.98 166.18V161.54H92.34V172.54H93.98V167.54H96.64V166.18H93.98ZM104.278 162.86C101.498 162.86 99.4784 164.56 99.4784 167.08C99.4784 169.58 101.498 171.3 104.278 171.3C107.078 171.3 109.078 169.58 109.078 167.08C109.078 164.56 107.078 162.86 104.278 162.86ZM104.278 164.26C106.138 164.26 107.478 165.4 107.478 167.08C107.478 168.74 106.138 169.9 104.278 169.9C102.438 169.9 101.078 168.74 101.078 167.08C101.078 165.4 102.438 164.26 104.278 164.26ZM111.438 161.54V179.52H113.078V161.54H111.438ZM98.7784 175.58C102.018 175.58 106.358 175.54 110.398 174.8L110.258 173.58C106.338 174.18 101.838 174.2 98.5784 174.2L98.7784 175.58ZM129.977 172.16H131.637V161.56H129.977V165.36H126.077V166.7H129.977V172.16ZM127.377 170.04C124.757 169.12 123.017 166.9 123.017 164.34V162.56H121.377V164.4C121.377 167.14 119.597 169.54 116.837 170.52L117.697 171.86C119.857 171.04 121.477 169.42 122.237 167.3C123.017 169.16 124.537 170.58 126.497 171.32L127.377 170.04ZM125.717 178.16C123.017 178.16 121.377 177.38 121.377 176.08C121.377 174.76 123.017 173.98 125.717 173.98C128.417 173.98 130.057 174.76 130.057 176.08C130.057 177.38 128.417 178.16 125.717 178.16ZM125.717 172.7C122.037 172.7 119.737 173.92 119.737 176.08C119.737 178.22 122.037 179.46 125.717 179.46C129.397 179.46 131.697 178.22 131.697 176.08C131.697 173.92 129.397 172.7 125.717 172.7ZM144.615 171.6C145.115 168.26 145.115 165.92 145.115 164.48V163.5H136.055V164.84H143.515C143.515 166.28 143.475 168.46 142.975 171.44L144.615 171.6ZM140.495 168.62H138.875V174.14C137.535 174.18 136.215 174.2 135.075 174.2L135.255 175.56C138.435 175.56 142.655 175.48 146.375 174.88L146.275 173.68C144.455 173.9 142.455 174.02 140.495 174.1V168.62ZM151.875 169.04H149.015V161.54H147.375V179.48H149.015V170.42H151.875V169.04ZM173.335 161.56H171.695V174.66H173.335V161.56ZM160.635 167.2C160.635 165.46 161.955 164.22 163.695 164.22C165.475 164.22 166.795 165.46 166.795 167.2C166.795 168.98 165.475 170.22 163.695 170.22C161.955 170.22 160.635 168.98 160.635 167.2ZM168.395 167.2C168.395 164.62 166.375 162.8 163.695 162.8C161.035 162.8 159.035 164.62 159.035 167.2C159.035 169.8 161.035 171.64 163.695 171.64C166.375 171.64 168.395 169.8 168.395 167.2ZM163.435 177.74V173.32H161.795V179.08H173.875V177.74H163.435ZM177.773 162.94V164.28H184.373C184.033 167.44 181.273 169.98 177.053 171.3L177.713 172.6C182.873 170.98 186.133 167.58 186.133 162.94H177.773ZM181.393 173.32H179.753V179.08H191.713V177.74H181.393V173.32ZM190.933 167V161.56H189.293V174.66H190.933V168.36H193.573V167H190.933ZM196.452 163.3V174.96H204.692V163.3H196.452ZM203.092 164.62V173.66H198.052V164.62H203.092ZM208.452 161.54V179.52H210.092V161.54H208.452ZM226.37 164.68H215.89V168.52H228.31V167.34H217.51V165.8H227.99V162.06H215.85V163.22H226.37V164.68ZM217.41 176.4H228.05V172.58H215.75V173.76H226.43V175.26H215.79V179.24H228.61V178.06H217.41V176.4ZM213.81 169.88V171.12H230.07V169.88H213.81ZM247.489 167.2H243.029V163.44H247.489V167.2ZM241.389 167.2H238.749V168.52H251.769V167.2H249.129V163.44H251.849V162.12H238.689V163.44H241.389V167.2ZM249.809 177.92H240.769V174.94H249.809V177.92ZM253.389 171.54V170.22H237.169V171.54H244.469V173.64H239.169V179.24H251.409V173.64H246.109V171.54H253.389ZM263.668 163.48C266.488 163.48 268.288 164.32 268.288 165.74C268.288 167.16 266.488 167.98 263.668 167.98C260.848 167.98 259.048 167.16 259.048 165.74C259.048 164.32 260.848 163.48 263.668 163.48ZM263.668 169.3C267.508 169.3 269.968 167.98 269.968 165.74C269.968 163.5 267.508 162.16 263.668 162.16C259.828 162.16 257.368 163.5 257.368 165.74C257.368 167.98 259.828 169.3 263.668 169.3ZM259.288 173.88H257.648V179.08H269.988V177.74H259.288V173.88ZM255.548 170.98V172.3H271.768V170.98H255.548ZM294.407 170.3C291.267 169.74 287.847 167.1 287.847 164.12V162.74H286.127V164.12C286.127 167.1 282.727 169.74 279.587 170.3L280.267 171.66C283.027 171.08 285.827 169.22 286.987 166.66C288.147 169.22 290.967 171.08 293.707 171.66L294.407 170.3ZM287.807 175.8V171.44H286.167V175.8H278.927V177.14H295.207V175.8H287.807ZM307.646 170.9H303.186V164.66H307.646V170.9ZM301.546 170.9H298.806V172.24H312.026V170.9H309.286V164.66H312.066V163.34H298.766V164.66H301.546V170.9ZM297.326 175.82V177.18H313.586V175.82H297.326ZM330.124 171.22H319.464V168.38H329.544V167.08H319.464V164.42H329.944V163.1H317.804V172.54H330.124V171.22ZM315.704 175.82V177.16H331.984V175.82H315.704ZM338.643 163.94C340.063 163.94 341.063 164.78 341.063 166C341.063 167.2 340.063 168.06 338.643 168.06C337.223 168.06 336.203 167.2 336.203 166C336.203 164.78 337.223 163.94 338.643 163.94ZM338.643 169.3C340.883 169.3 342.543 167.94 342.543 166C342.543 164.04 340.883 162.7 338.643 162.7C336.383 162.7 334.743 164.04 334.743 166C334.743 167.94 336.383 169.3 338.643 169.3ZM343.223 170.22C340.323 170.66 336.343 170.68 333.883 170.68L334.083 172.06C335.123 172.06 336.423 172.06 337.783 172V178.04H339.343V171.9C340.703 171.82 342.083 171.68 343.342 171.42L343.223 170.22ZM344.362 173.32H341.003V174.6H344.362V178.56H345.903V161.98H344.362V173.32ZM347.743 161.56V179.48H349.323V161.56H347.743ZM357.321 173.98C355.601 173.98 354.401 172.1 354.401 169.18C354.401 166.28 355.601 164.4 357.321 164.4C359.021 164.4 360.221 166.28 360.221 169.18C360.221 172.1 359.021 173.98 357.321 173.98ZM365.661 161.54V168.38H361.761C361.501 165.02 359.741 162.92 357.321 162.92C354.701 162.92 352.841 165.36 352.841 169.18C352.841 173 354.701 175.44 357.321 175.44C359.821 175.44 361.601 173.24 361.761 169.72H365.661V179.52H367.301V161.54H365.661ZM377.72 166.86C377.72 165.2 379.04 164 380.78 164C382.54 164 383.82 165.2 383.82 166.86C383.82 168.54 382.54 169.74 380.78 169.74C379.04 169.74 377.72 168.54 377.72 166.86ZM389 165.46V168.26H385.14C385.3 167.82 385.38 167.36 385.38 166.86C385.38 166.34 385.3 165.88 385.16 165.46H389ZM389 169.6V172.16H390.66V161.54H389V164.12H384.4C383.58 163.2 382.3 162.62 380.78 162.62C378.12 162.62 376.16 164.36 376.16 166.86C376.16 169.38 378.12 171.14 380.78 171.14C382.3 171.14 383.58 170.56 384.4 169.6H389ZM384.72 178.16C382.02 178.16 380.38 177.36 380.38 176.02C380.38 174.66 382.02 173.86 384.72 173.86C387.46 173.86 389.1 174.66 389.1 176.02C389.1 177.36 387.46 178.16 384.72 178.16ZM384.72 172.58C381.04 172.58 378.76 173.84 378.76 176.02C378.76 178.2 381.04 179.46 384.72 179.46C388.42 179.46 390.72 178.2 390.72 176.02C390.72 173.84 388.42 172.58 384.72 172.58ZM399.579 165H402.839V163.66H394.519V165H397.999V166.4C397.999 170.04 396.659 173.1 394.099 174.54L395.099 175.78C396.959 174.7 398.219 172.76 398.819 170.32C399.459 172.44 400.699 174.18 402.459 175.16L403.419 173.9C400.879 172.58 399.579 169.68 399.579 166.4V165ZM407.999 161.52V168.78H405.639V161.94H404.099V178.6H405.639V170.14H407.999V179.48H409.579V161.52H407.999ZM418.497 162.86C415.717 162.86 413.697 164.56 413.697 167.08C413.697 169.58 415.717 171.3 418.497 171.3C421.297 171.3 423.297 169.58 423.297 167.08C423.297 164.56 421.297 162.86 418.497 162.86ZM418.497 164.26C420.357 164.26 421.697 165.4 421.697 167.08C421.697 168.74 420.357 169.9 418.497 169.9C416.657 169.9 415.297 168.74 415.297 167.08C415.297 165.4 416.657 164.26 418.497 164.26ZM425.657 161.54V179.52H427.297V161.54H425.657ZM412.997 175.58C416.237 175.58 420.577 175.54 424.617 174.8L424.477 173.58C420.557 174.18 416.057 174.2 412.797 174.2L412.997 175.58ZM444.137 163.26C446.977 163.26 448.757 164.06 448.757 165.4C448.757 166.74 446.977 167.54 444.137 167.54C441.297 167.54 439.517 166.74 439.517 165.4C439.517 164.06 441.297 163.26 444.137 163.26ZM444.137 168.82C448.017 168.82 450.437 167.56 450.437 165.4C450.437 163.24 448.017 161.96 444.137 161.96C440.277 161.96 437.837 163.24 437.837 165.4C437.837 167.56 440.277 168.82 444.137 168.82ZM446.337 173.78H441.957V171.5H446.337V173.78ZM452.257 171.5V170.18H436.037V171.5H440.317V173.78H437.837V175.1H448.617V179.5H450.257V173.78H447.977V171.5H452.257ZM467.555 172.16H469.215V161.56H467.555V165.36H463.655V166.7H467.555V172.16ZM464.955 170.04C462.335 169.12 460.595 166.9 460.595 164.34V162.56H458.955V164.4C458.955 167.14 457.175 169.54 454.415 170.52L455.275 171.86C457.435 171.04 459.055 169.42 459.815 167.3C460.595 169.16 462.115 170.58 464.075 171.32L464.955 170.04ZM463.295 178.16C460.595 178.16 458.955 177.38 458.955 176.08C458.955 174.76 460.595 173.98 463.295 173.98C465.995 173.98 467.635 174.76 467.635 176.08C467.635 177.38 465.995 178.16 463.295 178.16ZM463.295 172.7C459.615 172.7 457.315 173.92 457.315 176.08C457.315 178.22 459.615 179.46 463.295 179.46C466.975 179.46 469.275 178.22 469.275 176.08C469.275 173.92 466.975 172.7 463.295 172.7Z" fill="black"/>
<path d="M94.072 441.016H89V439.64H87.688V441.016H82.52V442.04H94.072V441.016ZM84.728 450.904H91.96V453H84.728V450.904ZM83.448 453.992H93.24V449.912H83.448V453.992ZM85.08 444.632C85.08 443.928 86.248 443.528 88.344 443.528C90.408 443.528 91.576 443.928 91.576 444.632C91.576 445.352 90.408 445.752 88.344 445.752C86.248 445.752 85.08 445.352 85.08 444.632ZM89 447.752V446.664C91.528 446.568 92.968 445.864 92.968 444.632C92.968 443.304 91.288 442.6 88.344 442.6C85.368 442.6 83.704 443.304 83.704 444.632C83.704 445.864 85.128 446.568 87.688 446.664V447.752H81.848V448.792H94.808V447.752H89ZM99.0788 442.712H100.871V449.448C100.263 449.48 99.6708 449.496 99.0788 449.512V442.712ZM102.071 442.712H103.255V441.656H96.6948V442.712H97.8788V449.544C97.3348 449.56 96.8548 449.56 96.4228 449.56L96.5508 450.648C98.4228 450.648 101.431 450.584 103.655 450.168L103.575 449.208C103.111 449.272 102.583 449.32 102.071 449.368V442.712ZM104.791 445.304H102.823V446.456H104.791V453.432H106.023V440.184H104.791V445.304ZM107.559 439.848V454.184H108.823V439.848H107.559ZM121.718 439.832V454.216H123.03V439.832H121.718ZM115.462 440.936C113.334 440.936 111.814 442.888 111.814 445.944C111.814 449 113.334 450.952 115.462 450.952C117.59 450.952 119.11 449 119.11 445.944C119.11 442.888 117.59 440.936 115.462 440.936ZM115.462 442.12C116.854 442.12 117.846 443.624 117.846 445.944C117.846 448.28 116.854 449.784 115.462 449.784C114.054 449.784 113.062 448.28 113.062 445.944C113.062 443.624 114.054 442.12 115.462 442.12ZM131.124 442.392H134.5V441.304H126.484V442.392H129.812V444.216C129.812 446.696 128.068 449.4 126.004 450.376L126.772 451.432C128.404 450.6 129.812 448.792 130.468 446.696C131.156 448.664 132.564 450.312 134.228 451.08L134.964 450.024C132.852 449.128 131.124 446.648 131.124 444.216V442.392ZM136.436 439.848V454.184H137.748V439.848H136.436ZM150.675 449.656H146.579V445.88H150.675V449.656ZM150.675 444.84H146.579V441.048H145.283V450.728H151.955V441.048H150.675V444.84ZM158.115 445.48H155.747V439.848H154.435V454.168H155.747V446.584H158.115V445.48ZM166.578 451.336V448.632H171.17V447.576H162.338V445.256H170.834V440.888H161.01V441.96H169.554V444.2H161.042V448.632H165.25V451.336H159.41V452.408H172.45V451.336H166.578ZM174.913 441.368V442.456H180.177C179.873 445.848 177.905 448.6 174.241 450.44L174.961 451.464C179.601 449.144 181.473 445.448 181.473 441.368H174.913ZM187.489 445.656H185.185V439.832H183.873V454.184H185.185V446.744H187.489V445.656ZM189.712 441.384V442.44H195.104C194.832 445.848 192.912 448.6 189.056 450.44L189.76 451.512C194.528 449.176 196.432 445.528 196.432 441.384H189.712ZM199.328 439.832V454.184H200.64V439.832H199.328Z" fill="black"/>
<path d="M95.059 282.455C92.39 281.979 89.483 279.735 89.483 277.202V276.029H88.021V277.202C88.021 279.735 85.131 281.979 82.462 282.455L83.04 283.611C85.386 283.118 87.766 281.537 88.752 279.361C89.738 281.537 92.135 283.118 94.464 283.611L95.059 282.455ZM89.449 287.13V283.424H88.055V287.13H81.901V288.269H95.739V287.13H89.449ZM106.312 282.965H102.521V277.661H106.312V282.965ZM101.127 282.965H98.7977V284.104H110.035V282.965H107.706V277.661H110.069V276.539H98.7637V277.661H101.127V282.965ZM97.5397 287.147V288.303H111.361V287.147H97.5397ZM125.418 283.237H116.357V280.823H124.925V279.718H116.357V277.457H125.265V276.335H114.946V284.359H125.418V283.237ZM113.161 287.147V288.286H126.999V287.147H113.161ZM132.659 277.049C133.866 277.049 134.716 277.763 134.716 278.8C134.716 279.82 133.866 280.551 132.659 280.551C131.452 280.551 130.585 279.82 130.585 278.8C130.585 277.763 131.452 277.049 132.659 277.049ZM132.659 281.605C134.563 281.605 135.974 280.449 135.974 278.8C135.974 277.134 134.563 275.995 132.659 275.995C130.738 275.995 129.344 277.134 129.344 278.8C129.344 280.449 130.738 281.605 132.659 281.605ZM136.552 282.387C134.087 282.761 130.704 282.778 128.613 282.778L128.783 283.951C129.667 283.951 130.772 283.951 131.928 283.9V289.034H133.254V283.815C134.41 283.747 135.583 283.628 136.654 283.407L136.552 282.387ZM137.521 285.022H134.665V286.11H137.521V289.476H138.83V275.383H137.521V285.022ZM140.394 275.026V290.258H141.737V275.026H140.394ZM148.536 285.583C147.074 285.583 146.054 283.985 146.054 281.503C146.054 279.038 147.074 277.44 148.536 277.44C149.981 277.44 151.001 279.038 151.001 281.503C151.001 283.985 149.981 285.583 148.536 285.583ZM155.625 275.009V280.823H152.31C152.089 277.967 150.593 276.182 148.536 276.182C146.309 276.182 144.728 278.256 144.728 281.503C144.728 284.75 146.309 286.824 148.536 286.824C150.661 286.824 152.174 284.954 152.31 281.962H155.625V290.292H157.019V275.009H155.625ZM160.672 276.981V278.12H165.245C165.041 281.282 163.596 284.036 160.094 285.991L160.91 286.994C165.245 284.546 166.622 280.908 166.622 276.981H160.672ZM171.688 275.009V281.146H169.614V275.417H168.305V289.493H169.614V282.285H171.688V290.258H173.031V275.009H171.688ZM182.057 281.18H177.739V278.902H182.057V281.18ZM183.417 275.638H182.057V277.831H177.739V275.638H176.362V282.302H183.417V275.638ZM179.286 287.317H187.565V283.611H177.875V284.716H186.188V286.28H177.926V290.088H188.126V288.983H179.286V287.317ZM187.565 278.29V275.026H186.171V282.897H187.565V279.446H189.826V278.29H187.565ZM199.328 283.56C199.753 280.721 199.753 278.732 199.753 277.508V276.675H192.052V277.814H198.393C198.393 279.038 198.359 280.891 197.934 283.424L199.328 283.56ZM195.826 281.027H194.449V285.719C193.31 285.753 192.188 285.77 191.219 285.77L191.372 286.926C194.075 286.926 197.662 286.858 200.824 286.348L200.739 285.328C199.192 285.515 197.492 285.617 195.826 285.685V281.027ZM205.499 281.384H203.068V275.009H201.674V290.258H203.068V282.557H205.499V281.384ZM93.019 315.026V323.747H94.413V315.026H93.019ZM84.553 324.563V330.054H94.413V324.563H84.553ZM93.053 325.668V328.932H85.913V325.668H93.053ZM86.219 315.825C83.924 315.825 82.258 317.27 82.258 319.378C82.258 321.486 83.924 322.931 86.219 322.931C88.531 322.931 90.214 321.486 90.214 319.378C90.214 317.27 88.531 315.825 86.219 315.825ZM86.219 316.981C87.749 316.981 88.854 317.984 88.854 319.378C88.854 320.789 87.749 321.775 86.219 321.775C84.706 321.775 83.618 320.789 83.618 319.378C83.618 317.984 84.706 316.981 86.219 316.981ZM102.623 325.294H99.4097V321.35H102.623V325.294ZM106.142 320.806H103.932V316.522H102.623V320.228H99.4097V316.522H98.0837V326.433H103.932V321.945H106.142V329.51H107.468V315.349H106.142V320.806ZM109.168 315.009V330.258H110.494V315.009H109.168ZM115.541 317.627H121.372V316.454H114.164V326.501H115.388C118.465 326.501 120.454 326.399 122.8 325.974L122.647 324.801C120.403 325.226 118.482 325.311 115.541 325.311V317.627ZM124.262 315.009V330.292H125.656V315.009H124.262ZM141.04 322.319H131.945V317.559H140.887V316.403H130.568V323.458H141.04V322.319ZM128.8 327.045V328.201H142.638V327.045H128.8ZM157.614 322.455C154.945 321.979 152.038 319.735 152.038 317.202V316.029H150.576V317.202C150.576 319.735 147.686 321.979 145.017 322.455L145.595 323.611C147.941 323.118 150.321 321.537 151.307 319.361C152.293 321.537 154.69 323.118 157.019 323.611L157.614 322.455ZM152.004 327.13V323.424H150.61V327.13H144.456V328.269H158.294V327.13H152.004ZM168.866 322.965H165.075V317.661H168.866V322.965ZM163.681 322.965H161.352V324.104H172.589V322.965H170.26V317.661H172.623V316.539H161.318V317.661H163.681V322.965ZM160.094 327.147V328.303H173.915V327.147H160.094ZM187.973 323.237H178.912V320.823H187.48V319.718H178.912V317.457H187.82V316.335H177.501V324.359H187.973V323.237ZM175.716 327.147V328.286H189.554V327.147H175.716ZM195.214 317.049C196.421 317.049 197.271 317.763 197.271 318.8C197.271 319.82 196.421 320.551 195.214 320.551C194.007 320.551 193.14 319.82 193.14 318.8C193.14 317.763 194.007 317.049 195.214 317.049ZM195.214 321.605C197.118 321.605 198.529 320.449 198.529 318.8C198.529 317.134 197.118 315.995 195.214 315.995C193.293 315.995 191.899 317.134 191.899 318.8C191.899 320.449 193.293 321.605 195.214 321.605ZM199.107 322.387C196.642 322.761 193.259 322.778 191.168 322.778L191.338 323.951C192.222 323.951 193.327 323.951 194.483 323.9V329.034H195.809V323.815C196.965 323.747 198.138 323.628 199.209 323.407L199.107 322.387ZM200.076 325.022H197.22V326.11H200.076V329.476H201.385V315.383H200.076V325.022ZM202.949 315.026V330.258H204.292V315.026H202.949ZM211.09 325.583C209.628 325.583 208.608 323.985 208.608 321.503C208.608 319.038 209.628 317.44 211.09 317.44C212.535 317.44 213.555 319.038 213.555 321.503C213.555 323.985 212.535 325.583 211.09 325.583ZM218.179 315.009V320.823H214.864C214.643 317.967 213.147 316.182 211.09 316.182C208.863 316.182 207.282 318.256 207.282 321.503C207.282 324.75 208.863 326.824 211.09 326.824C213.215 326.824 214.728 324.954 214.864 321.962H218.179V330.292H219.573V315.009H218.179ZM230.605 323.56C231.03 320.721 231.03 318.732 231.03 317.508V316.675H223.329V317.814H229.67C229.67 319.038 229.636 320.891 229.211 323.424L230.605 323.56ZM227.103 321.027H225.726V325.719C224.587 325.753 223.465 325.77 222.496 325.77L222.649 326.926C225.352 326.926 228.939 326.858 232.101 326.348L232.016 325.328C230.469 325.515 228.769 325.617 227.103 325.685V321.027ZM236.776 321.384H234.345V315.009H232.951V330.258H234.345V322.557H236.776V321.384ZM90.044 358.97V360.109H93.053V364.104H94.464V355.026H93.053V358.97H90.044ZM90.894 362.438C88.684 361.656 87.188 359.735 87.188 357.78V357.253H90.537V356.131H82.394V357.253H85.794V357.78C85.794 359.973 84.23 362.03 81.952 362.863L82.683 363.968C84.468 363.288 85.879 361.86 86.525 360.092C87.188 361.656 88.497 362.914 90.197 363.526L90.894 362.438ZM89.432 369.17C87.137 369.17 85.743 368.524 85.743 367.419C85.743 366.314 87.137 365.651 89.432 365.651C91.727 365.651 93.121 366.314 93.121 367.419C93.121 368.524 91.727 369.17 89.432 369.17ZM89.432 364.58C86.304 364.58 84.349 365.617 84.349 367.419C84.349 369.221 86.304 370.258 89.432 370.258C92.56 370.258 94.515 369.221 94.515 367.419C94.515 365.617 92.56 364.58 89.432 364.58ZM100.549 359.956H108.335V362.761H100.549V359.956ZM105.139 367.164V363.883H109.695V356.097H108.335V358.817H100.549V356.097H99.1717V363.883H103.728V367.164H97.5397V368.303H111.361V367.164H105.139ZM116.187 359.956H123.973V362.761H116.187V359.956ZM120.777 367.164V363.883H125.333V356.097H123.973V358.817H116.187V356.097H114.81V363.883H119.366V367.164H113.178V368.303H126.999V367.164H120.777ZM130.466 359.837C130.466 358.341 131.588 357.287 133.084 357.287C134.58 357.287 135.702 358.341 135.702 359.837C135.702 361.333 134.58 362.387 133.084 362.387C131.588 362.387 130.466 361.333 130.466 359.837ZM137.062 359.837C137.062 357.627 135.362 356.08 133.084 356.08C130.806 356.08 129.106 357.627 129.106 359.837C129.106 362.047 130.806 363.594 133.084 363.594C135.362 363.594 137.062 362.047 137.062 359.837ZM132.557 365.09H131.163V369.918H141.329V368.779H132.557V365.09ZM140.649 359.65V355.009H139.255V366.229H140.649V360.806H142.893V359.65H140.649ZM152.412 363.56C152.837 360.721 152.837 358.732 152.837 357.508V356.675H145.136V357.814H151.477C151.477 359.038 151.443 360.891 151.018 363.424L152.412 363.56ZM148.91 361.027H147.533V365.719C146.394 365.753 145.272 365.77 144.303 365.77L144.456 366.926C147.159 366.926 150.746 366.858 153.908 366.348L153.823 365.328C152.276 365.515 150.576 365.617 148.91 365.685V361.027ZM158.583 361.384H156.152V355.009H154.758V370.258H156.152V362.557H158.583V361.384Z" fill="#2E2E2E"/>
<path d="M79 252H260" stroke="#EEB322"/>
<line x1="82" y1="454.75" x2="203" y2="454.75" stroke="black" stroke-width="0.5"/>
<path d="M468.337 474.518C467.9 474.539 467.467 474.424 467.098 474.19C466.728 473.955 466.439 473.613 466.27 473.209C466.102 472.805 466.061 472.359 466.154 471.931C466.247 471.503 466.469 471.114 466.791 470.817C466.844 470.603 466.883 470.449 466.937 470.235C466.917 470.188 466.898 470.142 466.879 470.095C466.438 469.054 465.701 468.167 464.758 467.544C463.815 466.922 462.71 466.592 461.58 466.596C460.451 466.6 459.348 466.938 458.41 467.568C457.472 468.198 456.741 469.09 456.308 470.135C454.579 474.302 452.378 478.477 451.836 482.883C451.598 484.831 451.698 486.805 452.134 488.718C448.073 479.853 445.965 470.218 445.951 460.465C445.95 458.018 446.086 455.573 446.358 453.141C446.583 451.147 446.895 449.167 447.293 447.202C449.47 436.538 454.143 426.542 460.928 418.037C464.212 416.243 466.868 413.485 468.538 410.135C469.143 408.93 469.57 407.644 469.807 406.317C469.437 406.366 469.06 406.396 468.69 406.421C468.574 406.427 468.453 406.433 468.338 406.439L468.294 406.441C467.887 406.459 467.483 406.359 467.131 406.153C466.78 405.947 466.495 405.644 466.311 405.279C466.128 404.915 466.054 404.506 466.097 404.1C466.141 403.694 466.301 403.31 466.558 402.993C466.718 402.796 466.878 402.6 467.038 402.403C467.281 402.099 467.53 401.801 467.773 401.497C467.801 401.468 467.827 401.438 467.852 401.406C468.131 401.059 468.41 400.719 468.69 400.372C468.18 399.58 467.494 398.917 466.686 398.433C463.886 396.792 460.023 397.929 458.001 400.464C455.972 402.998 455.59 406.554 456.294 409.721C456.987 412.416 458.133 414.973 459.683 417.283C459.531 417.478 459.373 417.666 459.221 417.861C456.446 421.433 454.027 425.268 451.999 429.313C452.492 424.782 451.903 420.198 450.281 415.94C448.638 411.971 445.556 408.628 442.843 405.197C439.584 401.075 432.901 402.874 432.327 408.099C432.321 408.149 432.316 408.2 432.31 408.25C432.713 408.478 433.108 408.719 433.494 408.975C433.979 409.299 434.354 409.762 434.572 410.304C434.789 410.846 434.838 411.44 434.712 412.01C434.586 412.58 434.29 413.099 433.865 413.498C433.439 413.897 432.903 414.158 432.327 414.247L432.268 414.256C432.411 415.71 432.665 417.15 433.027 418.566C434.075 422.517 435.928 426.208 438.469 429.409C441.009 432.61 444.183 435.251 447.791 437.166C448.028 437.288 448.259 437.409 448.496 437.525C446.458 443.304 445.18 449.323 444.694 455.432C444.419 459.036 444.435 462.657 444.743 466.258L444.724 466.13C443.947 462.126 441.812 458.512 438.681 455.9C434.031 452.077 427.461 450.669 422.444 447.595C421.911 447.253 421.291 447.07 420.657 447.068C420.023 447.067 419.402 447.247 418.868 447.587C418.333 447.927 417.906 448.413 417.638 448.987C417.37 449.562 417.272 450.202 417.355 450.83C417.362 450.875 417.369 450.92 417.376 450.964C418.124 451.269 418.852 451.62 419.556 452.016C419.959 452.244 420.354 452.485 420.74 452.74C421.225 453.065 421.6 453.528 421.818 454.07C422.035 454.611 422.084 455.206 421.958 455.776C421.832 456.346 421.536 456.864 421.111 457.263C420.685 457.662 420.149 457.924 419.573 458.012L419.514 458.022C419.471 458.028 419.435 458.034 419.392 458.04C420.67 461.094 422.464 463.904 424.694 466.349C427.45 469.309 430.78 471.673 434.482 473.299C438.183 474.924 442.177 475.776 446.218 475.801H446.224C447.322 480.573 448.911 485.218 450.968 489.66H467.912C467.973 489.472 468.028 489.277 468.083 489.089C466.514 489.188 464.939 489.094 463.394 488.809C464.651 487.265 465.908 485.709 467.165 484.165C467.193 484.137 467.22 484.106 467.244 484.074C467.882 483.284 468.526 482.5 469.164 481.71L469.164 481.709C469.198 479.287 468.92 476.87 468.338 474.519L468.337 474.518Z" fill="#F2F2F2"/>
<path d="M746.542 474.518C746.979 474.539 747.412 474.424 747.781 474.189C748.151 473.955 748.44 473.613 748.609 473.209C748.778 472.805 748.818 472.359 748.725 471.931C748.632 471.503 748.41 471.114 748.089 470.817C748.035 470.603 747.996 470.449 747.942 470.235C747.962 470.188 747.981 470.142 748 470.095C748.441 469.054 749.179 468.167 750.121 467.544C751.064 466.922 752.169 466.592 753.299 466.596C754.428 466.6 755.531 466.938 756.469 467.568C757.407 468.197 758.138 469.09 758.571 470.135C760.3 474.302 762.501 478.477 763.043 482.883C763.281 484.831 763.181 486.805 762.745 488.718C766.806 479.853 768.914 470.218 768.928 460.465C768.929 458.018 768.793 455.573 768.521 453.14C768.296 451.147 767.984 449.167 767.586 447.202C765.409 436.538 760.737 426.542 753.951 418.037C750.667 416.243 748.011 413.485 746.341 410.135C745.736 408.93 745.309 407.644 745.072 406.317C745.442 406.366 745.819 406.396 746.189 406.421C746.305 406.427 746.426 406.433 746.542 406.439L746.585 406.441C746.992 406.459 747.396 406.359 747.748 406.153C748.099 405.947 748.384 405.644 748.568 405.279C748.751 404.915 748.826 404.506 748.782 404.1C748.738 403.694 748.578 403.31 748.321 402.993C748.161 402.796 748.001 402.6 747.841 402.403C747.598 402.099 747.349 401.801 747.106 401.497C747.078 401.468 747.052 401.438 747.027 401.406C746.748 401.059 746.469 400.719 746.189 400.372C746.699 399.58 747.385 398.917 748.193 398.433C750.993 396.792 754.856 397.929 756.878 400.464C758.907 402.998 759.29 406.554 758.585 409.721C757.892 412.416 756.746 414.973 755.196 417.283C755.348 417.478 755.506 417.666 755.658 417.861C758.433 421.433 760.852 425.268 762.88 429.313C762.387 424.782 762.976 420.198 764.598 415.94C766.242 411.971 769.323 408.628 772.036 405.197C775.295 401.075 781.978 402.874 782.552 408.099C782.558 408.149 782.563 408.2 782.569 408.25C782.166 408.478 781.771 408.719 781.385 408.975C780.9 409.299 780.525 409.762 780.307 410.304C780.09 410.846 780.041 411.44 780.167 412.01C780.293 412.58 780.589 413.099 781.014 413.498C781.44 413.897 781.976 414.158 782.552 414.247L782.611 414.256C782.468 415.71 782.214 417.15 781.852 418.566C780.804 422.516 778.951 426.208 776.411 429.409C773.87 432.61 770.696 435.25 767.088 437.166C766.851 437.288 766.62 437.409 766.383 437.525C768.421 443.304 769.699 449.323 770.185 455.432C770.461 459.036 770.444 462.657 770.137 466.258L770.155 466.13C770.932 462.126 773.067 458.512 776.198 455.9C780.848 452.077 787.418 450.669 792.435 447.595C792.969 447.253 793.589 447.07 794.222 447.068C794.856 447.067 795.477 447.247 796.011 447.587C796.546 447.927 796.973 448.413 797.241 448.987C797.509 449.562 797.607 450.201 797.524 450.83C797.517 450.875 797.51 450.92 797.503 450.964C796.755 451.269 796.027 451.62 795.323 452.016C794.92 452.243 794.525 452.485 794.139 452.74C793.654 453.065 793.279 453.528 793.061 454.07C792.844 454.611 792.795 455.206 792.921 455.776C793.047 456.346 793.343 456.864 793.768 457.263C794.194 457.662 794.73 457.923 795.306 458.012L795.365 458.021C795.408 458.028 795.444 458.034 795.487 458.04C794.209 461.094 792.415 463.904 790.185 466.349C787.429 469.308 784.099 471.673 780.397 473.299C776.696 474.924 772.702 475.776 768.661 475.801H768.655C767.557 480.573 765.968 485.218 763.911 489.66H746.967C746.906 489.472 746.851 489.277 746.797 489.089C748.365 489.188 749.94 489.094 751.485 488.809C750.228 487.265 748.971 485.709 747.714 484.165C747.686 484.136 747.659 484.106 747.635 484.074C746.997 483.284 746.353 482.5 745.716 481.71L745.715 481.709C745.681 479.286 745.959 476.87 746.542 474.519L746.542 474.518Z" fill="#F2F2F2"/>
<path d="M536.723 482.078H540.825L542.777 466.24H536.723V482.078Z" fill="#9E616A"/>
<path d="M535.384 479.266L541.938 478.874V481.685L548.169 485.992C548.477 486.204 548.709 486.51 548.83 486.864C548.952 487.218 548.958 487.601 548.847 487.959C548.736 488.316 548.513 488.629 548.212 488.85C547.91 489.072 547.546 489.192 547.172 489.192H539.369L538.024 486.412L537.499 489.192H534.557L535.384 479.266Z" fill="#2F2E41"/>
<path d="M485.305 478.589L489.117 480.108L496.782 466.116L491.157 463.875L485.305 478.589Z" fill="#9E616A"/>
<path d="M485.1 475.48L491.334 477.543L490.295 480.154L494.493 486.462C494.701 486.774 494.803 487.144 494.786 487.517C494.768 487.891 494.632 488.25 494.396 488.541C494.161 488.832 493.839 489.04 493.477 489.134C493.115 489.229 492.732 489.205 492.385 489.067L485.135 486.178L484.913 483.098L483.397 485.486L480.664 484.397L485.1 475.48Z" fill="#2F2E41"/>
<path d="M528.453 434.952L521.612 403L510.93 438.501L494.015 472.166L493.925 472.344L488.567 469.457C487.811 455.788 489.607 442.979 496.176 431.778L499.286 401.035C499.381 399.985 501.702 375.323 509.048 370.95L511.2 366.04L532.599 360.75L532.677 360.838C534.735 363.153 536.094 366.004 536.597 369.062L542.991 407.832L542.995 407.853L541.281 434.9L543.626 474.803H535.14C529.89 464.916 527.661 451.633 528.453 434.952Z" fill="#2F2E41"/>
<path d="M632.966 304.572C632.966 313.653 646.44 329.601 649.395 321.015C653.013 310.503 660.731 303.839 665.824 304.572C674.805 305.863 658.468 288.129 649.395 288.129C645.038 288.129 640.859 289.861 637.778 292.945C634.697 296.029 632.966 300.211 632.966 304.572Z" fill="#E6E6E6"/>
<path d="M629.515 253.077C627.385 261.904 636.871 269.519 645.944 269.519C648.102 269.519 650.238 269.094 652.231 268.268C654.225 267.441 656.036 266.23 657.561 264.703C659.087 263.177 660.297 261.364 661.122 259.369C661.948 257.374 662.373 255.236 662.373 253.077C662.373 243.995 650.144 244.684 645.944 236.634C641.137 227.418 634.095 234.102 629.515 253.077Z" fill="#E6E6E6"/>
<path d="M553.595 252.386C553.595 256.747 555.326 260.929 558.407 264.013C561.488 267.096 565.667 268.829 570.024 268.829C579.097 268.829 586.717 261.463 586.453 252.386C585.9 233.37 578.54 225.918 570.024 235.943C564.147 242.861 553.595 243.305 553.595 252.386Z" fill="#E6E6E6"/>
<path d="M552.215 304.572C544.548 301.254 557.864 318.255 568.644 321.015C577.434 323.265 585.073 313.653 585.073 304.572C585.073 302.412 584.648 300.274 583.822 298.279C582.996 296.284 581.786 294.472 580.261 292.945C578.735 291.418 576.924 290.207 574.931 289.381C572.938 288.554 570.801 288.129 568.644 288.129C559.57 288.129 560.543 308.175 552.215 304.572Z" fill="#E6E6E6"/>
<path d="M647.557 245.613H625.581C625.125 245.613 624.672 245.703 624.25 245.878C623.829 246.053 623.445 246.31 623.122 246.633C622.799 246.956 622.543 247.34 622.368 247.762C622.193 248.184 622.104 248.637 622.104 249.094V271.088C622.104 272.011 622.47 272.897 623.122 273.549C623.774 274.202 624.659 274.569 625.581 274.569H647.557C648.479 274.569 649.364 274.202 650.016 273.549C650.668 272.897 651.034 272.011 651.034 271.088V249.094C651.034 248.171 650.668 247.285 650.016 246.633C649.364 245.98 648.479 245.613 647.557 245.613ZM643.43 253.039H640.91C639.19 253.039 638.855 253.854 638.855 255.058V257.611H642.958L642.425 261.619H638.847V272.07C637.317 272.358 635.747 272.354 634.218 272.059V261.619H630.937V257.611H634.279V254.647C634.279 251.103 636.738 249.168 639.905 249.168C641.428 249.168 643.057 249.282 643.43 249.335V253.039Z" fill="#0048FF"/>
<path d="M592.588 245.613H570.613C569.69 245.613 568.806 245.98 568.153 246.633C567.501 247.286 567.135 248.171 567.135 249.094V271.088C567.135 272.011 567.501 272.897 568.153 273.549C568.806 274.202 569.69 274.569 570.613 274.569H592.588C593.51 274.569 594.395 274.202 595.047 273.549C595.699 272.897 596.066 272.011 596.066 271.088V249.094C596.066 248.171 595.699 247.285 595.047 246.633C594.395 245.98 593.51 245.613 592.588 245.613ZM581.6 267.813C580.074 267.813 578.583 267.36 577.314 266.511C576.045 265.663 575.056 264.457 574.473 263.046C573.889 261.635 573.736 260.083 574.034 258.585C574.331 257.087 575.066 255.711 576.145 254.631C577.224 253.551 578.599 252.816 580.095 252.518C581.592 252.22 583.143 252.373 584.553 252.957C585.962 253.542 587.167 254.531 588.015 255.801C588.863 257.071 589.315 258.564 589.315 260.091C589.315 262.139 588.502 264.103 587.056 265.551C585.609 266.999 583.646 267.813 581.6 267.813H581.6ZM590.28 252.37C589.898 252.37 589.525 252.256 589.208 252.044C588.891 251.832 588.644 251.531 588.498 251.178C588.352 250.825 588.313 250.437 588.388 250.063C588.462 249.688 588.646 249.344 588.916 249.074C589.185 248.804 589.529 248.62 589.903 248.546C590.277 248.471 590.665 248.51 591.018 248.656C591.37 248.802 591.671 249.049 591.883 249.367C592.095 249.684 592.208 250.057 592.208 250.439C592.208 250.951 592.005 251.442 591.643 251.804C591.282 252.166 590.791 252.37 590.28 252.37H590.28Z" fill="#0048FF"/>
<path d="M652.851 297.562C653.478 297.566 654.096 297.708 654.662 297.978C655.228 298.247 655.728 298.637 656.127 299.121C656.526 299.605 656.814 300.17 656.971 300.777C657.128 301.385 657.15 302.019 657.035 302.635L665.246 307.983L663.216 313.769L651.727 306.055C650.705 305.794 649.814 305.166 649.223 304.292C648.632 303.417 648.382 302.356 648.52 301.309C648.659 300.262 649.176 299.302 649.974 298.612C650.773 297.921 651.796 297.548 652.851 297.562Z" fill="#FFB6B6"/>
<path d="M655.775 311.622L661.636 304.851L669.208 308.365L684.681 320.69C686.71 320.928 702.103 322.916 701.82 328.574C701.813 329.235 701.663 329.887 701.381 330.484C701.098 331.082 700.69 331.612 700.183 332.036C697.754 334.044 693.544 333.474 693.386 333.451L683.313 332.946C682.786 333.073 677.317 334.331 674.423 332.531C673.545 331.985 655.775 311.622 655.775 311.622Z" fill="#3F3D56"/>
<path d="M672.676 484.588L667.876 484.587L665.593 466.059H672.676L672.676 484.588Z" fill="#FFB6B6"/>
<path d="M673.9 489.245L658.424 489.244V489.048C658.424 487.449 659.059 485.916 660.188 484.785C661.318 483.655 662.85 483.02 664.448 483.02H664.448L667.275 480.873L672.549 483.02L673.9 483.02L673.9 489.245Z" fill="#2F2E41"/>
<path d="M725.356 480.828L720.73 482.107L713.6 464.855L720.428 462.968L725.356 480.828Z" fill="#FFB6B6"/>
<path d="M727.775 484.991L712.857 489.114L712.805 488.926C712.38 487.384 712.584 485.737 713.372 484.346C714.16 482.955 715.468 481.935 717.008 481.509L717.008 481.509L719.162 478.687L724.817 479.35L726.119 478.99L727.775 484.991Z" fill="#2F2E41"/>
<path d="M672.887 372.454L709.155 374.306L709.167 374.339C711.339 380.379 711.847 386.892 710.635 393.196L711.746 402.456L717.297 431.347L724.698 468.386C724.698 468.386 734.32 470.979 721.738 475.424C709.155 479.868 711.746 477.276 713.596 473.942C715.446 470.609 704.529 433.014 704.529 433.014L691.206 403.012L678.254 434.125L676.773 468.571C676.773 468.571 680.659 473.201 669.557 475.053C658.454 476.905 659.01 473.386 661.6 470.794C664.191 468.201 666.411 433.754 666.411 433.754L669.002 401.16C669.002 401.16 668.261 382.27 672.887 372.454Z" fill="#2F2E41"/>
<path d="M708.35 330.137L705.434 322.482L696.043 313.225L684.151 312.291L675.41 320.123L672.939 327.915C676.18 342.938 676.114 356.774 671.521 370.179C671.195 371.105 671.074 372.092 671.168 373.07C671.262 374.048 671.568 374.994 672.065 375.841C672.561 376.689 673.237 377.418 674.044 377.977C674.851 378.537 675.77 378.913 676.738 379.08C690.21 381.346 715.298 384.744 713.57 378.276C711.284 369.719 703.332 351.302 706.278 341.564C707.35 338.181 708.024 334.684 708.288 331.144L708.35 330.137Z" fill="#3F3D56"/>
<path d="M688.098 309.304C693.96 309.304 698.712 304.548 698.712 298.681C698.712 292.814 693.96 288.058 688.098 288.058C682.236 288.058 677.483 292.814 677.483 298.681C677.483 304.548 682.236 309.304 688.098 309.304Z" fill="#FFB6B6"/>
<path d="M685.201 308.746L693.292 308.333C694.329 308.28 695.46 308.188 696.214 307.474C696.62 307.033 696.932 306.514 697.131 305.949C697.879 304.21 698.627 302.471 699.356 300.724C700.364 298.308 701.354 295.756 701.097 293.15C701.037 291.96 700.538 290.835 699.697 289.991C699.268 289.584 698.717 289.331 698.129 289.272C697.541 289.212 696.95 289.349 696.448 289.661C696.323 288.837 696.013 288.052 695.541 287.365C695.068 286.679 694.446 286.109 693.721 285.698C692.257 284.889 690.585 284.534 688.919 284.679C686.5 284.835 684.192 285.746 682.318 287.283C681.791 287.77 681.228 288.216 680.634 288.619C680.335 288.818 679.999 288.955 679.646 289.021C679.292 289.086 678.929 289.079 678.579 288.999C678.232 288.906 677.93 288.691 677.729 288.393C677.528 288.094 677.442 287.733 677.487 287.377C676.917 287.803 676.526 288.427 676.391 289.126C676.256 289.825 676.386 290.549 676.755 291.158C676.335 291.334 675.877 291.398 675.424 291.345C674.972 291.291 674.542 291.121 674.174 290.852C673.781 291.048 673.432 291.323 673.151 291.661C672.87 291.999 672.663 292.392 672.542 292.815C672.422 293.238 672.391 293.681 672.452 294.117C672.512 294.552 672.663 294.97 672.894 295.344C673.126 295.718 673.433 296.039 673.795 296.288C674.158 296.536 674.568 296.705 675 296.786C675.432 296.866 675.876 296.855 676.304 296.754C676.731 296.653 677.133 296.463 677.483 296.197C677.974 296.886 677.791 297.821 677.727 298.664C677.663 299.508 677.889 300.556 678.702 300.789C679.8 301.104 680.689 299.624 681.832 299.64C682.114 299.663 682.385 299.755 682.623 299.908C682.861 300.062 683.057 300.271 683.194 300.519C683.463 301.016 683.648 301.554 683.739 302.112L685.201 308.7" fill="#2F2E41"/>
<path d="M631.007 325.648C626.966 325.651 623.01 324.477 619.623 322.271L617.918 321.162L619.939 321.386C620.468 321.445 621.039 321.479 621.633 321.488C624.357 321.49 627.023 320.706 629.313 319.229C627.952 318.934 626.692 318.289 625.658 317.357C624.623 316.425 623.849 315.238 623.413 313.915L623.16 313.135L623.965 313.293C624.33 313.365 624.701 313.407 625.073 313.418C623.798 312.761 622.728 311.767 621.98 310.543C621.232 309.319 620.835 307.912 620.831 306.477V305.651L621.55 305.969C621.977 306.209 622.428 306.401 622.897 306.542C621.789 305.297 621.1 303.734 620.929 302.076C620.759 300.417 621.115 298.746 621.947 297.302L622.298 296.695L622.739 297.239C625.949 301.215 630.549 303.821 635.607 304.53C635.746 304.549 635.887 304.539 636.021 304.499C636.156 304.459 636.28 304.39 636.385 304.297C636.493 304.204 636.579 304.088 636.638 303.958C636.697 303.829 636.727 303.688 636.727 303.545C636.715 302.002 637.163 300.491 638.013 299.204C638.862 297.916 640.076 296.911 641.498 296.317C642.921 295.722 644.488 295.565 646 295.866C647.512 296.166 648.9 296.91 649.988 298.003C651.477 297.678 652.904 297.117 654.216 296.342L655.323 295.686L654.919 296.908C654.546 298.042 653.919 299.076 653.086 299.931C653.825 299.739 654.547 299.488 655.246 299.181L656.746 298.521L655.842 299.888C654.885 301.34 653.689 302.618 652.305 303.669V304.367C652.305 314.828 644.355 325.648 631.05 325.648L631.007 325.648Z" fill="#0048FF"/>
<path d="M640.538 318.2C641.165 318.174 641.789 318.286 642.367 318.528C642.945 318.77 643.464 319.135 643.885 319.599C644.307 320.063 644.622 320.614 644.808 321.213C644.994 321.812 645.047 322.444 644.962 323.066L653.421 328.011L651.672 333.888L639.825 326.737C638.791 326.526 637.871 325.942 637.238 325.097C636.606 324.252 636.305 323.204 636.393 322.151C636.481 321.099 636.951 320.116 637.716 319.387C638.48 318.659 639.484 318.237 640.538 318.2V318.2Z" fill="#FFB6B6"/>
<path d="M650.498 336.651L644.18 329.809L648.56 323.256L653.28 327.219L658.44 328.455L665.722 331.219C666.736 329.444 674.602 316.053 679.691 318.533C680.296 318.799 680.836 319.192 681.274 319.687C681.713 320.181 682.039 320.765 682.231 321.398C683.123 324.422 680.948 328.075 680.865 328.21L676.449 337.286C676.359 337.821 675.37 343.349 672.581 345.308C672.186 345.596 671.737 345.8 671.26 345.905C670.783 346.011 670.29 346.016 669.811 345.921C661.144 344.28 655.037 341.743 651.921 338.516C651.371 337.956 650.893 337.329 650.498 336.651Z" fill="#3F3D56"/>
<path d="M538.123 310.198C537.15 308.105 538.694 305.768 539.244 303.514C540.272 299.309 537.376 294.756 533.451 293.299C529.526 291.841 525.015 293.059 521.643 295.609C518.338 298.109 516.014 299.286 513.737 302.818C512.974 304.002 512.165 307.679 512.021 309.098C511.876 310.516 512.61 312.142 513.946 312.453C513.818 312.706 513.762 312.989 513.784 313.272C513.805 313.555 513.904 313.826 514.069 314.057C514.235 314.288 514.46 314.468 514.72 314.58C514.981 314.691 515.267 314.729 515.548 314.689C518.107 314.194 522.806 315.554 522.806 315.554C527.188 315.805 531.569 316.056 535.951 316.307C537.074 316.371 538.239 316.43 539.247 315.809C539.526 315.645 539.767 315.423 539.952 315.158C540.137 314.893 540.263 314.59 540.32 314.272C540.577 312.611 538.793 311.642 538.123 310.198Z" fill="#2F2E41"/>
<path d="M541.431 328.515L540.473 334.903L538.952 345.022L538.694 348.772L536.802 376.253L531.591 380.265C528.574 382.588 524.808 383.718 521.011 383.439C517.215 383.16 513.654 381.492 511.007 378.753L504.679 375.704C508.071 372.365 507.44 356.888 507.44 356.888L507.402 326.49L515.98 323.603L518.806 318.036H528.942L531.476 323.954L536.076 326.059L538.171 327.023L541.431 328.515Z" fill="#E6E6E6"/>
<path d="M524.293 315.181C529.026 315.181 532.863 311.341 532.863 306.603C532.863 301.866 529.026 298.025 524.293 298.025C519.559 298.025 515.722 301.866 515.722 306.603C515.722 311.341 519.559 315.181 524.293 315.181Z" fill="#9E616A"/>
<path d="M519.396 303.912C517.132 303.915 514.922 303.218 513.07 301.914L513.008 301.871C513.008 300.775 513.223 299.69 513.642 298.678C514.061 297.666 514.675 296.746 515.449 295.971C516.224 295.196 517.143 294.582 518.154 294.162C519.165 293.743 520.249 293.527 521.344 293.527H524.747C525.835 293.529 526.911 293.744 527.915 294.163C528.919 294.581 529.831 295.193 530.599 295.965C531.366 296.736 531.974 297.651 532.387 298.658C532.801 299.665 533.012 300.743 533.008 301.832C533.001 302.328 532.8 302.803 532.449 303.154C532.098 303.505 531.623 303.705 531.127 303.711L519.592 303.91C519.526 303.911 519.461 303.912 519.396 303.912Z" fill="#2F2E41"/>
<path d="M544.484 346.149L536.72 346.213L536.15 360.043L529.842 367.771C529.075 367.901 528.358 368.24 527.771 368.751C527.184 369.262 526.75 369.926 526.517 370.669C526.283 371.412 526.259 372.205 526.447 372.961C526.636 373.716 527.029 374.405 527.584 374.951C528.139 375.497 528.834 375.878 529.592 376.054C530.35 376.229 531.142 376.191 531.88 375.945C532.618 375.698 533.274 375.252 533.775 374.656C534.275 374.059 534.601 373.336 534.717 372.566L543.406 360.51L544.484 346.149Z" fill="#9E616A"/>
<path d="M503.549 346.563L495.591 342.84L486.901 353.607L477.235 356.054C476.542 355.701 475.764 355.546 474.988 355.606C474.213 355.667 473.469 355.941 472.839 356.399C472.209 356.856 471.718 357.479 471.419 358.198C471.121 358.917 471.027 359.705 471.148 360.474C471.269 361.244 471.6 361.965 472.104 362.558C472.609 363.151 473.267 363.592 474.007 363.834C474.746 364.076 475.539 364.109 476.296 363.928C477.052 363.748 477.745 363.362 478.296 362.812L492.451 358.31L503.549 346.563Z" fill="#9E616A"/>
<path d="M528.581 314.519L531.548 310.814C531.868 310.49 532.077 310.071 532.143 309.62C532.159 309.167 531.733 308.682 531.303 308.824C530.904 308.956 528.604 303.189 528.184 303.19C527.748 303.191 527.606 302.61 527.6 302.174C527.579 300.522 528.921 302.296 529.364 300.705C529.808 299.114 531.537 300.482 533.027 299.771C534.517 299.061 536.541 299.383 537.462 300.754C538.145 301.77 538.12 303.091 538.029 304.312C537.819 307.147 537.393 309.961 536.755 312.731C536.598 313.411 536.364 314.171 535.738 314.478C535.393 314.615 535.022 314.671 534.652 314.641L530.083 314.618" fill="#2F2E41"/>
<path d="M535.7 298.591C538.032 298.591 539.923 296.699 539.923 294.364C539.923 292.029 538.032 290.137 535.7 290.137C533.367 290.137 531.476 292.029 531.476 294.364C531.476 296.699 533.367 298.591 535.7 298.591Z" fill="#2F2E41"/>
<path d="M545.198 346.015C544.742 346.81 543.771 347.127 542.884 347.372C541.684 347.706 541.334 348.044 540.134 348.378C539.657 348.513 539.176 348.649 538.694 348.771C537.904 348.984 537.101 349.149 536.291 349.266C535.611 349.363 534.808 349.363 534.365 348.835C534.071 348.381 533.952 347.835 534.031 347.3C534.204 340.807 534.379 334.314 534.555 327.821L534.922 327.948C535.088 327.839 535.26 327.74 535.438 327.652C536.283 327.221 537.222 327.005 538.17 327.022C538.713 327.027 539.253 327.111 539.771 327.272C540.576 327.528 541.316 327.956 541.939 328.527C542.562 329.098 543.053 329.797 543.378 330.578C543.799 331.755 544 333 543.969 334.251C543.973 334.441 543.973 334.631 543.978 334.822C544.003 336.445 543.179 338.068 543.205 339.691C543.185 340.148 543.248 340.605 543.391 341.04C543.56 341.471 543.889 341.83 544.016 342.278C544.142 342.722 543.935 343.331 543.475 343.365C543.8 343.33 544.129 343.386 544.424 343.527C544.72 343.667 544.97 343.887 545.149 344.161C545.327 344.436 545.426 344.754 545.435 345.081C545.444 345.408 545.362 345.732 545.198 346.015V346.015Z" fill="#E6E6E6"/>
<path d="M507.437 326.527C508.282 326.578 509.105 326.815 509.848 327.221C510.59 327.626 511.234 328.191 511.733 328.875C512.233 329.559 512.575 330.344 512.736 331.176C512.897 332.007 512.873 332.864 512.665 333.685C512.223 335.056 511.529 336.333 510.619 337.449L507.78 341.403C507.492 341.757 507.27 342.161 507.126 342.594C507.006 343.043 507.054 343.529 506.89 343.963C506.726 344.397 506.2 344.761 505.808 344.512C506.09 344.679 506.321 344.919 506.474 345.208C506.628 345.497 506.699 345.823 506.679 346.15C506.659 346.476 506.55 346.791 506.362 347.06C506.175 347.328 505.917 347.539 505.618 347.67C504.775 348.038 503.808 347.71 502.949 347.381L499.463 346.046C498.224 345.603 497.015 345.076 495.847 344.468C495.244 344.137 494.6 343.66 494.557 342.972C494.524 342.437 494.976 342.025 495.203 341.54C498.042 335.456 502.217 330.615 507.402 326.49L507.437 326.527Z" fill="#E6E6E6"/>
<path d="M511.516 363.149C511.516 359.747 509.011 357.006 505.878 357.006C501.682 356.805 497.413 356.732 493.048 356.732H491.686C487.329 356.732 483.044 356.805 478.856 357.006C475.771 357.006 473.266 359.755 473.266 363.165C473.073 365.866 472.992 368.558 473.001 371.226C473.009 373.895 473.073 376.619 473.258 379.288C473.258 382.697 475.763 385.462 478.848 385.462C483.246 385.664 487.764 385.753 492.355 385.753C496.946 385.753 501.456 385.672 505.87 385.462C508.963 385.462 511.508 382.697 511.508 379.288C511.685 376.587 511.774 373.895 511.766 371.186C511.758 368.478 511.693 365.801 511.516 363.125L511.516 363.149ZM488.698 378.683V363.802L499.668 371.234L488.698 378.683Z" fill="#0048FF"/>
<path d="M797.297 490.819L417.703 491C417.517 491 417.339 490.925 417.207 490.794C417.076 490.662 417.002 490.483 417.002 490.297C417.002 490.11 417.076 489.932 417.207 489.8C417.339 489.668 417.517 489.593 417.703 489.593L797.297 489.411C797.483 489.412 797.661 489.486 797.793 489.618C797.924 489.75 797.998 489.929 797.998 490.115C797.998 490.301 797.924 490.48 797.793 490.612C797.661 490.744 797.483 490.818 797.297 490.819Z" fill="#CACACA"/>
</svg>
