<svg width="850" height="530" viewBox="0 0 850 530" fill="none" xmlns="http://www.w3.org/2000/svg">
<rect width="850" height="530" rx="30" fill="white"/>
<mask id="mask0_3138_813" style="mask-type:alpha" maskUnits="userSpaceOnUse" x="0" y="0" width="850" height="530">
<rect width="850" height="530" rx="30" fill="white"/>
</mask>
<g mask="url(#mask0_3138_813)">
<rect x="910.918" y="967.53" width="861.808" height="612.019" transform="rotate(-119.541 910.918 967.53)" fill="#FFB500"/>
</g>
<g clip-path="url(#clip0_3138_813)">
<path d="M711.354 481.957C695.854 481.998 680.37 480.984 665.009 478.921C664.507 478.857 663.999 478.785 663.494 478.71C659.723 478.174 655.951 477.561 652.283 476.889C635.779 473.872 620.215 469.465 606.024 463.791C558.801 444.908 529.109 448.927 512.517 455.623C494.561 462.87 487.658 474.726 487.591 474.845L487 474.51C487.068 474.39 494.06 462.356 512.212 455.014C522.856 450.709 535.203 448.827 548.913 449.42C566.027 450.161 585.327 454.784 606.277 463.16C620.425 468.818 635.946 473.212 652.405 476.221C656.064 476.892 659.828 477.503 663.592 478.038C664.094 478.113 664.598 478.184 665.098 478.248C706.738 483.974 746.908 480.521 773.276 476.616C795.009 473.398 808.995 469.635 809.134 469.598L809.312 470.253C809.173 470.291 795.152 474.063 773.375 477.288C752.842 480.345 732.113 481.905 711.354 481.957V481.957Z" fill="#3F3D56"/>
<path d="M711.4 287.117C699.428 287.117 687.773 286.557 676.528 285.437C650.689 282.865 626.968 277.315 606.024 268.94C558.801 250.058 529.109 254.076 512.517 260.773C494.561 268.019 487.658 279.876 487.591 279.995L487 279.66C487.068 279.539 494.06 267.506 512.212 260.164C522.856 255.858 535.203 253.976 548.913 254.57C566.027 255.311 585.327 259.933 606.277 268.31C653.575 287.222 706.206 287.965 742.029 285.261C780.858 282.328 808.856 274.823 809.134 274.747L809.312 275.402C809.033 275.478 780.985 282.998 742.095 285.937C731.683 286.724 721.43 287.117 711.4 287.117Z" fill="#3F3D56"/>
<path d="M709.641 237.282C709.641 237.282 696.29 232.516 687.707 251.582C679.124 270.648 665.772 291.621 665.772 291.621L673.402 293.528C673.402 293.528 675.309 280.181 680.077 278.275L678.17 295.434C678.17 295.434 735.39 315.454 761.139 293.528L760.185 286.855C760.185 286.855 764 287.808 764 293.528L766.861 290.668C766.861 290.668 764 284.948 755.417 277.321C749.783 272.316 747.848 262.793 747.182 256.838C746.684 251.867 744.694 247.162 741.474 243.34C735.77 236.732 725.377 229.709 709.641 237.282Z" fill="#2F2E41"/>
<path d="M790.675 345.171C790.675 345.171 815.799 366.593 819.494 379.15C823.189 391.708 805.454 393.185 805.454 393.185L767.028 396.878C767.028 396.878 766.289 414.607 759.639 416.823C752.988 419.039 758.289 387.506 758.289 387.506L795.847 376.934L778.851 359.206L790.675 345.171Z" fill="#FBDBBE"/>
<path d="M673.181 367.331L670.225 406.481L653.968 472.962C653.968 472.962 639.189 503.248 651.752 503.986C664.314 504.725 663.575 475.178 663.575 475.178L687.221 412.39L689.438 369.547L673.181 367.331Z" fill="#FBDBBE"/>
<path d="M714.563 298.635C728.03 298.635 738.948 287.721 738.948 274.258C738.948 260.795 728.03 249.882 714.563 249.882C701.095 249.882 690.177 260.795 690.177 274.258C690.177 287.721 701.095 298.635 714.563 298.635Z" fill="#FBDBBE"/>
<path d="M703.478 286.077C703.478 286.077 712.346 317.84 698.305 325.966C684.265 334.091 733.775 340.001 747.076 315.624C747.076 315.624 723.43 307.499 730.08 286.077H703.478Z" fill="#FBDBBE"/>
<path d="M686.482 329.659L682.048 328.182C682.048 328.182 673.181 331.875 673.181 338.523C673.181 345.171 671.703 371.764 671.703 371.764L691.655 373.98L686.482 329.659Z" fill="#0048FF"/>
<path d="M773.325 476.952C746.046 480.992 706.288 484.254 665.055 478.585C665.052 478.178 665.052 477.78 665.052 477.393C665.052 475.088 665.14 472.81 665.317 470.557C667.429 442.816 681.725 419.689 687.257 411.674C687.536 411.267 687.794 410.9 688.025 410.574C688.918 409.321 689.437 408.659 689.437 408.659C689.437 408.659 732.297 407.96 754.465 416.824C755.534 417.272 756.512 417.912 757.351 418.711C765.617 426.335 770.473 451.089 773.325 476.952Z" fill="#2F2E41"/>
<path d="M757.421 319.317C757.421 319.317 767.028 314.147 776.634 325.227L795.847 347.387L781.068 363.638L752.988 346.648L757.421 319.317Z" fill="#0048FF"/>
<path d="M688.212 274.412C696.845 268.167 703.833 260.974 708.455 252.417C708.455 252.417 724.298 270.013 733.979 270.893C743.661 271.773 734.859 249.778 734.859 249.778L717.257 245.379L700.534 247.139L687.332 255.937L688.212 274.412Z" fill="#2F2E41"/>
<path d="M743.382 314.146C743.382 314.146 733.041 330.491 702.003 322.688L684.39 327.537L682.049 328.181C682.049 328.181 684.266 372.502 690.177 380.627C696.089 388.753 694.611 393.185 693.133 393.924C691.655 394.662 687.96 393.185 690.177 396.878C692.394 400.572 695.35 398.356 692.394 400.572C689.438 402.788 687.96 410.913 687.96 410.913L757.422 419.777C757.422 419.777 755.205 390.969 761.117 376.195C767.028 361.422 768.506 355.512 768.506 355.512L764.072 318.579L743.382 314.146Z" fill="#0048FF"/>
<path d="M599.019 299.686H503.935V418.497H599.019V299.686Z" fill="#E6E6E6"/>
<path d="M530.932 309.699H510.557V323.278H530.932V309.699Z" fill="white"/>
<path d="M589.511 336.178H510.727V340.93H589.511V336.178Z" fill="white"/>
<path d="M589.511 348.737H510.727V353.49H589.511V348.737Z" fill="white"/>
<path d="M589.511 361.298H510.727V366.05H589.511V361.298Z" fill="white"/>
<path d="M589.511 373.857H510.727V378.61H589.511V373.857Z" fill="white"/>
<path d="M589.511 386.418H510.727V391.17H589.511V386.418Z" fill="white"/>
<path d="M617.696 418.327C617.692 422.811 616.069 427.142 613.126 430.525C610.183 433.909 606.118 436.117 601.677 436.744C597.236 437.371 592.717 436.375 588.952 433.939C585.186 431.503 582.427 427.79 581.181 423.483C579.934 419.177 580.284 414.565 582.167 410.495C584.049 406.426 587.338 403.172 591.428 401.332C595.518 399.492 600.135 399.189 604.43 400.479C608.726 401.769 612.411 404.565 614.81 408.354C616.696 411.338 617.697 414.797 617.696 418.327V418.327Z" fill="#0048FF"/>
<path d="M614.81 408.353L596.425 426.728C595.269 424.94 588.832 416.629 588.832 416.629C589.657 415.796 590.537 415.019 591.467 414.304L596.805 421.419L612.657 405.573C613.461 406.43 614.182 407.361 614.81 408.353V408.353Z" fill="white"/>
</g>
<defs>
<clipPath id="clip0_3138_813">
<rect width="333" height="270" fill="white" transform="translate(487 234)"/>
</clipPath>
</defs>
</svg>
