<svg width="850" height="530" viewBox="0 0 850 530" fill="none" xmlns="http://www.w3.org/2000/svg">
<rect width="850" height="530" rx="30" fill="white"/>
<mask id="mask0_141_856" style="mask-type:alpha" maskUnits="userSpaceOnUse" x="0" y="0" width="850" height="530">
<rect width="850" height="530" rx="30" fill="white"/>
</mask>
<g mask="url(#mask0_141_856)">
<rect x="910.918" y="967.53" width="861.808" height="612.019" transform="rotate(-119.541 910.918 967.53)" fill="#FFB500"/>
</g>
<g clip-path="url(#clip0_141_856)">
<path d="M711.354 481.957C695.854 481.998 680.37 480.984 665.009 478.921C664.507 478.857 663.999 478.785 663.494 478.71C659.723 478.174 655.951 477.561 652.283 476.889C635.779 473.872 620.215 469.465 606.024 463.791C558.801 444.908 529.109 448.927 512.517 455.623C494.561 462.87 487.658 474.726 487.591 474.845L487 474.51C487.068 474.39 494.06 462.356 512.212 455.014C522.856 450.709 535.203 448.827 548.913 449.42C566.027 450.161 585.327 454.784 606.277 463.16C620.425 468.818 635.946 473.212 652.405 476.221C656.064 476.892 659.828 477.503 663.592 478.038C664.094 478.113 664.598 478.184 665.098 478.248C706.738 483.974 746.908 480.521 773.276 476.616C795.009 473.398 808.995 469.635 809.134 469.598L809.312 470.253C809.173 470.291 795.152 474.063 773.375 477.288C752.842 480.345 732.113 481.905 711.354 481.957Z" fill="#3F3D56"/>
<path d="M711.4 287.117C699.428 287.117 687.773 286.557 676.528 285.437C650.689 282.865 626.968 277.315 606.024 268.94C558.801 250.058 529.109 254.076 512.517 260.773C494.561 268.019 487.658 279.876 487.591 279.995L487 279.66C487.068 279.539 494.06 267.506 512.212 260.164C522.856 255.858 535.203 253.976 548.913 254.57C566.027 255.311 585.327 259.933 606.277 268.31C653.575 287.222 706.206 287.965 742.029 285.261C780.858 282.328 808.856 274.823 809.134 274.747L809.312 275.402C809.033 275.478 780.985 282.998 742.095 285.937C731.683 286.724 721.43 287.117 711.4 287.117Z" fill="#3F3D56"/>
<path d="M709.641 237.282C709.641 237.282 696.29 232.516 687.707 251.582C679.124 270.648 665.772 291.621 665.772 291.621L673.402 293.528C673.402 293.528 675.309 280.181 680.077 278.275L678.17 295.434C678.17 295.434 735.39 315.454 761.139 293.528L760.185 286.855C760.185 286.855 764 287.808 764 293.528L766.861 290.668C766.861 290.668 764 284.948 755.417 277.321C749.784 272.316 747.848 262.793 747.182 256.838C746.684 251.867 744.694 247.162 741.474 243.34C735.77 236.732 725.377 229.709 709.641 237.282Z" fill="#2F2E41"/>
<path d="M790.675 345.171C790.675 345.171 815.799 366.593 819.494 379.15C823.189 391.708 805.454 393.185 805.454 393.185L767.028 396.878C767.028 396.878 766.289 414.607 759.639 416.823C752.988 419.039 758.289 387.506 758.289 387.506L795.847 376.934L778.851 359.206L790.675 345.171Z" fill="#FBDBBE"/>
<path d="M673.181 367.331L670.225 406.481L653.968 472.962C653.968 472.962 639.189 503.248 651.752 503.986C664.314 504.725 663.575 475.178 663.575 475.178L687.221 412.39L689.438 369.547L673.181 367.331Z" fill="#FBDBBE"/>
<path d="M714.563 298.635C728.03 298.635 738.948 287.721 738.948 274.258C738.948 260.795 728.03 249.882 714.563 249.882C701.095 249.882 690.177 260.795 690.177 274.258C690.177 287.721 701.095 298.635 714.563 298.635Z" fill="#FBDBBE"/>
<path d="M703.478 286.077C703.478 286.077 712.346 317.84 698.305 325.966C684.265 334.091 733.775 340.001 747.076 315.624C747.076 315.624 723.43 307.499 730.08 286.077H703.478Z" fill="#FBDBBE"/>
<path d="M686.482 329.659L682.048 328.182C682.048 328.182 673.181 331.875 673.181 338.523C673.181 345.171 671.703 371.764 671.703 371.764L691.655 373.98L686.482 329.659Z" fill="#0048FF"/>
<path d="M773.325 476.952C746.046 480.992 706.288 484.254 665.055 478.585C665.052 478.178 665.052 477.78 665.052 477.393C665.052 475.088 665.14 472.81 665.317 470.557C667.429 442.816 681.725 419.689 687.257 411.674C687.536 411.267 687.794 410.9 688.025 410.574C688.918 409.321 689.437 408.659 689.437 408.659C689.437 408.659 732.297 407.96 754.465 416.824C755.534 417.272 756.512 417.912 757.351 418.711C765.617 426.335 770.473 451.089 773.325 476.952Z" fill="#2F2E41"/>
<path d="M757.421 319.317C757.421 319.317 767.028 314.147 776.634 325.227L795.847 347.387L781.068 363.638L752.988 346.648L757.421 319.317Z" fill="#0048FF"/>
<path d="M688.212 274.412C696.845 268.167 703.833 260.974 708.455 252.417C708.455 252.417 724.298 270.013 733.979 270.893C743.661 271.773 734.859 249.778 734.859 249.778L717.257 245.379L700.534 247.139L687.332 255.937L688.212 274.412Z" fill="#2F2E41"/>
<path d="M743.382 314.146C743.382 314.146 733.041 330.491 702.003 322.688L684.39 327.537L682.049 328.181C682.049 328.181 684.266 372.502 690.177 380.627C696.089 388.753 694.611 393.185 693.133 393.924C691.655 394.662 687.96 393.185 690.177 396.878C692.394 400.572 695.35 398.356 692.394 400.572C689.438 402.788 687.96 410.913 687.96 410.913L757.422 419.777C757.422 419.777 755.205 390.969 761.117 376.195C767.028 361.422 768.506 355.512 768.506 355.512L764.072 318.579L743.382 314.146Z" fill="#0048FF"/>
<path d="M599.019 299.686H503.935V418.497H599.019V299.686Z" fill="#E6E6E6"/>
<path d="M530.932 309.699H510.557V323.278H530.932V309.699Z" fill="white"/>
<path d="M589.511 336.178H510.727V340.93H589.511V336.178Z" fill="white"/>
<path d="M589.511 348.737H510.727V353.49H589.511V348.737Z" fill="white"/>
<path d="M589.511 361.298H510.727V366.05H589.511V361.298Z" fill="white"/>
<path d="M589.511 373.857H510.727V378.61H589.511V373.857Z" fill="white"/>
<path d="M589.511 386.418H510.727V391.17H589.511V386.418Z" fill="white"/>
<path d="M617.696 418.327C617.692 422.811 616.069 427.142 613.126 430.525C610.183 433.909 606.118 436.117 601.677 436.744C597.236 437.371 592.717 436.375 588.952 433.939C585.186 431.503 582.427 427.79 581.181 423.483C579.934 419.177 580.284 414.565 582.167 410.495C584.049 406.426 587.338 403.172 591.428 401.332C595.518 399.492 600.135 399.189 604.43 400.479C608.726 401.769 612.411 404.565 614.81 408.354C616.696 411.338 617.697 414.797 617.696 418.327Z" fill="#0048FF"/>
<path d="M614.81 408.353L596.425 426.728C595.269 424.94 588.832 416.629 588.832 416.629C589.657 415.796 590.537 415.019 591.467 414.304L596.805 421.419L612.657 405.573C613.461 406.43 614.182 407.361 614.81 408.353Z" fill="white"/>
</g>
<path d="M85.52 98.92V123.68H103.24V98.92H85.52ZM98.04 103.08V119.52H90.72V103.08H98.04ZM108.96 95.6V132.52H114.24V95.6H108.96ZM142.757 111C137.957 111.76 133.677 111.96 127.597 112V108.8H139.317V97.68H122.357V101.92H134.117V104.88H122.397V116.24H125.637C132.957 116.24 137.877 116.08 143.357 115.2L142.757 111ZM131.797 123.24H145.957V127.88H131.797V123.24ZM126.597 132H151.117V119.08H126.597V132ZM145.797 95.64V117.44H151.117V95.64H145.797ZM173.595 103.24H180.795V119.32H173.595V103.24ZM168.395 123.48H185.995V99.08H168.395V123.48ZM201.475 109.48H196.115V95.64H190.835V132.44H196.115V113.84H201.475V109.48ZM229.312 95.56V132.52H234.592V95.56H229.312ZM214.792 98.16C209.232 98.16 205.112 103.2 205.112 111.28C205.112 119.4 209.232 124.48 214.792 124.48C220.352 124.48 224.472 119.4 224.472 111.28C224.472 103.2 220.352 98.16 214.792 98.16ZM214.792 102.92C217.512 102.92 219.392 105.84 219.392 111.28C219.392 116.76 217.512 119.68 214.792 119.68C212.072 119.68 210.192 116.76 210.192 111.28C210.192 105.84 212.072 102.92 214.792 102.92ZM273.068 112.92C264.748 111.52 260.188 105.8 260.188 100.4V97.76H254.548V100.4C254.548 105.68 249.948 111.52 241.668 112.92L243.908 117.36C250.308 116.12 254.988 112.52 257.348 107.84C259.708 112.52 264.428 116.08 270.828 117.36L273.068 112.92ZM240.868 123.68V127.96H274.228V123.68H240.868ZM284.585 113.04H295.145V108.92H284.585V102.92H296.385V98.68H279.345V124.16H282.345C288.545 124.16 293.265 124.04 298.585 123.2L298.105 118.96C293.585 119.68 289.545 119.88 284.585 119.92V113.04ZM303.305 95.56V108.56H296.985V112.8H303.305V132.52H308.585V95.56H303.305ZM343.142 119.92C344.622 112.08 344.622 106.88 344.622 102.28V98.76H317.862V102.96H339.342C339.342 107.24 339.262 112.36 337.862 119.32L343.142 119.92ZM331.542 123.76V111.08H326.262V123.76H314.502V128H347.822V123.76H331.542Z" fill="black"/>
<path d="M82.6621 178H80.7871V163.781H82.6621V178ZM95.6309 165.324H91.0605V178H89.1953V165.324H84.6348V163.781H95.6309V165.324ZM108.08 163.1H106.46V166.32C106.46 169.72 104.28 173.16 101.64 174.42L102.64 175.76C104.74 174.68 106.46 172.44 107.28 169.74C108.14 172.3 109.86 174.42 111.9 175.42L112.88 174.1C110.22 172.9 108.08 169.6 108.08 166.32V163.1ZM114.76 161.54V179.52H116.4V161.54H114.76ZM122.379 165.06H127.439V163.72H120.759V175.06H121.939C124.619 175.06 126.439 174.98 128.579 174.52L128.439 173.16C126.479 173.58 124.779 173.68 122.379 173.7V165.06ZM133.779 161.54V168.74H131.239V161.94H129.699V178.58H131.239V170.08H133.779V179.48H135.359V161.54H133.779ZM144.337 162.86C141.557 162.86 139.537 164.56 139.537 167.08C139.537 169.58 141.557 171.3 144.337 171.3C147.137 171.3 149.137 169.58 149.137 167.08C149.137 164.56 147.137 162.86 144.337 162.86ZM144.337 164.26C146.197 164.26 147.537 165.4 147.537 167.08C147.537 168.74 146.197 169.9 144.337 169.9C142.497 169.9 141.137 168.74 141.137 167.08C141.137 165.4 142.497 164.26 144.337 164.26ZM151.497 161.54V179.52H153.137V161.54H151.497ZM138.837 175.58C142.077 175.58 146.417 175.54 150.457 174.8L150.317 173.58C146.397 174.18 141.897 174.2 138.637 174.2L138.837 175.58ZM174.456 177.9H165.516V174.24H174.456V177.9ZM178.156 169.9V168.58H175.636C176.196 166.02 176.196 164.18 176.196 163.1V162.4H170.536V163.72H174.596C174.576 164.82 174.496 166.4 174.016 168.58H168.536C169.196 165.88 169.196 163.9 169.196 162.92V162.4H163.436V163.72H167.616C167.576 164.82 167.456 166.42 166.876 168.58H161.856V169.9H169.156V172.92H163.896V179.22H176.056V172.92H170.796V169.9H178.156ZM189.635 171.6C190.135 168.26 190.135 165.92 190.135 164.48V163.5H181.075V164.84H188.535C188.535 166.28 188.495 168.46 187.995 171.44L189.635 171.6ZM185.515 168.62H183.895V174.14C182.555 174.18 181.235 174.2 180.095 174.2L180.275 175.56C183.455 175.56 187.675 175.48 191.395 174.88L191.295 173.68C189.475 173.9 187.475 174.02 185.515 174.1V168.62ZM196.895 169.04H194.035V161.54H192.395V179.48H194.035V170.42H196.895V169.04ZM215.014 163.96H210.394V161.72H208.754V163.96H204.114V165.28H215.014V163.96ZM212.314 169.64C212.314 170.9 211.194 171.74 209.574 171.74C207.974 171.74 206.854 170.9 206.854 169.64C206.854 168.38 207.974 167.56 209.574 167.56C211.194 167.56 212.314 168.38 212.314 169.64ZM205.294 169.64C205.294 171.68 207.054 173 209.574 173C212.094 173 213.854 171.68 213.854 169.64C213.854 167.62 212.094 166.28 209.574 166.28C207.054 166.28 205.294 167.62 205.294 169.64ZM203.974 175.96C207.274 175.96 211.594 175.94 215.594 175.26L215.474 174.04C211.594 174.56 207.134 174.58 203.734 174.58L203.974 175.96ZM216.614 161.56V179.48H218.254V161.56H216.614ZM229.413 169.3H224.373V164.22H229.413V169.3ZM231.013 162.9H222.773V170.62H231.013V162.9ZM230.233 178.18C227.573 178.18 225.973 177.4 225.973 176.12C225.973 174.82 227.573 174.06 230.233 174.06C232.893 174.06 234.513 174.82 234.513 176.12C234.513 177.4 232.893 178.18 230.233 178.18ZM230.233 172.76C226.613 172.76 224.333 173.98 224.333 176.12C224.333 178.24 226.613 179.48 230.233 179.48C233.873 179.48 236.153 178.24 236.153 176.12C236.153 173.98 233.873 172.76 230.233 172.76ZM235.953 166.02V161.56H234.313V172.14H235.953V167.38H238.613V166.02H235.953ZM253.471 161.54V179.52H255.111V161.54H253.471ZM245.651 162.92C242.991 162.92 241.091 165.36 241.091 169.18C241.091 173 242.991 175.44 245.651 175.44C248.311 175.44 250.211 173 250.211 169.18C250.211 165.36 248.311 162.92 245.651 162.92ZM245.651 164.4C247.391 164.4 248.631 166.28 248.631 169.18C248.631 172.1 247.391 173.98 245.651 173.98C243.891 173.98 242.651 172.1 242.651 169.18C242.651 166.28 243.891 164.4 245.651 164.4ZM278.51 161.56H276.87V171.8H278.51V161.56ZM268.87 163.96C270.65 163.96 271.97 165.14 271.97 166.78C271.97 168.44 270.65 169.6 268.87 169.6C267.09 169.6 265.81 168.44 265.81 166.78C265.81 165.14 267.09 163.96 268.87 163.96ZM268.87 170.96C271.59 170.96 273.57 169.26 273.57 166.78C273.57 164.3 271.59 162.6 268.87 162.6C266.17 162.6 264.21 164.3 264.21 166.78C264.21 169.26 266.17 170.96 268.87 170.96ZM276.51 172.58H274.91V173.54C274.91 174.94 274.05 176.74 272.33 177.8C270.67 176.82 269.85 175.12 269.85 173.54V172.58H268.27V173.54C268.27 175.26 266.93 177.2 264.67 178L265.49 179.24C267.17 178.6 268.39 177.36 269.03 175.92C269.57 177.42 270.65 178.72 272.37 179.4C274.03 178.68 275.13 177.32 275.69 175.86C276.29 177.36 277.53 178.6 279.29 179.24L280.11 178C277.83 177.24 276.51 175.4 276.51 173.54V172.58ZM296.569 166.94H286.009V162.2H284.369V168.28H296.569V166.94ZM285.889 173.8H284.249V179.04H296.669V177.7H285.889V173.8ZM282.169 170.68V172H298.429V170.68H282.169ZM319.248 168.7C319.708 166.62 319.708 165 319.708 163.66V162.4H307.488V163.72H318.088C318.088 165.02 318.088 166.5 317.648 168.52L319.248 168.7ZM314.428 172.68H312.768V173.48C312.768 175.84 310.008 177.66 306.708 178.12L307.328 179.4C310.068 178.94 312.508 177.68 313.608 175.74C314.668 177.68 317.108 178.94 319.848 179.4L320.468 178.12C317.188 177.66 314.428 175.84 314.428 173.48V172.68ZM313.848 169.94V166.34H312.208V169.94H305.588V171.26H321.748V169.94H313.848ZM324.293 177.053C324.293 176.74 324.384 176.48 324.566 176.271C324.755 176.063 325.035 175.959 325.406 175.959C325.777 175.959 326.057 176.063 326.246 176.271C326.441 176.48 326.539 176.74 326.539 177.053C326.539 177.352 326.441 177.603 326.246 177.805C326.057 178.007 325.777 178.107 325.406 178.107C325.035 178.107 324.755 178.007 324.566 177.805C324.384 177.603 324.293 177.352 324.293 177.053ZM335.221 163.3V174.96H343.461V163.3H335.221ZM341.861 164.62V173.66H336.821V164.62H341.861ZM347.221 161.54V179.52H348.861V161.54H347.221ZM363.48 169.42C360.64 169.88 358.3 169.98 355.12 169.98V167.5H361.62V162.62H353.46V163.96H360V166.24H353.52V171.32H354.96C358.28 171.32 360.72 171.22 363.66 170.74L363.48 169.42ZM357.3 174.48H365.7V177.92H357.3V174.48ZM355.7 179.24H367.3V173.18H355.7V179.24ZM365.66 161.56V172.18H367.3V161.56H365.66ZM375.038 174.02C373.598 174.02 372.698 172.2 372.698 169.26C372.698 166.38 373.598 164.56 375.038 164.56C376.438 164.56 377.358 166.38 377.358 169.26C377.358 172.2 376.438 174.02 375.038 174.02ZM381.098 168.52H378.838C378.638 165.14 377.198 163.04 375.038 163.04C372.698 163.04 371.198 165.44 371.198 169.26C371.198 173.14 372.698 175.54 375.038 175.54C377.238 175.54 378.698 173.38 378.838 169.86H381.098V178.6H382.658V161.94H381.098V168.52ZM384.658 161.54V179.48H386.218V161.54H384.658ZM395.656 163.08H394.016V166.3C394.016 169.62 391.976 173.08 389.376 174.38L390.376 175.68C392.396 174.6 394.056 172.34 394.836 169.68C395.656 172.2 397.296 174.34 399.336 175.36L400.296 174.06C397.696 172.82 395.656 169.56 395.656 166.3V163.08ZM402.516 161.54V167.62H398.356V168.96H402.516V179.5H404.156V161.54H402.516ZM414.576 166.24C414.576 164.62 415.856 163.5 417.636 163.5C419.396 163.5 420.676 164.62 420.676 166.24C420.676 167.84 419.396 168.98 417.636 168.98C415.856 168.98 414.576 167.84 414.576 166.24ZM425.856 165V167.4H422.076C422.176 167.04 422.236 166.64 422.236 166.24C422.236 165.8 422.176 165.38 422.056 165H425.856ZM425.856 168.7V170.74H427.496V161.54H425.856V163.7H421.336C420.516 162.74 419.196 162.16 417.636 162.16C414.956 162.16 413.016 163.82 413.016 166.24C413.016 168.62 414.956 170.3 417.636 170.3C419.236 170.32 420.556 169.7 421.396 168.7H425.856ZM417.596 177.94V175.98H427.496V171.66H415.936V172.96H425.876V174.74H415.976V179.24H428.176V177.94H417.596ZM435.934 173.98C434.214 173.98 433.014 172.1 433.014 169.18C433.014 166.28 434.214 164.4 435.934 164.4C437.634 164.4 438.834 166.28 438.834 169.18C438.834 172.1 437.634 173.98 435.934 173.98ZM444.274 161.54V168.38H440.374C440.114 165.02 438.354 162.92 435.934 162.92C433.314 162.92 431.454 165.36 431.454 169.18C431.454 173 433.314 175.44 435.934 175.44C438.434 175.44 440.214 173.24 440.374 169.72H444.274V179.52H445.914V161.54H444.274ZM450.373 162.62V163.96H456.813C456.533 166.84 453.973 169.06 449.553 170.12L450.173 171.46C455.453 170.18 458.613 167.14 458.613 162.62H450.373ZM461.813 177.92H453.733V175.6H461.813V177.92ZM461.813 174.32H453.733V172.04H452.113V179.24H463.453V172.04H461.813V174.32ZM466.113 165.78H463.453V161.54H461.813V171.24H463.453V167.14H466.113V165.78ZM470.691 163.28H469.051V174.84H470.531C473.391 174.84 476.211 174.64 479.331 174L479.151 172.6C476.171 173.2 473.391 173.44 470.691 173.44V163.28ZM480.991 161.54V179.46H482.631V161.54H480.991ZM488.73 164.62H495.43V163.26H487.09V175.04H488.51C491.89 175.04 494.25 174.92 496.99 174.4L496.81 173.04C494.21 173.5 491.91 173.64 488.73 173.64V164.62ZM503.09 168.62H500.13V161.54H498.49V179.52H500.13V169.98H503.09V168.62ZM505.074 177.053C505.074 176.74 505.165 176.48 505.348 176.271C505.536 176.063 505.816 175.959 506.188 175.959C506.559 175.959 506.839 176.063 507.027 176.271C507.223 176.48 507.32 176.74 507.32 177.053C507.32 177.352 507.223 177.603 507.027 177.805C506.839 178.007 506.559 178.107 506.188 178.107C505.816 178.107 505.536 178.007 505.348 177.805C505.165 177.603 505.074 177.352 505.074 177.053Z" fill="black"/>
<path d="M94.072 441.016H89V439.64H87.688V441.016H82.52V442.04H94.072V441.016ZM84.728 450.904H91.96V453H84.728V450.904ZM83.448 453.992H93.24V449.912H83.448V453.992ZM85.08 444.632C85.08 443.928 86.248 443.528 88.344 443.528C90.408 443.528 91.576 443.928 91.576 444.632C91.576 445.352 90.408 445.752 88.344 445.752C86.248 445.752 85.08 445.352 85.08 444.632ZM89 447.752V446.664C91.528 446.568 92.968 445.864 92.968 444.632C92.968 443.304 91.288 442.6 88.344 442.6C85.368 442.6 83.704 443.304 83.704 444.632C83.704 445.864 85.128 446.568 87.688 446.664V447.752H81.848V448.792H94.808V447.752H89ZM99.0788 442.712H100.871V449.448C100.263 449.48 99.6708 449.496 99.0788 449.512V442.712ZM102.071 442.712H103.255V441.656H96.6948V442.712H97.8788V449.544C97.3348 449.56 96.8548 449.56 96.4228 449.56L96.5508 450.648C98.4228 450.648 101.431 450.584 103.655 450.168L103.575 449.208C103.111 449.272 102.583 449.32 102.071 449.368V442.712ZM104.791 445.304H102.823V446.456H104.791V453.432H106.023V440.184H104.791V445.304ZM107.559 439.848V454.184H108.823V439.848H107.559ZM121.718 439.832V454.216H123.03V439.832H121.718ZM115.462 440.936C113.334 440.936 111.814 442.888 111.814 445.944C111.814 449 113.334 450.952 115.462 450.952C117.59 450.952 119.11 449 119.11 445.944C119.11 442.888 117.59 440.936 115.462 440.936ZM115.462 442.12C116.854 442.12 117.846 443.624 117.846 445.944C117.846 448.28 116.854 449.784 115.462 449.784C114.054 449.784 113.062 448.28 113.062 445.944C113.062 443.624 114.054 442.12 115.462 442.12ZM131.124 442.392H134.5V441.304H126.484V442.392H129.812V444.216C129.812 446.696 128.068 449.4 126.004 450.376L126.772 451.432C128.404 450.6 129.812 448.792 130.468 446.696C131.156 448.664 132.564 450.312 134.228 451.08L134.964 450.024C132.852 449.128 131.124 446.648 131.124 444.216V442.392ZM136.436 439.848V454.184H137.748V439.848H136.436ZM150.675 449.656H146.579V445.88H150.675V449.656ZM150.675 444.84H146.579V441.048H145.283V450.728H151.955V441.048H150.675V444.84ZM158.115 445.48H155.747V439.848H154.435V454.168H155.747V446.584H158.115V445.48ZM166.578 451.336V448.632H171.17V447.576H162.338V445.256H170.834V440.888H161.01V441.96H169.554V444.2H161.042V448.632H165.25V451.336H159.41V452.408H172.45V451.336H166.578ZM174.913 441.368V442.456H180.177C179.873 445.848 177.905 448.6 174.241 450.44L174.961 451.464C179.601 449.144 181.473 445.448 181.473 441.368H174.913ZM187.489 445.656H185.185V439.832H183.873V454.184H185.185V446.744H187.489V445.656ZM189.712 441.384V442.44H195.104C194.832 445.848 192.912 448.6 189.056 450.44L189.76 451.512C194.528 449.176 196.432 445.528 196.432 441.384H189.712ZM199.328 439.832V454.184H200.64V439.832H199.328Z" fill="black"/>
<path d="M94.056 280.16H85.046V275.791H83.652V281.282H94.056V280.16ZM95.688 283.475H81.901V284.631H85.471V290.258H86.848V284.631H90.724V290.258H92.118V284.631H95.688V283.475ZM98.4237 276.505V286.416H105.428V276.505H98.4237ZM104.068 277.627V285.311H99.7837V277.627H104.068ZM108.624 275.009V290.292H110.018V275.009H108.624ZM115.541 277.627H121.372V276.454H114.164V286.501H115.388C118.465 286.501 120.454 286.399 122.8 285.974L122.647 284.801C120.403 285.226 118.482 285.311 115.541 285.311V277.627ZM124.262 275.009V290.292H125.656V275.009H124.262ZM132.897 285.583C131.435 285.583 130.415 283.985 130.415 281.503C130.415 279.038 131.435 277.44 132.897 277.44C134.342 277.44 135.362 279.038 135.362 281.503C135.362 283.985 134.342 285.583 132.897 285.583ZM139.986 275.009V280.823H136.671C136.45 277.967 134.954 276.182 132.897 276.182C130.67 276.182 129.089 278.256 129.089 281.503C129.089 284.75 130.67 286.824 132.897 286.824C135.022 286.824 136.535 284.954 136.671 281.962H139.986V290.292H141.38V275.009H139.986ZM157.614 282.455C154.945 281.979 152.038 279.735 152.038 277.202V276.029H150.576V277.202C150.576 279.735 147.686 281.979 145.017 282.455L145.595 283.611C147.941 283.118 150.321 281.537 151.307 279.361C152.293 281.537 154.69 283.118 157.019 283.611L157.614 282.455ZM152.004 287.13V283.424H150.61V287.13H144.456V288.269H158.294V287.13H152.004ZM168.866 282.965H165.075V277.661H168.866V282.965ZM163.681 282.965H161.352V284.104H172.589V282.965H170.26V277.661H172.623V276.539H161.318V277.661H163.681V282.965ZM160.094 287.147V288.303H173.915V287.147H160.094ZM187.973 283.237H178.912V280.823H187.48V279.718H178.912V277.457H187.82V276.335H177.501V284.359H187.973V283.237ZM175.716 287.147V288.286H189.554V287.147H175.716ZM195.214 277.049C196.421 277.049 197.271 277.763 197.271 278.8C197.271 279.82 196.421 280.551 195.214 280.551C194.007 280.551 193.14 279.82 193.14 278.8C193.14 277.763 194.007 277.049 195.214 277.049ZM195.214 281.605C197.118 281.605 198.529 280.449 198.529 278.8C198.529 277.134 197.118 275.995 195.214 275.995C193.293 275.995 191.899 277.134 191.899 278.8C191.899 280.449 193.293 281.605 195.214 281.605ZM199.107 282.387C196.642 282.761 193.259 282.778 191.168 282.778L191.338 283.951C192.222 283.951 193.327 283.951 194.483 283.9V289.034H195.809V283.815C196.965 283.747 198.138 283.628 199.209 283.407L199.107 282.387ZM200.076 285.022H197.22V286.11H200.076V289.476H201.385V275.383H200.076V285.022ZM202.949 275.026V290.258H204.292V275.026H202.949ZM211.09 285.583C209.628 285.583 208.608 283.985 208.608 281.503C208.608 279.038 209.628 277.44 211.09 277.44C212.535 277.44 213.555 279.038 213.555 281.503C213.555 283.985 212.535 285.583 211.09 285.583ZM218.179 275.009V280.823H214.864C214.643 277.967 213.147 276.182 211.09 276.182C208.863 276.182 207.282 278.256 207.282 281.503C207.282 284.75 208.863 286.824 211.09 286.824C213.215 286.824 214.728 284.954 214.864 281.962H218.179V290.292H219.573V275.009H218.179ZM230.605 283.56C231.03 280.721 231.03 278.732 231.03 277.508V276.675H223.329V277.814H229.67C229.67 279.038 229.636 280.891 229.211 283.424L230.605 283.56ZM227.103 281.027H225.726V285.719C224.587 285.753 223.465 285.77 222.496 285.77L222.649 286.926C225.352 286.926 228.939 286.858 232.101 286.348L232.016 285.328C230.469 285.515 228.769 285.617 227.103 285.685V281.027ZM236.776 281.384H234.345V275.009H232.951V290.258H234.345V282.557H236.776V281.384ZM94.056 320.16H85.046V315.791H83.652V321.282H94.056V320.16ZM95.688 323.475H81.901V324.631H85.471V330.258H86.848V324.631H90.724V330.258H92.118V324.631H95.688V323.475ZM98.4237 316.505V326.416H105.428V316.505H98.4237ZM104.068 317.627V325.311H99.7837V317.627H104.068ZM108.624 315.009V330.292H110.018V315.009H108.624ZM115.541 317.627H121.372V316.454H114.164V326.501H115.388C118.465 326.501 120.454 326.399 122.8 325.974L122.647 324.801C120.403 325.226 118.482 325.311 115.541 325.311V317.627ZM124.262 315.009V330.292H125.656V315.009H124.262ZM132.897 325.583C131.435 325.583 130.415 323.985 130.415 321.503C130.415 319.038 131.435 317.44 132.897 317.44C134.342 317.44 135.362 319.038 135.362 321.503C135.362 323.985 134.342 325.583 132.897 325.583ZM139.986 315.009V320.823H136.671C136.45 317.967 134.954 316.182 132.897 316.182C130.67 316.182 129.089 318.256 129.089 321.503C129.089 324.75 130.67 326.824 132.897 326.824C135.022 326.824 136.535 324.954 136.671 321.962H139.986V330.292H141.38V315.009H139.986ZM150.542 322.557V323.56H153.211V324.41H154.52V315.281H153.211V322.557H150.542ZM148.468 316.522C149.709 316.522 150.525 317.015 150.525 317.797C150.525 318.579 149.709 319.072 148.468 319.072C147.227 319.072 146.428 318.579 146.428 317.797C146.428 317.015 147.227 316.522 148.468 316.522ZM148.468 320.075C150.457 320.075 151.783 319.208 151.783 317.797C151.783 316.403 150.457 315.536 148.468 315.536C146.496 315.536 145.17 316.403 145.17 317.797C145.17 319.208 146.496 320.075 148.468 320.075ZM147.839 324.41H149.165V321.877C150.304 321.792 151.46 321.656 152.497 321.452L152.395 320.483C149.862 320.891 146.462 320.925 144.354 320.925L144.524 322.013C145.459 322.013 146.615 322.013 147.839 321.945V324.41ZM155.931 328.949H148.417V327.504H155.931V328.949ZM155.931 326.433H148.417V325.005H147.04V330.054H157.291V325.005H155.931V326.433ZM155.965 315.009V324.444H157.291V315.009H155.965ZM173.099 319.395C170.294 319.089 167.693 317.644 167.693 315.689V315.128H166.265V315.689C166.265 317.644 163.664 319.089 160.859 319.395L161.335 320.483C163.749 320.16 166.027 319.106 166.979 317.474C167.948 319.106 170.209 320.16 172.623 320.483L173.099 319.395ZM163.154 327.521H172.113V324.036H161.743V325.09H170.736V326.501H161.794V330.088H172.572V329H163.154V327.521ZM167.676 321.656V319.684H166.282V321.656H160.077V322.778H173.881V321.656H167.676ZM186.477 318.528H177.416V322.693H188.228V321.554H178.81V319.599H187.888V315.621H177.365V316.726H186.477V318.528ZM189.554 324.257H175.716V325.396H181.921V330.275H183.315V325.396H189.554V324.257ZM202.524 326.399H203.935V315.009H202.524V317.27H199.447V318.392H202.524V320.398H199.447V321.537H202.524V326.399ZM200.263 323.016C198.07 322.149 196.591 320.058 196.591 317.814V315.859H195.197V317.814C195.197 320.211 193.667 322.387 191.389 323.271L192.137 324.376C193.922 323.645 195.265 322.183 195.894 320.347C196.557 322.047 197.849 323.424 199.498 324.121L200.263 323.016ZM195.52 328.779V325.243H194.126V329.918H204.292V328.779H195.52ZM214.966 323.56C215.391 320.721 215.391 318.732 215.391 317.508V316.675H207.69V317.814H214.031C214.031 319.038 213.997 320.891 213.572 323.424L214.966 323.56ZM211.464 321.027H210.087V325.719C208.948 325.753 207.826 325.77 206.857 325.77L207.01 326.926C209.713 326.926 213.3 326.858 216.462 326.348L216.377 325.328C214.83 325.515 213.13 325.617 211.464 325.685V321.027ZM221.137 321.384H218.706V315.009H217.312V330.258H218.706V322.557H221.137V321.384ZM94.056 360.16H85.046V355.791H83.652V361.282H94.056V360.16ZM95.688 363.475H81.901V364.631H85.471V370.258H86.848V364.631H90.724V370.258H92.118V364.631H95.688V363.475ZM98.4237 356.505V366.416H105.428V356.505H98.4237ZM104.068 357.627V365.311H99.7837V357.627H104.068ZM108.624 355.009V370.292H110.018V355.009H108.624ZM115.541 357.627H121.372V356.454H114.164V366.501H115.388C118.465 366.501 120.454 366.399 122.8 365.974L122.647 364.801C120.403 365.226 118.482 365.311 115.541 365.311V357.627ZM124.262 355.009V370.292H125.656V355.009H124.262ZM132.897 365.583C131.435 365.583 130.415 363.985 130.415 361.503C130.415 359.038 131.435 357.44 132.897 357.44C134.342 357.44 135.362 359.038 135.362 361.503C135.362 363.985 134.342 365.583 132.897 365.583ZM139.986 355.009V360.823H136.671C136.45 357.967 134.954 356.182 132.897 356.182C130.67 356.182 129.089 358.256 129.089 361.503C129.089 364.75 130.67 366.824 132.897 366.824C135.022 366.824 136.535 364.954 136.671 361.962H139.986V370.292H141.38V355.009H139.986ZM146.819 357.627H152.65V356.454H145.442V366.501H146.666C149.743 366.501 151.732 366.399 154.078 365.974L153.925 364.801C151.681 365.226 149.76 365.311 146.819 365.311V357.627ZM155.54 355.009V370.292H156.934V355.009H155.54ZM165.228 357.729H168.611V356.573H160.366V357.729H163.851V359.667C163.851 362.251 162.015 365.141 159.839 366.229L160.655 367.334C162.372 366.45 163.851 364.512 164.548 362.285C165.245 364.325 166.673 366.11 168.373 366.96L169.172 365.838C166.962 364.801 165.228 362.098 165.228 359.667V357.729ZM174.34 361.163H171.824V355.026H170.43V370.258H171.824V362.336H174.34V361.163ZM188.245 355.026H186.851V366.161H188.245V355.026ZM177.45 359.82C177.45 358.341 178.572 357.287 180.051 357.287C181.564 357.287 182.686 358.341 182.686 359.82C182.686 361.333 181.564 362.387 180.051 362.387C178.572 362.387 177.45 361.333 177.45 359.82ZM184.046 359.82C184.046 357.627 182.329 356.08 180.051 356.08C177.79 356.08 176.09 357.627 176.09 359.82C176.09 362.03 177.79 363.594 180.051 363.594C182.329 363.594 184.046 362.03 184.046 359.82ZM179.83 368.779V365.022H178.436V369.918H188.704V368.779H179.83ZM199.328 363.56C199.753 360.721 199.753 358.732 199.753 357.508V356.675H192.052V357.814H198.393C198.393 359.038 198.359 360.891 197.934 363.424L199.328 363.56ZM195.826 361.027H194.449V365.719C193.31 365.753 192.188 365.77 191.219 365.77L191.372 366.926C194.075 366.926 197.662 366.858 200.824 366.348L200.739 365.328C199.192 365.515 197.492 365.617 195.826 365.685V361.027ZM205.499 361.384H203.068V355.009H201.674V370.258H203.068V362.557H205.499V361.384Z" fill="#2E2E2E"/>
<path d="M79 252H260" stroke="#EEB322"/>
<line x1="82" y1="454.75" x2="203" y2="454.75" stroke="black" stroke-width="0.5"/>
<defs>
<clipPath id="clip0_141_856">
<rect width="333" height="270" fill="white" transform="translate(487 234)"/>
</clipPath>
</defs>
</svg>
