<svg width="850" height="530" viewBox="0 0 850 530" fill="none" xmlns="http://www.w3.org/2000/svg">
<rect width="850" height="530" rx="30" fill="white"/>
<mask id="mask0_141_857" style="mask-type:alpha" maskUnits="userSpaceOnUse" x="0" y="0" width="850" height="530">
<rect width="850" height="530" rx="30" fill="white"/>
</mask>
<g mask="url(#mask0_141_857)">
<rect x="486" y="770.449" width="861.808" height="592" transform="rotate(-77.5214 486 770.449)" fill="#FFB500"/>
</g>
<path d="M107.92 109.12H92.76V105.32H107.92V109.12ZM113.12 97H107.92V101.2H92.76V97H87.52V113.32H113.12V97ZM117.08 116.8H83.72V121H97.64V132.48H102.92V121H117.08V116.8ZM142.557 113.08C136.597 111.16 134.117 106.52 134.117 101.84V97.84H128.757V101.8C128.757 106.84 126.157 111.76 119.957 113.76L122.757 117.88C126.957 116.48 129.877 113.6 131.517 109.92C133.117 113.24 135.837 115.88 139.837 117.2L142.557 113.08ZM131.077 120H125.797V131.8H150.797V127.6H131.077V120ZM149.517 106.28V95.6H144.237V122.56H149.517V110.64H154.397V106.28H149.517ZM199.515 112.4C191.115 111.04 186.595 105.52 186.595 100.28V97.64H180.955V100.28C180.955 105.4 176.395 111.04 168.075 112.4L170.235 116.76C176.675 115.6 181.355 112.12 183.755 107.6C186.155 112.16 190.875 115.6 197.355 116.76L199.515 112.4ZM186.435 123.84V115.6H181.155V123.84H167.275V128.08H200.635V123.84H186.435ZM224.432 114.04H216.912V103H224.432V114.04ZM211.672 114.04H206.872V118.24H234.552V114.04H229.672V103H234.672V98.8H206.672V103H211.672V114.04ZM204.072 123.88V128.16H237.432V123.88H204.072ZM270.668 114.6H250.148V110.48H269.548V106.4H250.148V102.52H270.388V98.28H244.788V118.76H270.668V114.6ZM240.868 123.92V128.2H274.228V123.92H240.868ZM286.825 101.6C288.825 101.6 290.265 102.68 290.265 104.68C290.265 106.6 288.825 107.72 286.825 107.72C284.785 107.72 283.305 106.6 283.305 104.68C283.305 102.68 284.785 101.6 286.825 101.6ZM286.825 111.64C291.505 111.64 294.945 108.72 294.945 104.68C294.945 100.56 291.505 97.68 286.825 97.68C282.105 97.68 278.625 100.56 278.625 104.68C278.625 108.72 282.105 111.64 286.825 111.64ZM295.705 112.68C289.905 113.48 282.025 113.56 277.105 113.56L277.665 117.84C279.545 117.84 281.785 117.84 284.225 117.72V129.56H289.265V117.44C291.585 117.24 293.985 116.92 296.105 116.52L295.705 112.68ZM297.505 119.32H291.745V123.28H297.505V130.76H302.425V96.24H297.505V119.32ZM304.865 95.64V132.44H309.865V95.64H304.865ZM324.542 119.68C321.862 119.68 320.062 116.76 320.062 111.28C320.062 105.84 321.862 102.92 324.542 102.92C327.262 102.92 329.062 105.84 329.062 111.28C329.062 116.76 327.262 119.68 324.542 119.68ZM340.102 95.56V108.84H333.942C333.222 102.2 329.502 98.16 324.542 98.16C319.062 98.16 315.022 103.2 315.022 111.28C315.022 119.4 319.062 124.48 324.542 124.48C329.662 124.48 333.422 120.16 333.982 113.12H340.102V132.52H345.382V95.56H340.102ZM367.54 103.24H374.74V119.32H367.54V103.24ZM362.34 123.48H379.94V99.08H362.34V123.48ZM395.42 109.48H390.06V95.64H384.78V132.44H390.06V113.84H395.42V109.48ZM423.257 95.56V132.52H428.537V95.56H423.257ZM408.737 98.16C403.177 98.16 399.057 103.2 399.057 111.28C399.057 119.4 403.177 124.48 408.737 124.48C414.297 124.48 418.417 119.4 418.417 111.28C418.417 103.2 414.297 98.16 408.737 98.16ZM408.737 102.92C411.457 102.92 413.337 105.84 413.337 111.28C413.337 116.76 411.457 119.68 408.737 119.68C406.017 119.68 404.137 116.76 404.137 111.28C404.137 105.84 406.017 102.92 408.737 102.92ZM467.014 112.92C458.694 111.52 454.134 105.8 454.134 100.4V97.76H448.494V100.4C448.494 105.68 443.894 111.52 435.614 112.92L437.854 117.36C444.254 116.12 448.934 112.52 451.294 107.84C453.654 112.52 458.374 116.08 464.774 117.36L467.014 112.92ZM434.814 123.68V127.96H468.174V123.68H434.814ZM478.531 113.04H489.091V108.92H478.531V102.92H490.331V98.68H473.291V124.16H476.291C482.491 124.16 487.211 124.04 492.531 123.2L492.051 118.96C487.531 119.68 483.491 119.88 478.531 119.92V113.04ZM497.251 95.56V108.56H490.931V112.8H497.251V132.52H502.531V95.56H497.251ZM537.088 119.92C538.568 112.08 538.568 106.88 538.568 102.28V98.76H511.808V102.96H533.288C533.288 107.24 533.208 112.36 531.808 119.32L537.088 119.92ZM525.488 123.76V111.08H520.208V123.76H508.448V128H541.768V123.76H525.488Z" fill="black"/>
<path d="M81.56 162.32V163.68H86.34V162.32H81.56ZM85.76 162.32V162.86C85.76 163.96 85.76 166.02 84.9 169.06L86.52 169.26C87.36 166.18 87.36 163.94 87.36 162.86V162.32H85.76ZM88.7 162.32V163.68H93.58V162.32H88.7ZM92.82 162.32V163.06C92.82 164.24 92.82 166.2 92.08 169.12L93.7 169.34C94.42 166.36 94.42 164.24 94.42 163.06V162.32H92.82ZM79.98 168.58V169.92H96.38V168.58H79.98ZM87.32 169.62V173.58H88.96V169.62H87.32ZM82.04 172.96V179.32H94.28V172.96H82.04ZM92.66 174.3V177.96H83.66V174.3H92.66ZM106.558 161.78C102.558 161.78 100.198 162.9 100.198 164.92C100.198 166.94 102.558 168.06 106.558 168.06C110.538 168.06 112.918 166.94 112.918 164.92C112.918 162.9 110.538 161.78 106.558 161.78ZM106.558 163.04C109.498 163.04 111.198 163.72 111.198 164.92C111.198 166.12 109.498 166.8 106.558 166.8C103.598 166.8 101.898 166.12 101.898 164.92C101.898 163.72 103.598 163.04 106.558 163.04ZM98.3784 169.26V170.6H114.718V169.26H98.3784ZM100.358 172.14V173.42H110.998V175.02H100.398V178.42H102.038V176.22H112.638V172.14H100.358ZM100.398 178.06V179.36H113.178V178.06H100.398ZM135.278 164.6V165.98H138.418V164.6H135.278ZM135.278 168.46V169.84H138.418V168.46H135.278ZM134.118 161.48V173.12H135.778V161.48H134.118ZM130.098 173.28C126.458 173.28 124.218 174.42 124.218 176.4C124.218 178.38 126.458 179.52 130.098 179.52C133.758 179.52 135.978 178.38 135.978 176.4C135.978 174.42 133.758 173.28 130.098 173.28ZM130.098 174.56C132.758 174.56 134.358 175.24 134.358 176.4C134.358 177.58 132.758 178.24 130.098 178.24C127.458 178.24 125.858 177.58 125.858 176.4C125.858 175.24 127.458 174.56 130.098 174.56ZM121.798 163.52V164.84H132.478V163.52H121.798ZM127.138 165.76C124.538 165.76 122.798 167 122.798 168.94C122.798 170.9 124.538 172.14 127.138 172.14C129.718 172.14 131.458 170.9 131.458 168.94C131.458 167 129.718 165.76 127.138 165.76ZM127.138 167.02C128.758 167.02 129.878 167.78 129.878 168.94C129.878 170.12 128.758 170.88 127.138 170.88C125.478 170.88 124.378 170.12 124.378 168.94C124.378 167.78 125.478 167.02 127.138 167.02ZM126.298 161.32V164.26H127.958V161.32H126.298ZM152.516 161.5V175.06H154.176V161.5H152.516ZM153.656 167.42V168.82H156.856V167.42H153.656ZM140.196 163.68V165.02H150.876V163.68H140.196ZM145.536 166.02C142.956 166.02 141.196 167.36 141.196 169.4C141.196 171.42 142.956 172.76 145.536 172.76C148.096 172.76 149.856 171.42 149.856 169.4C149.856 167.36 148.096 166.02 145.536 166.02ZM145.536 167.32C147.156 167.32 148.276 168.14 148.276 169.4C148.276 170.64 147.156 171.46 145.536 171.46C143.896 171.46 142.776 170.64 142.776 169.4C142.776 168.14 143.896 167.32 145.536 167.32ZM144.696 161.48V164.38H146.356V161.48H144.696ZM142.916 177.8V179.16H154.996V177.8H142.916ZM142.916 173.98V178.38H144.576V173.98H142.916ZM165.576 169.92V171.28H177.996V169.92H165.576ZM163.516 175.9V177.3H179.896V175.9H163.516ZM170.836 170.5V176.46H172.496V170.5H170.836ZM165.576 162.92V170.52H167.236V164.28H177.816V162.92H165.576ZM191.494 166.46V167.82H196.054V166.46H191.494ZM195.114 161.5V174.74H196.774V161.5H195.114ZM185.234 177.8V179.16H197.274V177.8H185.234ZM185.234 173.58V178.5H186.894V173.58H185.234ZM186.514 163.74V165.2C186.514 167.76 184.654 170.16 181.954 171.12L182.814 172.44C185.834 171.32 187.874 168.48 187.874 165.2V163.74H186.514ZM186.834 163.74V165.18C186.834 168.24 188.774 170.96 191.714 172.02L192.554 170.72C189.934 169.8 188.174 167.52 188.174 165.18V163.74H186.834ZM182.474 162.96V164.3H192.134V162.96H182.474ZM202.33 175.852V177.307C202.33 177.899 202.18 178.524 201.881 179.182C201.581 179.846 201.161 180.399 200.621 180.842L199.596 180.129C199.804 179.842 199.98 179.549 200.123 179.25C200.266 178.957 200.374 178.651 200.445 178.332C200.523 178.02 200.562 177.688 200.562 177.336V175.852H202.33ZM210.239 163.24V175.02H218.559V163.24H210.239ZM216.939 164.58V173.68H211.859V164.58H216.939ZM222.339 161.46V179.58H223.999V161.46H222.339ZM228.197 173.86V175.24H229.397C231.637 175.24 233.677 175.18 236.177 174.74L236.037 173.36C233.597 173.78 231.597 173.86 229.397 173.86H228.197ZM228.157 163.44V164.8H233.317V168.44H228.197V174.38H229.817V169.8H234.937V163.44H228.157ZM241.357 161.48V179.56H242.957V161.48H241.357ZM238.297 168.62V169.98H241.777V168.62H238.297ZM237.257 161.88V178.64H238.817V161.88H237.257ZM245.996 169.88V171.14H262.396V169.88H245.996ZM247.936 172.6V173.78H258.716V175.32H247.996V178.58H249.636V176.46H260.336V172.6H247.936ZM247.996 178.14V179.34H260.916V178.14H247.996ZM248.076 162V163.18H258.656V164.64H248.116V167.72H249.756V165.76H260.276V162H248.076ZM248.116 167.32V168.52H260.616V167.32H248.116ZM277.515 165.5V166.88H282.975V165.5H277.515ZM277.515 171.22V172.6H282.975V171.22H277.515ZM274.195 162.86C271.555 162.86 269.695 165.32 269.695 169.16C269.695 173.02 271.555 175.48 274.195 175.48C276.815 175.48 278.695 173.02 278.695 169.16C278.695 165.32 276.815 162.86 274.195 162.86ZM274.195 164.36C275.935 164.36 277.135 166.24 277.135 169.16C277.135 172.1 275.935 174.02 274.195 174.02C272.455 174.02 271.255 172.1 271.255 169.16C271.255 166.24 272.455 164.36 274.195 164.36ZM282.615 161.46V179.58H284.255V161.46H282.615ZM289.973 166.9V168.26H302.253V166.9H289.973ZM287.753 170.68V172.04H304.153V170.68H287.753ZM289.973 162.14V167.58H291.613V162.14H289.973ZM289.853 177.76V179.12H302.353V177.76H289.853ZM289.853 173.84V178.12H291.493V173.84H289.853ZM311.173 163.38V164.74H321.853V163.38H311.173ZM316.513 165.66C313.913 165.66 312.173 166.94 312.173 168.94C312.173 170.92 313.913 172.18 316.513 172.18C319.073 172.18 320.833 170.92 320.833 168.94C320.833 166.94 319.073 165.66 316.513 165.66ZM316.513 166.96C318.133 166.96 319.253 167.72 319.253 168.94C319.253 170.12 318.133 170.9 316.513 170.9C314.853 170.9 313.753 170.12 313.753 168.94C313.753 167.72 314.853 166.96 316.513 166.96ZM323.493 161.48V172.78H325.153V161.48H323.493ZM324.693 166.46V167.84H327.833V166.46H324.693ZM313.413 173.76V175.12H323.493V179.56H325.153V173.76H313.413ZM315.673 161.38V164.14H317.333V161.38H315.673ZM331.211 163.28V164.66H342.851V163.28H331.211ZM329.531 175.66V177.04H345.871V175.66H329.531ZM333.531 169.68V176.16H335.171V169.68H333.531ZM342.311 163.28V165.28C342.311 167.52 342.311 169.92 341.671 173.12L343.331 173.32C343.951 169.94 343.951 167.58 343.951 165.28V163.28H342.311ZM337.991 169.68V176.16H339.631V169.68H337.991Z" fill="black"/>
<path d="M94.072 441.016H89V439.64H87.688V441.016H82.52V442.04H94.072V441.016ZM84.728 450.904H91.96V453H84.728V450.904ZM83.448 453.992H93.24V449.912H83.448V453.992ZM85.08 444.632C85.08 443.928 86.248 443.528 88.344 443.528C90.408 443.528 91.576 443.928 91.576 444.632C91.576 445.352 90.408 445.752 88.344 445.752C86.248 445.752 85.08 445.352 85.08 444.632ZM89 447.752V446.664C91.528 446.568 92.968 445.864 92.968 444.632C92.968 443.304 91.288 442.6 88.344 442.6C85.368 442.6 83.704 443.304 83.704 444.632C83.704 445.864 85.128 446.568 87.688 446.664V447.752H81.848V448.792H94.808V447.752H89ZM99.0788 442.712H100.871V449.448C100.263 449.48 99.6708 449.496 99.0788 449.512V442.712ZM102.071 442.712H103.255V441.656H96.6948V442.712H97.8788V449.544C97.3348 449.56 96.8548 449.56 96.4228 449.56L96.5508 450.648C98.4228 450.648 101.431 450.584 103.655 450.168L103.575 449.208C103.111 449.272 102.583 449.32 102.071 449.368V442.712ZM104.791 445.304H102.823V446.456H104.791V453.432H106.023V440.184H104.791V445.304ZM107.559 439.848V454.184H108.823V439.848H107.559ZM121.718 439.832V454.216H123.03V439.832H121.718ZM115.462 440.936C113.334 440.936 111.814 442.888 111.814 445.944C111.814 449 113.334 450.952 115.462 450.952C117.59 450.952 119.11 449 119.11 445.944C119.11 442.888 117.59 440.936 115.462 440.936ZM115.462 442.12C116.854 442.12 117.846 443.624 117.846 445.944C117.846 448.28 116.854 449.784 115.462 449.784C114.054 449.784 113.062 448.28 113.062 445.944C113.062 443.624 114.054 442.12 115.462 442.12ZM131.124 442.392H134.5V441.304H126.484V442.392H129.812V444.216C129.812 446.696 128.068 449.4 126.004 450.376L126.772 451.432C128.404 450.6 129.812 448.792 130.468 446.696C131.156 448.664 132.564 450.312 134.228 451.08L134.964 450.024C132.852 449.128 131.124 446.648 131.124 444.216V442.392ZM136.436 439.848V454.184H137.748V439.848H136.436ZM150.675 449.656H146.579V445.88H150.675V449.656ZM150.675 444.84H146.579V441.048H145.283V450.728H151.955V441.048H150.675V444.84ZM158.115 445.48H155.747V439.848H154.435V454.168H155.747V446.584H158.115V445.48ZM166.578 451.336V448.632H171.17V447.576H162.338V445.256H170.834V440.888H161.01V441.96H169.554V444.2H161.042V448.632H165.25V451.336H159.41V452.408H172.45V451.336H166.578ZM174.913 441.368V442.456H180.177C179.873 445.848 177.905 448.6 174.241 450.44L174.961 451.464C179.601 449.144 181.473 445.448 181.473 441.368H174.913ZM187.489 445.656H185.185V439.832H183.873V454.184H185.185V446.744H187.489V445.656ZM189.712 441.384V442.44H195.104C194.832 445.848 192.912 448.6 189.056 450.44L189.76 451.512C194.528 449.176 196.432 445.528 196.432 441.384H189.712ZM199.328 439.832V454.184H200.64V439.832H199.328Z" fill="black"/>
<path d="M81.85 283.164V284.337H95.773V283.164H81.85ZM88.038 279.441V283.555H89.432V279.441H88.038ZM88.004 271.978V273.168C88.004 275.701 85.097 277.962 82.394 278.455L82.989 279.628C86.083 278.982 89.228 276.449 89.228 273.168V271.978H88.004ZM88.259 271.978V273.168C88.259 276.449 91.404 278.982 94.498 279.628L95.11 278.455C92.407 277.962 89.483 275.718 89.483 273.168V271.978H88.259ZM97.4887 283.181V284.354H111.412V283.181H97.4887ZM98.6957 272.488V273.644H110.103V272.488H98.6957ZM98.7297 278.982V280.138H110.086V278.982H98.7297ZM101.093 273.559V279.101H102.504V273.559H101.093ZM106.329 273.559V279.101H107.723V273.559H106.329ZM114.912 279.237V280.376H125.469V279.237H114.912ZM113.127 283.181V284.354H127.05V283.181H113.127ZM114.912 272.267V279.594H116.34V273.423H125.299V272.267H114.912ZM115.881 275.701V276.823H124.976V275.701H115.881ZM132.625 271.944C130.687 271.944 129.293 273.083 129.293 274.766C129.293 276.449 130.687 277.605 132.625 277.605C134.563 277.605 135.974 276.449 135.974 274.766C135.974 273.083 134.563 271.944 132.625 271.944ZM132.625 273.015C133.832 273.015 134.699 273.729 134.699 274.766C134.699 275.803 133.832 276.534 132.625 276.534C131.418 276.534 130.551 275.803 130.551 274.766C130.551 273.729 131.418 273.015 132.625 273.015ZM140.411 270.958V286.326H141.771V270.958H140.411ZM137.521 271.298V285.527H138.847V271.298H137.521ZM134.648 281.039V282.144H137.997V281.039H134.648ZM131.877 279.407V285.085H133.237V279.407H131.877ZM128.732 279.968C130.806 279.968 134.053 279.934 136.654 279.424L136.535 278.387C134.053 278.761 130.653 278.795 128.545 278.795L128.732 279.968ZM148.502 272.131C146.258 272.131 144.677 274.222 144.677 277.486C144.677 280.767 146.258 282.858 148.502 282.858C150.729 282.858 152.327 280.767 152.327 277.486C152.327 274.222 150.729 272.131 148.502 272.131ZM148.502 273.406C149.981 273.406 150.984 275.004 150.984 277.486C150.984 279.985 149.981 281.617 148.502 281.617C147.023 281.617 146.02 279.985 146.02 277.486C146.02 275.004 147.023 273.406 148.502 273.406ZM155.659 270.941V286.343H157.053V270.941H155.659ZM151.868 276.806V277.962H156.271V276.806H151.868ZM171.705 270.958V286.326H173.065V270.958H171.705ZM169.223 277.129V278.285H172.164V277.129H169.223ZM165.245 272.93V273.202C165.245 276.755 163.885 279.866 160.026 282.025L160.859 283.028C165.245 280.563 166.605 276.891 166.605 272.93H165.245ZM160.621 272.93V274.103H165.721V272.93H160.621ZM168.288 271.366V285.578H169.631V271.366H168.288ZM176.311 271.587V278.302H183.417V271.587H182.04V273.797H177.705V271.587H176.311ZM177.705 274.902H182.04V277.163H177.705V274.902ZM186.188 270.958V278.88H187.599V270.958H186.188ZM186.987 274.256V275.429H189.86V274.256H186.987ZM177.841 279.628V280.75H186.222V282.297H177.875V285.663H179.269V283.351H187.599V279.628H177.841ZM177.875 285.034V286.156H188.16V285.034H177.875ZM192.001 272.641V273.78H198.954V272.641H192.001ZM194.398 277.027V282.229H195.792V277.027H194.398ZM198.376 272.641V273.457C198.376 274.698 198.376 276.67 197.917 279.441L199.311 279.577C199.753 276.721 199.753 274.715 199.753 273.457V272.641H198.376ZM201.691 270.958V286.326H203.085V270.958H201.691ZM202.711 277.384V278.574H205.55V277.384H202.711ZM191.321 282.977C194.041 282.96 197.645 282.892 200.824 282.382L200.756 281.345C197.645 281.736 193.939 281.787 191.151 281.787L191.321 282.977ZM93.019 310.975V319.747H94.447V310.975H93.019ZM84.519 320.58V326.122H94.447V320.58H84.519ZM93.053 321.702V324.983H85.896V321.702H93.053ZM86.202 311.774C83.873 311.774 82.19 313.236 82.19 315.361C82.19 317.486 83.873 318.948 86.202 318.948C88.531 318.948 90.197 317.486 90.197 315.361C90.197 313.236 88.531 311.774 86.202 311.774ZM86.202 312.947C87.732 312.947 88.837 313.933 88.837 315.361C88.837 316.789 87.732 317.758 86.202 317.758C84.672 317.758 83.567 316.789 83.567 315.361C83.567 313.933 84.672 312.947 86.202 312.947ZM98.0327 312.471V322.467H103.915V312.471H102.606V316.211H99.3757V312.471H98.0327ZM99.3757 317.35H102.606V321.311H99.3757V317.35ZM109.185 310.958V326.326H110.545V310.958H109.185ZM103.677 316.789V317.962H106.635V316.789H103.677ZM106.142 311.281V325.561H107.485V311.281H106.142ZM124.279 310.958V326.36H125.69V310.958H124.279ZM114.113 321.345V322.535H115.354C118.448 322.535 120.454 322.45 122.8 322.008L122.647 320.818C120.369 321.243 118.397 321.345 115.354 321.345H114.113ZM114.113 312.42V321.787H115.507V313.593H121.372V312.42H114.113ZM130.517 318.319V319.475H141.074V318.319H130.517ZM128.766 323.079V324.252H142.689V323.079H128.766ZM130.517 312.369V318.829H131.928V313.542H140.921V312.369H130.517ZM144.405 323.164V324.337H158.328V323.164H144.405ZM150.593 319.441V323.555H151.987V319.441H150.593ZM150.559 311.978V313.168C150.559 315.701 147.652 317.962 144.949 318.455L145.544 319.628C148.638 318.982 151.783 316.449 151.783 313.168V311.978H150.559ZM150.814 311.978V313.168C150.814 316.449 153.959 318.982 157.053 319.628L157.665 318.455C154.962 317.962 152.038 315.718 152.038 313.168V311.978H150.814ZM160.043 323.181V324.354H173.966V323.181H160.043ZM161.25 312.488V313.644H172.657V312.488H161.25ZM161.284 318.982V320.138H172.64V318.982H161.284ZM163.647 313.559V319.101H165.058V313.559H163.647ZM168.883 313.559V319.101H170.277V313.559H168.883ZM177.467 319.237V320.376H188.024V319.237H177.467ZM175.682 323.181V324.354H189.605V323.181H175.682ZM177.467 312.267V319.594H178.895V313.423H187.854V312.267H177.467ZM178.436 315.701V316.823H187.531V315.701H178.436ZM195.18 311.944C193.242 311.944 191.848 313.083 191.848 314.766C191.848 316.449 193.242 317.605 195.18 317.605C197.118 317.605 198.529 316.449 198.529 314.766C198.529 313.083 197.118 311.944 195.18 311.944ZM195.18 313.015C196.387 313.015 197.254 313.729 197.254 314.766C197.254 315.803 196.387 316.534 195.18 316.534C193.973 316.534 193.106 315.803 193.106 314.766C193.106 313.729 193.973 313.015 195.18 313.015ZM202.966 310.958V326.326H204.326V310.958H202.966ZM200.076 311.298V325.527H201.402V311.298H200.076ZM197.203 321.039V322.144H200.552V321.039H197.203ZM194.432 319.407V325.085H195.792V319.407H194.432ZM191.287 319.968C193.361 319.968 196.608 319.934 199.209 319.424L199.09 318.387C196.608 318.761 193.208 318.795 191.1 318.795L191.287 319.968ZM211.056 312.131C208.812 312.131 207.231 314.222 207.231 317.486C207.231 320.767 208.812 322.858 211.056 322.858C213.283 322.858 214.881 320.767 214.881 317.486C214.881 314.222 213.283 312.131 211.056 312.131ZM211.056 313.406C212.535 313.406 213.538 315.004 213.538 317.486C213.538 319.985 212.535 321.617 211.056 321.617C209.577 321.617 208.574 319.985 208.574 317.486C208.574 315.004 209.577 313.406 211.056 313.406ZM218.213 310.941V326.343H219.607V310.941H218.213ZM214.422 316.806V317.962H218.825V316.806H214.422ZM223.278 312.641V313.78H230.231V312.641H223.278ZM225.675 317.027V322.229H227.069V317.027H225.675ZM229.653 312.641V313.457C229.653 314.698 229.653 316.67 229.194 319.441L230.588 319.577C231.03 316.721 231.03 314.715 231.03 313.457V312.641H229.653ZM232.968 310.958V326.326H234.362V310.958H232.968ZM233.988 317.384V318.574H236.827V317.384H233.988ZM222.598 322.977C225.318 322.96 228.922 322.892 232.101 322.382L232.033 321.345C228.922 321.736 225.216 321.787 222.428 321.787L222.598 322.977Z" fill="#2E2E2E"/>
<path d="M79 248H260" stroke="#EEB322"/>
<line x1="82" y1="454.75" x2="203" y2="454.75" stroke="black" stroke-width="0.5"/>
<g clip-path="url(#clip0_141_857)">
<path d="M474.655 267.557C478.309 265.061 483.012 270.563 480.454 273.988C477.868 277.451 472.213 276.47 470.266 272.934C467.782 268.423 470.256 263.056 474.259 260.437C478.807 257.462 484.381 257.295 489.632 257.574C494.936 257.855 500.112 258.229 505.395 257.47C509.868 256.815 514.239 255.591 518.4 253.827C526.955 250.237 534.467 244.553 540.243 237.299C542.938 233.883 545.456 230.045 546.999 225.956C548.188 222.807 548.751 218.665 547.067 215.583C546.701 214.889 546.184 214.286 545.555 213.816C544.927 213.347 544.201 213.023 543.431 212.869C542.662 212.714 541.867 212.733 541.106 212.924C540.344 213.114 539.635 213.472 539.029 213.97C536.223 216.266 535.465 220.53 537.61 223.501C539.913 226.69 544.257 227.783 547.998 227.202C553.196 226.395 557.406 222.73 561.385 219.574L590.859 196.201C595.72 192.347 600.53 188.419 605.453 184.645C609.456 181.576 614.341 178.6 619.555 180.239C621.657 180.9 623.775 182.465 624.3 184.713C624.496 185.742 624.408 186.806 624.044 187.789C623.679 188.772 623.053 189.636 622.233 190.29C621.859 190.608 621.422 190.844 620.951 190.985C620.48 191.125 619.985 191.166 619.497 191.105C619.01 191.044 618.54 190.882 618.118 190.63C617.697 190.378 617.332 190.041 617.047 189.641C615.949 188.11 615.858 185.928 616.491 184.198C618.182 179.576 624.388 179.092 628.53 179.468C633.416 179.963 638.136 181.515 642.362 184.016C651.114 189.093 657.587 197.353 661.383 206.638C665.59 216.926 666.886 228.311 666.714 239.355C666.679 241.608 666.523 244.099 665.253 246.041C664.01 247.944 661.841 248.519 659.895 247.247C659.262 246.833 658.447 246.026 658.612 245.175C658.82 244.106 660.952 244.098 661.807 244.139C664.144 244.251 666.354 245.428 668.028 247.014C672.008 250.785 672.317 256.555 671.798 261.686C671.229 267.318 669.603 272.92 670.249 278.622C671.306 287.963 678.98 293.153 686.517 297.448C690.377 299.647 694.321 301.749 697.792 304.547C701.33 307.41 704.427 310.776 706.984 314.539C712.036 321.963 715.015 330.599 715.613 339.556C715.913 344.032 715.559 348.527 714.562 352.9C713.571 357.178 712.009 362.57 707.894 364.868C706.913 365.428 705.784 365.674 704.659 365.574C703.534 365.473 702.467 365.03 701.602 364.304C699.934 362.968 699.12 360.595 700.842 358.926C702.269 357.542 704.553 357.834 706.275 358.396C708.348 359.073 709.961 360.337 711.506 361.83C714.451 364.675 717.9 368.169 722.381 367.26C723.209 367.092 722.858 365.827 722.032 365.995C716.622 367.092 713.36 360.812 709.371 358.394C706.483 356.643 701.549 355.342 699.292 358.756C696.856 362.44 700.773 366.414 704.412 366.889C709.144 367.506 712.425 362.884 714.013 359.07C717.698 350.223 717.813 339.85 715.559 330.638C713.306 321.283 708.434 312.761 701.514 306.068C698.02 302.742 694.016 300.193 689.838 297.82C685.621 295.424 681.226 293.126 677.617 289.839C675.619 288.078 674.029 285.903 672.958 283.466C671.887 281.028 671.362 278.387 671.418 275.726C671.457 269.597 673.429 263.649 673.306 257.508C673.204 252.416 671.472 247.444 667.037 244.578C665.21 243.339 663.028 242.731 660.823 242.845C659.925 242.919 658.665 243.069 657.926 243.63C657.331 244.082 657.219 245.14 657.339 245.823C657.624 247.447 659.161 248.575 660.655 249.026C661.563 249.318 662.537 249.33 663.452 249.06C664.366 248.791 665.178 248.252 665.782 247.515C667.219 245.859 667.717 243.649 667.92 241.522C668.196 238.64 668.044 235.679 667.916 232.793C667.399 221.061 665.078 209.048 658.974 198.859C653.785 190.198 645.716 182.936 636.04 179.723C631.48 178.209 626.072 177.301 621.367 178.678C617.319 179.863 614.217 183.191 614.886 187.598C615.451 191.328 619.322 193.908 622.732 191.554C623.537 190.998 624.212 190.276 624.711 189.436C625.211 188.596 625.523 187.658 625.626 186.686C625.729 185.715 625.622 184.732 625.31 183.806C624.999 182.88 624.491 182.032 623.821 181.32C620.524 177.871 615.148 177.896 611.034 179.649C608.557 180.704 606.364 182.285 604.248 183.928C601.552 186.022 598.893 188.166 596.218 190.287L563.993 215.841C561.45 217.858 558.947 219.949 556.319 221.855C553.866 223.634 551.161 225.282 548.141 225.853C543.89 226.657 537.159 224.548 537.675 219.162C537.875 217.07 539.262 214.76 541.383 214.16C543.461 213.572 545.423 214.907 546.196 216.798C547.899 220.966 545.899 225.733 543.909 229.392C538.983 238.451 531.212 245.829 522.108 250.629C517.55 253.038 512.666 254.769 507.608 255.769C501.926 256.884 496.351 256.666 490.607 256.317C485.039 255.98 479.192 256.015 474.229 258.913C470.159 261.289 467.444 265.599 468.097 270.402C468.663 274.572 472.012 277.76 476.331 277.408C479.956 277.112 483.598 274.02 482.312 270.093C481.247 266.84 477.136 264.276 473.991 266.424C473.298 266.898 473.954 268.036 474.655 267.557H474.655Z" fill="#3F3D56"/>
<path d="M753.088 362.304H721.256C720.758 362.304 720.282 362.502 719.93 362.853C719.578 363.204 719.38 363.681 719.38 364.177V383.973C719.38 384.469 719.578 384.946 719.93 385.297C720.282 385.648 720.758 385.846 721.256 385.846H753.088C753.586 385.846 754.062 385.648 754.414 385.297C754.766 384.946 754.964 384.469 754.964 383.973V364.177C754.964 363.681 754.766 363.204 754.414 362.853C754.063 362.502 753.586 362.304 753.088 362.304Z" fill="#F2F2F2"/>
<path d="M753.088 362.304H721.256C720.758 362.304 720.282 362.502 719.93 362.853C719.578 363.204 719.38 363.681 719.38 364.177V383.973C719.38 384.469 719.578 384.946 719.93 385.297C720.282 385.648 720.758 385.846 721.256 385.846H753.088C753.586 385.846 754.062 385.648 754.414 385.297C754.766 384.946 754.964 384.469 754.964 383.973V364.177C754.964 363.681 754.766 363.204 754.414 362.853C754.063 362.502 753.586 362.304 753.088 362.304ZM753.704 376.523C753.696 378.538 752.898 380.47 751.481 381.905C750.064 383.339 748.14 384.161 746.122 384.195C742.892 384.237 747.91 384.254 744.014 384.254C735.106 384.254 725.817 384.169 722.352 384.113C721.896 384.104 721.461 383.917 721.142 383.592C720.822 383.267 720.642 382.831 720.64 382.375V364.179C720.64 364.016 720.705 363.859 720.821 363.744C720.936 363.628 721.092 363.563 721.256 363.563H753.087C753.25 363.563 753.407 363.628 753.523 363.743C753.638 363.858 753.703 364.014 753.704 364.177L753.704 376.523Z" fill="#E6E6E6"/>
<path d="M749.169 350.904H724.916C724.701 350.905 724.492 350.971 724.317 351.095C724.141 351.218 724.008 351.393 723.936 351.594L720.19 362.091C720.134 362.248 720.117 362.415 720.139 362.58C720.162 362.745 720.224 362.902 720.32 363.038C720.415 363.174 720.543 363.285 720.69 363.362C720.838 363.438 721.002 363.479 721.169 363.479L753.696 363.536H753.697C753.87 363.536 754.039 363.494 754.191 363.412C754.342 363.331 754.471 363.213 754.566 363.069C754.661 362.926 754.718 362.761 754.734 362.59C754.749 362.419 754.721 362.246 754.654 362.088L754.597 362.112L754.654 362.088L750.125 351.534C750.045 351.347 749.912 351.188 749.742 351.076C749.572 350.964 749.373 350.904 749.169 350.904Z" fill="#E6E6E6"/>
<path d="M754.739 362.317C754.739 362.457 754.71 362.597 754.654 362.726L750.126 370.85C750.046 371.037 749.912 371.196 749.742 371.308C749.572 371.419 749.373 371.479 749.17 371.479H724.917C724.702 371.479 724.493 371.413 724.317 371.289C724.142 371.166 724.009 370.991 723.936 370.79L720.191 362.723C720.145 362.595 720.125 362.458 720.132 362.322C720.139 362.186 720.173 362.052 720.231 361.929C720.29 361.806 720.372 361.695 720.474 361.604C720.575 361.512 720.693 361.442 720.822 361.396C720.933 361.356 721.051 361.335 721.169 361.335L725.143 361.328L726.764 361.325L748.104 361.288L749.727 361.285L753.697 361.277H753.698C753.974 361.277 754.239 361.387 754.434 361.582C754.629 361.777 754.739 362.041 754.739 362.317Z" fill="#E6E6E6"/>
<path d="M723.642 377.152C724.123 377.152 730.727 377.555 730.727 378.036C730.727 378.516 724.123 378.892 723.642 378.892C723.411 378.892 723.19 378.8 723.027 378.637C722.863 378.474 722.771 378.253 722.771 378.022C722.771 377.791 722.863 377.57 723.027 377.407C723.19 377.244 723.411 377.152 723.642 377.152V377.152Z" fill="#E6E6E6"/>
<path d="M747.659 344.52H727.21C726.662 344.52 726.136 344.738 725.749 345.125C725.361 345.512 725.143 346.037 725.143 346.584V371.479H749.17C749.367 371.48 749.56 371.424 749.727 371.318V346.584C749.726 346.037 749.508 345.512 749.12 345.125C748.733 344.738 748.207 344.52 747.659 344.52Z" fill="#F2F2F2"/>
<path d="M739.853 346.193H728.646C728.147 346.194 727.669 346.392 727.316 346.744C726.963 347.097 726.764 347.575 726.764 348.073V371.479H748.103V354.433C748.101 352.249 747.231 350.154 745.684 348.61C744.138 347.065 742.041 346.196 739.853 346.193Z" fill="white"/>
<path d="M744.469 369.4H730.4C730.278 369.4 730.162 369.449 730.076 369.535C729.99 369.62 729.941 369.737 729.941 369.858C729.941 369.98 729.99 370.096 730.076 370.182C730.162 370.268 730.278 370.316 730.4 370.316H744.469C744.59 370.316 744.707 370.268 744.793 370.182C744.879 370.096 744.927 369.98 744.927 369.858C744.927 369.737 744.879 369.62 744.793 369.535C744.707 369.449 744.59 369.4 744.469 369.4Z" fill="#E4E4E4"/>
<path d="M744.468 367.589H730.399C730.278 367.589 730.161 367.637 730.075 367.723C729.989 367.809 729.94 367.926 729.94 368.047C729.94 368.169 729.989 368.286 730.075 368.372C730.161 368.457 730.278 368.506 730.399 368.506H744.468C744.528 368.506 744.588 368.494 744.644 368.471C744.699 368.448 744.75 368.414 744.793 368.372C744.835 368.329 744.869 368.278 744.892 368.223C744.915 368.167 744.927 368.108 744.927 368.047C744.927 367.987 744.915 367.928 744.892 367.872C744.869 367.816 744.835 367.766 744.793 367.723C744.75 367.681 744.699 367.647 744.644 367.624C744.588 367.601 744.528 367.589 744.468 367.589Z" fill="#E4E4E4"/>
<path d="M736.498 365.778H730.4C730.278 365.778 730.162 365.827 730.076 365.912C729.99 365.998 729.941 366.115 729.941 366.236C729.941 366.358 729.99 366.474 730.076 366.56C730.162 366.646 730.278 366.694 730.4 366.694H736.498C736.62 366.694 736.737 366.646 736.823 366.56C736.909 366.474 736.957 366.358 736.957 366.236C736.957 366.115 736.909 365.998 736.823 365.912C736.737 365.827 736.62 365.778 736.498 365.778Z" fill="#E4E4E4"/>
<path d="M744.468 361.985H730.399C730.278 361.986 730.161 362.034 730.075 362.12C729.99 362.206 729.941 362.322 729.941 362.444C729.941 362.565 729.99 362.682 730.075 362.767C730.161 362.853 730.278 362.902 730.399 362.902H744.468C744.528 362.902 744.588 362.891 744.644 362.868C744.7 362.845 744.75 362.811 744.793 362.768C744.836 362.726 744.87 362.675 744.893 362.62C744.916 362.564 744.928 362.504 744.928 362.444C744.928 362.383 744.916 362.324 744.893 362.268C744.87 362.212 744.836 362.162 744.793 362.119C744.75 362.077 744.7 362.043 744.644 362.02C744.588 361.997 744.528 361.985 744.468 361.985Z" fill="#E4E4E4"/>
<path d="M744.469 360.175H730.4C730.278 360.175 730.162 360.223 730.076 360.309C729.99 360.395 729.941 360.511 729.941 360.633C729.941 360.754 729.99 360.871 730.076 360.957C730.162 361.043 730.278 361.091 730.4 361.091H744.469C744.59 361.091 744.707 361.043 744.793 360.957C744.879 360.871 744.927 360.754 744.927 360.633C744.927 360.511 744.879 360.395 744.793 360.309C744.707 360.223 744.59 360.175 744.469 360.175Z" fill="#E4E4E4"/>
<path d="M736.498 358.363H730.399C730.278 358.363 730.161 358.412 730.075 358.498C729.989 358.584 729.94 358.7 729.94 358.822C729.94 358.943 729.989 359.06 730.075 359.146C730.161 359.232 730.278 359.28 730.399 359.28H736.498C736.62 359.28 736.736 359.232 736.823 359.146C736.909 359.06 736.957 358.943 736.957 358.822C736.957 358.7 736.909 358.584 736.823 358.498C736.736 358.412 736.62 358.363 736.498 358.363Z" fill="#E4E4E4"/>
<path d="M744.468 354.57H730.399C730.278 354.571 730.161 354.619 730.075 354.705C729.99 354.791 729.941 354.907 729.941 355.029C729.941 355.15 729.99 355.267 730.075 355.352C730.161 355.438 730.278 355.487 730.399 355.487H744.468C744.528 355.487 744.588 355.476 744.644 355.453C744.7 355.43 744.75 355.396 744.793 355.353C744.836 355.311 744.87 355.26 744.893 355.205C744.916 355.149 744.928 355.089 744.928 355.029C744.928 354.968 744.916 354.909 744.893 354.853C744.87 354.797 744.836 354.747 744.793 354.704C744.75 354.661 744.7 354.628 744.644 354.605C744.588 354.582 744.528 354.57 744.468 354.57Z" fill="#E4E4E4"/>
<path d="M736.498 350.949H730.399C730.278 350.949 730.161 350.998 730.075 351.084C729.989 351.169 729.94 351.286 729.94 351.408C729.94 351.529 729.989 351.646 730.075 351.732C730.161 351.818 730.278 351.866 730.399 351.866H736.498C736.558 351.866 736.618 351.854 736.674 351.831C736.729 351.808 736.78 351.774 736.823 351.732C736.865 351.689 736.899 351.639 736.922 351.583C736.945 351.528 736.957 351.468 736.957 351.408C736.957 351.347 736.945 351.288 736.922 351.232C736.899 351.177 736.865 351.126 736.823 351.084C736.78 351.041 736.729 351.007 736.674 350.984C736.618 350.961 736.558 350.949 736.498 350.949Z" fill="#E4E4E4"/>
<path d="M584.988 265.105C592.485 265.105 598.563 259.034 598.563 251.546C598.563 244.057 592.485 237.986 584.988 237.986C577.49 237.986 571.412 244.057 571.412 251.546C571.412 259.034 577.49 265.105 584.988 265.105Z" fill="#FBDBBE"/>
<path d="M744.468 352.76H730.399C730.278 352.76 730.161 352.809 730.075 352.895C729.99 352.98 729.941 353.097 729.941 353.218C729.941 353.34 729.99 353.456 730.075 353.542C730.161 353.628 730.278 353.676 730.399 353.677H744.468C744.528 353.677 744.588 353.665 744.644 353.642C744.7 353.619 744.75 353.585 744.793 353.543C744.836 353.5 744.87 353.45 744.893 353.394C744.916 353.338 744.928 353.279 744.928 353.218C744.928 353.158 744.916 353.098 744.893 353.042C744.87 352.987 744.836 352.936 744.793 352.894C744.75 352.851 744.7 352.817 744.644 352.794C744.588 352.771 744.528 352.76 744.468 352.76Z" fill="#E4E4E4"/>
<path d="M600.483 243.782C599.055 241.575 596.376 240.104 593.778 240.518C593.536 238.862 592.844 237.304 591.777 236.013C590.71 234.723 589.31 233.75 587.727 233.2C586.145 232.65 584.442 232.544 582.803 232.893C581.165 233.243 579.654 234.035 578.435 235.183C578.034 234.901 577.567 234.727 577.079 234.678C576.592 234.63 576.099 234.708 575.65 234.905C574.756 235.311 573.978 235.934 573.388 236.718C571.898 238.575 570.939 240.801 570.614 243.159C570.289 245.516 570.611 247.918 571.544 250.108C571.227 248.955 572.384 247.87 573.552 247.612C574.721 247.353 575.947 247.598 577.132 247.429C578.651 247.213 580.016 246.333 581.538 246.135C582.816 245.969 584.102 246.296 585.349 246.624C586.595 246.953 587.878 247.287 589.158 247.135C590.439 246.984 592.088 251.83 592.066 255.244C592.062 255.891 592.195 256.721 592.828 256.859C593.608 257.028 594.059 255.953 594.801 255.66C595.143 255.563 595.51 255.601 595.824 255.768C596.138 255.935 596.375 256.217 596.485 256.555C596.578 256.898 596.588 257.259 596.514 257.607C596.44 257.955 596.283 258.281 596.058 258.556C595.602 259.103 595.06 259.572 594.454 259.945L594.76 260.199C595.268 260.87 596.323 260.899 597.055 260.484C597.756 260.01 598.323 259.365 598.703 258.61C600.059 256.358 601.247 253.959 601.726 251.375C602.204 248.792 601.911 245.988 600.483 243.782Z" fill="#2F2E41"/>
<path d="M600.912 488.993L593.581 488.992L590.093 460.746L600.914 460.747L600.912 488.993Z" fill="#FBDBBE"/>
<path d="M601.17 496.632L578.624 496.631V496.347C578.624 494.022 579.549 491.793 581.194 490.149C582.84 488.505 585.072 487.582 587.4 487.582H587.4L591.518 484.461L599.202 487.582L601.17 487.582L601.17 496.632Z" fill="#2F2E41"/>
<path d="M614.133 476.063L608.381 480.603L588.106 460.606L596.596 453.903L614.133 476.063Z" fill="#FBDBBE"/>
<path d="M619.078 481.896L601.391 495.861L601.214 495.637C599.771 493.814 599.112 491.492 599.383 489.183C599.653 486.874 600.831 484.767 602.656 483.326L602.657 483.325L603.95 478.326L611.915 476.015L613.459 474.796L619.078 481.896Z" fill="#2F2E41"/>
<path d="M562.999 356.592L562.552 364.835L564.729 367.462L564.479 375.706L566.591 381.102L568.077 398.27L588.882 469.902L607.631 463.896L587.158 397.121L611.79 396.507L612.623 358.855L608.258 350.427L562.999 356.592Z" fill="#2F2E41"/>
<path d="M609.421 390.831L611.79 396.507L602.63 476.435L589.778 477.372L584.229 388.016L609.421 390.831Z" fill="#2F2E41"/>
<path d="M596.826 273.044L592.606 267.21L578.979 267.755L578.718 272.248L569.666 357.645L578.556 357.446L589.591 360.02L610.815 352.6L596.826 273.044Z" fill="#0048FF"/>
<path d="M573.161 359.225H552.263L557.715 320.786L559.926 305.206C559.926 305.206 558.361 294.07 557.603 288.252C557.533 287.631 557.64 287.003 557.914 286.441C558.162 285.915 558.485 285.427 558.874 284.994C561.416 282.066 567.133 279.528 570.718 278.138C572.565 277.427 573.848 277.018 573.848 277.018L578.716 272.25C585.705 280.971 573.161 359.225 573.161 359.225Z" fill="#3F3D56"/>
<path d="M594.179 269.87L600.808 273.665C600.808 273.665 620.443 276.886 622.352 284.251L615.125 306.042V351.838L597.604 358.856C597.604 358.856 582.49 284.869 594.179 269.87Z" fill="#3F3D56"/>
<path opacity="0.4" d="M587.468 386.165L584.229 423.64L589.744 467.253" fill="black"/>
<path d="M509.264 316.354C509.804 315.966 510.422 315.702 511.076 315.579C511.729 315.456 512.402 315.477 513.046 315.642C513.69 315.806 514.291 316.11 514.805 316.532C515.319 316.953 515.734 317.482 516.021 318.081L532.084 316.267L528.277 323.746L513.607 324.322C512.567 324.738 511.411 324.757 510.358 324.378C509.305 323.999 508.427 323.247 507.892 322.265C507.356 321.283 507.2 320.139 507.453 319.049C507.706 317.96 508.35 317.001 509.264 316.354L509.264 316.354Z" fill="#FBDBBE"/>
<path d="M576.682 283.605L581.278 286.348L555.534 322.572L524.112 325.239L522.86 316.278L546.012 309.341L557.456 287.185L576.682 283.605Z" fill="#3F3D56"/>
<path d="M670.375 313.291C669.835 312.904 669.216 312.639 668.563 312.516C667.909 312.393 667.237 312.415 666.593 312.579C665.948 312.744 665.348 313.048 664.834 313.469C664.32 313.891 663.905 314.42 663.617 315.019L647.555 313.204L651.362 320.683L666.032 321.26C667.071 321.675 668.227 321.695 669.281 321.316C670.334 320.937 671.211 320.185 671.747 319.203C672.282 318.22 672.438 317.076 672.185 315.987C671.933 314.897 671.288 313.938 670.375 313.292V313.291Z" fill="#FBDBBE"/>
<path d="M602.958 280.543L598.361 283.286L624.105 319.51L655.528 322.177L656.779 313.216L633.627 306.278L622.184 284.123L602.958 280.543Z" fill="#3F3D56"/>
<path d="M540.368 272.019V271.54H532.333V260.372H531.855V271.54H522.646V262.916C522.485 263.042 522.326 263.172 522.169 263.306V271.54H516.087C516.019 271.699 515.954 271.858 515.893 272.019H522.169V281.404H514.376C514.383 281.564 514.394 281.723 514.408 281.882H522.169V289.369H516.355C516.426 289.53 516.501 289.688 516.58 289.845H522.169V296.139H522.646V289.845H531.855V296.139H532.333V289.845H540.368V289.369H532.333C532.333 288.386 532.526 287.412 532.903 286.504C533.28 285.595 533.832 284.77 534.528 284.075C535.224 283.379 536.05 282.828 536.96 282.452C537.869 282.076 538.844 281.882 539.829 281.882H540.368V281.404H532.333V272.019H540.368ZM531.855 289.369H522.646V281.882H531.855V289.369ZM531.855 281.404H522.646V281.216C522.646 280.008 522.884 278.812 523.347 277.696C523.81 276.58 524.488 275.566 525.343 274.712C526.199 273.858 527.214 273.181 528.331 272.719C529.448 272.257 530.646 272.019 531.855 272.019V281.404Z" fill="#E6E6E6"/>
<path d="M610.179 205.758C610.117 205.784 610.046 205.784 609.983 205.758C609.921 205.732 609.871 205.682 609.845 205.619L609.18 204.013C609.154 203.951 609.154 203.88 609.18 203.818C609.206 203.755 609.255 203.706 609.318 203.68C609.381 203.654 609.451 203.654 609.514 203.68C609.577 203.706 609.627 203.755 609.652 203.818L610.318 205.424C610.344 205.487 610.344 205.557 610.318 205.619C610.292 205.682 610.242 205.732 610.179 205.758Z" fill="#3F3D56"/>
<path d="M623.6 193.861L621.614 189.067C621.463 188.703 621.242 188.372 620.963 188.093C620.684 187.814 620.353 187.593 619.988 187.442C619.623 187.291 619.232 187.213 618.838 187.213C618.443 187.213 618.052 187.29 617.687 187.441L607.52 191.644C607.155 191.794 606.823 192.016 606.544 192.294C606.265 192.573 606.043 192.904 605.892 193.268C605.741 193.632 605.663 194.023 605.663 194.417C605.663 194.811 605.741 195.202 605.892 195.566L616.787 221.863C616.938 222.228 617.159 222.559 617.438 222.838C617.717 223.116 618.049 223.338 618.413 223.489C618.778 223.64 619.169 223.718 619.564 223.718C619.958 223.718 620.349 223.64 620.714 223.49L630.882 219.287C631.246 219.136 631.578 218.915 631.857 218.636C632.136 218.358 632.358 218.027 632.509 217.662C632.66 217.298 632.738 216.908 632.738 216.514C632.738 216.119 632.661 215.729 632.51 215.364L625.014 197.273C625.037 197.263 625.058 197.249 625.075 197.232C625.093 197.214 625.107 197.193 625.117 197.17C625.126 197.147 625.131 197.123 625.131 197.098C625.131 197.073 625.126 197.048 625.117 197.025L623.848 193.963C623.838 193.94 623.825 193.919 623.807 193.902C623.789 193.884 623.768 193.87 623.745 193.861C623.722 193.851 623.698 193.846 623.673 193.846C623.648 193.846 623.623 193.851 623.6 193.861Z" fill="#3F3D56"/>
<path d="M621.03 189.331L631.91 215.59C632.136 216.135 632.138 216.748 631.914 217.294C631.691 217.841 631.261 218.277 630.717 218.509C630.71 218.513 630.703 218.517 630.695 218.52L620.478 222.743C619.928 222.97 619.309 222.97 618.759 222.742C618.209 222.514 617.772 222.077 617.544 221.528L606.664 195.268C606.552 194.996 606.494 194.705 606.494 194.41C606.494 194.116 606.553 193.824 606.666 193.552C606.779 193.28 606.944 193.033 607.153 192.825C607.361 192.617 607.609 192.452 607.881 192.34L609.121 191.827C609.121 192.002 609.165 192.174 609.248 192.328C609.331 192.482 609.451 192.613 609.597 192.71C609.743 192.807 609.91 192.866 610.085 192.883C610.259 192.9 610.435 192.874 610.596 192.807L616.421 190.399C616.548 190.346 616.664 190.269 616.761 190.171C616.861 190.073 616.94 189.956 616.995 189.828C617.049 189.699 617.078 189.56 617.078 189.42C617.079 189.281 617.052 189.142 616.999 189.012C616.947 188.883 616.868 188.765 616.77 188.666L618.098 188.117C618.648 187.889 619.266 187.89 619.816 188.117C620.366 188.345 620.803 188.781 621.03 189.331Z" fill="#0048FF"/>
<path d="M609.044 203.019C608.982 203.044 608.911 203.044 608.849 203.018C608.786 202.992 608.736 202.943 608.71 202.88L608.045 201.274C608.019 201.212 608.019 201.141 608.045 201.079C608.071 201.016 608.121 200.966 608.183 200.94C608.246 200.914 608.317 200.914 608.379 200.94C608.442 200.966 608.492 201.016 608.518 201.079L609.183 202.685C609.209 202.747 609.209 202.818 609.183 202.88C609.157 202.943 609.107 202.993 609.044 203.019Z" fill="#3F3D56"/>
<path d="M607.706 199.921C607.643 199.947 607.573 199.946 607.51 199.921C607.447 199.895 607.398 199.845 607.372 199.782L606.706 198.176C606.693 198.145 606.687 198.112 606.687 198.078C606.686 198.045 606.693 198.011 606.706 197.98C606.719 197.949 606.738 197.921 606.761 197.897C606.785 197.873 606.813 197.855 606.845 197.842C606.876 197.829 606.909 197.822 606.943 197.822C606.976 197.822 607.01 197.829 607.041 197.842C607.072 197.855 607.1 197.874 607.124 197.898C607.148 197.921 607.166 197.95 607.179 197.981L607.845 199.587C607.87 199.649 607.87 199.72 607.844 199.782C607.818 199.845 607.769 199.895 607.706 199.921Z" fill="#3F3D56"/>
<path d="M611.451 191.181C611.425 191.118 611.425 191.048 611.451 190.985C611.477 190.923 611.527 190.873 611.59 190.847L613.197 190.183C613.26 190.157 613.331 190.157 613.393 190.183C613.456 190.209 613.506 190.258 613.532 190.321C613.558 190.384 613.558 190.454 613.532 190.517C613.506 190.579 613.456 190.629 613.393 190.655L611.785 191.319C611.723 191.345 611.652 191.345 611.589 191.319C611.527 191.293 611.477 191.244 611.451 191.181Z" fill="white"/>
<path d="M614.193 190.302C614.335 190.302 614.449 190.188 614.449 190.047C614.449 189.905 614.335 189.791 614.193 189.791C614.052 189.791 613.938 189.905 613.938 190.047C613.938 190.188 614.052 190.302 614.193 190.302Z" fill="white"/>
<path d="M669.691 303.709C669.659 303.709 669.626 303.709 669.594 303.707C669.214 303.693 668.843 303.588 668.512 303.4C668.182 303.213 667.901 302.948 667.695 302.629C666.152 300.324 664.257 298.275 662.081 296.554C660.763 295.502 659.386 294.524 658.055 293.578C654.62 291.139 651.385 288.841 649.589 285.666C645.674 278.743 650.285 269.101 656.871 264.777C664.26 259.927 673.978 259.166 683.379 259.066C684.356 259.056 685.333 259.051 686.311 259.051C703.25 259.057 720.153 260.601 736.812 263.663C742.351 264.684 748.15 265.934 752.809 268.969C757.441 271.986 760.256 276.737 759.982 281.072C759.581 287.402 752.863 292.132 746.746 293.368C740.915 294.546 734.858 293.75 728.445 292.907C727.03 292.721 725.566 292.529 724.118 292.362C708.387 290.546 678.835 296.144 677.585 296.383L676.345 296.62L671.532 302.806C671.315 303.088 671.036 303.316 670.717 303.473C670.398 303.63 670.047 303.71 669.691 303.709Z" fill="#0048FF"/>
<path d="M739.744 272.83H673.253C672.87 272.83 672.502 272.678 672.23 272.407C671.959 272.136 671.807 271.769 671.807 271.385C671.807 271.002 671.959 270.635 672.23 270.364C672.502 270.093 672.87 269.94 673.253 269.94H739.744C740.127 269.94 740.495 270.093 740.767 270.364C741.038 270.635 741.19 271.002 741.19 271.385C741.19 271.769 741.038 272.136 740.767 272.407C740.495 272.678 740.127 272.83 739.744 272.83Z" fill="white"/>
<path d="M739.743 281.701H673.253C672.869 281.7 672.502 281.548 672.231 281.278C671.96 281.007 671.807 280.64 671.807 280.257C671.806 279.874 671.958 279.507 672.229 279.236C672.499 278.964 672.866 278.811 673.25 278.811H739.743C740.127 278.811 740.494 278.964 740.765 279.235C741.035 279.506 741.187 279.873 741.187 280.256C741.187 280.638 741.035 281.005 740.765 281.276C740.494 281.547 740.127 281.7 739.743 281.701Z" fill="white"/>
<path d="M681.001 290.57H673.253C672.87 290.569 672.502 290.416 672.231 290.146C671.961 289.875 671.809 289.507 671.809 289.125C671.809 288.742 671.961 288.375 672.231 288.104C672.502 287.833 672.87 287.68 673.253 287.68H681.001C681.385 287.68 681.752 287.833 682.023 288.104C682.293 288.375 682.445 288.742 682.445 289.125C682.445 289.507 682.293 289.875 682.023 290.146C681.752 290.416 681.385 290.569 681.001 290.57Z" fill="white"/>
<path d="M670.512 313.783C674.395 313.783 677.544 310.638 677.544 306.759C677.544 302.88 674.395 299.735 670.512 299.735C666.628 299.735 663.479 302.88 663.479 306.759C663.479 310.638 666.628 313.783 670.512 313.783Z" fill="white"/>
<path d="M670.512 313.87C669.104 313.87 667.728 313.453 666.557 312.671C665.386 311.89 664.474 310.78 663.935 309.481C663.397 308.182 663.256 306.752 663.53 305.373C663.805 303.994 664.483 302.727 665.478 301.733C666.474 300.738 667.742 300.061 669.123 299.787C670.504 299.513 671.935 299.653 673.235 300.192C674.536 300.73 675.648 301.641 676.43 302.81C677.212 303.979 677.629 305.354 677.63 306.76C677.627 308.645 676.877 310.452 675.542 311.785C674.208 313.118 672.399 313.867 670.512 313.87Z" fill="#3F3D56"/>
<path d="M669.985 309.567C669.97 309.567 669.955 309.566 669.94 309.566C669.808 309.559 669.679 309.524 669.561 309.463C669.443 309.402 669.34 309.316 669.259 309.212L668.084 307.703C668.009 307.607 667.955 307.499 667.923 307.382C667.891 307.266 667.882 307.144 667.897 307.025C667.912 306.905 667.95 306.789 668.01 306.684C668.07 306.579 668.149 306.487 668.245 306.413L668.287 306.38C668.383 306.306 668.492 306.251 668.608 306.219C668.725 306.187 668.846 306.178 668.966 306.193C669.086 306.208 669.202 306.247 669.307 306.307C669.412 306.366 669.504 306.446 669.579 306.541C669.638 306.617 669.713 306.68 669.799 306.724C669.885 306.769 669.979 306.794 670.075 306.799C670.172 306.804 670.268 306.787 670.358 306.752C670.448 306.716 670.528 306.661 670.595 306.591L672.981 304.075C673.149 303.898 673.38 303.795 673.624 303.788C673.868 303.782 674.104 303.872 674.282 304.039L674.321 304.077C674.409 304.16 674.479 304.259 674.528 304.369C674.578 304.479 674.605 304.598 674.608 304.719C674.611 304.84 674.591 304.96 674.547 305.072C674.504 305.185 674.439 305.288 674.356 305.376L670.653 309.28C670.567 309.37 670.464 309.443 670.349 309.492C670.234 309.541 670.11 309.567 669.985 309.567Z" fill="white"/>
<path d="M539.208 215.966L534.906 190.125C534.819 189.602 534.944 189.065 535.253 188.634C535.561 188.203 536.029 187.911 536.552 187.824L556.092 184.579C556.615 184.492 557.152 184.617 557.584 184.925C558.016 185.233 558.308 185.7 558.395 186.223L562.697 212.065C562.784 212.588 562.659 213.124 562.35 213.555C562.042 213.987 561.574 214.278 561.051 214.366L541.511 217.611C540.988 217.697 540.451 217.573 540.019 217.264C539.587 216.956 539.296 216.489 539.208 215.966Z" fill="#3F3D56"/>
<path d="M539.407 207.912L536.641 191.299C536.56 190.809 536.677 190.307 536.966 189.903C537.255 189.499 537.693 189.226 538.183 189.144L554.976 186.355C555.466 186.274 555.969 186.391 556.373 186.68C556.778 186.969 557.051 187.406 557.133 187.895L560.962 210.891C561.043 211.381 560.926 211.883 560.637 212.287C560.348 212.691 559.91 212.964 559.419 213.046L549.017 214.774C546.832 215.134 544.593 214.614 542.792 213.328C540.99 212.041 539.773 210.094 539.407 207.912Z" fill="white"/>
<path d="M540.132 195.482C540.053 195.003 540.167 194.513 540.45 194.118C540.732 193.723 541.16 193.457 541.639 193.377L553.288 191.442C553.525 191.402 553.768 191.41 554.002 191.464C554.237 191.519 554.458 191.619 554.654 191.758C554.85 191.898 555.016 192.075 555.143 192.279C555.271 192.483 555.356 192.71 555.396 192.947C555.435 193.184 555.428 193.427 555.373 193.661C555.319 193.895 555.219 194.116 555.079 194.312C554.939 194.507 554.762 194.673 554.558 194.8C554.354 194.927 554.126 195.013 553.889 195.053L542.24 196.987C541.761 197.066 541.27 196.952 540.874 196.67C540.479 196.388 540.212 195.961 540.132 195.482Z" fill="#0048FF"/>
<path d="M541.067 201.099C540.987 200.621 541.102 200.13 541.384 199.735C541.667 199.341 542.094 199.074 542.574 198.994L554.222 197.059C554.702 196.979 555.193 197.093 555.589 197.375C555.984 197.658 556.251 198.085 556.331 198.564C556.41 199.043 556.296 199.534 556.014 199.929C555.731 200.324 555.303 200.59 554.824 200.67L543.175 202.605C542.695 202.684 542.204 202.57 541.809 202.287C541.414 202.005 541.147 201.578 541.067 201.099Z" fill="#0048FF"/>
<path d="M542.002 206.717C541.923 206.238 542.037 205.747 542.32 205.352C542.602 204.958 543.03 204.691 543.509 204.611L555.158 202.676C555.395 202.637 555.638 202.644 555.873 202.699C556.107 202.753 556.328 202.853 556.524 202.993C556.72 203.132 556.886 203.309 557.013 203.513C557.141 203.717 557.227 203.944 557.266 204.181C557.306 204.418 557.298 204.661 557.243 204.895C557.189 205.129 557.089 205.35 556.949 205.546C556.809 205.741 556.632 205.908 556.428 206.035C556.224 206.162 555.996 206.248 555.759 206.287L544.11 208.222C543.631 208.301 543.14 208.187 542.745 207.905C542.349 207.622 542.082 207.195 542.002 206.717Z" fill="#0048FF"/>
<path d="M641.296 478.778L641.606 471.823C644.834 470.1 648.435 469.189 652.096 469.171C647.058 473.285 647.687 481.216 644.272 486.749C643.193 488.466 641.741 489.919 640.024 491C638.307 492.081 636.368 492.762 634.352 492.993L630.135 495.571C629.557 492.35 629.684 489.041 630.509 485.874C631.334 482.706 632.837 479.755 634.913 477.224C636.092 475.815 637.444 474.56 638.937 473.489C639.947 476.149 641.296 478.778 641.296 478.778Z" fill="#F2F2F2"/>
<path d="M697.197 496.321C697.197 496.41 697.18 496.499 697.146 496.581C697.112 496.664 697.062 496.739 696.998 496.802C696.935 496.865 696.86 496.915 696.777 496.949C696.695 496.983 696.606 497.001 696.517 497H513.431C513.251 497 513.078 496.929 512.95 496.801C512.823 496.674 512.751 496.501 512.751 496.321C512.751 496.141 512.823 495.968 512.95 495.841C513.078 495.713 513.251 495.642 513.431 495.642H696.517C696.606 495.641 696.695 495.659 696.777 495.693C696.86 495.727 696.935 495.777 696.998 495.84C697.062 495.903 697.112 495.978 697.146 496.061C697.18 496.143 697.197 496.232 697.197 496.321Z" fill="#CCCCCC"/>
<path d="M513.872 312.853C510.625 312.789 493.183 312.289 490.323 312.412C490.162 311.846 484.74 318.786 484.608 318.829C484.52 318.922 484.456 319.034 484.421 319.157C484.386 319.28 484.381 319.409 484.407 319.534C484.433 319.659 484.489 319.776 484.57 319.875C484.651 319.974 484.755 320.051 484.873 320.101C485.191 320.295 513.309 319.775 513.65 319.843C513.797 319.84 513.941 319.797 514.065 319.716C514.188 319.636 514.286 319.522 514.348 319.389L514.536 318.968C514.556 318.249 514.791 314.573 514.58 313.944C514.632 313.826 514.653 313.697 514.643 313.569C514.633 313.44 514.591 313.316 514.52 313.208C514.45 313.1 514.354 313.011 514.241 312.949C514.128 312.887 514.001 312.854 513.872 312.853Z" fill="#3F3D56"/>
<path opacity="0.17" d="M514.536 318.968C514.371 319.364 514.16 319.862 513.65 319.843L485.169 320.163C485.035 320.161 484.903 320.125 484.786 320.058C484.669 319.991 484.572 319.894 484.503 319.779C484.434 319.663 484.396 319.532 484.393 319.397C484.389 319.263 484.421 319.13 484.484 319.011L514.536 318.968Z" fill="black"/>
<path d="M490.457 312.327C490.15 311.797 482.536 274.166 481.9 273.851L476.702 267.499L476.237 267.15C475.591 266.795 474.041 267.035 474.181 268.021C475.402 273.869 483.258 307.179 483.43 312.372L484.375 318.988C484.392 319.101 484.432 319.209 484.494 319.305C484.555 319.401 484.635 319.483 484.73 319.546C484.825 319.609 484.932 319.652 485.044 319.671C485.157 319.69 485.272 319.685 485.382 319.657C485.653 319.628 485.912 319.529 486.133 319.37C486.354 319.21 486.53 318.996 486.643 318.748C486.713 318.514 490.813 312.462 490.457 312.327Z" fill="#3F3D56"/>
<path opacity="0.17" d="M476.701 267.499L486.644 318.749C486.311 319.59 484.755 320.179 484.393 319.076C484.386 319.075 474.192 268.052 474.182 268.022C474.073 266.794 476.105 266.755 476.701 267.499Z" fill="black"/>
<path d="M477 269.595L482.05 276.625L487.718 303.512L485.083 305.808L477 269.595Z" fill="#0048FF"/>
<path d="M510.613 316.479L512.01 316.536C512.032 316.128 512.1 315.723 512.212 315.329C512.422 314.332 512.61 313.146 511.739 313.151C511.148 313.094 510.946 313.842 510.841 314.655C510.814 315.268 510.738 315.878 510.613 316.479Z" fill="#2F2E41"/>
<path d="M502.599 314.603L503.54 314.638L503.996 314.655C503.987 314.157 504.219 313.129 503.654 312.875C503.564 312.836 503.467 312.817 503.369 312.818C502.839 312.787 502.682 313.19 502.634 313.654C502.603 313.933 502.616 314.231 502.607 314.463C502.607 314.511 502.603 314.559 502.599 314.603Z" fill="#2F2E41"/>
<path d="M499.809 314.488L500.755 314.528L501.206 314.545C501.197 313.972 501.499 312.721 500.579 312.704C499.73 312.656 499.839 313.736 499.817 314.348C499.817 314.397 499.813 314.445 499.809 314.488Z" fill="#2F2E41"/>
<path d="M497.019 314.379L497.96 314.414L498.416 314.432C498.407 313.863 498.709 312.612 497.789 312.595C496.94 312.542 497.049 313.623 497.027 314.239C497.027 314.287 497.023 314.336 497.019 314.379Z" fill="#2F2E41"/>
<path d="M494.229 314.266L495.175 314.305L495.627 314.323C495.618 313.75 495.92 312.503 495 312.481C494.151 312.433 494.26 313.513 494.238 314.126C494.238 314.174 494.234 314.222 494.229 314.266Z" fill="#2F2E41"/>
<path d="M491.439 314.156L492.381 314.191L492.837 314.209C492.828 313.684 493.082 312.586 492.407 312.398H492.403C492.34 312.379 492.275 312.371 492.21 312.372C492.131 312.365 492.051 312.372 491.974 312.394H491.969C491.383 312.547 491.466 313.465 491.448 314.016C491.448 314.065 491.444 314.113 491.439 314.156Z" fill="#2F2E41"/>
<path d="M507.797 313.859L509.194 313.916C509.194 313.863 509.194 313.806 509.198 313.741C509.233 313.408 509.239 313.073 509.216 312.739C509.168 312.371 509.01 312.083 508.568 312.074C508.117 312.048 507.937 312.336 507.867 312.708C507.851 312.771 507.839 312.836 507.832 312.901V312.905C507.797 313.246 507.819 313.614 507.797 313.859Z" fill="#2F2E41"/>
<path d="M505.007 313.745L506.404 313.802C506.434 313.427 506.442 313.05 506.43 312.674C506.391 312.289 506.237 311.974 505.778 311.965C505.313 311.934 505.134 312.249 505.064 312.639C504.998 313.015 505.033 313.465 505.007 313.745Z" fill="#2F2E41"/>
<path d="M502.218 313.636L502.634 313.653L503.615 313.693C503.61 313.483 503.65 313.176 503.654 312.875C503.658 312.784 503.655 312.693 503.645 312.603C503.61 312.197 503.466 311.86 502.989 311.851C502.502 311.825 502.332 312.162 502.27 312.573C502.209 312.94 502.244 313.365 502.218 313.636Z" fill="#2F2E41"/>
<path d="M507.823 316.37L509.22 316.422C509.216 315.853 509.514 314.602 508.594 314.585C507.674 314.528 507.876 315.797 507.823 316.37Z" fill="#2F2E41"/>
<path d="M505.033 316.256L506.43 316.313C506.426 315.74 506.724 314.489 505.804 314.471C504.884 314.419 505.086 315.687 505.033 316.256Z" fill="#2F2E41"/>
<path d="M502.243 316.147L503.64 316.199C503.636 315.792 503.789 315.04 503.54 314.637C503.485 314.548 503.407 314.476 503.315 314.427C503.222 314.379 503.118 314.356 503.014 314.362C502.871 314.347 502.726 314.382 502.607 314.462C502.16 314.755 502.287 315.683 502.243 316.147Z" fill="#2F2E41"/>
<path d="M499.454 316.033L500.851 316.089C500.847 315.683 500.996 314.935 500.755 314.528C500.7 314.437 500.622 314.363 500.529 314.314C500.436 314.265 500.33 314.242 500.225 314.248C500.081 314.232 499.937 314.268 499.818 314.348C499.371 314.65 499.498 315.573 499.454 316.033Z" fill="#2F2E41"/>
<path d="M496.664 315.923L498.061 315.975C498.057 315.569 498.21 314.816 497.96 314.414C497.906 314.325 497.828 314.252 497.736 314.203C497.643 314.155 497.539 314.132 497.435 314.138C497.291 314.123 497.147 314.159 497.028 314.239C496.581 314.532 496.708 315.459 496.664 315.923Z" fill="#2F2E41"/>
<path d="M493.874 315.81L495.271 315.867C495.267 315.46 495.416 314.712 495.175 314.305C495.121 314.214 495.043 314.14 494.949 314.091C494.856 314.041 494.75 314.019 494.645 314.025C494.501 314.009 494.357 314.045 494.238 314.126C493.791 314.428 493.918 315.351 493.874 315.81Z" fill="#2F2E41"/>
<path d="M491.085 315.7L492.482 315.753C492.478 315.346 492.627 314.598 492.381 314.191C492.327 314.102 492.25 314.029 492.157 313.98C492.064 313.931 491.96 313.909 491.856 313.916C491.712 313.9 491.568 313.936 491.448 314.016C491.002 314.314 491.129 315.237 491.085 315.7Z" fill="#2F2E41"/>
</g>
<defs>
<clipPath id="clip0_141_857">
<rect width="292" height="319" fill="white" transform="translate(468 178)"/>
</clipPath>
</defs>
</svg>
