<svg width="850" height="530" viewBox="0 0 850 530" fill="none" xmlns="http://www.w3.org/2000/svg">
<rect width="850" height="530" rx="30" fill="white"/>
<mask id="mask0_3138_846" style="mask-type:alpha" maskUnits="userSpaceOnUse" x="0" y="0" width="850" height="530">
<rect width="850" height="530" rx="30" fill="white"/>
</mask>
<g mask="url(#mask0_3138_846)">
<rect x="486" y="770.449" width="861.808" height="592" transform="rotate(-77.5214 486 770.449)" fill="#FFB500"/>
</g>
<g clip-path="url(#clip0_3138_846)">
<path d="M474.655 267.557C478.309 265.061 483.012 270.563 480.454 273.988C477.868 277.451 472.213 276.47 470.266 272.934C467.782 268.423 470.256 263.056 474.259 260.437C478.807 257.462 484.381 257.295 489.632 257.574C494.936 257.855 500.112 258.229 505.395 257.47C509.868 256.815 514.239 255.591 518.4 253.827C526.955 250.237 534.467 244.553 540.243 237.299C542.938 233.883 545.456 230.045 546.999 225.956C548.188 222.807 548.751 218.665 547.067 215.583C546.7 214.889 546.184 214.286 545.555 213.816C544.927 213.347 544.201 213.023 543.431 212.869C542.662 212.714 541.867 212.733 541.106 212.924C540.344 213.114 539.635 213.472 539.029 213.97C536.223 216.266 535.465 220.53 537.61 223.501C539.913 226.69 544.257 227.783 547.998 227.202C553.196 226.395 557.406 222.73 561.385 219.574L590.859 196.201C595.72 192.347 600.53 188.419 605.453 184.645C609.456 181.576 614.341 178.6 619.555 180.239C621.657 180.9 623.775 182.465 624.3 184.713C624.496 185.742 624.408 186.806 624.044 187.789C623.679 188.772 623.053 189.636 622.233 190.29C621.859 190.608 621.422 190.844 620.951 190.985C620.48 191.125 619.985 191.166 619.497 191.105C619.01 191.044 618.54 190.882 618.118 190.63C617.697 190.378 617.332 190.041 617.047 189.641C615.949 188.11 615.858 185.928 616.491 184.198C618.182 179.576 624.388 179.092 628.53 179.468C633.416 179.963 638.136 181.515 642.362 184.016C651.114 189.093 657.587 197.353 661.383 206.638C665.59 216.926 666.886 228.311 666.714 239.355C666.679 241.608 666.523 244.099 665.253 246.041C664.01 247.944 661.841 248.519 659.895 247.247C659.262 246.833 658.447 246.026 658.612 245.175C658.82 244.106 660.952 244.098 661.807 244.139C664.144 244.251 666.354 245.428 668.028 247.014C672.008 250.785 672.317 256.555 671.798 261.686C671.229 267.318 669.603 272.92 670.249 278.622C671.306 287.963 678.98 293.153 686.517 297.448C690.377 299.647 694.321 301.749 697.792 304.547C701.33 307.41 704.427 310.776 706.984 314.539C712.036 321.963 715.015 330.599 715.613 339.556C715.913 344.032 715.559 348.527 714.562 352.9C713.571 357.178 712.009 362.57 707.894 364.868C706.913 365.428 705.784 365.674 704.659 365.574C703.534 365.473 702.467 365.03 701.602 364.304C699.934 362.968 699.12 360.595 700.842 358.926C702.269 357.542 704.553 357.834 706.274 358.396C708.348 359.073 709.961 360.337 711.506 361.83C714.451 364.675 717.9 368.169 722.381 367.26C723.209 367.092 722.858 365.827 722.032 365.995C716.622 367.092 713.36 360.812 709.371 358.394C706.483 356.643 701.549 355.342 699.292 358.756C696.856 362.44 700.773 366.414 704.412 366.889C709.144 367.506 712.425 362.884 714.013 359.07C717.698 350.223 717.813 339.85 715.559 330.638C713.306 321.283 708.434 312.761 701.514 306.068C698.02 302.742 694.016 300.193 689.838 297.82C685.621 295.424 681.226 293.126 677.617 289.839C675.619 288.078 674.029 285.903 672.958 283.466C671.887 281.028 671.362 278.387 671.418 275.726C671.457 269.597 673.429 263.649 673.306 257.508C673.204 252.416 671.472 247.444 667.037 244.578C665.21 243.339 663.028 242.731 660.823 242.845C659.925 242.918 658.665 243.069 657.926 243.63C657.331 244.082 657.219 245.14 657.339 245.823C657.624 247.447 659.161 248.575 660.655 249.026C661.563 249.318 662.537 249.33 663.452 249.06C664.366 248.791 665.178 248.252 665.782 247.515C667.219 245.859 667.717 243.649 667.92 241.522C668.196 238.64 668.044 235.679 667.916 232.793C667.399 221.061 665.078 209.048 658.974 198.859C653.785 190.198 645.716 182.936 636.04 179.723C631.48 178.209 626.072 177.301 621.367 178.678C617.319 179.863 614.217 183.191 614.886 187.598C615.451 191.328 619.322 193.908 622.732 191.554C623.537 190.998 624.212 190.276 624.711 189.436C625.211 188.596 625.523 187.658 625.626 186.686C625.729 185.715 625.622 184.732 625.31 183.806C624.999 182.88 624.491 182.032 623.821 181.32C620.524 177.871 615.148 177.896 611.034 179.649C608.557 180.704 606.364 182.285 604.248 183.928C601.552 186.022 598.893 188.166 596.218 190.287L563.993 215.841C561.45 217.858 558.947 219.949 556.319 221.855C553.866 223.634 551.161 225.282 548.141 225.853C543.89 226.657 537.159 224.548 537.675 219.162C537.875 217.07 539.262 214.76 541.383 214.16C543.461 213.572 545.423 214.907 546.196 216.798C547.899 220.966 545.899 225.733 543.909 229.392C538.983 238.451 531.212 245.829 522.108 250.629C517.55 253.038 512.666 254.769 507.608 255.769C501.926 256.884 496.351 256.666 490.607 256.317C485.039 255.98 479.192 256.015 474.229 258.913C470.159 261.289 467.444 265.599 468.097 270.402C468.663 274.572 472.012 277.76 476.331 277.408C479.956 277.112 483.598 274.02 482.312 270.093C481.247 266.84 477.136 264.276 473.991 266.424C473.298 266.898 473.954 268.036 474.655 267.557H474.655Z" fill="#3F3D56"/>
<path d="M753.088 362.304H721.255C720.758 362.304 720.281 362.502 719.929 362.853C719.578 363.204 719.38 363.681 719.379 364.177V383.973C719.38 384.469 719.578 384.946 719.929 385.297C720.281 385.648 720.758 385.846 721.255 385.846H753.088C753.585 385.846 754.062 385.648 754.414 385.297C754.765 384.946 754.963 384.469 754.964 383.973V364.177C754.963 363.681 754.765 363.204 754.414 362.853C754.062 362.502 753.585 362.304 753.088 362.304V362.304Z" fill="#F2F2F2"/>
<path d="M753.088 362.304H721.255C720.758 362.304 720.281 362.502 719.929 362.853C719.578 363.204 719.38 363.681 719.379 364.177V383.973C719.38 384.469 719.578 384.946 719.929 385.297C720.281 385.648 720.758 385.846 721.255 385.846H753.088C753.585 385.846 754.062 385.648 754.414 385.297C754.765 384.946 754.963 384.469 754.964 383.973V364.177C754.963 363.681 754.765 363.204 754.414 362.853C754.062 362.502 753.585 362.304 753.088 362.304V362.304ZM753.703 376.523C753.696 378.538 752.898 380.47 751.48 381.905C750.063 383.339 748.139 384.161 746.122 384.195C742.892 384.237 747.909 384.254 744.013 384.254C735.105 384.254 725.817 384.169 722.351 384.113C721.895 384.104 721.461 383.917 721.141 383.592C720.821 383.267 720.641 382.831 720.64 382.375V364.179C720.64 364.016 720.705 363.859 720.82 363.744C720.935 363.628 721.092 363.563 721.255 363.563H753.087C753.25 363.563 753.406 363.628 753.522 363.743C753.638 363.858 753.703 364.014 753.704 364.177L753.703 376.523Z" fill="#E6E6E6"/>
<path d="M749.169 350.904H724.916C724.702 350.905 724.493 350.971 724.317 351.095C724.142 351.218 724.009 351.393 723.936 351.594L720.191 362.091C720.135 362.248 720.117 362.415 720.14 362.58C720.162 362.745 720.224 362.902 720.32 363.038C720.416 363.174 720.543 363.285 720.691 363.362C720.839 363.438 721.003 363.479 721.169 363.479L753.697 363.536H753.698C753.87 363.536 754.04 363.494 754.191 363.412C754.343 363.331 754.472 363.213 754.566 363.069C754.661 362.926 754.719 362.761 754.734 362.59C754.749 362.419 754.722 362.246 754.654 362.088L754.597 362.112L754.654 362.088L750.126 351.534C750.046 351.347 749.912 351.188 749.742 351.076C749.572 350.964 749.373 350.904 749.169 350.904V350.904Z" fill="#E6E6E6"/>
<path d="M754.738 362.317C754.738 362.457 754.709 362.597 754.654 362.726L750.126 370.85C750.045 371.037 749.912 371.196 749.742 371.308C749.572 371.419 749.373 371.479 749.169 371.479H724.917C724.702 371.479 724.493 371.413 724.317 371.289C724.141 371.166 724.008 370.991 723.936 370.79L720.191 362.723C720.145 362.595 720.125 362.458 720.132 362.322C720.139 362.186 720.172 362.052 720.231 361.929C720.289 361.806 720.372 361.695 720.473 361.604C720.574 361.512 720.693 361.442 720.822 361.396C720.933 361.356 721.05 361.335 721.169 361.335L725.142 361.328L726.764 361.325L748.103 361.288L749.726 361.285L753.697 361.277H753.698C753.974 361.277 754.238 361.387 754.433 361.582C754.628 361.777 754.738 362.041 754.738 362.317V362.317Z" fill="#E6E6E6"/>
<path d="M723.642 377.152C724.123 377.152 730.727 377.555 730.727 378.036C730.727 378.516 724.123 378.892 723.642 378.892C723.411 378.892 723.189 378.8 723.026 378.637C722.863 378.474 722.771 378.253 722.771 378.022C722.771 377.791 722.863 377.57 723.026 377.407C723.189 377.244 723.411 377.152 723.642 377.152V377.152Z" fill="#E6E6E6"/>
<path d="M747.659 344.52H727.209C726.661 344.52 726.136 344.738 725.748 345.125C725.361 345.512 725.143 346.037 725.142 346.584V371.479H749.169C749.367 371.48 749.56 371.424 749.726 371.318V346.584C749.725 346.037 749.507 345.512 749.12 345.125C748.732 344.738 748.207 344.52 747.659 344.52V344.52Z" fill="#F2F2F2"/>
<path d="M739.854 346.193H728.647C728.148 346.194 727.669 346.392 727.316 346.744C726.964 347.097 726.765 347.575 726.764 348.073V371.479H748.104V354.433C748.101 352.249 747.231 350.154 745.685 348.61C744.138 347.065 742.041 346.196 739.854 346.193V346.193Z" fill="white"/>
<path d="M744.468 369.4H730.399C730.278 369.4 730.161 369.449 730.075 369.535C729.989 369.62 729.941 369.737 729.941 369.858C729.941 369.98 729.989 370.096 730.075 370.182C730.161 370.268 730.278 370.316 730.399 370.316H744.468C744.59 370.316 744.706 370.268 744.792 370.182C744.878 370.096 744.927 369.98 744.927 369.858C744.927 369.737 744.878 369.62 744.792 369.535C744.706 369.449 744.59 369.4 744.468 369.4Z" fill="#E4E4E4"/>
<path d="M744.468 367.589H730.399C730.278 367.589 730.161 367.637 730.075 367.723C729.989 367.809 729.94 367.926 729.94 368.047C729.94 368.169 729.989 368.286 730.075 368.372C730.161 368.457 730.278 368.506 730.399 368.506H744.468C744.528 368.506 744.588 368.494 744.644 368.471C744.699 368.448 744.75 368.414 744.793 368.372C744.835 368.329 744.869 368.278 744.892 368.223C744.915 368.167 744.927 368.108 744.927 368.047C744.927 367.987 744.915 367.928 744.892 367.872C744.869 367.816 744.835 367.766 744.793 367.723C744.75 367.681 744.699 367.647 744.644 367.624C744.588 367.601 744.528 367.589 744.468 367.589V367.589Z" fill="#E4E4E4"/>
<path d="M736.498 365.778H730.399C730.278 365.778 730.161 365.827 730.075 365.912C729.989 365.998 729.941 366.115 729.941 366.236C729.941 366.358 729.989 366.474 730.075 366.56C730.161 366.646 730.278 366.694 730.399 366.694H736.498C736.62 366.694 736.736 366.646 736.822 366.56C736.908 366.474 736.956 366.358 736.956 366.236C736.956 366.115 736.908 365.998 736.822 365.912C736.736 365.827 736.62 365.778 736.498 365.778Z" fill="#E4E4E4"/>
<path d="M744.468 361.985H730.399C730.278 361.986 730.162 362.034 730.076 362.12C729.99 362.206 729.942 362.322 729.942 362.444C729.942 362.565 729.99 362.682 730.076 362.767C730.162 362.853 730.278 362.902 730.399 362.902H744.468C744.528 362.902 744.588 362.891 744.644 362.868C744.7 362.845 744.751 362.811 744.794 362.768C744.836 362.726 744.87 362.675 744.893 362.62C744.917 362.564 744.928 362.504 744.928 362.444C744.928 362.383 744.917 362.324 744.893 362.268C744.87 362.212 744.836 362.162 744.794 362.119C744.751 362.077 744.7 362.043 744.644 362.02C744.588 361.997 744.528 361.985 744.468 361.985V361.985Z" fill="#E4E4E4"/>
<path d="M744.468 360.175H730.399C730.278 360.175 730.161 360.223 730.075 360.309C729.989 360.395 729.941 360.511 729.941 360.633C729.941 360.754 729.989 360.871 730.075 360.957C730.161 361.043 730.278 361.091 730.399 361.091H744.468C744.59 361.091 744.706 361.043 744.792 360.957C744.878 360.871 744.927 360.754 744.927 360.633C744.927 360.511 744.878 360.395 744.792 360.309C744.706 360.223 744.59 360.175 744.468 360.175V360.175Z" fill="#E4E4E4"/>
<path d="M736.498 358.363H730.399C730.278 358.363 730.161 358.412 730.075 358.498C729.989 358.584 729.94 358.7 729.94 358.822C729.94 358.943 729.989 359.06 730.075 359.146C730.161 359.232 730.278 359.28 730.399 359.28H736.498C736.62 359.28 736.736 359.232 736.823 359.146C736.909 359.06 736.957 358.943 736.957 358.822C736.957 358.7 736.909 358.584 736.823 358.498C736.736 358.412 736.62 358.363 736.498 358.363V358.363Z" fill="#E4E4E4"/>
<path d="M744.468 354.57H730.399C730.278 354.571 730.162 354.619 730.076 354.705C729.99 354.791 729.942 354.907 729.942 355.029C729.942 355.15 729.99 355.267 730.076 355.352C730.162 355.438 730.278 355.487 730.399 355.487H744.468C744.528 355.487 744.588 355.476 744.644 355.453C744.7 355.43 744.751 355.396 744.794 355.353C744.836 355.311 744.87 355.26 744.893 355.205C744.917 355.149 744.928 355.089 744.928 355.029C744.928 354.968 744.917 354.909 744.893 354.853C744.87 354.797 744.836 354.747 744.794 354.704C744.751 354.661 744.7 354.628 744.644 354.605C744.588 354.582 744.528 354.57 744.468 354.57V354.57Z" fill="#E4E4E4"/>
<path d="M736.498 350.949H730.399C730.278 350.949 730.161 350.998 730.075 351.084C729.989 351.169 729.94 351.286 729.94 351.408C729.94 351.529 729.989 351.646 730.075 351.732C730.161 351.818 730.278 351.866 730.399 351.866H736.498C736.558 351.866 736.618 351.854 736.674 351.831C736.729 351.808 736.78 351.774 736.823 351.732C736.865 351.689 736.899 351.639 736.922 351.583C736.945 351.528 736.957 351.468 736.957 351.408C736.957 351.347 736.945 351.288 736.922 351.232C736.899 351.177 736.865 351.126 736.823 351.084C736.78 351.041 736.729 351.007 736.674 350.984C736.618 350.961 736.558 350.949 736.498 350.949V350.949Z" fill="#E4E4E4"/>
<path d="M584.988 265.105C592.485 265.105 598.563 259.034 598.563 251.546C598.563 244.057 592.485 237.986 584.988 237.986C577.49 237.986 571.412 244.057 571.412 251.546C571.412 259.034 577.49 265.105 584.988 265.105Z" fill="#FBDBBE"/>
<path d="M744.468 352.76H730.399C730.278 352.76 730.161 352.809 730.075 352.895C729.99 352.98 729.941 353.097 729.941 353.218C729.941 353.34 729.99 353.456 730.075 353.542C730.161 353.628 730.278 353.676 730.399 353.677H744.468C744.528 353.677 744.588 353.665 744.644 353.642C744.7 353.619 744.75 353.585 744.793 353.543C744.836 353.5 744.87 353.45 744.893 353.394C744.916 353.338 744.928 353.279 744.928 353.218C744.928 353.158 744.916 353.098 744.893 353.042C744.87 352.987 744.836 352.936 744.793 352.894C744.75 352.851 744.7 352.817 744.644 352.794C744.588 352.771 744.528 352.76 744.468 352.76V352.76Z" fill="#E4E4E4"/>
<path d="M600.483 243.782C599.055 241.575 596.376 240.104 593.778 240.518C593.536 238.862 592.844 237.304 591.777 236.013C590.71 234.723 589.31 233.75 587.727 233.2C586.145 232.65 584.442 232.544 582.803 232.893C581.165 233.243 579.654 234.035 578.435 235.183C578.034 234.901 577.567 234.727 577.079 234.678C576.592 234.63 576.099 234.708 575.65 234.905C574.756 235.311 573.978 235.934 573.388 236.718C571.898 238.575 570.939 240.801 570.614 243.159C570.289 245.516 570.611 247.918 571.544 250.108C571.227 248.955 572.384 247.87 573.552 247.612C574.721 247.353 575.947 247.598 577.132 247.429C578.651 247.213 580.016 246.333 581.538 246.135C582.816 245.969 584.102 246.296 585.349 246.624C586.595 246.953 587.878 247.287 589.158 247.135C590.439 246.984 592.088 251.83 592.066 255.244C592.062 255.891 592.195 256.721 592.828 256.859C593.608 257.028 594.059 255.953 594.801 255.66C595.143 255.563 595.51 255.601 595.824 255.768C596.138 255.935 596.375 256.217 596.485 256.555C596.578 256.898 596.588 257.259 596.514 257.607C596.44 257.955 596.283 258.281 596.058 258.556C595.602 259.103 595.06 259.572 594.454 259.945L594.76 260.199C595.268 260.87 596.323 260.899 597.055 260.484C597.756 260.01 598.323 259.365 598.703 258.61C600.059 256.358 601.247 253.959 601.726 251.375C602.204 248.792 601.911 245.988 600.483 243.782Z" fill="#2F2E41"/>
<path d="M600.912 488.993L593.581 488.992L590.093 460.746L600.914 460.747L600.912 488.993Z" fill="#FBDBBE"/>
<path d="M601.17 496.632L578.624 496.631V496.347C578.624 494.022 579.549 491.793 581.194 490.149C582.84 488.505 585.072 487.582 587.4 487.582H587.4L591.518 484.461L599.202 487.582L601.17 487.582L601.17 496.632Z" fill="#2F2E41"/>
<path d="M614.133 476.063L608.381 480.603L588.106 460.606L596.596 453.903L614.133 476.063Z" fill="#FBDBBE"/>
<path d="M619.079 481.896L601.392 495.861L601.215 495.637C599.772 493.814 599.113 491.492 599.383 489.183C599.654 486.874 600.831 484.767 602.657 483.326L602.657 483.325L603.95 478.326L611.916 476.015L613.46 474.796L619.079 481.896Z" fill="#2F2E41"/>
<path d="M562.999 356.592L562.552 364.835L564.729 367.462L564.479 375.706L566.591 381.102L568.077 398.27L588.882 469.902L607.631 463.896L587.158 397.121L611.79 396.507L612.623 358.855L608.258 350.427L562.999 356.592Z" fill="#2F2E41"/>
<path d="M609.421 390.831L611.79 396.507L602.63 476.435L589.779 477.372L584.229 388.016L609.421 390.831Z" fill="#2F2E41"/>
<path d="M596.826 273.044L592.605 267.21L578.979 267.755L578.718 272.248L569.666 357.645L578.555 357.446L589.59 360.02L610.815 352.6L596.826 273.044Z" fill="#0048FF"/>
<path d="M573.161 359.225H552.263L557.715 320.786L559.926 305.206C559.926 305.206 558.361 294.07 557.604 288.252C557.533 287.631 557.641 287.003 557.914 286.441C558.162 285.915 558.486 285.427 558.875 284.994C561.416 282.066 567.134 279.528 570.719 278.138C572.565 277.427 573.849 277.018 573.849 277.018L578.717 272.25C585.705 280.971 573.161 359.225 573.161 359.225Z" fill="#3F3D56"/>
<path d="M594.179 269.87L600.808 273.665C600.808 273.665 620.443 276.886 622.352 284.251L615.125 306.042V351.838L597.604 358.856C597.604 358.856 582.49 284.869 594.179 269.87Z" fill="#3F3D56"/>
<path opacity="0.4" d="M587.468 386.165L584.229 423.64L589.744 467.253" fill="black"/>
<path d="M509.264 316.354C509.804 315.966 510.422 315.702 511.076 315.579C511.729 315.456 512.402 315.477 513.046 315.642C513.69 315.806 514.291 316.11 514.805 316.532C515.319 316.953 515.734 317.482 516.021 318.081L532.084 316.267L528.277 323.746L513.607 324.322C512.567 324.738 511.411 324.757 510.358 324.378C509.305 323.999 508.427 323.247 507.892 322.265C507.356 321.283 507.2 320.139 507.453 319.049C507.706 317.96 508.35 317.001 509.264 316.354L509.264 316.354Z" fill="#FBDBBE"/>
<path d="M576.681 283.605L581.278 286.348L555.534 322.572L524.111 325.239L522.86 316.278L546.012 309.341L557.455 287.185L576.681 283.605Z" fill="#3F3D56"/>
<path d="M670.375 313.291C669.835 312.904 669.217 312.639 668.563 312.516C667.91 312.393 667.237 312.415 666.593 312.579C665.949 312.744 665.348 313.048 664.834 313.469C664.32 313.891 663.905 314.42 663.618 315.019L647.555 313.204L651.362 320.683L666.032 321.26C667.072 321.675 668.228 321.695 669.281 321.316C670.334 320.937 671.212 320.185 671.747 319.203C672.283 318.22 672.439 317.076 672.186 315.987C671.933 314.897 671.289 313.938 670.375 313.292V313.291Z" fill="#FBDBBE"/>
<path d="M602.957 280.543L598.361 283.286L624.105 319.51L655.528 322.177L656.778 313.216L633.627 306.278L622.183 284.123L602.957 280.543Z" fill="#3F3D56"/>
<path d="M540.368 272.019V271.54H532.332V260.372H531.854V271.54H522.645V262.916C522.484 263.042 522.325 263.172 522.169 263.306V271.54H516.086C516.019 271.699 515.954 271.858 515.892 272.019H522.169V281.404H514.375C514.383 281.564 514.394 281.723 514.407 281.882H522.169V289.369H516.354C516.425 289.53 516.5 289.688 516.579 289.845H522.169V296.139H522.645V289.845H531.854V296.139H532.332V289.845H540.368V289.369H532.332C532.332 288.386 532.526 287.412 532.903 286.504C533.279 285.595 533.831 284.77 534.527 284.075C535.223 283.379 536.05 282.828 536.959 282.452C537.869 282.076 538.844 281.882 539.828 281.882H540.368V281.404H532.332V272.019H540.368ZM531.854 289.369H522.645V281.882H531.854V289.369ZM531.854 281.404H522.645V281.216C522.646 280.008 522.884 278.812 523.347 277.696C523.809 276.58 524.488 275.566 525.343 274.712C526.198 273.858 527.213 273.181 528.33 272.719C529.448 272.257 530.645 272.019 531.854 272.019V281.404Z" fill="#E6E6E6"/>
<path d="M610.18 205.758C610.117 205.784 610.047 205.784 609.984 205.758C609.921 205.732 609.871 205.682 609.845 205.619L609.18 204.013C609.154 203.951 609.154 203.88 609.18 203.818C609.206 203.755 609.256 203.706 609.319 203.68C609.381 203.654 609.452 203.654 609.515 203.68C609.577 203.706 609.627 203.755 609.653 203.818L610.318 205.424C610.344 205.487 610.344 205.557 610.318 205.619C610.292 205.682 610.242 205.732 610.18 205.758Z" fill="#3F3D56"/>
<path d="M623.6 193.861L621.614 189.067C621.463 188.703 621.242 188.372 620.963 188.093C620.683 187.814 620.352 187.593 619.987 187.442C619.623 187.291 619.232 187.213 618.837 187.213C618.442 187.213 618.052 187.29 617.687 187.441V187.441L607.519 191.644C607.154 191.794 606.823 192.016 606.544 192.294C606.265 192.573 606.043 192.904 605.892 193.268C605.741 193.632 605.663 194.023 605.663 194.417C605.662 194.811 605.74 195.202 605.891 195.566V195.566L616.786 221.863C616.937 222.228 617.159 222.559 617.438 222.838C617.717 223.116 618.048 223.338 618.413 223.489C618.777 223.64 619.168 223.718 619.563 223.718C619.958 223.718 620.349 223.64 620.713 223.49V223.49L630.881 219.287C631.246 219.136 631.577 218.915 631.856 218.636C632.136 218.358 632.357 218.027 632.508 217.662C632.66 217.298 632.738 216.908 632.738 216.514C632.738 216.119 632.66 215.729 632.509 215.364V215.364L625.013 197.273C625.037 197.263 625.057 197.249 625.075 197.232C625.093 197.214 625.107 197.193 625.116 197.17C625.126 197.147 625.131 197.123 625.131 197.098C625.131 197.073 625.126 197.048 625.116 197.025L623.847 193.963C623.838 193.94 623.824 193.919 623.806 193.902C623.789 193.884 623.768 193.87 623.745 193.861C623.722 193.851 623.697 193.846 623.672 193.846C623.647 193.846 623.623 193.851 623.6 193.861V193.861Z" fill="#3F3D56"/>
<path d="M621.031 189.331L631.91 215.59C632.137 216.135 632.138 216.748 631.915 217.294C631.691 217.841 631.261 218.277 630.717 218.509C630.71 218.513 630.703 218.517 630.696 218.52L620.479 222.743C619.928 222.97 619.31 222.97 618.76 222.742C618.21 222.514 617.773 222.077 617.545 221.528L606.665 195.268C606.552 194.996 606.494 194.705 606.495 194.41C606.495 194.116 606.553 193.824 606.666 193.552C606.779 193.28 606.945 193.033 607.153 192.825C607.362 192.617 607.609 192.452 607.882 192.34L609.121 191.827C609.122 192.002 609.166 192.174 609.249 192.328C609.332 192.482 609.452 192.613 609.598 192.71C609.743 192.807 609.911 192.866 610.085 192.883C610.259 192.9 610.435 192.874 610.597 192.807L616.422 190.399C616.549 190.346 616.664 190.269 616.761 190.171C616.861 190.073 616.94 189.956 616.995 189.828C617.049 189.699 617.078 189.56 617.079 189.42C617.08 189.281 617.053 189.142 617 189.012C616.947 188.883 616.869 188.765 616.77 188.666L618.099 188.117C618.649 187.889 619.267 187.89 619.816 188.117C620.366 188.345 620.803 188.781 621.031 189.331Z" fill="#0048FF"/>
<path d="M609.044 203.019C608.982 203.044 608.911 203.044 608.849 203.018C608.786 202.992 608.736 202.943 608.71 202.88L608.045 201.274C608.019 201.212 608.019 201.141 608.045 201.079C608.071 201.016 608.121 200.966 608.183 200.94C608.246 200.914 608.317 200.914 608.379 200.94C608.442 200.966 608.492 201.016 608.518 201.079L609.183 202.685C609.209 202.747 609.209 202.818 609.183 202.88C609.157 202.943 609.107 202.993 609.044 203.019V203.019Z" fill="#3F3D56"/>
<path d="M607.705 199.921C607.643 199.947 607.572 199.946 607.51 199.921C607.447 199.895 607.397 199.845 607.371 199.782L606.706 198.176C606.693 198.145 606.686 198.112 606.686 198.078C606.686 198.045 606.693 198.011 606.705 197.98C606.718 197.949 606.737 197.921 606.761 197.897C606.785 197.873 606.813 197.855 606.844 197.842C606.875 197.829 606.909 197.822 606.942 197.822C606.976 197.822 607.009 197.829 607.04 197.842C607.071 197.855 607.1 197.874 607.123 197.898C607.147 197.921 607.166 197.95 607.179 197.981L607.844 199.587C607.87 199.649 607.87 199.72 607.844 199.782C607.818 199.845 607.768 199.895 607.705 199.921Z" fill="#3F3D56"/>
<path d="M611.451 191.181C611.425 191.118 611.425 191.048 611.451 190.985C611.477 190.923 611.527 190.873 611.59 190.847L613.197 190.183C613.26 190.157 613.331 190.157 613.393 190.183C613.456 190.209 613.506 190.258 613.532 190.321C613.558 190.384 613.558 190.454 613.532 190.517C613.506 190.579 613.456 190.629 613.393 190.655L611.785 191.319C611.723 191.345 611.652 191.345 611.589 191.319C611.527 191.293 611.477 191.244 611.451 191.181V191.181Z" fill="white"/>
<path d="M614.194 190.302C614.335 190.302 614.45 190.188 614.45 190.047C614.45 189.905 614.335 189.791 614.194 189.791C614.053 189.791 613.938 189.905 613.938 190.047C613.938 190.188 614.053 190.302 614.194 190.302Z" fill="white"/>
<path d="M669.691 303.709C669.659 303.709 669.626 303.709 669.594 303.707C669.214 303.693 668.843 303.588 668.512 303.4C668.182 303.213 667.901 302.948 667.695 302.629C666.152 300.324 664.257 298.275 662.081 296.554C660.763 295.502 659.386 294.524 658.055 293.578C654.62 291.139 651.385 288.841 649.589 285.666C645.674 278.743 650.285 269.101 656.871 264.777C664.26 259.927 673.978 259.166 683.379 259.066C684.356 259.056 685.333 259.051 686.311 259.051C703.25 259.057 720.153 260.601 736.812 263.663C742.351 264.684 748.15 265.934 752.809 268.969C757.441 271.986 760.256 276.737 759.982 281.072C759.581 287.402 752.863 292.132 746.746 293.368C740.915 294.546 734.858 293.75 728.445 292.907C727.03 292.721 725.566 292.529 724.118 292.362C708.387 290.546 678.835 296.144 677.585 296.383L676.345 296.62L671.532 302.806C671.315 303.088 671.036 303.316 670.717 303.473C670.398 303.63 670.047 303.71 669.691 303.709V303.709Z" fill="#0048FF"/>
<path d="M739.743 272.83H673.253C672.869 272.83 672.501 272.678 672.23 272.407C671.959 272.136 671.806 271.769 671.806 271.385C671.806 271.002 671.959 270.635 672.23 270.364C672.501 270.093 672.869 269.94 673.253 269.94H739.743C740.127 269.94 740.495 270.093 740.766 270.364C741.038 270.635 741.19 271.002 741.19 271.385C741.19 271.769 741.038 272.136 740.766 272.407C740.495 272.678 740.127 272.83 739.743 272.83V272.83Z" fill="white"/>
<path d="M739.743 281.701H673.253C672.869 281.7 672.502 281.548 672.231 281.278C671.96 281.007 671.807 280.64 671.807 280.257C671.806 279.874 671.958 279.507 672.229 279.236C672.499 278.964 672.866 278.811 673.25 278.811H739.743C740.127 278.811 740.494 278.964 740.765 279.235C741.035 279.506 741.187 279.873 741.187 280.256C741.187 280.638 741.035 281.005 740.765 281.276C740.494 281.547 740.127 281.7 739.743 281.701Z" fill="white"/>
<path d="M681.001 290.57H673.253C672.87 290.569 672.502 290.416 672.231 290.146C671.961 289.875 671.809 289.507 671.809 289.125C671.809 288.742 671.961 288.375 672.231 288.104C672.502 287.833 672.87 287.68 673.253 287.68H681.001C681.385 287.68 681.752 287.833 682.023 288.104C682.293 288.375 682.445 288.742 682.445 289.125C682.445 289.507 682.293 289.875 682.023 290.146C681.752 290.416 681.385 290.569 681.001 290.57V290.57Z" fill="white"/>
<path d="M670.512 313.783C674.395 313.783 677.544 310.638 677.544 306.759C677.544 302.88 674.395 299.735 670.512 299.735C666.628 299.735 663.479 302.88 663.479 306.759C663.479 310.638 666.628 313.783 670.512 313.783Z" fill="white"/>
<path d="M670.512 313.87C669.104 313.87 667.728 313.453 666.557 312.671C665.386 311.89 664.474 310.78 663.935 309.481C663.397 308.182 663.256 306.752 663.53 305.373C663.805 303.994 664.483 302.727 665.478 301.733C666.474 300.738 667.742 300.061 669.123 299.787C670.504 299.513 671.935 299.653 673.235 300.192C674.536 300.73 675.648 301.641 676.43 302.81C677.212 303.979 677.629 305.354 677.63 306.76C677.627 308.645 676.877 310.452 675.542 311.785C674.208 313.118 672.399 313.867 670.512 313.87V313.87Z" fill="#3F3D56"/>
<path d="M669.985 309.567C669.97 309.567 669.955 309.566 669.94 309.566C669.808 309.559 669.679 309.524 669.561 309.463C669.443 309.402 669.34 309.316 669.259 309.212L668.084 307.703C668.009 307.607 667.955 307.499 667.923 307.382C667.891 307.266 667.882 307.144 667.897 307.025C667.912 306.905 667.95 306.789 668.01 306.684C668.07 306.579 668.149 306.487 668.245 306.413L668.287 306.38C668.383 306.306 668.492 306.251 668.608 306.219C668.725 306.187 668.846 306.178 668.966 306.193C669.086 306.208 669.202 306.247 669.307 306.307C669.412 306.366 669.504 306.446 669.579 306.541C669.638 306.617 669.713 306.68 669.799 306.724C669.885 306.769 669.979 306.794 670.075 306.799C670.172 306.804 670.268 306.787 670.358 306.752C670.448 306.716 670.528 306.661 670.595 306.591L672.981 304.075C673.149 303.898 673.38 303.795 673.624 303.788C673.868 303.782 674.104 303.872 674.282 304.039L674.321 304.077C674.409 304.16 674.479 304.259 674.528 304.369C674.578 304.479 674.605 304.598 674.608 304.719C674.611 304.84 674.591 304.96 674.547 305.072C674.504 305.185 674.439 305.288 674.356 305.376L670.653 309.28C670.567 309.37 670.464 309.443 670.349 309.492C670.234 309.541 670.11 309.567 669.985 309.567Z" fill="white"/>
<path d="M539.207 215.966L534.905 190.125C534.819 189.602 534.944 189.065 535.252 188.634C535.561 188.203 536.028 187.911 536.552 187.824L556.091 184.579C556.615 184.492 557.152 184.617 557.583 184.925C558.015 185.233 558.307 185.7 558.395 186.223L562.697 212.065C562.783 212.588 562.659 213.124 562.35 213.555C562.041 213.987 561.574 214.278 561.05 214.366L541.511 217.611C540.987 217.697 540.451 217.573 540.019 217.264C539.587 216.956 539.295 216.489 539.207 215.966Z" fill="#3F3D56"/>
<path d="M539.407 207.912L536.641 191.299C536.56 190.809 536.677 190.307 536.966 189.903C537.255 189.499 537.693 189.226 538.183 189.144L554.975 186.355C555.466 186.274 555.969 186.391 556.373 186.68C556.777 186.969 557.051 187.406 557.133 187.895L560.961 210.891C561.042 211.381 560.925 211.883 560.636 212.287C560.347 212.691 559.909 212.964 559.419 213.046L549.016 214.774C546.831 215.134 544.593 214.614 542.791 213.328C540.99 212.041 539.772 210.094 539.407 207.912V207.912Z" fill="white"/>
<path d="M540.131 195.482C540.052 195.003 540.166 194.513 540.449 194.118C540.732 193.723 541.159 193.457 541.638 193.377L553.287 191.442C553.525 191.402 553.767 191.41 554.002 191.464C554.236 191.519 554.458 191.619 554.653 191.758C554.849 191.898 555.015 192.075 555.143 192.279C555.27 192.483 555.356 192.71 555.395 192.947C555.435 193.184 555.427 193.427 555.373 193.661C555.318 193.895 555.218 194.116 555.079 194.312C554.939 194.507 554.761 194.673 554.557 194.8C554.353 194.927 554.126 195.013 553.888 195.053L542.24 196.987C541.76 197.066 541.269 196.952 540.874 196.67C540.479 196.388 540.212 195.961 540.131 195.482V195.482Z" fill="#0048FF"/>
<path d="M541.067 201.099C540.987 200.621 541.102 200.13 541.384 199.735C541.667 199.341 542.094 199.074 542.574 198.994L554.222 197.059C554.702 196.979 555.193 197.093 555.589 197.375C555.984 197.658 556.251 198.085 556.331 198.564C556.41 199.043 556.296 199.534 556.014 199.929C555.731 200.324 555.303 200.59 554.824 200.67L543.175 202.605C542.695 202.684 542.204 202.57 541.809 202.287C541.414 202.005 541.147 201.578 541.067 201.099Z" fill="#0048FF"/>
<path d="M542.002 206.717C541.923 206.238 542.037 205.747 542.32 205.352C542.602 204.958 543.03 204.691 543.509 204.611L555.158 202.676C555.395 202.637 555.638 202.644 555.873 202.699C556.107 202.753 556.328 202.853 556.524 202.993C556.72 203.132 556.886 203.309 557.013 203.513C557.141 203.717 557.227 203.944 557.266 204.181C557.306 204.418 557.298 204.661 557.243 204.895C557.189 205.129 557.089 205.35 556.949 205.546C556.809 205.741 556.632 205.908 556.428 206.035C556.224 206.162 555.996 206.248 555.759 206.287L544.11 208.222C543.631 208.301 543.14 208.187 542.745 207.905C542.349 207.622 542.082 207.195 542.002 206.717V206.717Z" fill="#0048FF"/>
<path d="M641.296 478.778L641.605 471.823C644.834 470.1 648.435 469.189 652.096 469.171C647.057 473.285 647.687 481.216 644.271 486.749C643.193 488.466 641.741 489.919 640.024 491C638.306 492.081 636.368 492.762 634.351 492.993L630.135 495.571C629.556 492.35 629.684 489.041 630.509 485.874C631.334 482.706 632.836 479.755 634.913 477.224C636.092 475.815 637.444 474.56 638.937 473.489C639.947 476.149 641.296 478.778 641.296 478.778Z" fill="#F2F2F2"/>
<path d="M697.197 496.321C697.197 496.41 697.18 496.499 697.146 496.581C697.112 496.664 697.062 496.739 696.998 496.802C696.935 496.865 696.86 496.915 696.778 496.949C696.695 496.983 696.606 497.001 696.517 497H513.431C513.251 497 513.078 496.929 512.95 496.801C512.823 496.674 512.751 496.501 512.751 496.321C512.751 496.141 512.823 495.968 512.95 495.841C513.078 495.713 513.251 495.642 513.431 495.642H696.517C696.606 495.641 696.695 495.659 696.778 495.693C696.86 495.727 696.935 495.777 696.998 495.84C697.062 495.903 697.112 495.978 697.146 496.061C697.18 496.143 697.197 496.232 697.197 496.321Z" fill="#CCCCCC"/>
<path d="M513.873 312.853C510.626 312.789 493.184 312.289 490.324 312.412C490.162 311.846 484.74 318.786 484.608 318.829C484.52 318.922 484.456 319.034 484.421 319.157C484.386 319.28 484.382 319.409 484.408 319.534C484.434 319.659 484.49 319.776 484.571 319.875C484.652 319.974 484.755 320.051 484.873 320.101C485.192 320.295 513.31 319.775 513.651 319.843C513.798 319.84 513.942 319.797 514.065 319.716C514.189 319.636 514.287 319.522 514.349 319.389L514.537 318.968C514.556 318.249 514.792 314.573 514.58 313.944C514.632 313.826 514.654 313.697 514.644 313.569C514.633 313.44 514.591 313.316 514.521 313.208C514.451 313.1 514.355 313.011 514.242 312.949C514.129 312.887 514.002 312.854 513.873 312.853V312.853Z" fill="#3F3D56"/>
<path opacity="0.17" d="M514.536 318.968C514.371 319.364 514.16 319.862 513.651 319.843L485.17 320.163C485.035 320.161 484.903 320.125 484.786 320.058C484.67 319.991 484.572 319.894 484.503 319.779C484.435 319.663 484.397 319.532 484.393 319.397C484.39 319.263 484.421 319.13 484.484 319.011L514.536 318.968Z" fill="black"/>
<path d="M490.457 312.327C490.15 311.797 482.536 274.166 481.9 273.851L476.702 267.499L476.237 267.15C475.591 266.795 474.041 267.035 474.181 268.021C475.402 273.869 483.258 307.179 483.43 312.372L484.375 318.988C484.392 319.101 484.432 319.209 484.494 319.305C484.555 319.401 484.635 319.483 484.73 319.546C484.825 319.609 484.932 319.652 485.044 319.671C485.157 319.69 485.272 319.685 485.382 319.657C485.653 319.628 485.912 319.529 486.133 319.37C486.354 319.21 486.53 318.996 486.643 318.748C486.713 318.514 490.813 312.462 490.457 312.327Z" fill="#3F3D56"/>
<path opacity="0.17" d="M476.701 267.499L486.644 318.749C486.311 319.59 484.755 320.179 484.393 319.076C484.386 319.075 474.192 268.052 474.182 268.022C474.073 266.794 476.105 266.755 476.701 267.499Z" fill="black"/>
<path d="M477 269.595L482.05 276.625L487.718 303.512L485.083 305.808L477 269.595Z" fill="#0048FF"/>
<path d="M510.613 316.479L512.01 316.536C512.032 316.128 512.099 315.723 512.211 315.329C512.422 314.332 512.61 313.146 511.738 313.151C511.147 313.094 510.946 313.842 510.841 314.655C510.813 315.268 510.737 315.878 510.613 316.479V316.479Z" fill="#2F2E41"/>
<path d="M502.598 314.603L503.54 314.638L503.995 314.655C503.986 314.157 504.219 313.129 503.654 312.875C503.564 312.836 503.467 312.817 503.369 312.818C502.839 312.787 502.681 313.19 502.633 313.654C502.603 313.933 502.616 314.231 502.607 314.463C502.607 314.511 502.603 314.559 502.598 314.603Z" fill="#2F2E41"/>
<path d="M499.809 314.488L500.755 314.528L501.206 314.545C501.197 313.972 501.499 312.721 500.579 312.704C499.73 312.656 499.839 313.736 499.817 314.348C499.817 314.397 499.813 314.445 499.809 314.488Z" fill="#2F2E41"/>
<path d="M497.019 314.379L497.961 314.414L498.416 314.432C498.407 313.863 498.71 312.612 497.79 312.595C496.94 312.542 497.05 313.623 497.028 314.239C497.028 314.287 497.023 314.336 497.019 314.379Z" fill="#2F2E41"/>
<path d="M494.229 314.266L495.175 314.305L495.626 314.323C495.617 313.75 495.919 312.503 495 312.481C494.15 312.433 494.26 313.513 494.238 314.126C494.238 314.174 494.233 314.222 494.229 314.266Z" fill="#2F2E41"/>
<path d="M491.439 314.156L492.381 314.191L492.837 314.209C492.828 313.684 493.082 312.586 492.407 312.398H492.403C492.34 312.379 492.275 312.371 492.21 312.372C492.131 312.365 492.051 312.372 491.974 312.394H491.969C491.383 312.547 491.466 313.465 491.448 314.016C491.448 314.065 491.444 314.113 491.439 314.156Z" fill="#2F2E41"/>
<path d="M507.797 313.859L509.194 313.916C509.194 313.863 509.194 313.806 509.198 313.741C509.233 313.408 509.239 313.073 509.216 312.739C509.168 312.371 509.01 312.083 508.568 312.074C508.117 312.048 507.937 312.336 507.867 312.708C507.851 312.771 507.839 312.836 507.832 312.901V312.905C507.797 313.246 507.819 313.614 507.797 313.859Z" fill="#2F2E41"/>
<path d="M505.007 313.745L506.404 313.802C506.434 313.427 506.443 313.05 506.431 312.674C506.391 312.289 506.238 311.974 505.778 311.965C505.314 311.934 505.134 312.249 505.064 312.639C504.999 313.015 505.034 313.465 505.007 313.745Z" fill="#2F2E41"/>
<path d="M502.217 313.636L502.633 313.653L503.614 313.693C503.61 313.483 503.649 313.176 503.654 312.875C503.657 312.784 503.655 312.693 503.645 312.603C503.61 312.197 503.465 311.86 502.988 311.851C502.502 311.825 502.331 312.162 502.27 312.573C502.209 312.94 502.244 313.365 502.217 313.636Z" fill="#2F2E41"/>
<path d="M507.823 316.37L509.22 316.422C509.216 315.853 509.514 314.602 508.594 314.585C507.674 314.528 507.876 315.797 507.823 316.37Z" fill="#2F2E41"/>
<path d="M505.033 316.256L506.43 316.313C506.426 315.74 506.724 314.489 505.804 314.471C504.884 314.419 505.086 315.687 505.033 316.256Z" fill="#2F2E41"/>
<path d="M502.244 316.147L503.641 316.199C503.636 315.792 503.79 315.04 503.54 314.637C503.486 314.548 503.408 314.476 503.315 314.427C503.223 314.379 503.119 314.356 503.014 314.362C502.871 314.347 502.727 314.382 502.607 314.462C502.16 314.755 502.287 315.683 502.244 316.147Z" fill="#2F2E41"/>
<path d="M499.454 316.033L500.851 316.089C500.847 315.683 500.996 314.935 500.755 314.528C500.7 314.437 500.622 314.363 500.529 314.314C500.436 314.265 500.33 314.242 500.225 314.248C500.081 314.232 499.937 314.268 499.818 314.348C499.371 314.65 499.498 315.573 499.454 316.033Z" fill="#2F2E41"/>
<path d="M496.664 315.923L498.061 315.975C498.057 315.569 498.21 314.816 497.96 314.414C497.906 314.325 497.828 314.252 497.736 314.203C497.643 314.155 497.539 314.132 497.435 314.138C497.291 314.123 497.147 314.159 497.028 314.239C496.581 314.532 496.708 315.459 496.664 315.923Z" fill="#2F2E41"/>
<path d="M493.875 315.81L495.272 315.867C495.267 315.46 495.416 314.712 495.175 314.305C495.121 314.214 495.043 314.14 494.95 314.091C494.856 314.041 494.751 314.019 494.645 314.025C494.502 314.009 494.358 314.045 494.238 314.126C493.791 314.428 493.918 315.351 493.875 315.81Z" fill="#2F2E41"/>
<path d="M491.084 315.7L492.482 315.753C492.477 315.346 492.626 314.598 492.381 314.191C492.327 314.102 492.249 314.029 492.157 313.98C492.064 313.931 491.96 313.909 491.855 313.916C491.712 313.9 491.568 313.936 491.448 314.016C491.001 314.314 491.128 315.237 491.084 315.7Z" fill="#2F2E41"/>
</g>
<defs>
<clipPath id="clip0_3138_846">
<rect width="292" height="319" fill="white" transform="translate(468 178)"/>
</clipPath>
</defs>
</svg>
