<svg width="23" height="16" viewBox="0 0 23 16" fill="none" xmlns="http://www.w3.org/2000/svg">
<path d="M11.5 0C8.97749 0.0313304 6.52486 0.814076 4.46988 2.24363C2.4149 3.67318 0.85547 5.68143 0 8C0.85547 10.3186 2.4149 12.3268 4.46988 13.7564C6.52486 15.1859 8.97749 15.9687 11.5 16C14.0225 15.9687 16.4751 15.1859 18.5301 13.7564C20.5851 12.3268 22.1445 10.3186 23 8C22.1445 5.68143 20.5851 3.67318 18.5301 2.24363C16.4751 0.814076 14.0225 0.0313304 11.5 0ZM11.5 13.3347C10.0844 13.2998 8.74047 12.7193 7.76141 11.7198C6.78235 10.7204 6.24767 9.38316 6.27407 8C6.24767 6.61684 6.78235 5.27963 7.76141 4.28019C8.74047 3.28074 10.0844 2.70021 11.5 2.66529C12.9156 2.70021 14.2595 3.28074 15.2386 4.28019C16.2177 5.27963 16.7523 6.61684 16.7259 8C16.752 9.38298 16.2172 10.7199 15.2382 11.7191C14.2592 12.7184 12.9154 13.2988 11.5 13.3337V13.3347ZM11.5 4.8C10.6313 4.8 9.79817 5.13714 9.18391 5.73726C8.56964 6.33738 8.22455 7.15131 8.22455 8C8.22455 8.84869 8.56964 9.66263 9.18391 10.2627C9.79817 10.8629 10.6313 11.2 11.5 11.2C12.3687 11.2 13.2018 10.8629 13.8161 10.2627C14.4304 9.66263 14.7754 8.84869 14.7754 8C14.7754 7.15131 14.4304 6.33738 13.8161 5.73726C13.2018 5.13714 12.3687 4.8 11.5 4.8Z" fill="#999999"/>
</svg>
