<svg width="25" height="26" viewBox="0 0 25 26" fill="none" xmlns="http://www.w3.org/2000/svg">
<path d="M22.3963 0.826172H2.60463C2.26255 0.82605 1.9238 0.893338 1.60774 1.02419C1.29167 1.15504 1.00449 1.34689 0.762607 1.58878C0.520721 1.83067 0.32887 2.11785 0.198018 2.43391C0.067166 2.74997 -0.000121507 3.08872 1.64712e-07 3.4308V23.2225C1.43087e-07 23.5645 0.0673778 23.9031 0.198284 24.2191C0.32919 24.535 0.52106 24.8221 0.762935 25.0639C1.00481 25.3057 1.29195 25.4974 1.60795 25.6282C1.92395 25.759 2.26263 25.8263 2.60463 25.8262H22.3963C23.0868 25.8262 23.7491 25.5519 24.2374 25.0636C24.7257 24.5753 25 23.913 25 23.2225V3.4308C25.0001 3.0888 24.9329 2.75013 24.8021 2.43412C24.6713 2.11812 24.4795 1.83098 24.2377 1.58911C23.9959 1.34723 23.7089 1.15536 23.3929 1.02446C23.0769 0.89355 22.7383 0.826172 22.3963 0.826172ZM15.625 20.6178H5.20833V17.4928H15.625V20.6178ZM19.7917 14.8891H5.20833V11.7641H19.7917V14.8891ZM19.7917 9.16043H5.20833V6.0345H19.7917V9.16043Z" fill="#999999"/>
</svg>
