<svg width="45" height="32" viewBox="0 0 45 32" fill="none" xmlns="http://www.w3.org/2000/svg">
<path fill-rule="evenodd" clip-rule="evenodd" d="M45 10.3174L22.4088 0L0 10.3174L22.4392 20.6347L39.1926 12.9773L23.625 11.204C23.4223 11.3787 22.877 11.728 22.3176 11.728C21.1622 11.728 20.7061 10.8816 20.7061 10.4383C20.7061 9.99496 21.1926 8.9874 22.4088 8.9874C23.3818 8.9874 23.8682 9.44416 23.9899 9.67254L42.0811 11.6877L45 10.3174ZM35.5763 16.3628L22.4715 22.4081L8.66749 16.0404C8.64722 19.4661 8.61884 26.4948 8.66749 27.2041C15.175 24.018 21.3152 31.0583 22.0748 31.9292C22.1031 31.9617 22.124 31.9856 22.1371 32.0001C28.0722 25.2615 33.5695 25.995 35.5763 27.2041V16.3628ZM40.1055 14.267L41.2913 13.7027V19.9899C41.5345 20.1108 42.021 20.5864 42.021 21.5214C42.021 22.4564 41.5345 22.9319 41.2913 23.0529L42.4467 29.0176H38.9805L40.1967 23.0529C39.923 22.9454 39.3757 22.4886 39.3757 21.5214C39.3757 20.5541 39.8825 20.0974 40.1359 19.9899L40.1055 14.267Z" fill="#99B6FF"/>
</svg>
