<svg width="164" height="132" viewBox="0 0 164 132" fill="none" xmlns="http://www.w3.org/2000/svg">
<path d="M46.506 118.28V120.782H47.982V118.28H46.506ZM39.882 120.242V121.448H54.588V120.242H39.882ZM41.664 122.78V123.914H51.24V125.39H41.7V128.414H43.176V126.488H52.716V122.78H41.664ZM41.7 128.072V129.224H53.202V128.072H41.7ZM46.272 114.158V114.662C46.272 116.426 43.572 117.74 40.656 117.992L41.16 119.126C44.562 118.802 47.586 117.164 47.586 114.662V114.158H46.272ZM46.92 114.158V114.662C46.92 117.164 49.944 118.784 53.328 119.126L53.832 117.992C50.916 117.74 48.216 116.408 48.216 114.662V114.158H46.92ZM41.232 113.654V114.86H53.274V113.654H41.232ZM64.6306 117.002V118.244H69.0046V117.002H64.6306ZM60.8866 113.87C58.4566 113.87 56.6926 115.418 56.6926 117.65C56.6926 119.882 58.4566 121.412 60.8866 121.412C63.3166 121.412 65.0806 119.882 65.0806 117.65C65.0806 115.418 63.3166 113.87 60.8866 113.87ZM60.8866 115.13C62.4886 115.13 63.6406 116.156 63.6406 117.65C63.6406 119.126 62.4886 120.17 60.8866 120.17C59.2846 120.17 58.1326 119.126 58.1326 117.65C58.1326 116.156 59.2846 115.13 60.8866 115.13ZM68.3386 113.132V121.862H69.8326V113.132H68.3386ZM59.4106 122.672V129.188H69.8326V122.672H68.3566V124.724H60.9046V122.672H59.4106ZM60.9046 125.912H68.3566V127.982H60.9046V125.912ZM89.308 113.15V125.03H90.82V113.15H89.308ZM80.362 127.82V129.044H91.306V127.82H80.362ZM80.362 123.806V128.234H81.838V123.806H80.362ZM82.09 114.266C79.66 114.266 77.842 115.922 77.842 118.28C77.842 120.62 79.66 122.294 82.09 122.294C84.52 122.294 86.32 120.62 86.32 118.28C86.32 115.922 84.52 114.266 82.09 114.266ZM82.09 115.562C83.674 115.562 84.88 116.678 84.88 118.28C84.88 119.864 83.674 120.98 82.09 120.98C80.506 120.98 79.3 119.864 79.3 118.28C79.3 116.678 80.506 115.562 82.09 115.562ZM94.0226 120.872V122.078H108.729V120.872H94.0226ZM101.367 123.482C97.8926 123.482 95.7866 124.562 95.7866 126.434C95.7866 128.306 97.8926 129.368 101.367 129.368C104.841 129.368 106.947 128.306 106.947 126.434C106.947 124.562 104.841 123.482 101.367 123.482ZM101.367 124.67C103.923 124.67 105.435 125.3 105.435 126.434C105.435 127.55 103.923 128.198 101.367 128.198C98.8286 128.198 97.2986 127.55 97.2986 126.434C97.2986 125.3 98.8286 124.67 101.367 124.67ZM100.413 114.608V115.094C100.413 116.93 97.7666 118.388 94.8506 118.712L95.3906 119.882C98.7566 119.486 101.745 117.704 101.745 115.094V114.608H100.413ZM101.043 114.608V115.094C101.043 117.704 104.013 119.486 107.379 119.882L107.919 118.712C105.003 118.388 102.357 116.93 102.357 115.094V114.608H101.043ZM95.3726 113.96V115.166H107.415V113.96H95.3726Z" fill="#E0E0E0"/>
<path d="M46.506 7.28V9.782H47.982V7.28H46.506ZM39.882 9.242V10.448H54.588V9.242H39.882ZM41.664 11.78V12.914H51.24V14.39H41.7V17.414H43.176V15.488H52.716V11.78H41.664ZM41.7 17.072V18.224H53.202V17.072H41.7ZM46.272 3.158V3.662C46.272 5.426 43.572 6.74 40.656 6.992L41.16 8.126C44.562 7.802 47.586 6.164 47.586 3.662V3.158H46.272ZM46.92 3.158V3.662C46.92 6.164 49.944 7.784 53.328 8.126L53.832 6.992C50.916 6.74 48.216 5.408 48.216 3.662V3.158H46.92ZM41.232 2.654V3.86H53.274V2.654H41.232ZM64.6306 6.002V7.244H69.0046V6.002H64.6306ZM60.8866 2.87C58.4566 2.87 56.6926 4.418 56.6926 6.65C56.6926 8.882 58.4566 10.412 60.8866 10.412C63.3166 10.412 65.0806 8.882 65.0806 6.65C65.0806 4.418 63.3166 2.87 60.8866 2.87ZM60.8866 4.13C62.4886 4.13 63.6406 5.156 63.6406 6.65C63.6406 8.126 62.4886 9.17 60.8866 9.17C59.2846 9.17 58.1326 8.126 58.1326 6.65C58.1326 5.156 59.2846 4.13 60.8866 4.13ZM68.3386 2.132V10.862H69.8326V2.132H68.3386ZM59.4106 11.672V18.188H69.8326V11.672H68.3566V13.724H60.9046V11.672H59.4106ZM60.9046 14.912H68.3566V16.982H60.9046V14.912ZM76.4192 3.14V5.318C76.4192 7.154 75.1412 9.26 72.9992 10.196L73.8092 11.366C76.2032 10.304 77.6072 7.748 77.6072 5.318V3.14H76.4192ZM76.6532 3.14V5.318C76.6532 7.712 78.0032 9.962 80.3432 10.898L81.1532 9.764C79.0652 8.954 77.8412 7.118 77.8412 5.318V3.14H76.6532ZM85.2932 2.15V12.176H86.7152V2.15H85.2932ZM82.7012 6.488V7.712H85.7792V6.488H82.7012ZM81.8012 2.456V11.654H83.2232V2.456H81.8012ZM81.3692 12.536C78.0032 12.536 75.9512 13.616 75.9512 15.47C75.9512 17.306 78.0032 18.368 81.3692 18.368C84.7172 18.368 86.8052 17.306 86.8052 15.47C86.8052 13.616 84.7172 12.536 81.3692 12.536ZM81.3692 13.706C83.8172 13.706 85.3112 14.354 85.3112 15.47C85.3112 16.568 83.8172 17.216 81.3692 17.216C78.9212 17.216 77.4092 16.568 77.4092 15.47C77.4092 14.354 78.9212 13.706 81.3692 13.706ZM105.867 2.15V14.03H107.379V2.15H105.867ZM96.9206 16.82V18.044H107.865V16.82H96.9206ZM96.9206 12.806V17.234H98.3966V12.806H96.9206ZM98.6486 3.266C96.2186 3.266 94.4006 4.922 94.4006 7.28C94.4006 9.62 96.2186 11.294 98.6486 11.294C101.079 11.294 102.879 9.62 102.879 7.28C102.879 4.922 101.079 3.266 98.6486 3.266ZM98.6486 4.562C100.233 4.562 101.439 5.678 101.439 7.28C101.439 8.864 100.233 9.98 98.6486 9.98C97.0646 9.98 95.8586 8.864 95.8586 7.28C95.8586 5.678 97.0646 4.562 98.6486 4.562ZM110.581 9.872V11.078H125.287V9.872H110.581ZM117.925 12.482C114.451 12.482 112.345 13.562 112.345 15.434C112.345 17.306 114.451 18.368 117.925 18.368C121.399 18.368 123.505 17.306 123.505 15.434C123.505 13.562 121.399 12.482 117.925 12.482ZM117.925 13.67C120.481 13.67 121.993 14.3 121.993 15.434C121.993 16.55 120.481 17.198 117.925 17.198C115.387 17.198 113.857 16.55 113.857 15.434C113.857 14.3 115.387 13.67 117.925 13.67ZM116.971 3.608V4.094C116.971 5.93 114.325 7.388 111.409 7.712L111.949 8.882C115.315 8.486 118.303 6.704 118.303 4.094V3.608H116.971ZM117.601 3.608V4.094C117.601 6.704 120.571 8.486 123.937 8.882L124.477 7.712C121.561 7.388 118.915 5.93 118.915 4.094V3.608H117.601ZM111.931 2.96V4.166H123.973V2.96H111.931ZM142.747 2.114V14.102H144.241V2.114H142.747ZM143.773 7.064V8.306H146.653V7.064H143.773ZM134.107 16.82V18.044H144.979V16.82H134.107ZM134.107 12.878V17.306H135.601V12.878H134.107ZM136.159 3.266C133.729 3.266 131.911 4.94 131.911 7.28C131.911 9.638 133.729 11.294 136.159 11.294C138.589 11.294 140.407 9.638 140.407 7.28C140.407 4.94 138.589 3.266 136.159 3.266ZM136.159 4.58C137.743 4.58 138.949 5.696 138.949 7.28C138.949 8.882 137.743 9.98 136.159 9.98C134.575 9.98 133.369 8.882 133.369 7.28C133.369 5.696 134.575 4.58 136.159 4.58ZM160.529 2.132V18.404H161.969V2.132H160.529ZM157.793 8.756V9.98H160.925V8.756H157.793ZM156.839 2.492V17.576H158.243V2.492H156.839ZM148.955 4.094V13.49H150.449V4.094H148.955ZM148.955 12.896V14.192H149.999C151.745 14.192 153.617 14.102 155.831 13.67L155.669 12.374C153.545 12.788 151.673 12.896 149.999 12.896H148.955Z" fill="#FFB500"/>
<path d="M11 22L11 127" stroke="#E0E0E0" stroke-width="2"/>
<path d="M11 17C13.7614 17 16 14.7614 16 12C16 9.23858 13.7614 7 11 7C8.23858 7 6 9.23858 6 12C6 14.7614 8.23858 17 11 17Z" fill="#FFB500"/>
<path d="M11 127C13.7614 127 16 124.761 16 122C16 119.239 13.7614 117 11 117C8.23858 117 6 119.239 6 122C6 124.761 8.23858 127 11 127Z" fill="#E0E0E0"/>
<circle cx="11" cy="12" r="10" stroke="#FFB500" stroke-width="2"/>
</svg>
