<svg width="37" height="36" viewBox="0 0 37 36" fill="none" xmlns="http://www.w3.org/2000/svg">
<g clip-path="url(#clip0_965_1435)">
<path d="M23.3238 21.0009H22.1428L21.7242 20.5959C23.5181 18.4959 24.4449 15.6309 23.9367 12.5859C23.2341 8.41594 19.7659 5.08594 15.5802 4.57594C9.25686 3.79594 3.93506 9.13594 4.7124 15.4809C5.22066 19.6809 8.53932 23.1609 12.6951 23.8659C15.7297 24.3759 18.585 23.4459 20.6778 21.6459L21.0814 22.0659V23.2509L27.4347 29.6259C28.0476 30.2409 29.0492 30.2409 29.6621 29.6259C30.275 29.0109 30.275 28.0059 29.6621 27.3909L23.3238 21.0009ZM14.3544 21.0009C10.6322 21.0009 7.62743 17.9859 7.62743 14.2509C7.62743 10.5159 10.6322 7.50094 14.3544 7.50094C18.0767 7.50094 21.0814 10.5159 21.0814 14.2509C21.0814 17.9859 18.0767 21.0009 14.3544 21.0009Z" fill="white"/>
</g>
<defs>
<clipPath id="clip0_965_1435">
<rect width="35.8773" height="36" fill="white" transform="translate(0.15332)"/>
</clipPath>
</defs>
</svg>
