<svg width="20" height="16" viewBox="0 0 20 16" fill="none" xmlns="http://www.w3.org/2000/svg">
<path d="M9.99992 2.99984C13.1583 2.99984 15.9749 4.77484 17.3499 7.58317C16.8583 8.59984 16.1666 9.47484 15.3416 10.1832L16.5166 11.3582C17.6749 10.3332 18.5916 9.04984 19.1666 7.58317C17.7249 3.92484 14.1666 1.33317 9.99992 1.33317C8.94159 1.33317 7.92492 1.49984 6.96659 1.80817L8.34159 3.18317C8.88325 3.07484 9.43325 2.99984 9.99992 2.99984ZM9.10825 3.94984L10.8333 5.67484C11.3083 5.88317 11.6916 6.2665 11.8999 6.7415L13.6249 8.4665C13.6916 8.18317 13.7416 7.88317 13.7416 7.57484C13.7499 5.50817 12.0666 3.83317 9.99992 3.83317C9.69159 3.83317 9.39992 3.87484 9.10825 3.94984ZM1.67492 1.22484L3.90825 3.45817C2.54992 4.52484 1.47492 5.9415 0.833252 7.58317C2.27492 11.2415 5.83325 13.8332 9.99992 13.8332C11.2666 13.8332 12.4833 13.5915 13.5999 13.1498L16.4499 15.9998L17.6249 14.8248L2.84992 0.0415039L1.67492 1.22484ZM7.92492 7.47484L10.0999 9.64984C10.0666 9.65817 10.0333 9.6665 9.99992 9.6665C8.84992 9.6665 7.91659 8.73317 7.91659 7.58317C7.91659 7.5415 7.92492 7.5165 7.92492 7.47484ZM5.09159 4.6415L6.54992 6.09984C6.35825 6.55817 6.24992 7.05817 6.24992 7.58317C6.24992 9.64984 7.93325 11.3332 9.99992 11.3332C10.5249 11.3332 11.0249 11.2248 11.4749 11.0332L12.2916 11.8498C11.5583 12.0498 10.7916 12.1665 9.99992 12.1665C6.84159 12.1665 4.02492 10.3915 2.64992 7.58317C3.23325 6.3915 4.08325 5.40817 5.09159 4.6415Z" fill="#999999"/>
</svg>
