<svg width="487" height="91" viewBox="0 0 487 91" fill="none" xmlns="http://www.w3.org/2000/svg">
<path d="M227.4 72.6C227.4 76.6 224.7 79.2 220.8 79.2C216.9 79.2 214.2 76.7 214.2 72.6V43.4L202.7 66.4C201.1 69.5 198.6 71.4 195.2 71.4C191.5 71.4 189.1 69.6 187.6 66.4L176.2 43.4V72.6C176.2 76.6 173.5 79.2 169.6 79.2C165.7 79.2 163 76.7 163 72.6V18.6C163 14.6 165.7 12 169.6 12C172.7 12 175 13.9 176.2 16.7L195.3 54L214.2 16.7C215.6 14 217.4 12 220.9 12C224.8 12 227.5 14.5 227.5 18.6L227.4 72.6Z" fill="black"/>
<path d="M305.1 45.5999C305.1 68.2999 290 79.8999 273.6 79.8999C257.1 79.8999 241.9 68.2999 241.9 45.5999C241.9 22.8999 257.1 11.4999 273.6 11.4999C290 11.3999 305.1 22.8999 305.1 45.5999ZM255.7 45.5999C255.7 59.1999 263.8 67.5999 273.5 67.5999C283 67.5999 291.2 59.2999 291.2 45.5999C291.2 31.9999 283.1 23.8 273.5 23.8C263.8 23.8 255.7 31.9999 255.7 45.5999Z" fill="black"/>
<path d="M340.1 25.3998V65.9998H343.9C347.2 65.9998 349.2 68.9997 349.2 72.0997C349.2 75.1997 347.3 78.1997 343.9 78.1997H322.2C318.9 78.1997 316.9 75.1997 316.9 72.0997C316.9 68.9997 318.8 65.9998 322.2 65.9998H326V25.3998H322.2C318.9 25.3998 316.9 22.3998 316.9 19.2998C316.9 16.1998 318.8 13.1997 322.2 13.1997H343.9C347.2 13.1997 349.2 16.1998 349.2 19.2998C349.2 22.3998 347.3 25.3998 343.9 25.3998H340.1Z" fill="black"/>
<path d="M381.5 65.7998H410.3C413.6 65.7998 415.9 68.8998 415.9 71.9998C415.9 75.1998 413.6 78.1997 410.3 78.1997H368.5C364.6 78.1997 362.1 75.1998 362.1 71.9998C362.1 69.3998 363.1 67.5998 364.5 65.8998L395.4 25.5997H368.5C365.2 25.5997 362.9 22.4998 362.9 19.3998C362.9 16.1998 365.2 13.1997 368.5 13.1997H408.6C412.4 13.1997 414.8 15.7998 414.8 19.4998C414.8 21.8998 413.7 24.0998 412.5 25.4998L381.5 65.7998Z" fill="black"/>
<path d="M468.8 65.9H443L439.6 74.7C438.1 78.5 434.2 80.1 430.2 78.7C426.5 77.5 424.7 73.5 426 70.5L448.5 17C449.8 13.8 452.6 12 456 12C459.7 12 462.3 13.8 463.6 17L485.9 70.5C487.1 73.6 485.4 77.3999 481.8 78.7C477.9 80.1 473.9 78.3999 472.4 74.7L468.8 65.9ZM447.8 53.7H463.9L455.9 33.4L447.8 53.7Z" fill="black"/>
<path d="M69.6999 18.1998C63.0999 7.79983 51.4999 0.899902 38.1999 0.899902C17.5999 0.899902 0.899902 17.5998 0.899902 38.1998C0.899902 58.7998 17.5999 75.4999 38.1999 75.4999C42.8999 75.4999 47.2999 74.5999 51.3999 73.0999C47.6999 67.2999 45.5999 60.4998 45.5999 53.1998C45.6999 37.0998 55.6999 23.5998 69.6999 18.1998Z" fill="#FFB500"/>
<path d="M82.9996 15.7998C78.2996 15.7998 73.8996 16.6997 69.7996 18.1997C73.4996 23.9997 75.5996 30.7997 75.5996 38.0997C75.5996 53.9997 65.5996 67.5998 51.5996 72.8998C58.1996 83.2998 69.7996 90.1997 83.0996 90.1997C103.7 90.1997 120.4 73.4998 120.4 52.8998C120.4 32.2998 103.5 15.7998 82.9996 15.7998Z" fill="#0048FF"/>
</svg>
