<svg width="89" height="21" viewBox="0 0 89 21" fill="none" xmlns="http://www.w3.org/2000/svg">
<path d="M9.35013 10.5096C9.35013 11.9794 9.7894 13.3687 10.5633 14.5164C13.4918 13.4492 15.5835 10.711 15.5835 7.50964C15.5835 6.03984 15.1443 4.65058 14.3703 3.50293C11.4419 4.57004 9.35013 7.28817 9.35013 10.5096Z" fill="white"/>
<path d="M9.35013 10.5101C9.35013 7.30872 11.4419 4.57047 14.3703 3.50336C12.9898 1.38926 10.5633 0 7.80223 0C3.49322 0 0 3.36242 0 7.51007C0 11.6577 3.49322 15.0201 7.80223 15.0201C8.78536 15.0201 9.70573 14.8389 10.5633 14.5369C9.7894 13.349 9.35013 11.9799 9.35013 10.5101Z" fill="#FFB500"/>
<path d="M17.1524 3C16.1692 3 15.2489 3.18121 14.3912 3.48322C15.1652 4.65101 15.6045 6.02013 15.6045 7.48993C15.6045 10.6913 13.5127 13.4295 10.5843 14.4966C11.9439 16.6107 14.3703 18 17.1524 18C21.4614 18 24.9546 14.6376 24.9546 10.4899C24.9337 6.36242 21.4614 3 17.1524 3Z" fill="#0048FF"/>
<path d="M36.2341 14.9601H41.0033V13.45C41.0033 12.6446 41.6309 12.2822 42.4676 12.2822C43.3043 12.2822 43.9318 12.6648 43.9318 13.45V14.9601H48.701C49.3913 14.9601 49.956 15.4835 49.956 16.1278C49.956 16.752 49.4122 17.2956 48.701 17.2956H36.2341C35.5648 17.2956 35 16.752 35 16.1278C35 15.5037 35.5648 14.9601 36.2341 14.9601ZM36.6943 11.8795C36.0668 11.8795 35.5648 11.3963 35.5648 10.7923V4.63119C35.5648 4.02717 36.0668 3.54395 36.6943 3.54395H48.2617C48.8892 3.54395 49.3913 4.02717 49.3913 4.63119V10.7923C49.3913 11.3963 48.8892 11.8795 48.2617 11.8795H36.6943ZM38.4723 9.56408H46.5046V5.87952H38.4723V9.56408Z" fill="white"/>
<path d="M54.014 6.96644C54.014 4.81208 56.0221 3.40268 58.4276 3.40268C60.8331 3.40268 62.8621 4.81208 62.8621 6.96644V13.7517C62.8621 15.906 60.8331 17.2953 58.4276 17.2953C56.0221 17.2953 54.014 15.906 54.014 13.7517V6.96644ZM56.9216 13.6107C56.9216 14.4765 57.6328 15 58.4695 15C59.3062 15 59.9964 14.4765 59.9964 13.6107V7.12752C59.9964 6.26174 59.3062 5.71812 58.4695 5.71812C57.6328 5.71812 56.9216 6.26174 56.9216 7.12752V13.6107ZM65.2049 4.4094C65.2049 3.60403 65.8533 3 66.6691 3C67.4849 3 68.1334 3.60403 68.1334 4.4094V16.4497C68.1334 17.255 67.4849 17.8591 66.6691 17.8591C65.8533 17.8591 65.2049 17.255 65.2049 16.4497V4.4094Z" fill="white"/>
<path d="M72.8816 14.8591C74.9525 13.0671 75.9774 10.6913 75.9774 6.58389V5.9396H73.7602C73.1117 5.9396 72.5679 5.41611 72.5679 4.79195C72.5679 4.12752 73.1117 3.62416 73.7602 3.62416H81.1022C81.8134 3.62416 82.3154 4.14765 82.3154 4.79195C82.3154 5.41611 81.8134 5.9396 81.1022 5.9396H78.9059V6.58389C78.9059 10.6913 79.889 13.0067 81.9807 14.7987C82.2736 15.0403 82.4828 15.4027 82.4828 15.8456C82.4828 16.5906 81.918 17.1342 81.1022 17.1342C80.7257 17.1342 80.3492 17.0336 80.1191 16.8121C78.9059 15.7248 78.0064 14.557 77.4416 12.9262C76.8769 14.5973 75.9983 15.7852 74.7851 16.8926C74.555 17.094 74.1576 17.2148 73.802 17.2148C72.9862 17.2148 72.4214 16.6711 72.4214 15.9262C72.4005 15.4832 72.5888 15.1208 72.8816 14.8591ZM83.445 4.4094C83.445 3.60403 84.0934 3 84.9092 3C85.725 3 86.3734 3.60403 86.3734 4.4094V8.71812H87.1683C87.8376 8.71812 88.3815 9.24161 88.3815 9.8859C88.3815 10.5302 87.8376 11.0537 87.1683 11.0537H86.3734V16.4295C86.3734 17.2349 85.725 17.8389 84.9092 17.8389C84.0934 17.8389 83.445 17.2349 83.445 16.4295V4.4094Z" fill="white"/>
</svg>
