<svg width="422" height="90" viewBox="0 0 422 90" fill="none" xmlns="http://www.w3.org/2000/svg">
<path d="M69.1999 17.3C62.5999 6.90005 50.9999 0 37.6999 0C17.0999 0 0.399902 16.7 0.399902 37.3C0.399902 57.9 17.0999 74.6 37.6999 74.6C42.3999 74.6 46.7999 73.7 50.8999 72.2C47.1999 66.3999 45.0999 59.6 45.0999 52.3C45.1999 36.2001 55.1999 22.6 69.1999 17.3Z" fill="#FFB500"/>
<path d="M82.5001 14.8C77.8001 14.8 73.4001 15.7 69.3001 17.2C73.0001 23 75.1001 29.8 75.1001 37.1C75.1001 53 65.1001 66.6 51.1001 71.9C57.7001 82.3 69.3001 89.2 82.6001 89.2C103.2 89.2 119.9 72.5 119.9 51.9C119.7 31.5 103 14.8 82.5001 14.8Z" fill="#0048FF"/>
<path d="M171.9 67.0999H194.7V59.5999C194.7 55.5999 197.7 53.7999 201.7 53.7999C205.7 53.7999 208.7 55.6999 208.7 59.5999V67.0999H231.5C234.8 67.0999 237.5 69.6999 237.5 72.8999C237.5 75.9999 234.9 78.6998 231.5 78.6998H171.9C168.7 78.6998 166 75.9999 166 72.8999C166 69.7999 168.7 67.0999 171.9 67.0999ZM174.1 51.7999C171.1 51.7999 168.7 49.3999 168.7 46.3999V15.7999C168.7 12.7999 171.1 10.3999 174.1 10.3999H229.4C232.4 10.3999 234.8 12.7999 234.8 15.7999V46.3999C234.8 49.3999 232.4 51.7999 229.4 51.7999H174.1ZM182.5 40.2999H220.9V21.9999H182.5V40.2999Z" fill="black"/>
<path d="M256.9 27.4C256.9 16.7 266.5 9.69995 278 9.69995C289.5 9.69995 299.2 16.7 299.2 27.4V61.1C299.2 71.8 289.5 78.7 278 78.7C266.5 78.7 256.9 71.8 256.9 61.1V27.4ZM270.8 60.4C270.8 64.7 274.2 67.3 278.2 67.3C282.2 67.3 285.5 64.7 285.5 60.4V28.2C285.5 23.9 282.2 21.2 278.2 21.2C274.2 21.2 270.8 23.9 270.8 28.2V60.4ZM310.4 14.8C310.4 10.8 313.5 7.80005 317.4 7.80005C321.3 7.80005 324.4 10.8 324.4 14.8V74.6C324.4 78.6 321.3 81.6 317.4 81.6C313.5 81.6 310.4 78.6 310.4 74.6V14.8Z" fill="black"/>
<path d="M347.1 66.7C357 57.7999 361.9 46 361.9 25.6V22.4H351.3C348.2 22.4 345.6 19.8 345.6 16.7C345.6 13.4 348.2 10.9 351.3 10.9H386.4C389.8 10.9 392.2 13.5 392.2 16.7C392.2 19.8 389.8 22.4 386.4 22.4H375.9V25.6C375.9 46 380.6 57.5 390.6 66.4C392 67.6 393 69.4 393 71.6C393 75.3 390.3 78 386.4 78C384.6 78 382.8 77.5 381.7 76.4C375.9 71 371.6 65.2 368.9 57.1C366.2 65.4 362 71.3 356.2 76.8C355.1 77.8 353.2 78.4 351.5 78.4C347.6 78.4 344.9 75.7 344.9 72C344.7 69.7 345.7 67.9 347.1 66.7ZM397.6 14.8C397.6 10.8 400.7 7.80005 404.6 7.80005C408.5 7.80005 411.6 10.8 411.6 14.8V36.2H415.4C418.6 36.2 421.2 38.8 421.2 42C421.2 45.2 418.6 47.8 415.4 47.8H411.6V74.5C411.6 78.5 408.5 81.5 404.6 81.5C400.7 81.5 397.6 78.5 397.6 74.5V14.8Z" fill="black"/>
</svg>
