<svg width="102" height="102" viewBox="0 0 102 102" fill="none" xmlns="http://www.w3.org/2000/svg">
<path d="M70.1236 19.1221C70.1236 15.3401 69.002 11.6431 66.9007 8.49845C64.7993 5.35383 61.8127 2.9029 58.3183 1.45559C54.8239 0.00828533 50.9788 -0.370396 47.2692 0.367435C43.5596 1.10527 40.1521 2.92647 37.4776 5.60075C34.8031 8.27503 32.9818 11.6823 32.2439 15.3916C31.506 19.1009 31.8847 22.9457 33.3321 26.4399C34.7795 29.934 37.2307 32.9204 40.3755 35.0216C43.5204 37.1228 47.2177 38.2443 51 38.2443C56.0719 38.2443 60.936 36.2296 64.5224 32.6435C68.1088 29.0574 70.1236 24.1936 70.1236 19.1221ZM46.5333 48.0262C34.7286 40.7916 15.5707 38.804 5.93661 38.2557C5.18748 38.1974 4.43436 38.2929 3.72352 38.5364C3.01269 38.7799 2.35917 39.1662 1.80314 39.6716C1.24711 40.1769 0.800315 40.7906 0.490229 41.475C0.180143 42.1594 0.0133149 42.8999 0 43.6511L0 88.0334C0.0224592 89.4364 0.582381 90.7773 1.56434 91.7797C2.54631 92.7822 3.87547 93.3697 5.27783 93.4212C13.9752 93.8781 31.5718 95.5497 43.7382 101.672C44.1546 101.895 44.621 102.008 45.0932 102C45.5653 101.991 46.0276 101.863 46.4361 101.626C46.8446 101.389 47.1858 101.052 47.4274 100.646C47.669 100.241 47.8029 99.7798 47.8165 99.3079V50.3108C47.8179 49.8521 47.7009 49.4008 47.4767 49.0005C47.2526 48.6003 46.9289 48.2647 46.5371 48.0262H46.5333ZM96.0596 38.2557C86.4293 38.8002 67.2828 40.7916 55.4629 48.0262C55.0696 48.2703 54.7458 48.6115 54.5224 49.0169C54.299 49.4223 54.1836 49.8784 54.1873 50.3412V99.3041C54.2039 99.7743 54.3396 100.233 54.5817 100.636C54.8239 101.04 55.1645 101.375 55.5717 101.611C55.9789 101.847 56.4393 101.976 56.9098 101.985C57.3803 101.994 57.8455 101.884 58.2618 101.665C70.4206 95.5459 88.0096 93.8743 96.7222 93.4174C98.1249 93.365 99.454 92.7766 100.436 91.7736C101.418 90.7705 101.978 89.4291 102 88.0257V43.6511C101.986 42.8998 101.819 42.1591 101.508 41.4747C101.198 40.7904 100.751 40.1767 100.194 39.6714C99.6381 39.1661 98.9843 38.7799 98.2733 38.5364C97.5622 38.293 96.8089 38.1974 96.0596 38.2557Z" fill="#FFB500"/>
</svg>
