<svg width="13" height="14" viewBox="0 0 13 14" fill="none" xmlns="http://www.w3.org/2000/svg">
<g clip-path="url(#clip0_1934_547)">
<path d="M4.87474 2.125H8.12474L9.20808 3.20833H12.4581C12.6017 3.20833 12.7395 3.2654 12.8411 3.36698C12.9427 3.46857 12.9997 3.60634 12.9997 3.75V11.3333C12.9997 11.477 12.9427 11.6148 12.8411 11.7164C12.7395 11.8179 12.6017 11.875 12.4581 11.875H0.541667C0.398008 11.875 0.260233 11.8179 0.15865 11.7164C0.0570683 11.6148 0 11.477 0 11.3333V3.75C0 3.60634 0.0570683 3.46857 0.15865 3.36698C0.260233 3.2654 0.398008 3.20833 0.541667 3.20833H3.79141L4.87474 2.125ZM6.49974 10.7917C7.3617 10.7917 8.18835 10.4493 8.79784 9.83976C9.40733 9.23027 9.74974 8.40362 9.74974 7.54167C9.74974 6.67971 9.40733 5.85306 8.79784 5.24357C8.18835 4.63408 7.3617 4.29167 6.49974 4.29167C5.63779 4.29167 4.81114 4.63408 4.20165 5.24357C3.59215 5.85306 3.24974 6.67971 3.24974 7.54167C3.24974 8.40362 3.59215 9.23027 4.20165 9.83976C4.81114 10.4493 5.63779 10.7917 6.49974 10.7917ZM6.49974 9.70833C5.92511 9.70833 5.37401 9.48006 4.96768 9.07373C4.56135 8.6674 4.33308 8.1163 4.33308 7.54167C4.33308 6.96703 4.56135 6.41593 4.96768 6.0096C5.37401 5.60327 5.92511 5.375 6.49974 5.375C7.07438 5.375 7.62548 5.60327 8.03181 6.0096C8.43814 6.41593 8.66641 6.96703 8.66641 7.54167C8.66641 8.1163 8.43814 8.6674 8.03181 9.07373C7.62548 9.48006 7.07438 9.70833 6.49974 9.70833Z" fill="white"/>
</g>
<defs>
<clipPath id="clip0_1934_547">
<rect width="13" height="13" fill="white" transform="translate(0 0.5)"/>
</clipPath>
</defs>
</svg>
