<svg width="100" height="100" viewBox="0 0 100 100" fill="none" xmlns="http://www.w3.org/2000/svg">
<path d="M100 50C100 59.889 97.0676 69.556 91.5735 77.7785C86.0794 86.0009 78.2705 92.4096 69.1342 96.1939C59.9979 99.9783 49.9445 100.968 40.2455 99.0392C30.5464 97.11 21.6373 92.3479 14.6447 85.3553C7.65206 78.3627 2.89002 69.4535 0.960758 59.7545C-0.968502 50.0555 0.0216641 40.0021 3.80604 30.8658C7.59043 21.7295 13.999 13.9206 22.2215 8.42652C30.444 2.93245 40.1109 5.62989e-08 50 5.62989e-08C56.5662 -0.000311533 63.0681 1.29276 69.1345 3.80539C75.201 6.31801 80.713 10.001 85.356 14.644C89.999 19.287 93.682 24.799 96.1946 30.8654C98.7072 36.9319 100 43.4338 100 50ZM51.3413 16.5317C40.3541 16.5317 33.3465 21.1605 27.8431 29.386C27.4991 29.8991 27.3642 30.5243 27.4659 31.1337C27.5676 31.743 27.8983 32.2904 28.3903 32.664L35.3861 37.9682C35.8906 38.3511 36.5253 38.5208 37.1537 38.4408C37.782 38.3608 38.3539 38.0375 38.7464 37.5403C42.3479 32.9724 44.8176 30.3231 50.2997 30.3231C54.4184 30.3231 59.513 32.974 59.513 36.9662C59.513 39.9856 57.0203 41.5364 52.9538 43.8164C48.2088 46.4752 41.935 49.7841 41.935 58.0626V58.8677C41.935 59.5093 42.1899 60.1246 42.6436 60.5783C43.0973 61.032 43.7126 61.2868 44.3542 61.2868H55.645C56.2866 61.2868 56.902 61.032 57.3556 60.5783C57.8093 60.1246 58.0642 59.5093 58.0642 58.8677V58.5988C58.0642 52.8605 74.8355 52.6216 74.8355 37.0935C74.8363 25.4025 62.7056 16.5317 51.3413 16.5317ZM49.9968 66.5317C48.1628 66.5323 46.37 67.0767 44.8453 68.0961C43.3206 69.1155 42.1324 70.5641 41.431 72.2588C40.7295 73.9534 40.5462 75.818 40.9044 77.6168C41.2625 79.4156 42.146 81.0678 43.443 82.3645C44.7401 83.6612 46.3925 84.5443 48.1914 84.9019C49.9903 85.2596 51.8548 85.0759 53.5493 84.374C55.2437 83.6721 56.692 82.4835 57.711 80.9585C58.73 79.4336 59.274 77.6407 59.2742 75.8066C59.2715 73.3478 58.2935 70.9905 56.5548 69.2518C54.8162 67.5132 52.4588 66.5352 50 66.5325L49.9968 66.5317Z" fill="#FFB500"/>
</svg>
