<svg width="26" height="26" viewBox="0 0 26 26" fill="none" xmlns="http://www.w3.org/2000/svg">
<path d="M19.0646 16.7672H17.8598L17.4328 16.3556C19.2629 14.2217 20.2085 11.3105 19.6899 8.21639C18.9731 3.97912 15.4349 0.595392 11.1646 0.0771635C4.7135 -0.715421 -0.71584 4.71073 0.0772088 11.1581C0.595741 15.4259 3.98145 18.962 8.22121 19.6784C11.3172 20.1966 14.2301 19.2516 16.3652 17.4226L16.777 17.8493V19.0535L23.2586 25.5313C23.8839 26.1562 24.9057 26.1562 25.531 25.5313C26.1563 24.9064 26.1563 23.8852 25.531 23.2603L19.0646 16.7672ZM9.91407 16.7672C6.11658 16.7672 3.05114 13.7035 3.05114 9.90826C3.05114 6.113 6.11658 3.04935 9.91407 3.04935C13.7116 3.04935 16.777 6.113 16.777 9.90826C16.777 13.7035 13.7116 16.7672 9.91407 16.7672Z" fill="#FFB500"/>
</svg>
