<svg id="Layer_1" data-name="Layer 1" xmlns="http://www.w3.org/2000/svg" viewBox="0 0 242.86 242.86"><defs><style>.cls-1{fill:#ffb500;}</style></defs><title>Artboard 2</title><path class="cls-1" d="M166.94,45.58a45.51,45.51,0,1,0-13.33,32.17A45.49,45.49,0,0,0,166.94,45.58Zm-56.13,68.77C82.73,97.14,37.16,92.41,14.24,91.1A13.08,13.08,0,0,0,9,91.77a13.08,13.08,0,0,0-7.69,7,13.05,13.05,0,0,0-1.17,5.18V209.52a13,13,0,0,0,12.56,12.82c20.69,1.09,62.55,5.07,91.5,19.63a6.57,6.57,0,0,0,6.41-.11,6.61,6.61,0,0,0,3.29-5.51V119.78a6.45,6.45,0,0,0-.81-3.12,6.21,6.21,0,0,0-2.24-2.31ZM228.64,91.1c-22.91,1.3-68.46,6-96.58,23.25a6.39,6.39,0,0,0-2.24,2.35,6.55,6.55,0,0,0-.8,3.15V236.34a6.69,6.69,0,0,0,.94,3.17,6.61,6.61,0,0,0,2.36,2.31,6.62,6.62,0,0,0,6.4.13c28.92-14.55,70.77-18.53,91.49-19.62a13,13,0,0,0,12.56-12.82V103.94A13.13,13.13,0,0,0,228.64,91.1Z"/></svg>