<svg id="Layer_1" data-name="Layer 1" xmlns="http://www.w3.org/2000/svg" viewBox="0 0 242.86 227.63"><defs><style>.cls-1{fill:#999;}</style></defs><title>Artboard 3 copy</title><path class="cls-1" d="M218.46,16.52A61.44,61.44,0,0,0,173.3,1.36a62.78,62.78,0,0,0-42.63,22.08L121.4,33.67l-9.3-10.23A62.81,62.81,0,0,0,69.48,1.37,61.47,61.47,0,0,0,24.32,16.52,71.61,71.61,0,0,0,7.75,39.61a77.36,77.36,0,0,0-2.53,57.1A73.33,73.33,0,0,0,19.69,121.4l91.07,100.8a14.73,14.73,0,0,0,4.87,3.63,13.76,13.76,0,0,0,11.59,0,14.73,14.73,0,0,0,4.87-3.63l91.07-100.8a73.05,73.05,0,0,0,14.48-24.68,77.19,77.19,0,0,0-2.5-57.11,71.79,71.79,0,0,0-16.58-23.09Z"/></svg>