<svg id="Layer_1" data-name="Layer 1" xmlns="http://www.w3.org/2000/svg" viewBox="0 0 242.86 242.86"><defs><style>.cls-1{fill:#ffb500;}</style></defs><title>Artboard 1</title><path class="cls-1" d="M242.72,121.66a121,121,0,1,1-35.46-85.59A121.06,121.06,0,0,1,242.72,121.66Zm-117.8-81A63.25,63.25,0,0,0,68,71.76a5.86,5.86,0,0,0,1.33,7.93l17,12.85a5.85,5.85,0,0,0,8.14-1c8.71-11.06,14.7-17.47,28-17.47,10,0,22.3,6.42,22.3,16.08,0,7.31-6,11.07-15.88,16.59-11.48,6.44-26.68,14.45-26.68,34.48v2A5.86,5.86,0,0,0,108,149h27.34a5.87,5.87,0,0,0,5.86-5.86v-.65c0-13.89,40.6-14.47,40.6-52.06C181.8,62.11,152.43,40.64,124.92,40.64Zm-3.25,121a22.5,22.5,0,1,0,15.88,6.59A22.42,22.42,0,0,0,121.67,161.67Z"/></svg>